<svg xmlns="http://www.w3.org/2000/svg" viewBox="0 0 512.81 497.77"><g id="Layer_2" data-name="Layer 2"><g id="Layer_1-2" data-name="Layer 1"><path d="M512.81,226.67c-2.72,71.07-24.34,130-66.86,180.9-39.76,47.58-90.86,76.3-151.74,86.16C210.74,507.25,136,487.07,73,429.73c-36.82-33.52-60.86-75-69.6-124.64C-1.08,279.44-.92,253.75,2.61,228A334,334,0,0,1,36.55,119.44C55.14,83.37,80,52.73,115.28,31.69c26.81-16,56-24.94,86.94-29.09a287.21,287.21,0,0,1,116.25,8.11c52.67,14.62,98.31,41.42,136.11,81,26.22,27.48,45.69,59,53.19,96.73C510.59,202.61,511.59,217.12,512.81,226.67Z" style="fill:#00ac62"/><text transform="translate(113.68 119.07)" style="font-size:60px;font-family:CooperBlack, Cooper Black"><tspan style="letter-spacing:-0.07666015625em">W</tspan><tspan x="57.77" y="0" style="letter-spacing:-0.04248046875em">A</tspan><tspan x="104.82" y="0" style="letter-spacing:-0.00634765625em">T</tspan><tspan x="146.48" y="0" style="letter-spacing:0.009765625em">C</tspan><tspan x="190.25" y="0">H</tspan><tspan x="0" y="72" xml:space="preserve" style="letter-spacing:0.35em">		</tspan><tspan x="72" y="72" style="letter-spacing:-0.0517578125em">Y</tspan><tspan x="115.68" y="72">OUR</tspan><tspan x="0" y="144" xml:space="preserve" style="letter-spacing:0.35em">				</tspan><tspan x="144" y="144" style="letter-spacing:0.005859375em">S</tspan><tspan x="183.05" y="144">TEP</tspan></text><path d="M130.52,336.07v20.64H128V336.07Zm-1.12,0h10.41v2.35H129.4Zm0,8.25h9.82v2.36H129.4Zm0,10h10.41v2.36H129.4Z"/><path d="M146.45,356.71h-2.36V343.14h2.36Zm3.24-11.49a2.49,2.49,0,0,0-1-.16,2.05,2.05,0,0,0-1.39.44,2.38,2.38,0,0,0-.69,1.21,7.08,7.08,0,0,0-.19,1.74h-1.07a6.84,6.84,0,0,1,.58-2.87,5.29,5.29,0,0,1,1.49-2,2.91,2.91,0,0,1,1.86-.74,4.68,4.68,0,0,1,1.37.19,2.7,2.7,0,0,1,1.16.75l-1.3,1.95A4.14,4.14,0,0,0,149.69,345.22Z"/><path d="M155.53,343.14l3.83,9.59,3.83-9.59h2.66l-6.49,14.6-6.49-14.6Z"/><path d="M169.49,353.85a2.26,2.26,0,0,0,1,.84A4,4,0,0,0,172,355a4.19,4.19,0,0,0,2-.45,3.49,3.49,0,0,0,1.39-1.25,3.43,3.43,0,0,0,.51-1.87l.47,1.77a3.07,3.07,0,0,1-.78,2.15,4.79,4.79,0,0,1-1.92,1.27,6.61,6.61,0,0,1-2.25.41,5.28,5.28,0,0,1-2.31-.51,4.32,4.32,0,0,1-1.73-1.49,4.19,4.19,0,0,1-.65-2.36,4.05,4.05,0,0,1,.64-2.3,4.16,4.16,0,0,1,1.82-1.52,6.9,6.9,0,0,1,2.85-.55,7.84,7.84,0,0,1,2.46.34,6.12,6.12,0,0,1,1.58.77,3.72,3.72,0,0,1,.79.69v1.39a7.25,7.25,0,0,0-2.12-1,8.36,8.36,0,0,0-2.33-.31,4.94,4.94,0,0,0-1.87.3,2.09,2.09,0,0,0-1.43,2.09A2.35,2.35,0,0,0,169.49,353.85Zm-1.87-9.32a10.48,10.48,0,0,1,2.1-1.12,8.45,8.45,0,0,1,3.23-.56,7.48,7.48,0,0,1,2.79.48,4.26,4.26,0,0,1,1.86,1.41,3.69,3.69,0,0,1,.66,2.24v9.73H175.9V347.3a2.6,2.6,0,0,0-.23-1.16,1.82,1.82,0,0,0-.67-.73,3.14,3.14,0,0,0-1-.38,5.55,5.55,0,0,0-1.18-.12,6.39,6.39,0,0,0-1.81.24,6.09,6.09,0,0,0-1.37.56,8.19,8.19,0,0,0-.88.56Z"/><path d="M183.67,353.85a2.32,2.32,0,0,0,1,.84,4,4,0,0,0,1.52.28,4.19,4.19,0,0,0,2-.45,3.49,3.49,0,0,0,1.39-1.25,3.43,3.43,0,0,0,.51-1.87l.48,1.77a3.08,3.08,0,0,1-.79,2.15,4.82,4.82,0,0,1-1.91,1.27,6.71,6.71,0,0,1-2.26.41,5.31,5.31,0,0,1-2.31-.51,4.32,4.32,0,0,1-1.73-1.49,4.19,4.19,0,0,1-.65-2.36,4,4,0,0,1,2.47-3.82,6.82,6.82,0,0,1,2.84-.55,7.84,7.84,0,0,1,2.46.34,6,6,0,0,1,1.58.77,4.13,4.13,0,0,1,.8.69v1.39a7.43,7.43,0,0,0-2.13-1,8.31,8.31,0,0,0-2.33-.31,4.94,4.94,0,0,0-1.87.3,2.12,2.12,0,0,0-1.43,2.09A2.35,2.35,0,0,0,183.67,353.85Zm-1.87-9.32a10.32,10.32,0,0,1,2.11-1.12,8.4,8.4,0,0,1,3.22-.56,7.41,7.41,0,0,1,2.79.48,4.2,4.2,0,0,1,1.86,1.41,3.69,3.69,0,0,1,.66,2.24v9.73h-2.36V347.3a2.6,2.6,0,0,0-.23-1.16,1.82,1.82,0,0,0-.67-.73,3.18,3.18,0,0,0-1-.38,5.69,5.69,0,0,0-1.18-.12,6.42,6.42,0,0,0-1.82.24,6.29,6.29,0,0,0-1.37.56,8.19,8.19,0,0,0-.88.56Z"/><path d="M198.78,356.71h-2.36V343.14h2.36ZM202,345.22a2.46,2.46,0,0,0-1-.16,2,2,0,0,0-1.38.44,2.32,2.32,0,0,0-.7,1.21,7.08,7.08,0,0,0-.19,1.74h-1.06a6.84,6.84,0,0,1,.57-2.87,5.4,5.4,0,0,1,1.49-2,2.91,2.91,0,0,1,1.86-.74A4.63,4.63,0,0,1,203,343a2.79,2.79,0,0,1,1.17.75l-1.3,1.95A4.18,4.18,0,0,0,202,345.22Z"/><path d="M217.74,356.71h-2.36v-23h2.36Zm6-10.13a2.39,2.39,0,0,0-.95-1.14,3.14,3.14,0,0,0-1.61-.38,3.65,3.65,0,0,0-1.81.44,3.06,3.06,0,0,0-1.21,1.21,3.45,3.45,0,0,0-.43,1.74H217a6.41,6.41,0,0,1,.62-2.87,5,5,0,0,1,1.7-2,4.21,4.21,0,0,1,2.49-.74,5,5,0,0,1,2.46.59,3.88,3.88,0,0,1,1.62,1.77,6.6,6.6,0,0,1,.58,3v8.55h-2.36v-8.26A4.64,4.64,0,0,0,223.75,346.58Z"/><path d="M230.61,346.27a6.82,6.82,0,0,1,2.52-2.51,7.48,7.48,0,0,1,7.15,0,6.87,6.87,0,0,1,2.51,2.51,7.63,7.63,0,0,1,0,7.3,6.82,6.82,0,0,1-2.51,2.52,7.48,7.48,0,0,1-7.15,0,6.77,6.77,0,0,1-2.52-2.52,7.63,7.63,0,0,1,0-7.3Zm2.06,6.16a4.73,4.73,0,0,0,1.65,1.73,4.58,4.58,0,0,0,6.4-1.73,5,5,0,0,0,.61-2.51,5.11,5.11,0,0,0-.61-2.52,4.41,4.41,0,0,0-1.65-1.72,4.86,4.86,0,0,0-4.75,0,4.55,4.55,0,0,0-1.65,1.72,5.21,5.21,0,0,0-.6,2.52A5.12,5.12,0,0,0,232.67,352.43Z"/><path d="M248.86,356.1a6.15,6.15,0,0,1-2.27-2.49,8.77,8.77,0,0,1-.32-6.57,6.39,6.39,0,0,1,1.37-2.23,6.2,6.2,0,0,1,2.12-1.45,7.11,7.11,0,0,1,2.74-.51,6.69,6.69,0,0,1,3.44.84,5.55,5.55,0,0,1,2.19,2.4,8.37,8.37,0,0,1,.77,3.72c0,.13,0,.28,0,.42s0,.24,0,.28H247.28v-2H257l-.94,1.36a2,2,0,0,0,.18-.46,1.88,1.88,0,0,0,.08-.52,4.33,4.33,0,0,0-.48-2.09,3.65,3.65,0,0,0-1.34-1.39,3.94,3.94,0,0,0-2-.5,4.75,4.75,0,0,0-1.81.33,3.57,3.57,0,0,0-1.37.94,4.07,4.07,0,0,0-.86,1.53,7,7,0,0,0-.29,2.07,6.53,6.53,0,0,0,.5,2.71,3.64,3.64,0,0,0,1.47,1.71,4.52,4.52,0,0,0,2.36.59,4.89,4.89,0,0,0,2.45-.6,5,5,0,0,0,1.8-1.85l1.91,1.21a7.06,7.06,0,0,1-2.66,2.58,7.88,7.88,0,0,1-3.79.87A6.24,6.24,0,0,1,248.86,356.1Z"/><path d="M272.66,352.43a4.57,4.57,0,0,0,1.65,1.73,4.47,4.47,0,0,0,2.37.63,6,6,0,0,0,2.05-.34,5.64,5.64,0,0,0,1.66-.91,3.44,3.44,0,0,0,1-1.23v2.95a4.54,4.54,0,0,1-2,1.28,8.06,8.06,0,0,1-2.7.46,7,7,0,0,1-3.57-.91,6.77,6.77,0,0,1-2.52-2.52,7.63,7.63,0,0,1,0-7.3,6.82,6.82,0,0,1,2.52-2.51,7,7,0,0,1,3.57-.91,8.31,8.31,0,0,1,2.7.45,4.65,4.65,0,0,1,2,1.29v3a3.16,3.16,0,0,0-1-1.24,5.62,5.62,0,0,0-1.66-.9,6,6,0,0,0-2.05-.34,4.55,4.55,0,0,0-2.37.62,4.41,4.41,0,0,0-1.65,1.72,5.11,5.11,0,0,0-.61,2.52A5,5,0,0,0,272.66,352.43Z"/><path d="M286.51,353.85a2.32,2.32,0,0,0,1,.84,4,4,0,0,0,1.52.28,4.19,4.19,0,0,0,2-.45,3.4,3.4,0,0,0,1.91-3.12l.47,1.77a3.07,3.07,0,0,1-.78,2.15,4.86,4.86,0,0,1-1.92,1.27,6.71,6.71,0,0,1-2.26.41,5.34,5.34,0,0,1-2.31-.51A4.39,4.39,0,0,1,284.4,355a4.19,4.19,0,0,1-.64-2.36,4,4,0,0,1,2.46-3.82,6.82,6.82,0,0,1,2.84-.55,7.87,7.87,0,0,1,2.47.34,6,6,0,0,1,1.57.77,3.84,3.84,0,0,1,.8.69v1.39a7.5,7.5,0,0,0-2.12-1,8.41,8.41,0,0,0-2.33-.31,5,5,0,0,0-1.88.3,2.12,2.12,0,0,0-1.43,2.09A2.44,2.44,0,0,0,286.51,353.85Zm-1.87-9.32a10.32,10.32,0,0,1,2.11-1.12,8.42,8.42,0,0,1,3.23-.56,7.39,7.39,0,0,1,2.78.48,4.2,4.2,0,0,1,1.86,1.41,3.69,3.69,0,0,1,.66,2.24v9.73h-2.35V347.3a2.47,2.47,0,0,0-.24-1.16,1.87,1.87,0,0,0-.66-.73,3.34,3.34,0,0,0-1-.38,5.62,5.62,0,0,0-1.18-.12,6.35,6.35,0,0,0-1.81.24,6.18,6.18,0,0,0-1.38.56,9.35,9.35,0,0,0-.88.56Z"/><path d="M317.84,356.71h-2.36v-8.26a5.45,5.45,0,0,0-.28-1.92,2.18,2.18,0,0,0-.85-1.1,2.64,2.64,0,0,0-1.46-.37,3.32,3.32,0,0,0-1.68.4,2.56,2.56,0,0,0-1.09,1.16,4,4,0,0,0-.39,1.83v8.26h-2.36v-8.26a5.45,5.45,0,0,0-.28-1.92,2.13,2.13,0,0,0-.85-1.1,2.64,2.64,0,0,0-1.46-.37,3.32,3.32,0,0,0-1.68.4,2.61,2.61,0,0,0-1.09,1.16,4,4,0,0,0-.39,1.83v8.26h-2.36V343.14h2.36v2a4.92,4.92,0,0,1,1-1.27,3.79,3.79,0,0,1,1.25-.75,4.56,4.56,0,0,1,1.54-.25,4.87,4.87,0,0,1,1.71.29,4,4,0,0,1,1.34.86,3.62,3.62,0,0,1,.87,1.38,5,5,0,0,1,1.77-1.9,4.65,4.65,0,0,1,2.42-.63,4.26,4.26,0,0,1,2.36.62,3.89,3.89,0,0,1,1.48,1.81,7.16,7.16,0,0,1,.52,2.88Z"/><path d="M324.17,356.1a6.17,6.17,0,0,1-2.28-2.49,8,8,0,0,1-.81-3.69,8.21,8.21,0,0,1,.49-2.88,6.39,6.39,0,0,1,1.37-2.23,6.3,6.3,0,0,1,2.12-1.45,7.16,7.16,0,0,1,2.75-.51,6.66,6.66,0,0,1,3.43.84,5.51,5.51,0,0,1,2.2,2.4,8.37,8.37,0,0,1,.77,3.72c0,.13,0,.28,0,.42s0,.24,0,.28H322.59v-2h9.73l-.95,1.36a2,2,0,0,0,.18-.46,2,2,0,0,0,.09-.52,4.22,4.22,0,0,0-.49-2.09,3.58,3.58,0,0,0-1.34-1.39,3.93,3.93,0,0,0-2-.5,4.8,4.8,0,0,0-1.82.33,3.65,3.65,0,0,0-1.37.94,4.05,4.05,0,0,0-.85,1.53,7.46,7.46,0,0,0,.2,4.78,3.71,3.71,0,0,0,1.48,1.71,4.49,4.49,0,0,0,2.36.59,4.85,4.85,0,0,0,2.44-.6,5,5,0,0,0,1.8-1.85l1.92,1.21a7.16,7.16,0,0,1-2.67,2.58,7.83,7.83,0,0,1-3.79.87A6.21,6.21,0,0,1,324.17,356.1Z"/><path d="M339.81,356.71h-2.36V343.14h2.36Zm3.24-11.49a2.49,2.49,0,0,0-1-.16,2.07,2.07,0,0,0-1.39.44,2.38,2.38,0,0,0-.69,1.21,7.08,7.08,0,0,0-.19,1.74h-1.06a6.84,6.84,0,0,1,.57-2.87,5.29,5.29,0,0,1,1.49-2,2.91,2.91,0,0,1,1.86-.74A4.63,4.63,0,0,1,344,343a2.7,2.7,0,0,1,1.16.75l-1.29,1.95A4.18,4.18,0,0,0,343.05,345.22Z"/><path d="M349,353.85a2.32,2.32,0,0,0,1,.84,4,4,0,0,0,1.52.28,4.19,4.19,0,0,0,2-.45,3.49,3.49,0,0,0,1.39-1.25,3.43,3.43,0,0,0,.51-1.87l.48,1.77a3,3,0,0,1-.79,2.15,4.82,4.82,0,0,1-1.91,1.27,6.71,6.71,0,0,1-2.26.41,5.34,5.34,0,0,1-2.31-.51,4.39,4.39,0,0,1-1.73-1.49,4.19,4.19,0,0,1-.65-2.36,4,4,0,0,1,2.47-3.82,6.82,6.82,0,0,1,2.84-.55,7.84,7.84,0,0,1,2.46.34,6,6,0,0,1,1.58.77,4.13,4.13,0,0,1,.8.69v1.39a7.43,7.43,0,0,0-2.13-1,8.31,8.31,0,0,0-2.33-.31,4.94,4.94,0,0,0-1.87.3,2.12,2.12,0,0,0-1.43,2.09A2.44,2.44,0,0,0,349,353.85Zm-1.87-9.32a10.32,10.32,0,0,1,2.11-1.12,8.42,8.42,0,0,1,3.23-.56,7.39,7.39,0,0,1,2.78.48,4.2,4.2,0,0,1,1.86,1.41,3.69,3.69,0,0,1,.66,2.24v9.73H355.4V347.3a2.47,2.47,0,0,0-.23-1.16,1.82,1.82,0,0,0-.67-.73,3.18,3.18,0,0,0-1-.38,5.69,5.69,0,0,0-1.18-.12,6.42,6.42,0,0,0-1.82.24,6.29,6.29,0,0,0-1.37.56,9.35,9.35,0,0,0-.88.56Z"/><path d="M364.69,336.07l-2.95,6.78h-1.62l1.77-6.78Z"/><path d="M367.52,353.7a4.2,4.2,0,0,0,1.23.84,3.59,3.59,0,0,0,1.52.31,2.43,2.43,0,0,0,1.57-.46,1.49,1.49,0,0,0,.58-1.25,1.73,1.73,0,0,0-.46-1.2,3.77,3.77,0,0,0-1.16-.82c-.48-.23-1-.44-1.51-.64a15,15,0,0,1-1.78-.84,4.73,4.73,0,0,1-1.51-1.26,3.51,3.51,0,0,1,0-4,3.86,3.86,0,0,1,1.66-1.18,6,6,0,0,1,5.85.92,4.45,4.45,0,0,1,1.15,1.35l-1.89,1.21a4.74,4.74,0,0,0-1.4-1.27,3.67,3.67,0,0,0-1.9-.5,2.35,2.35,0,0,0-1.27.33,1.09,1.09,0,0,0-.53,1,1.31,1.31,0,0,0,.41.94,4.14,4.14,0,0,0,1.06.74c.44.22.89.42,1.36.62a16.53,16.53,0,0,1,2.15,1,4.8,4.8,0,0,1,1.55,1.31,3.22,3.22,0,0,1,.58,2,3.87,3.87,0,0,1-.59,2.11,4.28,4.28,0,0,1-1.64,1.48,5.24,5.24,0,0,1-2.43.54,6,6,0,0,1-4.29-1.74,6.08,6.08,0,0,1-1.14-1.56l1.86-1.15A7.88,7.88,0,0,0,367.52,353.7Z"/><path d="M113.33,396a1.69,1.69,0,0,0,.84.21A1.21,1.21,0,0,0,115,396a1.67,1.67,0,0,0,.45-.85,6.5,6.5,0,0,0,.15-1.54v-15H118v15.33a6.25,6.25,0,0,1-.46,2.53,3.5,3.5,0,0,1-1.34,1.63,3.92,3.92,0,0,1-2.12.56,3.78,3.78,0,0,1-1.06-.14,3.06,3.06,0,0,1-.86-.39,3.48,3.48,0,0,1-.68-.65l1.3-1.95A1.78,1.78,0,0,0,113.33,396Zm2.2-24.22a1.59,1.59,0,0,1,2.26,2.25,1.59,1.59,0,1,1-2.26-2.25Z"/><path d="M122.56,381.65a6.82,6.82,0,0,1,2.52-2.51,7.48,7.48,0,0,1,7.15,0,6.79,6.79,0,0,1,2.51,2.51,7.63,7.63,0,0,1,0,7.3,6.75,6.75,0,0,1-2.51,2.52,7.48,7.48,0,0,1-7.15,0,6.77,6.77,0,0,1-2.52-2.52,7.63,7.63,0,0,1,0-7.3Zm2.07,6.16a4.67,4.67,0,0,0,6.4,1.73,4.65,4.65,0,0,0,1.65-1.73,5.08,5.08,0,0,0,.6-2.5,5.16,5.16,0,0,0-.6-2.52,4.51,4.51,0,0,0-1.65-1.73,4.86,4.86,0,0,0-4.75,0,4.37,4.37,0,0,0-1.65,1.73,5.06,5.06,0,0,0-.61,2.52A5,5,0,0,0,124.63,387.81Z"/><path d="M141.6,388.62a2.35,2.35,0,0,0,1,1.15,2.93,2.93,0,0,0,1.59.4,3.75,3.75,0,0,0,1.81-.42,3,3,0,0,0,1.21-1.2,3.52,3.52,0,0,0,.43-1.77v-8.25H150v13.56h-2.36V390a4.76,4.76,0,0,1-1.68,1.81,4.5,4.5,0,0,1-2.36.6,4.6,4.6,0,0,1-2.46-.64,4.31,4.31,0,0,1-1.62-1.85,6.29,6.29,0,0,1-.58-2.81v-8.55h2.36v8.25A4.55,4.55,0,0,0,141.6,388.62Z"/><path d="M155,378.53l3.39,8.81,3.69-9.85L166,387.4l3.42-8.87h2.65l-5.89,14.59-4.1-9.88-3.86,9.88-5.9-14.59Z"/><path d="M185.65,369.09v23h-2.36v-23Z"/><path d="M192,391.48A6.15,6.15,0,0,1,189.7,389a8.77,8.77,0,0,1-.32-6.57,6.39,6.39,0,0,1,1.37-2.23,6,6,0,0,1,2.12-1.44,7,7,0,0,1,2.74-.52,6.69,6.69,0,0,1,3.44.84,5.55,5.55,0,0,1,2.19,2.4,8.43,8.43,0,0,1,.77,3.72c0,.14,0,.28,0,.43s0,.24,0,.28H190.39v-2h9.73l-.94,1.36a2,2,0,0,0,.18-.46,1.89,1.89,0,0,0,.09-.51,4.34,4.34,0,0,0-.49-2.1,3.56,3.56,0,0,0-1.34-1.38,3.85,3.85,0,0,0-2-.5,4.75,4.75,0,0,0-1.81.32,3.69,3.69,0,0,0-1.37.94,4.19,4.19,0,0,0-.86,1.54,6.88,6.88,0,0,0-.29,2.06,6.49,6.49,0,0,0,.5,2.71,3.64,3.64,0,0,0,1.47,1.71,4.42,4.42,0,0,0,2.36.59,4.63,4.63,0,0,0,4.25-2.45l1.91,1.21a7.06,7.06,0,0,1-2.66,2.58,7.86,7.86,0,0,1-3.79.87A6.24,6.24,0,0,1,192,391.48Z"/><path d="M205.25,378.53l3.84,9.58,3.83-9.58h2.65l-6.48,14.59-6.49-14.59Z"/><path d="M219.25,391.48A6.1,6.1,0,0,1,217,389a8,8,0,0,1-.81-3.68,8.26,8.26,0,0,1,.49-2.89,6.39,6.39,0,0,1,1.37-2.23,6.13,6.13,0,0,1,2.12-1.44,7,7,0,0,1,2.75-.52,6.66,6.66,0,0,1,3.43.84,5.57,5.57,0,0,1,2.2,2.4,8.43,8.43,0,0,1,.76,3.72c0,.14,0,.28,0,.43s0,.24,0,.28H217.67v-2h9.73l-1,1.36a2,2,0,0,0,.18-.46,1.89,1.89,0,0,0,.09-.51,4.23,4.23,0,0,0-.49-2.1,3.49,3.49,0,0,0-1.34-1.38,3.83,3.83,0,0,0-2-.5,4.8,4.8,0,0,0-1.82.32,3.77,3.77,0,0,0-1.37.94,4.18,4.18,0,0,0-.85,1.54,6.56,6.56,0,0,0-.3,2.06,6.66,6.66,0,0,0,.5,2.71,3.71,3.71,0,0,0,1.48,1.71,4.4,4.4,0,0,0,2.36.59,4.85,4.85,0,0,0,2.44-.6,4.93,4.93,0,0,0,1.8-1.85l1.92,1.21a7.16,7.16,0,0,1-2.67,2.58,7.83,7.83,0,0,1-3.79.87A6.21,6.21,0,0,1,219.25,391.48Z"/><path d="M240.9,382a2.35,2.35,0,0,0-1-1.13,3,3,0,0,0-1.59-.39,3.79,3.79,0,0,0-1.82.43,3.08,3.08,0,0,0-1.21,1.19,3.67,3.67,0,0,0-.42,1.77v8.26h-2.36V378.53h2.36v2.12a4.5,4.5,0,0,1,1.69-1.83,4.63,4.63,0,0,1,2.35-.59,4.57,4.57,0,0,1,2.47.65,4.3,4.3,0,0,1,1.61,1.83,6.43,6.43,0,0,1,.57,2.83v8.55h-2.35v-8.26A4.67,4.67,0,0,0,240.9,382Z"/><path d="M256.6,381.65a6.82,6.82,0,0,1,2.52-2.51,7.48,7.48,0,0,1,7.15,0,6.87,6.87,0,0,1,2.51,2.51,7.63,7.63,0,0,1,0,7.3,6.82,6.82,0,0,1-2.51,2.52,7.48,7.48,0,0,1-7.15,0A6.77,6.77,0,0,1,256.6,389a7.63,7.63,0,0,1,0-7.3Zm2.07,6.16a4.66,4.66,0,0,0,6.39,1.73,4.6,4.6,0,0,0,1.66-1.73,5.08,5.08,0,0,0,.6-2.5,5.16,5.16,0,0,0-.6-2.52,4.46,4.46,0,0,0-1.66-1.73,4.84,4.84,0,0,0-4.74,0,4.37,4.37,0,0,0-1.65,1.73,5.06,5.06,0,0,0-.61,2.52A5,5,0,0,0,258.67,387.81Z"/><path d="M272.8,398.58V378.53h2.36v20.05Zm12.8-9.5a6.43,6.43,0,0,1-2.43,2.45,6.76,6.76,0,0,1-3.38.85,5.46,5.46,0,0,1-2.31-.48,5.11,5.11,0,0,1-1.8-1.4,6.65,6.65,0,0,1-1.17-2.23,10,10,0,0,1-.41-3,10.11,10.11,0,0,1,.41-3,6.7,6.7,0,0,1,1.17-2.22,5,5,0,0,1,1.8-1.4,5.31,5.31,0,0,1,2.31-.49,6.77,6.77,0,0,1,3.38.86,6.44,6.44,0,0,1,2.43,2.43,8.31,8.31,0,0,1,0,7.56Zm-2.11-6.43a4.29,4.29,0,0,0-1.68-1.65,4.87,4.87,0,0,0-2.31-.56,3.88,3.88,0,0,0-1.54.33,4.5,4.5,0,0,0-2.41,2.46,5.74,5.74,0,0,0,0,4.16,4.5,4.5,0,0,0,1,1.51,4.57,4.57,0,0,0,1.4,1,4,4,0,0,0,1.54.32,4.76,4.76,0,0,0,2.31-.56,4.16,4.16,0,0,0,1.68-1.65,5.83,5.83,0,0,0,0-5.31Z"/><path d="M298.34,381.52a6.35,6.35,0,0,1,2.45-2.43,6.78,6.78,0,0,1,3.36-.86,5.35,5.35,0,0,1,2.31.49,5,5,0,0,1,1.8,1.4,6.5,6.5,0,0,1,1.16,2.22,9.77,9.77,0,0,1,.42,3,9.66,9.66,0,0,1-.42,3,6.46,6.46,0,0,1-1.16,2.23,5.11,5.11,0,0,1-1.8,1.4,5.49,5.49,0,0,1-2.31.48,6.77,6.77,0,0,1-3.36-.85,6.34,6.34,0,0,1-2.45-2.45,8.23,8.23,0,0,1,0-7.56Zm2.11,6.44a4.13,4.13,0,0,0,1.69,1.65,4.8,4.8,0,0,0,2.3.56,4,4,0,0,0,1.53-.32,4.56,4.56,0,0,0,2.42-2.46,5.74,5.74,0,0,0,0-4.16,4.54,4.54,0,0,0-1-1.52,4.46,4.46,0,0,0-1.41-.94,3.84,3.84,0,0,0-1.53-.33,4.92,4.92,0,0,0-2.3.56,4.25,4.25,0,0,0-1.69,1.65,5.83,5.83,0,0,0,0,5.31Zm10.68-18.87v23h-2.35v-23Z"/><path d="M317.31,391.48A6.15,6.15,0,0,1,315,389a8.77,8.77,0,0,1-.32-6.57,6.39,6.39,0,0,1,1.37-2.23,6,6,0,0,1,2.12-1.44,7,7,0,0,1,2.74-.52,6.69,6.69,0,0,1,3.44.84,5.55,5.55,0,0,1,2.19,2.4,8.29,8.29,0,0,1,.77,3.72c0,.14,0,.28,0,.43s0,.24,0,.28H315.73v-2h9.73l-.94,1.36a2,2,0,0,0,.18-.46,1.89,1.89,0,0,0,.09-.51,4.34,4.34,0,0,0-.49-2.1A3.56,3.56,0,0,0,323,380.8a3.85,3.85,0,0,0-2-.5,4.75,4.75,0,0,0-1.81.32,3.69,3.69,0,0,0-1.37.94,4.19,4.19,0,0,0-.86,1.54,6.88,6.88,0,0,0-.29,2.06,6.66,6.66,0,0,0,.5,2.71,3.69,3.69,0,0,0,1.47,1.71,4.42,4.42,0,0,0,2.36.59,4.63,4.63,0,0,0,4.25-2.45l1.92,1.21a7.16,7.16,0,0,1-2.67,2.58,7.86,7.86,0,0,1-3.79.87A6.24,6.24,0,0,1,317.31,391.48Z"/><path d="M339.88,378.53l3.83,9.58,3.84-9.58h2.65l-6.49,14.59-6.48-14.59Z"/><path d="M351.72,381.65a6.82,6.82,0,0,1,2.52-2.51,7.48,7.48,0,0,1,7.15,0,6.87,6.87,0,0,1,2.51,2.51,7.63,7.63,0,0,1,0,7.3,6.82,6.82,0,0,1-2.51,2.52,7.48,7.48,0,0,1-7.15,0,6.77,6.77,0,0,1-2.52-2.52,7.63,7.63,0,0,1,0-7.3Zm2.06,6.16a4.65,4.65,0,0,0,1.65,1.73,4.58,4.58,0,0,0,6.4-1.73,5,5,0,0,0,.61-2.5,5.06,5.06,0,0,0-.61-2.52,4.37,4.37,0,0,0-1.65-1.73,4.86,4.86,0,0,0-4.75,0,4.51,4.51,0,0,0-1.65,1.73,5.16,5.16,0,0,0-.6,2.52A5.08,5.08,0,0,0,353.78,387.81Z"/><path d="M370,391.48A6.15,6.15,0,0,1,367.7,389a8.77,8.77,0,0,1-.32-6.57,6.39,6.39,0,0,1,1.37-2.23,6,6,0,0,1,2.12-1.44,7,7,0,0,1,2.74-.52,6.69,6.69,0,0,1,3.44.84,5.55,5.55,0,0,1,2.19,2.4,8.43,8.43,0,0,1,.77,3.72c0,.14,0,.28,0,.43s0,.24,0,.28H368.39v-2h9.73l-.94,1.36a2,2,0,0,0,.18-.46,1.89,1.89,0,0,0,.09-.51,4.34,4.34,0,0,0-.49-2.1,3.56,3.56,0,0,0-1.34-1.38,3.85,3.85,0,0,0-2-.5,4.75,4.75,0,0,0-1.81.32,3.69,3.69,0,0,0-1.37.94,4.19,4.19,0,0,0-.86,1.54,6.88,6.88,0,0,0-.29,2.06,6.49,6.49,0,0,0,.5,2.71,3.64,3.64,0,0,0,1.47,1.71,4.42,4.42,0,0,0,2.36.59,4.63,4.63,0,0,0,4.25-2.45l1.91,1.21a7.06,7.06,0,0,1-2.66,2.58,7.86,7.86,0,0,1-3.79.87A6.24,6.24,0,0,1,370,391.48Z"/><path d="M388,378.53v2.21h-6.78v-2.21Zm-2.21-4.72v18.28H383.4V373.81Z"/><path d="M198,413.91l3.83,9.58,3.84-9.58h2.65l-6.49,14.59-6.48-14.59Z"/><path d="M209.87,417a6.79,6.79,0,0,1,2.52-2.5,7.41,7.41,0,0,1,7.15,0A6.74,6.74,0,0,1,222,417a7.63,7.63,0,0,1,0,7.3,6.72,6.72,0,0,1-2.5,2.52,7.41,7.41,0,0,1-7.15,0,6.77,6.77,0,0,1-2.52-2.52,7.63,7.63,0,0,1,0-7.3Zm2.06,6.17a4.59,4.59,0,0,0,8,0,5.15,5.15,0,0,0,.61-2.51,5.22,5.22,0,0,0-.61-2.52,4.43,4.43,0,0,0-1.65-1.73,4.86,4.86,0,0,0-4.75,0,4.43,4.43,0,0,0-1.65,1.73,5.21,5.21,0,0,0-.6,2.52A5.15,5.15,0,0,0,211.93,423.2Z"/><path d="M228.58,404.47v23h-2.36v-23Z"/><path d="M232.73,416.9a6.42,6.42,0,0,1,2.45-2.43,6.78,6.78,0,0,1,3.36-.86,5.36,5.36,0,0,1,2.32.49,5.17,5.17,0,0,1,1.8,1.4,6.64,6.64,0,0,1,1.16,2.23,10.89,10.89,0,0,1,0,5.92,6.64,6.64,0,0,1-1.16,2.23,5.17,5.17,0,0,1-1.8,1.4,5.51,5.51,0,0,1-2.32.49,6.78,6.78,0,0,1-3.36-.86,6.41,6.41,0,0,1-2.45-2.45,8.31,8.31,0,0,1,0-7.56Zm1.74,11.46a3.38,3.38,0,0,0,.53,1.81,4,4,0,0,0,1.51,1.36,4.88,4.88,0,0,0,2.3.51,4.54,4.54,0,0,0,2-.5,4.07,4.07,0,0,0,1.67-1.58,5.25,5.25,0,0,0,.66-2.78V413.91h2.36v13.27a7.28,7.28,0,0,1-1,3.9,6.43,6.43,0,0,1-2.51,2.38,6.92,6.92,0,0,1-3.24.79,8,8,0,0,1-3.5-.73,5.79,5.79,0,0,1-2.37-2.08,5.64,5.64,0,0,1-.86-3.08Zm.37-5a4.15,4.15,0,0,0,1.7,1.65,4.77,4.77,0,0,0,2.3.56,3.82,3.82,0,0,0,1.53-.32,4.6,4.6,0,0,0,1.4-.94,4.83,4.83,0,0,0,1-1.52,5.88,5.88,0,0,0,0-4.16,4.83,4.83,0,0,0-1-1.52,4.6,4.6,0,0,0-1.4-.94,3.84,3.84,0,0,0-1.53-.33,4.89,4.89,0,0,0-2.3.56,4.24,4.24,0,0,0-1.7,1.66,5.89,5.89,0,0,0,0,5.3Z"/><path d="M251.71,426.87a6.08,6.08,0,0,1-2.27-2.49,8.05,8.05,0,0,1-.81-3.69,8.3,8.3,0,0,1,.48-2.89,6.54,6.54,0,0,1,1.37-2.23,6.08,6.08,0,0,1,2.13-1.44,7.12,7.12,0,0,1,2.74-.52,6.66,6.66,0,0,1,3.43.84,5.48,5.48,0,0,1,2.2,2.41,8.35,8.35,0,0,1,.77,3.71c0,.14,0,.28,0,.43s0,.24,0,.28H250.13v-2h9.73l-.94,1.36a2.72,2.72,0,0,0,.17-.46,1.83,1.83,0,0,0,.09-.51,4.23,4.23,0,0,0-.49-2.1,3.49,3.49,0,0,0-1.34-1.38,3.81,3.81,0,0,0-2-.5,4.94,4.94,0,0,0-1.81.32,3.72,3.72,0,0,0-1.38.94,4.18,4.18,0,0,0-.85,1.54,7.43,7.43,0,0,0,.2,4.77A3.71,3.71,0,0,0,253,425a4.4,4.4,0,0,0,2.36.59,4.91,4.91,0,0,0,2.45-.6,5,5,0,0,0,1.79-1.84l1.92,1.21a7.16,7.16,0,0,1-2.67,2.58,7.83,7.83,0,0,1-3.79.87A6.21,6.21,0,0,1,251.71,426.87Z"/><path d="M273.36,417.34a2.3,2.3,0,0,0-1-1.13,3,3,0,0,0-1.59-.39,3.75,3.75,0,0,0-1.81.43,2.92,2.92,0,0,0-1.21,1.2,3.5,3.5,0,0,0-.43,1.76v8.26H265V413.91h2.36V416A4.71,4.71,0,0,1,269,414.2a5,5,0,0,1,4.83.06,4.34,4.34,0,0,1,1.6,1.83,6.32,6.32,0,0,1,.58,2.83v8.55h-2.36v-8.26A4.67,4.67,0,0,0,273.36,417.34Z"/><path d="M289,415.09v-2.36l15,6.48v1.33L289,427v-2.36L300.17,420Z"/></g></g></svg>