<svg xmlns="http://www.w3.org/2000/svg" viewBox="0 0 569.13 546.46"><g id="Layer_2" data-name="Layer 2"><g id="Layer_1-2" data-name="Layer 1"><path d="M289.09,545c-44.34-.21-87.84-5.32-129.52-21.37-44.86-17.27-79.82-46.67-106.84-85.55C15.63,384.66-2.61,325.61.3,260.72,2.74,206.49,24.43,160,61.38,120.45c42.36-45.39,92.18-80.59,150.24-103.84,28.91-11.58,59-18,90.44-16.36,29.28,1.51,57.23,9.05,83.79,20.9,52.71,23.51,99.89,55,139.42,97.06,19.23,20.44,34,43.51,40.62,71,5.23,21.73,3.52,43.39-.83,65-7.39,36.76-21.6,71.33-35.44,106C518.08,389.07,506.39,417.94,493,446c-13.17,27.61-31.83,51.46-58.74,67.84a183.48,183.48,0,0,1-70.54,25.08c-24.69,3.45-49.63,5.11-74.46,7.55C289.21,546,289.15,545.47,289.09,545Z" style="fill:#71d436"/><path d="M90.38,309.62v20.64h-2.5V309.62Zm-1.12,0H99.67V312H89.26Zm0,8.26h9.82v2.36H89.26Zm0,10H99.67v2.36H89.26Z"/><path d="M105.85,329.66a6.08,6.08,0,0,1-2.27-2.49,8.05,8.05,0,0,1-.81-3.69,8.3,8.3,0,0,1,.48-2.89,6.64,6.64,0,0,1,1.37-2.23,6.08,6.08,0,0,1,2.13-1.44,7.12,7.12,0,0,1,2.74-.52,6.63,6.63,0,0,1,3.43.84,5.48,5.48,0,0,1,2.2,2.41,8.35,8.35,0,0,1,.77,3.71c0,.14,0,.28,0,.43s0,.24,0,.28H104.27v-2H114l-.94,1.36a1.66,1.66,0,0,0,.17-.46,1.83,1.83,0,0,0,.09-.51,4.34,4.34,0,0,0-.48-2.1,3.58,3.58,0,0,0-1.35-1.38,3.81,3.81,0,0,0-2-.5,4.94,4.94,0,0,0-1.81.32,3.69,3.69,0,0,0-1.37.94,4.19,4.19,0,0,0-.86,1.54,6.61,6.61,0,0,0-.3,2.06,6.49,6.49,0,0,0,.51,2.71,3.71,3.71,0,0,0,1.47,1.72,4.49,4.49,0,0,0,2.36.58,4.91,4.91,0,0,0,2.45-.6,5,5,0,0,0,1.79-1.84l1.92,1.21a7.16,7.16,0,0,1-2.67,2.58,7.83,7.83,0,0,1-3.79.87A6.23,6.23,0,0,1,105.85,329.66Z"/><path d="M127.5,320.13a2.3,2.3,0,0,0-1-1.13,3,3,0,0,0-1.59-.39,3.75,3.75,0,0,0-1.81.43,3,3,0,0,0-1.21,1.2,3.52,3.52,0,0,0-.43,1.77v8.25h-2.36V316.7h2.36v2.12a4.71,4.71,0,0,1,1.69-1.83,5,5,0,0,1,4.83.06,4.34,4.34,0,0,1,1.6,1.83,6.32,6.32,0,0,1,.58,2.83v8.55h-2.36V322A4.69,4.69,0,0,0,127.5,320.13Z"/><path d="M145.81,330.26h-2.35v-23h2.35Zm6-10.13a2.39,2.39,0,0,0-1-1.13,3,3,0,0,0-1.61-.39,3.57,3.57,0,0,0-1.81.45,3.06,3.06,0,0,0-1.21,1.21,3.56,3.56,0,0,0-.43,1.74h-.76a6.32,6.32,0,0,1,.62-2.88,5.06,5.06,0,0,1,1.69-2,4.32,4.32,0,0,1,2.49-.74,5,5,0,0,1,2.47.59,4.1,4.1,0,0,1,1.62,1.77,6.77,6.77,0,0,1,.57,2.95v8.55h-2.36V322A4.7,4.7,0,0,0,151.83,320.13Z"/><path d="M160.84,329.66a6.08,6.08,0,0,1-2.27-2.49,8.05,8.05,0,0,1-.81-3.69,8.3,8.3,0,0,1,.48-2.89,6.64,6.64,0,0,1,1.37-2.23,6.08,6.08,0,0,1,2.13-1.44,7.12,7.12,0,0,1,2.74-.52,6.66,6.66,0,0,1,3.43.84,5.48,5.48,0,0,1,2.2,2.41,8.35,8.35,0,0,1,.77,3.71c0,.14,0,.28,0,.43s0,.24,0,.28H159.26v-2H169l-.94,1.36a2.72,2.72,0,0,0,.17-.46,1.83,1.83,0,0,0,.09-.51,4.23,4.23,0,0,0-.49-2.1,3.49,3.49,0,0,0-1.34-1.38,3.81,3.81,0,0,0-2-.5,4.94,4.94,0,0,0-1.81.32,3.72,3.72,0,0,0-1.38.94,4.33,4.33,0,0,0-.85,1.54,7.43,7.43,0,0,0,.2,4.77,3.79,3.79,0,0,0,1.48,1.72,4.49,4.49,0,0,0,2.36.58,4.91,4.91,0,0,0,2.45-.6,5,5,0,0,0,1.79-1.84l1.92,1.21a7.16,7.16,0,0,1-2.67,2.58,7.83,7.83,0,0,1-3.79.87A6.23,6.23,0,0,1,160.84,329.66Z"/><path d="M173.85,319.69a6.42,6.42,0,0,1,2.45-2.43,6.78,6.78,0,0,1,3.36-.86,5.36,5.36,0,0,1,2.32.49,5.08,5.08,0,0,1,1.8,1.4,6.46,6.46,0,0,1,1.16,2.23,10.89,10.89,0,0,1,0,5.92,6.46,6.46,0,0,1-1.16,2.23,5.08,5.08,0,0,1-1.8,1.4,5.51,5.51,0,0,1-2.32.49,6.78,6.78,0,0,1-3.36-.86,6.41,6.41,0,0,1-2.45-2.45,8.31,8.31,0,0,1,0-7.56Zm2.11,6.44a4.21,4.21,0,0,0,1.7,1.65,4.77,4.77,0,0,0,2.3.56,3.82,3.82,0,0,0,1.53-.32,4.6,4.6,0,0,0,1.4-.94,4.83,4.83,0,0,0,1-1.52,5.88,5.88,0,0,0,0-4.16,4.83,4.83,0,0,0-1-1.52,4.6,4.6,0,0,0-1.4-.94,3.84,3.84,0,0,0-1.53-.33,4.89,4.89,0,0,0-2.3.56,4.3,4.3,0,0,0-1.7,1.66,5.89,5.89,0,0,0,0,5.3Zm10.69-18.87v23h-2.36v-23Z"/><path d="M192.83,329.66a6.08,6.08,0,0,1-2.27-2.49,8.05,8.05,0,0,1-.81-3.69,8.3,8.3,0,0,1,.48-2.89,6.8,6.8,0,0,1,1.37-2.23,6.08,6.08,0,0,1,2.13-1.44,7.12,7.12,0,0,1,2.74-.52,6.63,6.63,0,0,1,3.43.84,5.48,5.48,0,0,1,2.2,2.41,8.35,8.35,0,0,1,.77,3.71c0,.14,0,.28,0,.43s0,.24,0,.28H191.25v-2H201l-.94,1.36a1.66,1.66,0,0,0,.17-.46,1.83,1.83,0,0,0,.09-.51,4.34,4.34,0,0,0-.48-2.1,3.58,3.58,0,0,0-1.35-1.38,3.81,3.81,0,0,0-2-.5,4.94,4.94,0,0,0-1.81.32,3.69,3.69,0,0,0-1.37.94,4.19,4.19,0,0,0-.86,1.54,6.62,6.62,0,0,0-.29,2.06,6.49,6.49,0,0,0,.5,2.71,3.71,3.71,0,0,0,1.47,1.72,4.51,4.51,0,0,0,2.36.58,4.91,4.91,0,0,0,2.45-.6,5.13,5.13,0,0,0,1.8-1.84l1.91,1.21a7.16,7.16,0,0,1-2.67,2.58,7.82,7.82,0,0,1-3.78.87A6.24,6.24,0,0,1,192.83,329.66Z"/><path d="M214.49,320.13a2.37,2.37,0,0,0-1-1.13,3,3,0,0,0-1.59-.39,3.75,3.75,0,0,0-1.81.43,3,3,0,0,0-1.21,1.2,3.52,3.52,0,0,0-.43,1.77v8.25h-2.36V316.7h2.36v2.12a4.65,4.65,0,0,1,1.7-1.83,5,5,0,0,1,4.82.06,4.34,4.34,0,0,1,1.6,1.83,6.32,6.32,0,0,1,.58,2.83v8.55h-2.36V322A4.88,4.88,0,0,0,214.49,320.13Z"/><path d="M221.33,319.69a6.33,6.33,0,0,1,2.44-2.43,6.8,6.8,0,0,1,3.36-.86,5.36,5.36,0,0,1,2.32.49,5,5,0,0,1,1.8,1.4,6.46,6.46,0,0,1,1.16,2.23,10.89,10.89,0,0,1,0,5.92,6.46,6.46,0,0,1-1.16,2.23,5,5,0,0,1-1.8,1.4,5.51,5.51,0,0,1-2.32.49,6.8,6.8,0,0,1-3.36-.86,6.31,6.31,0,0,1-2.44-2.45,8.23,8.23,0,0,1,0-7.56Zm2.1,6.44a4.21,4.21,0,0,0,1.7,1.65,4.77,4.77,0,0,0,2.3.56A3.82,3.82,0,0,0,229,328a4.6,4.6,0,0,0,1.4-.94,4.67,4.67,0,0,0,1-1.52,5.88,5.88,0,0,0,0-4.16,4.67,4.67,0,0,0-1-1.52,4.6,4.6,0,0,0-1.4-.94,3.84,3.84,0,0,0-1.53-.33,4.89,4.89,0,0,0-2.3.56,4.3,4.3,0,0,0-1.7,1.66,5.89,5.89,0,0,0,0,5.3Zm10.69-18.87v23h-2.36v-23Z"/><path d="M239.83,327.4a2.2,2.2,0,0,0,1,.84,3.82,3.82,0,0,0,1.52.28,4.34,4.34,0,0,0,2-.44,3.47,3.47,0,0,0,1.38-1.25,3.38,3.38,0,0,0,.52-1.88l.47,1.77a3.08,3.08,0,0,1-.78,2.16,4.67,4.67,0,0,1-1.92,1.26,6.39,6.39,0,0,1-2.25.42,5.36,5.36,0,0,1-2.32-.52,4.21,4.21,0,0,1-1.72-1.49,4.56,4.56,0,0,1,0-4.66,4.31,4.31,0,0,1,1.83-1.52,6.9,6.9,0,0,1,2.85-.54,7.56,7.56,0,0,1,2.46.34,6.13,6.13,0,0,1,1.58.76,4,4,0,0,1,.79.7V325a7.09,7.09,0,0,0-2.12-1,8.36,8.36,0,0,0-2.33-.31,4.93,4.93,0,0,0-1.87.29,2.31,2.31,0,0,0-1.08.83,2.25,2.25,0,0,0-.35,1.26A2.31,2.31,0,0,0,239.83,327.4ZM238,318.08a11.46,11.46,0,0,1,2.11-1.12,8.45,8.45,0,0,1,3.23-.56,7.28,7.28,0,0,1,2.79.49,4.22,4.22,0,0,1,1.86,1.4,3.73,3.73,0,0,1,.66,2.24v9.73h-2.36v-9.41a2.49,2.49,0,0,0-.24-1.16,1.7,1.7,0,0,0-.66-.72,2.73,2.73,0,0,0-1-.38,5.55,5.55,0,0,0-1.18-.12,6.79,6.79,0,0,0-1.81.23,6.59,6.59,0,0,0-1.37.56c-.37.22-.67.41-.89.56Z"/><path d="M254,327.4a2.25,2.25,0,0,0,1,.84,3.82,3.82,0,0,0,1.52.28,4.31,4.31,0,0,0,2-.44,3.57,3.57,0,0,0,1.39-1.25,3.46,3.46,0,0,0,.51-1.88l.47,1.77a3.08,3.08,0,0,1-.78,2.16,4.7,4.7,0,0,1-1.91,1.26,6.49,6.49,0,0,1-2.26.42,5.29,5.29,0,0,1-2.31-.52,4.06,4.06,0,0,1-2.38-3.85,4.08,4.08,0,0,1,.64-2.3,4.23,4.23,0,0,1,1.82-1.52,6.9,6.9,0,0,1,2.85-.54,7.56,7.56,0,0,1,2.46.34,6,6,0,0,1,1.58.76,4,4,0,0,1,.79.7V325a7,7,0,0,0-2.12-1,8.31,8.31,0,0,0-2.33-.31,5,5,0,0,0-1.87.29,2.31,2.31,0,0,0-1.08.83,2.25,2.25,0,0,0-.35,1.26A2.31,2.31,0,0,0,254,327.4Zm-1.87-9.32a10.83,10.83,0,0,1,2.11-1.12,8.4,8.4,0,0,1,3.22-.56,7.24,7.24,0,0,1,2.79.49,4.11,4.11,0,0,1,1.86,1.4,3.73,3.73,0,0,1,.66,2.24v9.73h-2.36v-9.41a2.63,2.63,0,0,0-.23-1.16,1.79,1.79,0,0,0-.67-.72,2.75,2.75,0,0,0-1-.38,5.69,5.69,0,0,0-1.18-.12,6.81,6.81,0,0,0-1.82.23,6.59,6.59,0,0,0-1.37.56c-.37.22-.67.41-.88.56Z"/><path d="M266.5,319.69a6.33,6.33,0,0,1,2.44-2.43,6.84,6.84,0,0,1,3.37-.86,5.35,5.35,0,0,1,2.31.49,5,5,0,0,1,1.8,1.4,6.46,6.46,0,0,1,1.16,2.23,10.64,10.64,0,0,1,0,5.92,6.46,6.46,0,0,1-1.16,2.23,5,5,0,0,1-1.8,1.4,5.5,5.5,0,0,1-2.31.49,6.84,6.84,0,0,1-3.37-.86,6.31,6.31,0,0,1-2.44-2.45,8.23,8.23,0,0,1,0-7.56Zm1.74,11.46a3.29,3.29,0,0,0,.53,1.81,3.89,3.89,0,0,0,1.5,1.36,4.88,4.88,0,0,0,2.3.51,4.51,4.51,0,0,0,2-.5,4.07,4.07,0,0,0,1.67-1.58,5.25,5.25,0,0,0,.66-2.78V316.7h2.36V330a7.28,7.28,0,0,1-1,3.9,6.36,6.36,0,0,1-2.51,2.38,6.92,6.92,0,0,1-3.24.79,7.89,7.89,0,0,1-3.49-.73,5.76,5.76,0,0,1-2.38-2.08,5.61,5.61,0,0,1-.85-3.08Zm.36-5a4.21,4.21,0,0,0,1.7,1.65,4.77,4.77,0,0,0,2.3.56,3.82,3.82,0,0,0,1.53-.32,4.6,4.6,0,0,0,1.4-.94,4.67,4.67,0,0,0,1-1.52,5.88,5.88,0,0,0,0-4.16,4.67,4.67,0,0,0-1-1.52,4.6,4.6,0,0,0-1.4-.94,3.84,3.84,0,0,0-1.53-.33,4.89,4.89,0,0,0-2.3.56,4.3,4.3,0,0,0-1.7,1.66,5.89,5.89,0,0,0,0,5.3Z"/><path d="M285.07,327.25a3.85,3.85,0,0,0,1.23.84,3.58,3.58,0,0,0,1.51.31,2.5,2.5,0,0,0,1.58-.45,1.55,1.55,0,0,0,.58-1.26,1.69,1.69,0,0,0-.46-1.19,4,4,0,0,0-1.17-.83q-.7-.33-1.5-.63a19,19,0,0,1-1.78-.84,4.76,4.76,0,0,1-1.51-1.27,3.5,3.5,0,0,1,0-4,3.72,3.72,0,0,1,1.65-1.18,5.85,5.85,0,0,1,2.11-.39,5.78,5.78,0,0,1,2.05.36,6,6,0,0,1,1.7.94,4.49,4.49,0,0,1,1.15,1.36l-1.89,1.21A4.49,4.49,0,0,0,289,319a3.57,3.57,0,0,0-1.9-.5,2.35,2.35,0,0,0-1.27.32,1.1,1.1,0,0,0-.53,1,1.33,1.33,0,0,0,.41.95,4.12,4.12,0,0,0,1.06.73c.43.22.89.43,1.36.62a19.63,19.63,0,0,1,2.15,1,4.8,4.8,0,0,1,1.55,1.31,3.23,3.23,0,0,1,.57,2,3.89,3.89,0,0,1-.58,2.11,4.18,4.18,0,0,1-1.64,1.47,5.24,5.24,0,0,1-2.43.55,6,6,0,0,1-2.45-.49,5.81,5.81,0,0,1-1.84-1.25,5.89,5.89,0,0,1-1.14-1.57l1.86-1.15A6.94,6.94,0,0,0,285.07,327.25Z"/><path d="M297.35,329.66a6.15,6.15,0,0,1-2.27-2.49,8.79,8.79,0,0,1-.32-6.58,6.48,6.48,0,0,1,1.37-2.23,6.13,6.13,0,0,1,2.12-1.44,7.15,7.15,0,0,1,2.74-.52,6.69,6.69,0,0,1,3.44.84,5.6,5.6,0,0,1,2.2,2.41,8.36,8.36,0,0,1,.76,3.71c0,.14,0,.28,0,.43s0,.24,0,.28H295.77v-2h9.74l-.95,1.36a2,2,0,0,0,.18-.46,1.83,1.83,0,0,0,.09-.51,4.34,4.34,0,0,0-.49-2.1A3.49,3.49,0,0,0,303,319a3.85,3.85,0,0,0-2-.5,4.94,4.94,0,0,0-1.81.32,3.69,3.69,0,0,0-1.37.94,4.34,4.34,0,0,0-.86,1.54,6.93,6.93,0,0,0-.29,2.06,6.66,6.66,0,0,0,.5,2.71,3.73,3.73,0,0,0,1.48,1.72,4.45,4.45,0,0,0,2.35.58,4.89,4.89,0,0,0,2.45-.6,5,5,0,0,0,1.8-1.84l1.92,1.21a7.16,7.16,0,0,1-2.67,2.58,7.86,7.86,0,0,1-3.79.87A6.27,6.27,0,0,1,297.35,329.66Z"/><path d="M319.92,316.7l3.84,9.58,3.83-9.58h2.65l-6.48,14.59-6.49-14.59Z"/><path d="M333.91,329.66a6.15,6.15,0,0,1-2.27-2.49,8.79,8.79,0,0,1-.32-6.58,6.48,6.48,0,0,1,1.37-2.23,6.13,6.13,0,0,1,2.12-1.44,7.17,7.17,0,0,1,2.75-.52,6.66,6.66,0,0,1,3.43.84,5.54,5.54,0,0,1,2.2,2.41,8.36,8.36,0,0,1,.76,3.71c0,.14,0,.28,0,.43s0,.24,0,.28H332.34v-2h9.73l-.95,1.36a2,2,0,0,0,.18-.46,1.83,1.83,0,0,0,.09-.51,4.23,4.23,0,0,0-.49-2.1,3.49,3.49,0,0,0-1.34-1.38,3.83,3.83,0,0,0-2-.5,5,5,0,0,0-1.82.32,3.69,3.69,0,0,0-1.37.94,4.18,4.18,0,0,0-.85,1.54,7.43,7.43,0,0,0,.2,4.77,3.79,3.79,0,0,0,1.48,1.72,4.46,4.46,0,0,0,2.36.58,4.88,4.88,0,0,0,2.44-.6,5,5,0,0,0,1.8-1.84l1.92,1.21a7.16,7.16,0,0,1-2.67,2.58,7.86,7.86,0,0,1-3.79.87A6.27,6.27,0,0,1,333.91,329.66Z"/><path d="M349.56,330.26H347.2V316.7h2.36Zm3.24-11.48a2.48,2.48,0,0,0-1-.17,2,2,0,0,0-1.39.45,2.17,2.17,0,0,0-.69,1.21,7.08,7.08,0,0,0-.19,1.74h-1.07a6.73,6.73,0,0,1,.58-2.88,5.38,5.38,0,0,1,1.49-2,3,3,0,0,1,1.86-.74,4.68,4.68,0,0,1,1.37.2,2.52,2.52,0,0,1,1.16.75l-1.3,1.94A4.53,4.53,0,0,0,352.8,318.78Z"/><path d="M362,316.7v2.21h-6.78V316.7ZM359.82,312v18.28h-2.36V312Z"/><path d="M365.82,327.4a2.15,2.15,0,0,0,1,.84,3.82,3.82,0,0,0,1.52.28,4.34,4.34,0,0,0,2-.44,3.47,3.47,0,0,0,1.38-1.25,3.38,3.38,0,0,0,.52-1.88l.47,1.77a3.08,3.08,0,0,1-.78,2.16,4.67,4.67,0,0,1-1.92,1.26,6.44,6.44,0,0,1-2.25.42,5.36,5.36,0,0,1-2.32-.52,4.15,4.15,0,0,1-1.72-1.49,4.09,4.09,0,0,1-.65-2.36,4.15,4.15,0,0,1,.63-2.3,4.2,4.2,0,0,1,1.83-1.52,6.9,6.9,0,0,1,2.85-.54,7.56,7.56,0,0,1,2.46.34,6.13,6.13,0,0,1,1.58.76,4.31,4.31,0,0,1,.79.7V325a7.09,7.09,0,0,0-2.12-1,8.41,8.41,0,0,0-2.33-.31,4.93,4.93,0,0,0-1.87.29,2.26,2.26,0,0,0-1.08.83,2.17,2.17,0,0,0-.35,1.26A2.31,2.31,0,0,0,365.82,327.4Zm-1.88-9.32a11.14,11.14,0,0,1,2.11-1.12,8.45,8.45,0,0,1,3.23-.56,7.28,7.28,0,0,1,2.79.49,4.13,4.13,0,0,1,1.85,1.4,3.67,3.67,0,0,1,.67,2.24v9.73h-2.36v-9.41a2.49,2.49,0,0,0-.24-1.16,1.77,1.77,0,0,0-.66-.72,2.88,2.88,0,0,0-1-.38,5.62,5.62,0,0,0-1.18-.12,6.73,6.73,0,0,0-1.81.23,6.59,6.59,0,0,0-1.37.56c-.38.22-.67.41-.89.56Z"/><path d="M380.93,307.26v23h-2.36v-23Z"/><path d="M385.84,310a1.61,1.61,0,0,1,2.75,1.15,1.58,1.58,0,0,1-.47,1.13,1.61,1.61,0,1,1-2.28-2.28Zm2.31,6.75v13.56h-2.36V316.7Z"/><path d="M401.39,320.13a2.35,2.35,0,0,0-1-1.13,3.08,3.08,0,0,0-1.6-.39A3.78,3.78,0,0,0,397,319a3.1,3.1,0,0,0-1.21,1.2,3.62,3.62,0,0,0-.43,1.77v8.25H393V316.7h2.35v2.12a4.73,4.73,0,0,1,1.7-1.83,5,5,0,0,1,4.82.06,4.36,4.36,0,0,1,1.61,1.83,6.46,6.46,0,0,1,.57,2.83v8.55h-2.36V322A4.88,4.88,0,0,0,401.39,320.13Z"/><path d="M408.23,319.69a6.35,6.35,0,0,1,2.45-2.43,6.78,6.78,0,0,1,3.36-.86,5.35,5.35,0,0,1,2.31.49,5,5,0,0,1,1.8,1.4,6.65,6.65,0,0,1,1.17,2.23,10.89,10.89,0,0,1,0,5.92,6.65,6.65,0,0,1-1.17,2.23,5,5,0,0,1-1.8,1.4,5.5,5.5,0,0,1-2.31.49,6.78,6.78,0,0,1-3.36-.86,6.34,6.34,0,0,1-2.45-2.45,8.31,8.31,0,0,1,0-7.56ZM410,331.15a3.38,3.38,0,0,0,.53,1.81,3.89,3.89,0,0,0,1.5,1.36,4.91,4.91,0,0,0,2.3.51,4.58,4.58,0,0,0,2-.5,4,4,0,0,0,1.66-1.58,5.16,5.16,0,0,0,.67-2.78V316.7H421V330a7.28,7.28,0,0,1-1,3.9,6.4,6.4,0,0,1-2.5,2.38,7,7,0,0,1-3.25.79,7.92,7.92,0,0,1-3.49-.73,5.79,5.79,0,0,1-2.37-2.08,5.62,5.62,0,0,1-.86-3.08Zm.37-5a4.19,4.19,0,0,0,1.69,1.65,4.8,4.8,0,0,0,2.3.56,3.9,3.9,0,0,0,1.54-.32,4.72,4.72,0,0,0,1.4-.94,4.65,4.65,0,0,0,1-1.52,5.74,5.74,0,0,0,0-4.16,4.65,4.65,0,0,0-1-1.52,4.72,4.72,0,0,0-1.4-.94,3.92,3.92,0,0,0-1.54-.33,4.92,4.92,0,0,0-2.3.56,4.28,4.28,0,0,0-1.69,1.66,5.81,5.81,0,0,0,0,5.3Z"/><path d="M434.59,316.7l3.83,9.58,3.84-9.58h2.65l-6.49,14.59-6.49-14.59Z"/><path d="M448.55,327.4a2.25,2.25,0,0,0,1,.84,3.82,3.82,0,0,0,1.52.28,4.31,4.31,0,0,0,2-.44,3.57,3.57,0,0,0,1.39-1.25A3.46,3.46,0,0,0,455,325l.47,1.77a3.08,3.08,0,0,1-.78,2.16,4.7,4.7,0,0,1-1.91,1.26,6.49,6.49,0,0,1-2.26.42,5.32,5.32,0,0,1-2.31-.52,4.06,4.06,0,0,1-2.38-3.85,4.08,4.08,0,0,1,.64-2.3,4.2,4.2,0,0,1,1.83-1.52,6.82,6.82,0,0,1,2.84-.54,7.56,7.56,0,0,1,2.46.34,6,6,0,0,1,1.58.76,4.46,4.46,0,0,1,.8.7V325a7.14,7.14,0,0,0-2.13-1,8.31,8.31,0,0,0-2.33-.31,5,5,0,0,0-1.87.29,2.31,2.31,0,0,0-1.08.83,2.25,2.25,0,0,0-.35,1.26A2.31,2.31,0,0,0,448.55,327.4Zm-1.87-9.32a10.83,10.83,0,0,1,2.11-1.12,8.4,8.4,0,0,1,3.22-.56,7.24,7.24,0,0,1,2.79.49,4.11,4.11,0,0,1,1.86,1.4,3.73,3.73,0,0,1,.66,2.24v9.73H455v-9.41a2.63,2.63,0,0,0-.23-1.16,1.79,1.79,0,0,0-.67-.72,2.75,2.75,0,0,0-1-.38,5.69,5.69,0,0,0-1.18-.12,6.34,6.34,0,0,0-3.19.79c-.37.22-.67.41-.88.56Z"/><path d="M469.68,320.13a2.37,2.37,0,0,0-1-1.13,3,3,0,0,0-1.59-.39,3.75,3.75,0,0,0-1.81.43,3,3,0,0,0-1.21,1.2,3.52,3.52,0,0,0-.43,1.77v8.25H461.3V316.7h2.36v2.12a4.65,4.65,0,0,1,1.7-1.83,5,5,0,0,1,4.82.06,4.34,4.34,0,0,1,1.6,1.83,6.32,6.32,0,0,1,.58,2.83v8.55H470V322A4.88,4.88,0,0,0,469.68,320.13Z"/><path d="M60.75,365a6.15,6.15,0,0,1-2.27-2.49,8.79,8.79,0,0,1-.32-6.58,6.44,6.44,0,0,1,1.37-2.22,6.2,6.2,0,0,1,2.12-1.45,7.11,7.11,0,0,1,2.74-.51,6.69,6.69,0,0,1,3.44.84A5.55,5.55,0,0,1,70,355a8.35,8.35,0,0,1,.77,3.71c0,.14,0,.28,0,.43s0,.24,0,.28H59.17v-2H68.9L68,358.8a2.22,2.22,0,0,0,.26-1,4.3,4.3,0,0,0-.48-2.09,3.65,3.65,0,0,0-1.34-1.39,3.94,3.94,0,0,0-2-.5,4.94,4.94,0,0,0-1.81.32,3.6,3.6,0,0,0-1.37.95,4.07,4.07,0,0,0-.86,1.53,7,7,0,0,0-.29,2.07,6.53,6.53,0,0,0,.5,2.71A3.69,3.69,0,0,0,62,363.14a4.52,4.52,0,0,0,2.36.59,4.79,4.79,0,0,0,2.45-.61,4.9,4.9,0,0,0,1.8-1.84l1.91,1.21a7.06,7.06,0,0,1-2.66,2.58,7.88,7.88,0,0,1-3.79.87A6.24,6.24,0,0,1,60.75,365Z"/><path d="M75.94,365a6.08,6.08,0,0,1-2.27-2.49,7.9,7.9,0,0,1-.82-3.69,8.3,8.3,0,0,1,.49-2.89,6.59,6.59,0,0,1,1.37-2.22,6.24,6.24,0,0,1,2.13-1.45,7.08,7.08,0,0,1,2.74-.51,6.66,6.66,0,0,1,3.43.84,5.51,5.51,0,0,1,2.2,2.4,8.36,8.36,0,0,1,.76,3.71c0,.14,0,.28,0,.43s0,.24,0,.28H74.36v-2h9.73l-1,1.35a1.88,1.88,0,0,0,.18-.45,2,2,0,0,0,.09-.52,4.19,4.19,0,0,0-.49-2.09,3.58,3.58,0,0,0-1.34-1.39,3.93,3.93,0,0,0-2-.5,5,5,0,0,0-1.82.32,3.67,3.67,0,0,0-1.37.95,4.05,4.05,0,0,0-.85,1.53,7.46,7.46,0,0,0,.2,4.78,3.76,3.76,0,0,0,1.48,1.71,4.49,4.49,0,0,0,2.36.59,4.75,4.75,0,0,0,2.44-.61,4.9,4.9,0,0,0,1.8-1.84l1.92,1.21a7.16,7.16,0,0,1-2.67,2.58,7.83,7.83,0,0,1-3.79.87A6.21,6.21,0,0,1,75.94,365Z"/><path d="M97.59,355.52a2.33,2.33,0,0,0-1-1.14A3.12,3.12,0,0,0,95,354a3.68,3.68,0,0,0-1.82.43A3,3,0,0,0,92,355.62a3.62,3.62,0,0,0-.42,1.77v8.25H89.22V352.08h2.36v2.12a4.74,4.74,0,0,1,6.51-1.77,4.41,4.41,0,0,1,1.61,1.83,6.46,6.46,0,0,1,.58,2.83v8.55H97.92v-8.25A4.64,4.64,0,0,0,97.59,355.52Z"/><path d="M113.28,355.07a6.35,6.35,0,0,1,2.45-2.43,6.77,6.77,0,0,1,3.36-.85,5.49,5.49,0,0,1,2.31.48,5.11,5.11,0,0,1,1.8,1.4,6.46,6.46,0,0,1,1.16,2.23,9.66,9.66,0,0,1,.42,3,9.77,9.77,0,0,1-.42,3,6.5,6.5,0,0,1-1.16,2.22,5,5,0,0,1-1.8,1.4,5.35,5.35,0,0,1-2.31.49,6.78,6.78,0,0,1-3.36-.86,6.31,6.31,0,0,1-2.45-2.44,8.25,8.25,0,0,1,0-7.57Zm2.11,6.45a4.25,4.25,0,0,0,1.69,1.65,4.92,4.92,0,0,0,2.3.56,3.84,3.84,0,0,0,1.53-.33,4.46,4.46,0,0,0,1.41-.94,4.54,4.54,0,0,0,1-1.52,5.74,5.74,0,0,0,0-4.16,4.56,4.56,0,0,0-2.42-2.46,4,4,0,0,0-1.53-.32,4.8,4.8,0,0,0-2.3.56,4.13,4.13,0,0,0-1.69,1.65,5.83,5.83,0,0,0,0,5.31Zm10.68-18.88v23h-2.35v-23Z"/><path d="M130.84,345.33a1.61,1.61,0,0,1,2.28,2.28,1.61,1.61,0,1,1-2.28-2.28Zm2.31,6.75v13.56h-2.36V352.08Z"/><path d="M137.75,355.07a6.42,6.42,0,0,1,2.45-2.43,6.77,6.77,0,0,1,3.36-.85,5.46,5.46,0,0,1,2.31.48,5.11,5.11,0,0,1,1.8,1.4,6.65,6.65,0,0,1,1.17,2.23,10,10,0,0,1,.41,3,10.11,10.11,0,0,1-.41,3,6.7,6.7,0,0,1-1.17,2.22,5,5,0,0,1-1.8,1.4,5.31,5.31,0,0,1-2.31.49,6.78,6.78,0,0,1-3.36-.86,6.38,6.38,0,0,1-2.45-2.44,8.33,8.33,0,0,1,0-7.57Zm1.74,11.46a3.35,3.35,0,0,0,.53,1.81,4,4,0,0,0,1.5,1.36,4.91,4.91,0,0,0,2.3.51,4.45,4.45,0,0,0,2-.5,4.09,4.09,0,0,0,1.66-1.57,5.19,5.19,0,0,0,.67-2.79V352.08h2.36v13.27a7.34,7.34,0,0,1-1,3.91,6.31,6.31,0,0,1-2.5,2.37,7,7,0,0,1-3.25.8,7.92,7.92,0,0,1-3.49-.74,5.72,5.72,0,0,1-2.37-2.08,5.6,5.6,0,0,1-.86-3.08Zm.37-5a4.32,4.32,0,0,0,1.69,1.65,4.92,4.92,0,0,0,2.3.56,3.88,3.88,0,0,0,1.54-.33,4.54,4.54,0,0,0,1.4-.94,4.72,4.72,0,0,0,1-1.52,5.88,5.88,0,0,0,0-4.16,4.67,4.67,0,0,0-1-1.51,4.57,4.57,0,0,0-1.4-.95,4,4,0,0,0-1.54-.32,4.8,4.8,0,0,0-2.3.56,4.19,4.19,0,0,0-1.69,1.65,5.83,5.83,0,0,0,0,5.31Z"/><path d="M155.31,345.33a1.54,1.54,0,0,1,1.13-.47,1.52,1.52,0,0,1,1.15.47,1.59,1.59,0,0,1,0,2.28,1.51,1.51,0,0,1-1.15.49,1.61,1.61,0,0,1-1.13-2.77Zm2.31,6.75v13.56h-2.35V352.08Z"/><path d="M167.21,352.08v2.21h-6.79v-2.21ZM165,347.36v18.28h-2.35V347.36Z"/><path d="M171,362.78a2.17,2.17,0,0,0,1,.84,3.78,3.78,0,0,0,1.52.28,4.22,4.22,0,0,0,2-.44,3.42,3.42,0,0,0,1.9-3.12l.47,1.77a3.07,3.07,0,0,1-.78,2.15,4.79,4.79,0,0,1-1.92,1.27,6.7,6.7,0,0,1-2.25.41,5.22,5.22,0,0,1-2.32-.52,4.15,4.15,0,0,1-1.72-1.49,4.07,4.07,0,0,1-.65-2.36,3.94,3.94,0,0,1,2.46-3.81,6.71,6.71,0,0,1,2.85-.55,7.56,7.56,0,0,1,2.46.34,5.88,5.88,0,0,1,1.57.77,3.84,3.84,0,0,1,.8.69v1.39a7,7,0,0,0-2.12-1,8.41,8.41,0,0,0-2.33-.31,5.13,5.13,0,0,0-1.87.29,2.32,2.32,0,0,0-1.08.83,2.2,2.2,0,0,0-.35,1.27A2.37,2.37,0,0,0,171,362.78Zm-1.87-9.31a10.1,10.1,0,0,1,2.11-1.12,8.23,8.23,0,0,1,3.23-.56,7.48,7.48,0,0,1,2.79.48,4.21,4.21,0,0,1,1.85,1.4,3.67,3.67,0,0,1,.67,2.24v9.73h-2.36v-9.4a2.54,2.54,0,0,0-.24-1.17,1.91,1.91,0,0,0-.66-.72,3.09,3.09,0,0,0-1-.38,5.62,5.62,0,0,0-1.18-.12,6.35,6.35,0,0,0-1.81.24,5.65,5.65,0,0,0-1.37.56,8.49,8.49,0,0,0-.89.56Z"/><path d="M185.18,362.78a2.14,2.14,0,0,0,1,.84,3.82,3.82,0,0,0,1.52.28,4.22,4.22,0,0,0,2-.44,3.42,3.42,0,0,0,1.9-3.12l.47,1.77a3.07,3.07,0,0,1-.78,2.15,4.79,4.79,0,0,1-1.92,1.27,6.66,6.66,0,0,1-2.25.41,5.22,5.22,0,0,1-2.32-.52,4.21,4.21,0,0,1-1.72-1.49,4.56,4.56,0,0,1,0-4.66,4.3,4.3,0,0,1,1.83-1.51,6.74,6.74,0,0,1,2.85-.55,7.56,7.56,0,0,1,2.46.34,6.12,6.12,0,0,1,1.58.77,3.72,3.72,0,0,1,.79.69v1.39a6.89,6.89,0,0,0-2.12-1,8.36,8.36,0,0,0-2.33-.31,5.13,5.13,0,0,0-1.87.29,2.38,2.38,0,0,0-1.08.83,2.51,2.51,0,0,0,0,2.59Zm-1.88-9.31a10.36,10.36,0,0,1,2.11-1.12,8.26,8.26,0,0,1,3.23-.56,7.48,7.48,0,0,1,2.79.48,4.29,4.29,0,0,1,1.86,1.4,3.73,3.73,0,0,1,.66,2.24v9.73h-2.36v-9.4a2.54,2.54,0,0,0-.24-1.17,1.83,1.83,0,0,0-.66-.72,2.92,2.92,0,0,0-1-.38,5.55,5.55,0,0,0-1.18-.12,6.35,6.35,0,0,0-1.81.24,5.65,5.65,0,0,0-1.37.56,9.7,9.7,0,0,0-.89.56Z"/><path d="M200.29,342.64v23h-2.36v-23Z"/><path d="M215,362.78a2.1,2.1,0,0,0,1,.84,3.82,3.82,0,0,0,1.52.28,4.22,4.22,0,0,0,2-.44,3.42,3.42,0,0,0,1.9-3.12l.47,1.77a3.07,3.07,0,0,1-.78,2.15,4.79,4.79,0,0,1-1.92,1.27,6.66,6.66,0,0,1-2.25.41,5.22,5.22,0,0,1-2.32-.52,4.15,4.15,0,0,1-1.72-1.49,4.07,4.07,0,0,1-.65-2.36,3.94,3.94,0,0,1,2.46-3.81,6.71,6.71,0,0,1,2.85-.55,7.56,7.56,0,0,1,2.46.34,6.12,6.12,0,0,1,1.58.77,4,4,0,0,1,.79.69v1.39a7,7,0,0,0-2.12-1,8.41,8.41,0,0,0-2.33-.31,5.13,5.13,0,0,0-1.87.29,2.32,2.32,0,0,0-1.08.83,2.2,2.2,0,0,0-.35,1.27A2.3,2.3,0,0,0,215,362.78Zm-1.88-9.31a10.1,10.1,0,0,1,2.11-1.12,8.26,8.26,0,0,1,3.23-.56,7.48,7.48,0,0,1,2.79.48,4.21,4.21,0,0,1,1.85,1.4,3.67,3.67,0,0,1,.67,2.24v9.73H221.4v-9.4a2.54,2.54,0,0,0-.24-1.17,1.83,1.83,0,0,0-.66-.72,3.09,3.09,0,0,0-1-.38,5.62,5.62,0,0,0-1.18-.12,6.35,6.35,0,0,0-1.81.24,5.65,5.65,0,0,0-1.37.56,8.49,8.49,0,0,0-.89.56Z"/><path d="M230.1,365.64h-2.36V352.08h2.36Zm3.24-11.48a2.49,2.49,0,0,0-1-.16,2,2,0,0,0-1.39.44,2.34,2.34,0,0,0-.69,1.21,7.08,7.08,0,0,0-.19,1.74H229a6.92,6.92,0,0,1,.58-2.88,5.46,5.46,0,0,1,1.49-2,3,3,0,0,1,1.86-.73,4.68,4.68,0,0,1,1.37.19,2.7,2.7,0,0,1,1.16.75l-1.3,1.95A3.89,3.89,0,0,0,233.34,354.16Z"/><path d="M242.57,352.08v2.21h-6.78v-2.21Zm-2.21-4.72v18.28H238V347.36Z"/><path d="M246.83,365a6.08,6.08,0,0,1-2.27-2.49,8,8,0,0,1-.81-3.69,8.3,8.3,0,0,1,.48-2.89,6.76,6.76,0,0,1,1.37-2.22,6.24,6.24,0,0,1,2.13-1.45,7.11,7.11,0,0,1,2.74-.51,6.63,6.63,0,0,1,3.43.84,5.51,5.51,0,0,1,2.2,2.4,8.35,8.35,0,0,1,.77,3.71c0,.14,0,.28,0,.43s0,.24,0,.28H245.25v-2H255L254,358.8a1.57,1.57,0,0,0,.17-.45,2,2,0,0,0,.09-.52,4.3,4.3,0,0,0-.48-2.09,3.68,3.68,0,0,0-1.35-1.39,3.91,3.91,0,0,0-2-.5,4.94,4.94,0,0,0-1.81.32,3.6,3.6,0,0,0-1.37.95,4.07,4.07,0,0,0-.86,1.53,6.64,6.64,0,0,0-.29,2.07,6.53,6.53,0,0,0,.5,2.71,3.69,3.69,0,0,0,1.47,1.71,4.52,4.52,0,0,0,2.36.59,4.82,4.82,0,0,0,2.45-.61,5,5,0,0,0,1.8-1.84l1.91,1.21a7.16,7.16,0,0,1-2.67,2.58,7.82,7.82,0,0,1-3.78.87A6.24,6.24,0,0,1,246.83,365Z"/><path d="M265.86,352.08v2.21h-6.78v-2.21Zm-.93-7.24a2.28,2.28,0,0,0-.75-.13,1.15,1.15,0,0,0-.75.25,1.69,1.69,0,0,0-.49.84,5.52,5.52,0,0,0-.17,1.56v18.28h-2.36V347.07a6.37,6.37,0,0,1,.47-2.66,3.33,3.33,0,0,1,1.34-1.54,4,4,0,0,1,2.11-.52,3.43,3.43,0,0,1,1.15.18,3.23,3.23,0,0,1,.87.44,2.53,2.53,0,0,1,.57.56l-1.29,2A1.33,1.33,0,0,0,264.93,344.84Z"/><path d="M270,362.78a2.17,2.17,0,0,0,1,.84,3.77,3.77,0,0,0,1.51.28,4.23,4.23,0,0,0,2-.44,3.47,3.47,0,0,0,1.38-1.25,3.37,3.37,0,0,0,.52-1.87l.47,1.77a3.07,3.07,0,0,1-.78,2.15,4.79,4.79,0,0,1-1.92,1.27,6.7,6.7,0,0,1-2.25.41,5.22,5.22,0,0,1-2.32-.52,4.15,4.15,0,0,1-1.72-1.49,4.07,4.07,0,0,1-.65-2.36,3.94,3.94,0,0,1,2.46-3.81,6.66,6.66,0,0,1,2.84-.55,7.59,7.59,0,0,1,2.47.34,6,6,0,0,1,1.57.77,3.84,3.84,0,0,1,.8.69v1.39a7,7,0,0,0-2.12-1,8.41,8.41,0,0,0-2.33-.31,5.13,5.13,0,0,0-1.87.29,2.32,2.32,0,0,0-1.08.83,2.2,2.2,0,0,0-.35,1.27A2.37,2.37,0,0,0,270,362.78Zm-1.87-9.31a9.85,9.85,0,0,1,2.11-1.12,8.23,8.23,0,0,1,3.23-.56,7.39,7.39,0,0,1,2.78.48,4.18,4.18,0,0,1,1.86,1.4,3.74,3.74,0,0,1,.67,2.24v9.73h-2.36v-9.4a2.54,2.54,0,0,0-.24-1.17,1.91,1.91,0,0,0-.66-.72,3.09,3.09,0,0,0-1-.38,5.62,5.62,0,0,0-1.18-.12,6.35,6.35,0,0,0-1.81.24,5.65,5.65,0,0,0-1.37.56,8.49,8.49,0,0,0-.89.56Z"/><path d="M284.39,361.37a4.55,4.55,0,0,0,1.65,1.72,4.44,4.44,0,0,0,2.38.64,6.3,6.3,0,0,0,2.05-.34,5.56,5.56,0,0,0,1.66-.92,3.37,3.37,0,0,0,1-1.22v2.95a4.49,4.49,0,0,1-2,1.28,8,8,0,0,1-2.69.46,7,7,0,0,1-3.57-.92,6.63,6.63,0,0,1-2.52-2.52,7.61,7.61,0,0,1,0-7.29,6.75,6.75,0,0,1,2.52-2.51,7,7,0,0,1,3.57-.91,8.21,8.21,0,0,1,2.69.45,4.59,4.59,0,0,1,2,1.29v2.94a3.17,3.17,0,0,0-1-1.23,5.52,5.52,0,0,0-1.66-.9,6,6,0,0,0-2.05-.34,4.52,4.52,0,0,0-2.38.62,4.41,4.41,0,0,0-1.65,1.72,5.21,5.21,0,0,0-.6,2.52A5.12,5.12,0,0,0,284.39,361.37Z"/><path d="M301.54,352.08v2.21h-6.78v-2.21Zm-2.21-4.72v18.28H297V347.36Z"/><path d="M315.43,362.18a2.44,2.44,0,0,0,1,1.15,2.93,2.93,0,0,0,1.59.4,3.64,3.64,0,0,0,1.81-.43,3,3,0,0,0,1.21-1.19,3.52,3.52,0,0,0,.43-1.77v-8.26h2.36v13.56h-2.36v-2.12a4.69,4.69,0,0,1-1.68,1.81,4.44,4.44,0,0,1-2.36.61,4.61,4.61,0,0,1-2.46-.65,4.28,4.28,0,0,1-1.62-1.84,6.37,6.37,0,0,1-.58-2.82v-8.55h2.36v8.26A4.59,4.59,0,0,0,315.43,362.18Z"/><path d="M328.71,345.33a1.54,1.54,0,0,1,1.13-.47,1.6,1.6,0,0,1,1.62,1.62,1.54,1.54,0,0,1-.47,1.13,1.51,1.51,0,0,1-1.15.49,1.61,1.61,0,0,1-1.13-2.77Zm2.31,6.75v13.56h-2.36V352.08Z"/><path d="M340.6,352.08v2.21h-6.78v-2.21Zm-2.21-4.72v18.28H336V347.36Z"/><path d="M354.17,365.64h-2.36v-23h2.36Zm6-10.12a2.31,2.31,0,0,0-1-1.14,3.08,3.08,0,0,0-1.6-.38,3.58,3.58,0,0,0-1.82.44,3,3,0,0,0-1.2,1.21,3.45,3.45,0,0,0-.43,1.74h-.77a6.49,6.49,0,0,1,.62-2.88,5.16,5.16,0,0,1,1.7-2,4.27,4.27,0,0,1,2.49-.73,4.87,4.87,0,0,1,2.46.59,3.91,3.91,0,0,1,1.62,1.76,6.77,6.77,0,0,1,.58,2.95v8.55h-2.36v-8.25A4.64,4.64,0,0,0,360.18,355.52Z"/><path d="M369.19,365a6.15,6.15,0,0,1-2.27-2.49,8.79,8.79,0,0,1-.32-6.58,6.44,6.44,0,0,1,1.37-2.22,6.2,6.2,0,0,1,2.12-1.45,7.11,7.11,0,0,1,2.74-.51,6.69,6.69,0,0,1,3.44.84,5.55,5.55,0,0,1,2.19,2.4,8.35,8.35,0,0,1,.77,3.71c0,.14,0,.28,0,.43a2,2,0,0,0,0,.28H367.61v-2h9.73l-.94,1.35a2.22,2.22,0,0,0,.26-1,4.3,4.3,0,0,0-.48-2.09,3.65,3.65,0,0,0-1.34-1.39,3.94,3.94,0,0,0-2-.5,4.94,4.94,0,0,0-1.81.32,3.6,3.6,0,0,0-1.37.95,4.07,4.07,0,0,0-.86,1.53,7,7,0,0,0-.29,2.07,6.53,6.53,0,0,0,.5,2.71,3.69,3.69,0,0,0,1.47,1.71,4.52,4.52,0,0,0,2.36.59,4.79,4.79,0,0,0,2.45-.61,4.9,4.9,0,0,0,1.8-1.84l1.91,1.21a7.06,7.06,0,0,1-2.66,2.58,7.88,7.88,0,0,1-3.79.87A6.24,6.24,0,0,1,369.19,365Z"/><path d="M387.19,352.08v2.21h-6.78v-2.21ZM385,347.36v18.28h-2.36V347.36Z"/><path d="M398.84,352.08l3.83,9.58,3.83-9.58h2.66l-6.49,14.6-6.49-14.6Z"/><path d="M412.83,365a6.08,6.08,0,0,1-2.27-2.49,8,8,0,0,1-.81-3.69,8.3,8.3,0,0,1,.48-2.89,6.59,6.59,0,0,1,1.37-2.22,6.24,6.24,0,0,1,2.13-1.45,7.11,7.11,0,0,1,2.74-.51,6.63,6.63,0,0,1,3.43.84,5.51,5.51,0,0,1,2.2,2.4,8.35,8.35,0,0,1,.77,3.71c0,.14,0,.28,0,.43s0,.24,0,.28H411.25v-2H421L420,358.8a2.66,2.66,0,0,0,.26-1,4.19,4.19,0,0,0-.49-2.09,3.58,3.58,0,0,0-1.34-1.39,3.91,3.91,0,0,0-2-.5,4.94,4.94,0,0,0-1.81.32,3.63,3.63,0,0,0-1.38.95,4.2,4.2,0,0,0-.85,1.53,6.63,6.63,0,0,0-.3,2.07,6.52,6.52,0,0,0,.51,2.71,3.69,3.69,0,0,0,1.47,1.71,4.49,4.49,0,0,0,2.36.59,4.82,4.82,0,0,0,2.45-.61,5,5,0,0,0,1.79-1.84l1.92,1.21a7.16,7.16,0,0,1-2.67,2.58,7.83,7.83,0,0,1-3.79.87A6.23,6.23,0,0,1,412.83,365Z"/><path d="M428.47,365.64h-2.36V352.08h2.36Zm3.24-11.48a2.46,2.46,0,0,0-1-.16,2,2,0,0,0-1.39.44,2.34,2.34,0,0,0-.69,1.21,7.08,7.08,0,0,0-.19,1.74h-1.06a6.92,6.92,0,0,1,.57-2.88,5.57,5.57,0,0,1,1.49-2,3,3,0,0,1,1.86-.73,4.63,4.63,0,0,1,1.37.19,2.7,2.7,0,0,1,1.16.75l-1.29,1.95A4.18,4.18,0,0,0,431.71,354.16Z"/><path d="M438.58,342.64v23h-2.36v-23Z"/><path d="M444.91,365a6.08,6.08,0,0,1-2.27-2.49,8,8,0,0,1-.81-3.69,8.3,8.3,0,0,1,.48-2.89,6.59,6.59,0,0,1,1.37-2.22,6.24,6.24,0,0,1,2.13-1.45,7.11,7.11,0,0,1,2.74-.51,6.63,6.63,0,0,1,3.43.84,5.51,5.51,0,0,1,2.2,2.4,8.35,8.35,0,0,1,.77,3.71c0,.14,0,.28,0,.43s0,.24,0,.28H443.33v-2h9.73l-.94,1.35a2.66,2.66,0,0,0,.26-1,4.19,4.19,0,0,0-.49-2.09,3.58,3.58,0,0,0-1.34-1.39,3.93,3.93,0,0,0-2-.5,5,5,0,0,0-1.82.32,3.67,3.67,0,0,0-1.37.95,4.2,4.2,0,0,0-.85,1.53,6.63,6.63,0,0,0-.3,2.07,6.52,6.52,0,0,0,.51,2.71,3.69,3.69,0,0,0,1.47,1.71,4.49,4.49,0,0,0,2.36.59,4.82,4.82,0,0,0,2.45-.61,5,5,0,0,0,1.79-1.84l1.92,1.21a7.16,7.16,0,0,1-2.67,2.58,7.83,7.83,0,0,1-3.79.87A6.23,6.23,0,0,1,444.91,365Z"/><path d="M457.92,355.07a6.42,6.42,0,0,1,2.45-2.43,6.77,6.77,0,0,1,3.36-.85,5.5,5.5,0,0,1,2.32.48,5.11,5.11,0,0,1,1.8,1.4A6.46,6.46,0,0,1,469,355.9a9.67,9.67,0,0,1,.41,3,9.78,9.78,0,0,1-.41,3,6.5,6.5,0,0,1-1.16,2.22,5,5,0,0,1-1.8,1.4,5.36,5.36,0,0,1-2.32.49,6.78,6.78,0,0,1-3.36-.86,6.38,6.38,0,0,1-2.45-2.44,8.33,8.33,0,0,1,0-7.57Zm2.11,6.45a4.34,4.34,0,0,0,1.7,1.65,4.89,4.89,0,0,0,2.3.56,3.84,3.84,0,0,0,1.53-.33,4.42,4.42,0,0,0,1.4-.94,4.72,4.72,0,0,0,1-1.52,5.88,5.88,0,0,0,0-4.16,4.67,4.67,0,0,0-1-1.51,4.46,4.46,0,0,0-1.4-.95A4,4,0,0,0,464,354a4.77,4.77,0,0,0-2.3.56,4.21,4.21,0,0,0-1.7,1.65,5.91,5.91,0,0,0,0,5.31Zm10.69-18.88v23h-2.36v-23Z"/><path d="M476.9,365a6.15,6.15,0,0,1-2.27-2.49,8,8,0,0,1-.81-3.69,8.3,8.3,0,0,1,.48-2.89,6.59,6.59,0,0,1,1.37-2.22,6.24,6.24,0,0,1,2.13-1.45,7.11,7.11,0,0,1,2.74-.51,6.63,6.63,0,0,1,3.43.84,5.51,5.51,0,0,1,2.2,2.4,8.35,8.35,0,0,1,.77,3.71c0,.14,0,.28,0,.43s0,.24,0,.28H475.32v-2h9.73l-.94,1.35a2.66,2.66,0,0,0,.26-1,4.3,4.3,0,0,0-.48-2.09,3.68,3.68,0,0,0-1.35-1.39,3.91,3.91,0,0,0-2-.5,4.94,4.94,0,0,0-1.81.32,3.63,3.63,0,0,0-1.38.95,4.2,4.2,0,0,0-.85,1.53,6.64,6.64,0,0,0-.29,2.07,6.53,6.53,0,0,0,.5,2.71,3.69,3.69,0,0,0,1.47,1.71,4.52,4.52,0,0,0,2.36.59,4.82,4.82,0,0,0,2.45-.61,5,5,0,0,0,1.8-1.84l1.91,1.21a7.16,7.16,0,0,1-2.67,2.58,7.83,7.83,0,0,1-3.79.87A6.23,6.23,0,0,1,476.9,365Z"/><path d="M498.56,355.52a2.4,2.4,0,0,0-1-1.14A3.12,3.12,0,0,0,496,354a3.64,3.64,0,0,0-1.81.43,3,3,0,0,0-1.21,1.19,3.52,3.52,0,0,0-.43,1.77v8.25h-2.36V352.08h2.36v2.12a4.56,4.56,0,0,1,1.7-1.82,4.47,4.47,0,0,1,2.34-.59,4.6,4.6,0,0,1,2.48.64,4.46,4.46,0,0,1,1.6,1.83,6.32,6.32,0,0,1,.58,2.83v8.55h-2.36v-8.25A4.83,4.83,0,0,0,498.56,355.52Z"/><path d="M128.05,390.9a2.43,2.43,0,0,0-1-1.14,3.18,3.18,0,0,0-1.6-.38,3.67,3.67,0,0,0-1.81.43,3,3,0,0,0-1.21,1.19,3.62,3.62,0,0,0-.43,1.77V401h-2.35V387.46H122v2.13a4.59,4.59,0,0,1,1.7-1.83,5,5,0,0,1,4.82.06,4.39,4.39,0,0,1,1.61,1.82,6.48,6.48,0,0,1,.57,2.84V401h-2.36v-8.26A4.65,4.65,0,0,0,128.05,390.9Z"/><path d="M136.59,398.17a2.26,2.26,0,0,0,1,.84,4,4,0,0,0,1.52.28,4.22,4.22,0,0,0,2-.45,3.4,3.4,0,0,0,1.38-1.25,3.35,3.35,0,0,0,.52-1.87l.47,1.77a3.07,3.07,0,0,1-.78,2.15,4.79,4.79,0,0,1-1.92,1.27,6.66,6.66,0,0,1-2.25.41,5.35,5.35,0,0,1-2.32-.51,4.3,4.3,0,0,1-1.72-1.49,4.56,4.56,0,0,1,0-4.66,4.19,4.19,0,0,1,1.83-1.52,6.71,6.71,0,0,1,2.85-.55,7.84,7.84,0,0,1,2.46.34,6.12,6.12,0,0,1,1.58.77,4,4,0,0,1,.79.69v1.39a7.37,7.37,0,0,0-2.12-1,8.36,8.36,0,0,0-2.33-.31,4.91,4.91,0,0,0-1.87.3,2.29,2.29,0,0,0-1.08.82,2.22,2.22,0,0,0-.35,1.27A2.35,2.35,0,0,0,136.59,398.17Zm-1.88-9.32a10.59,10.59,0,0,1,2.11-1.12,8.26,8.26,0,0,1,3.23-.56,7.48,7.48,0,0,1,2.79.48,4.22,4.22,0,0,1,1.85,1.41,3.63,3.63,0,0,1,.67,2.24V401H143v-9.41a2.47,2.47,0,0,0-.24-1.16,1.87,1.87,0,0,0-.66-.73,3.34,3.34,0,0,0-1-.38,5.55,5.55,0,0,0-1.18-.12,6.35,6.35,0,0,0-1.81.24,6.09,6.09,0,0,0-1.37.56,8.49,8.49,0,0,0-.89.56Z"/><path d="M150.77,398.17a2.26,2.26,0,0,0,1,.84,4,4,0,0,0,1.52.28,4.19,4.19,0,0,0,2-.45,3.4,3.4,0,0,0,1.38-1.25,3.35,3.35,0,0,0,.52-1.87l.47,1.77a3.07,3.07,0,0,1-.78,2.15,4.79,4.79,0,0,1-1.92,1.27,6.61,6.61,0,0,1-2.25.41,5.35,5.35,0,0,1-2.32-.51,4.36,4.36,0,0,1-1.72-1.49A4.19,4.19,0,0,1,148,397a4.13,4.13,0,0,1,.63-2.3,4.24,4.24,0,0,1,1.83-1.52,6.74,6.74,0,0,1,2.85-.55,7.84,7.84,0,0,1,2.46.34,6.12,6.12,0,0,1,1.58.77,3.72,3.72,0,0,1,.79.69v1.39a7.25,7.25,0,0,0-2.12-1,8.36,8.36,0,0,0-2.33-.31,4.91,4.91,0,0,0-1.87.3,2.09,2.09,0,0,0-1.43,2.09A2.35,2.35,0,0,0,150.77,398.17Zm-1.88-9.32a10.88,10.88,0,0,1,2.11-1.12,8.26,8.26,0,0,1,3.23-.56,7.48,7.48,0,0,1,2.79.48,4.31,4.31,0,0,1,1.86,1.41,3.69,3.69,0,0,1,.66,2.24V401h-2.36v-9.41a2.47,2.47,0,0,0-.24-1.16,1.73,1.73,0,0,0-.66-.73,3.14,3.14,0,0,0-1-.38,5.55,5.55,0,0,0-1.18-.12,6.39,6.39,0,0,0-1.81.24,6.09,6.09,0,0,0-1.37.56,8.19,8.19,0,0,0-.88.56Z"/><path d="M165.88,401h-2.36V387.46h2.36Zm3.24-11.49a2.46,2.46,0,0,0-1-.16,2.07,2.07,0,0,0-1.39.44,2.38,2.38,0,0,0-.69,1.21,7.08,7.08,0,0,0-.19,1.74h-1.06a6.92,6.92,0,0,1,.57-2.88,5.46,5.46,0,0,1,1.49-2,3,3,0,0,1,1.86-.73,4.63,4.63,0,0,1,1.37.19,2.7,2.7,0,0,1,1.16.75L170,390.06A4.18,4.18,0,0,0,169.12,389.54Z"/><path d="M182.21,390.46a6.38,6.38,0,0,1,2.45-2.44,6.77,6.77,0,0,1,3.36-.85,5.5,5.5,0,0,1,2.32.48,5.19,5.19,0,0,1,1.79,1.41,6.43,6.43,0,0,1,1.17,2.22,10.93,10.93,0,0,1,0,5.93,6.52,6.52,0,0,1-1.17,2.22,5,5,0,0,1-1.79,1.4,5.36,5.36,0,0,1-2.32.49,6.77,6.77,0,0,1-3.36-.85,6.41,6.41,0,0,1-2.45-2.45,8.31,8.31,0,0,1,0-7.56Zm2.11,6.44a4.15,4.15,0,0,0,1.7,1.65,4.86,4.86,0,0,0,2.3.56,3.84,3.84,0,0,0,1.53-.33,4.42,4.42,0,0,0,1.4-.94,4.72,4.72,0,0,0,1-1.52,5.86,5.86,0,0,0,0-4.15,4.72,4.72,0,0,0-1-1.52,4.46,4.46,0,0,0-1.4-.95,4,4,0,0,0-1.53-.32,4.86,4.86,0,0,0-2.3.56,4.15,4.15,0,0,0-1.7,1.65,5.91,5.91,0,0,0,0,5.31ZM195,378v23h-2.36V378Z"/><path d="M201.19,400.42a6.08,6.08,0,0,1-2.27-2.49,7.9,7.9,0,0,1-.82-3.69,8.3,8.3,0,0,1,.49-2.89,6.59,6.59,0,0,1,1.37-2.22,6.24,6.24,0,0,1,2.13-1.45,7.08,7.08,0,0,1,2.74-.51,6.66,6.66,0,0,1,3.43.84,5.51,5.51,0,0,1,2.2,2.4,8.37,8.37,0,0,1,.77,3.72c0,.13,0,.28,0,.42s0,.24,0,.28H199.61v-2h9.73l-1,1.35a1.88,1.88,0,0,0,.18-.45,2,2,0,0,0,.09-.52,4.22,4.22,0,0,0-.49-2.09,3.58,3.58,0,0,0-1.34-1.39,3.93,3.93,0,0,0-2-.5,4.83,4.83,0,0,0-1.82.33,3.65,3.65,0,0,0-1.37.94,4.05,4.05,0,0,0-.85,1.53,7.46,7.46,0,0,0,.2,4.78,3.71,3.71,0,0,0,1.48,1.71,4.49,4.49,0,0,0,2.36.59,4.85,4.85,0,0,0,2.44-.6,5,5,0,0,0,1.8-1.85l1.92,1.21a7.16,7.16,0,0,1-2.67,2.58,7.83,7.83,0,0,1-3.79.87A6.21,6.21,0,0,1,201.19,400.42Z"/><path d="M223.17,407.51V387.46h2.36v20.05ZM236,398a6.43,6.43,0,0,1-2.43,2.45,6.76,6.76,0,0,1-3.38.85,5.35,5.35,0,0,1-2.31-.49,5,5,0,0,1-1.8-1.4,6.5,6.5,0,0,1-1.16-2.22,10.68,10.68,0,0,1,0-5.93,6.41,6.41,0,0,1,1.16-2.22,5.13,5.13,0,0,1,1.8-1.41,5.49,5.49,0,0,1,2.31-.48,6.76,6.76,0,0,1,3.38.85,6.4,6.4,0,0,1,2.43,2.44,8.23,8.23,0,0,1,0,7.56Zm-2.1-6.43a4.29,4.29,0,0,0-1.68-1.65,4.88,4.88,0,0,0-2.32-.56,4,4,0,0,0-1.53.32,4.62,4.62,0,0,0-2.42,2.47,5.86,5.86,0,0,0,0,4.15,4.56,4.56,0,0,0,2.42,2.46,3.84,3.84,0,0,0,1.53.33,4.88,4.88,0,0,0,2.32-.56,4.29,4.29,0,0,0,1.68-1.65,5.91,5.91,0,0,0,0-5.31Z"/><path d="M242.8,397.56a2.41,2.41,0,0,0,1,1.15,2.93,2.93,0,0,0,1.59.4,3.64,3.64,0,0,0,1.81-.43,3,3,0,0,0,1.21-1.19,3.52,3.52,0,0,0,.43-1.77v-8.26h2.36V401h-2.36V398.9a4.8,4.8,0,0,1-1.68,1.82,4.53,4.53,0,0,1-2.36.6,4.61,4.61,0,0,1-2.46-.65,4.22,4.22,0,0,1-1.62-1.84,6.37,6.37,0,0,1-.58-2.82v-8.55h2.36v8.26A4.74,4.74,0,0,0,242.8,397.56Z"/><path d="M257.81,401h-2.36V378h2.36Zm10.44-3a6.43,6.43,0,0,1-2.43,2.45,6.76,6.76,0,0,1-3.38.85,5.31,5.31,0,0,1-2.31-.49,5,5,0,0,1-1.8-1.4,6.7,6.7,0,0,1-1.17-2.22,10.93,10.93,0,0,1,0-5.93,6.6,6.6,0,0,1,1.17-2.22,5.13,5.13,0,0,1,1.8-1.41,5.46,5.46,0,0,1,2.31-.48,6.76,6.76,0,0,1,3.38.85,6.4,6.4,0,0,1,2.43,2.44,8.31,8.31,0,0,1,0,7.56Zm-2.11-6.43a4.16,4.16,0,0,0-1.68-1.65,4.87,4.87,0,0,0-2.31-.56,4,4,0,0,0-1.54.32,4.56,4.56,0,0,0-2.41,2.47,5.72,5.72,0,0,0,0,4.15,4.5,4.5,0,0,0,2.41,2.46,3.88,3.88,0,0,0,1.54.33,4.87,4.87,0,0,0,2.31-.56,4.16,4.16,0,0,0,1.68-1.65,5.83,5.83,0,0,0,0-5.31Z"/><path d="M274.77,378v23h-2.36V378Z"/><path d="M279.68,380.71a1.61,1.61,0,0,1,2.75,1.15A1.62,1.62,0,0,1,282,383a1.63,1.63,0,0,1-2.77-1.14A1.52,1.52,0,0,1,279.68,380.71Zm2.31,6.75V401h-2.36V387.46Z"/><path d="M288.76,400.42a6.08,6.08,0,0,1-2.27-2.49,7.9,7.9,0,0,1-.81-3.69,8.3,8.3,0,0,1,.48-2.89,6.59,6.59,0,0,1,1.37-2.22,6.24,6.24,0,0,1,2.13-1.45,7.08,7.08,0,0,1,2.74-.51,6.66,6.66,0,0,1,3.43.84,5.51,5.51,0,0,1,2.2,2.4,8.37,8.37,0,0,1,.77,3.72c0,.13,0,.28,0,.42s0,.24,0,.28H287.18v-2h9.73l-.94,1.35a2.55,2.55,0,0,0,.17-.45,2,2,0,0,0,.09-.52,4.22,4.22,0,0,0-.49-2.09,3.58,3.58,0,0,0-1.34-1.39,3.93,3.93,0,0,0-2-.5,4.83,4.83,0,0,0-1.82.33,3.65,3.65,0,0,0-1.37.94,4.2,4.2,0,0,0-.85,1.53,7.46,7.46,0,0,0,.2,4.78,3.71,3.71,0,0,0,1.48,1.71,4.49,4.49,0,0,0,2.36.59,4.91,4.91,0,0,0,2.45-.6,5.06,5.06,0,0,0,1.79-1.85l1.92,1.21a7.16,7.16,0,0,1-2.67,2.58,7.83,7.83,0,0,1-3.79.87A6.23,6.23,0,0,1,288.76,400.42Z"/><path d="M304.25,378v23h-2.36V378Zm8,9.43-5.9,5.6,6.49,8h-2.95l-6.48-8,5.89-5.6Z"/><path d="M316.47,400.42a6.15,6.15,0,0,1-2.27-2.49,8.79,8.79,0,0,1-.32-6.58,6.44,6.44,0,0,1,1.37-2.22,6.3,6.3,0,0,1,2.12-1.45,7.15,7.15,0,0,1,2.74-.51,6.67,6.67,0,0,1,3.44.84,5.63,5.63,0,0,1,2.2,2.4,8.37,8.37,0,0,1,.76,3.72c0,.13,0,.28,0,.42s0,.24,0,.28H314.89v-2h9.74l-.95,1.35a1.88,1.88,0,0,0,.18-.45,2,2,0,0,0,.09-.52,4.33,4.33,0,0,0-.49-2.09,3.58,3.58,0,0,0-1.34-1.39,3.94,3.94,0,0,0-2-.5,4.75,4.75,0,0,0-1.81.33,3.57,3.57,0,0,0-1.37.94,4.21,4.21,0,0,0-.86,1.53,7,7,0,0,0-.29,2.07,6.69,6.69,0,0,0,.5,2.71,3.66,3.66,0,0,0,1.48,1.71,4.45,4.45,0,0,0,2.35.59,4.89,4.89,0,0,0,2.45-.6,5,5,0,0,0,1.8-1.85l1.92,1.21a7.16,7.16,0,0,1-2.67,2.58,7.86,7.86,0,0,1-3.79.87A6.27,6.27,0,0,1,316.47,400.42Z"/><path d="M341,401H338.6V387.46H341Zm3.24-11.49a2.46,2.46,0,0,0-1-.16,2.07,2.07,0,0,0-1.39.44,2.38,2.38,0,0,0-.69,1.21,7.08,7.08,0,0,0-.19,1.74H339.9a6.92,6.92,0,0,1,.57-2.88,5.57,5.57,0,0,1,1.49-2,3,3,0,0,1,1.86-.73,4.63,4.63,0,0,1,1.37.19,2.7,2.7,0,0,1,1.16.75l-1.29,1.95A4.18,4.18,0,0,0,344.2,389.54Z"/><path d="M351.4,397.56a2.4,2.4,0,0,0,1,1.15,2.93,2.93,0,0,0,1.59.4,3.64,3.64,0,0,0,1.81-.43,2.89,2.89,0,0,0,1.21-1.19,3.52,3.52,0,0,0,.43-1.77v-8.26h2.36V401h-2.36V398.9a4.8,4.8,0,0,1-1.68,1.82,4.5,4.5,0,0,1-2.36.6,4.61,4.61,0,0,1-2.46-.65,4.22,4.22,0,0,1-1.62-1.84,6.37,6.37,0,0,1-.58-2.82v-8.55h2.36v8.26A4.55,4.55,0,0,0,351.4,397.56Z"/><path d="M364.68,380.71a1.58,1.58,0,0,1,1.13-.47,1.62,1.62,0,0,1,1.63,1.62A1.59,1.59,0,0,1,367,383a1.53,1.53,0,0,1-1.15.48,1.66,1.66,0,0,1-1.62-1.62A1.52,1.52,0,0,1,364.68,380.71Zm2.31,6.75V401h-2.35V387.46Z"/><path d="M390.43,401h-2.35v-8.26a5.69,5.69,0,0,0-.28-1.92,2.19,2.19,0,0,0-.86-1.1,2.62,2.62,0,0,0-1.46-.37,3.32,3.32,0,0,0-1.68.4,2.66,2.66,0,0,0-1.09,1.16,4,4,0,0,0-.38,1.83V401H380v-8.26a5.69,5.69,0,0,0-.28-1.92,2.14,2.14,0,0,0-.86-1.1,2.62,2.62,0,0,0-1.46-.37,3.32,3.32,0,0,0-1.68.4,2.66,2.66,0,0,0-1.09,1.16,4.12,4.12,0,0,0-.38,1.83V401h-2.36V387.46h2.36v2a4.51,4.51,0,0,1,1-1.27,3.69,3.69,0,0,1,1.25-.75,4.47,4.47,0,0,1,1.53-.25,4.87,4.87,0,0,1,1.71.29,3.85,3.85,0,0,1,1.34.86,3.39,3.39,0,0,1,.87,1.38,5.18,5.18,0,0,1,1.77-1.9,4.67,4.67,0,0,1,2.42-.63,4.26,4.26,0,0,1,2.36.62,3.91,3.91,0,0,1,1.49,1.81,7.31,7.31,0,0,1,.51,2.88Z"/><path d="M399.58,387.46v2.21h-6.79v-2.21Zm-2.22-4.72V401H395V382.74Z"/><path d="M403.84,400.42a6.17,6.17,0,0,1-2.28-2.49,8,8,0,0,1-.81-3.69,8.3,8.3,0,0,1,.49-2.89,6.44,6.44,0,0,1,1.37-2.22,6.3,6.3,0,0,1,2.12-1.45,7.16,7.16,0,0,1,2.75-.51,6.66,6.66,0,0,1,3.43.84,5.51,5.51,0,0,1,2.2,2.4,8.37,8.37,0,0,1,.77,3.72c0,.13,0,.28,0,.42s0,.24,0,.28H402.26v-2H412l-.95,1.35a1.88,1.88,0,0,0,.18-.45,2,2,0,0,0,.09-.52,4.22,4.22,0,0,0-.49-2.09,3.58,3.58,0,0,0-1.34-1.39,3.93,3.93,0,0,0-2-.5,4.8,4.8,0,0,0-1.82.33,3.65,3.65,0,0,0-1.37.94,4.05,4.05,0,0,0-.85,1.53,7.46,7.46,0,0,0,.2,4.78,3.71,3.71,0,0,0,1.48,1.71,4.49,4.49,0,0,0,2.36.59,4.85,4.85,0,0,0,2.44-.6,5,5,0,0,0,1.8-1.85l1.92,1.21a7.16,7.16,0,0,1-2.67,2.58,7.83,7.83,0,0,1-3.79.87A6.21,6.21,0,0,1,403.84,400.42Z"/><path d="M425.67,388.64v-2.36l15,6.49v1.33l-15,6.48v-2.35l11.14-4.66Z"/><text transform="translate(152.19 159.19)" style="font-size:54.31657028198242px;font-family:CooperBlack, Cooper Black">F<tspan x="35.91" y="0" style="letter-spacing:-0.029791351959436364em">Y</tspan><tspan x="76.65" y="0" style="letter-spacing:0.000017979089897064793em">SIEKE </tspan><tspan x="-34.74" y="65.18" style="letter-spacing:0.009762645814106184em">C</tspan><tspan x="4.88" y="65.18">H</tspan><tspan x="48.43" y="65.18" style="letter-spacing:-0.04246661033686704em">A</tspan><tspan x="91.02" y="65.18">T</tspan><tspan x="129.08" y="65.18" style="letter-spacing:-0.024919018597331803em">R</tspan><tspan x="169.9" y="65.18" style="letter-spacing:0.000017979089897064793em">OOM</tspan></text></g></g></svg>