<svg xmlns="http://www.w3.org/2000/svg" viewBox="0 0 582.42 536.35"><g id="Layer_2" data-name="Layer 2"><g id="Layer_1-2" data-name="Layer 1"><path d="M258.32,536.33c-32.69.54-61.25-9.3-85.76-31C155,489.8,140,472,126.27,453.19c-29.94-41-60-81.94-89.27-123.4C22.53,309.31,10.2,287.51,3.38,263-4,236.36.89,212.28,16.25,189.77c15.84-23.2,36.44-41.72,58.39-58.68C116.24,99,158,67,200.47,36c14-10.22,29.73-18.27,45.39-25.8,29.89-14.37,60-13.15,89.91,1C359.59,22.53,380.3,38.33,400.38,55,437.62,85.87,475,116.6,511.45,148.4a403.12,403.12,0,0,1,44.76,46.14c26.5,31.9,31.72,68.75,21,108.22-12.64,46.33-38.44,84.75-71.84,118.53C470.5,456.52,428.77,481.22,383.82,501c-27.37,12.07-55.15,23-84.56,28.94C285.73,532.71,272,534.25,258.32,536.33Z" style="fill:#26c940"/><text transform="translate(135.22 161.52)" style="font-size:60px;font-family:CooperBlack, Cooper Black"><tspan style="letter-spacing:0.00341796875em">C</tspan><tspan x="43.39" y="0">OMMON-</tspan><tspan x="0" y="72">PRI</tspan><tspan x="112.44" y="72" style="letter-spacing:-0.0126953125em">N</tspan><tspan x="161.48" y="72">CIPES</tspan><tspan x="0" y="144">IN UX</tspan></text><path d="M136.94,377.51v20.64h-2.51V377.51Zm-1.12,0h10.41v2.36H135.82Zm0,8.26h9.82v2.35h-9.82Zm0,10h10.41v2.36H135.82Z"/><path d="M152.4,397.54a6,6,0,0,1-2.27-2.49,8.77,8.77,0,0,1-.32-6.57,6.39,6.39,0,0,1,1.37-2.23,6.13,6.13,0,0,1,2.12-1.44,7,7,0,0,1,2.74-.52,6.67,6.67,0,0,1,3.44.84,5.6,5.6,0,0,1,2.2,2.41,8.36,8.36,0,0,1,.76,3.71c0,.14,0,.28,0,.43s0,.24,0,.28H150.83v-2h9.73l-.95,1.36a2,2,0,0,0,.18-.46,1.89,1.89,0,0,0,.09-.51,4.23,4.23,0,0,0-.49-2.1,3.49,3.49,0,0,0-1.34-1.38,3.85,3.85,0,0,0-2-.5,4.78,4.78,0,0,0-1.81.32,3.69,3.69,0,0,0-1.37.94,4.34,4.34,0,0,0-.86,1.54,6.88,6.88,0,0,0-.29,2.06,6.66,6.66,0,0,0,.5,2.71,3.66,3.66,0,0,0,1.48,1.71,4.36,4.36,0,0,0,2.35.59,4.89,4.89,0,0,0,2.45-.6,5,5,0,0,0,1.8-1.84l1.92,1.2a7.08,7.08,0,0,1-2.67,2.58,7.86,7.86,0,0,1-3.79.87A6.27,6.27,0,0,1,152.4,397.54Z"/><path d="M174.06,388a2.35,2.35,0,0,0-1-1.13,3.08,3.08,0,0,0-1.6-.39,3.78,3.78,0,0,0-1.81.43,3.08,3.08,0,0,0-1.21,1.19,3.68,3.68,0,0,0-.43,1.77v8.26h-2.35V384.59H168v2.12a4.73,4.73,0,0,1,6.52-1.77,4.36,4.36,0,0,1,1.61,1.83,6.43,6.43,0,0,1,.57,2.83v8.55h-2.36v-8.26A4.68,4.68,0,0,0,174.06,388Z"/><path d="M190.5,377.83a1.62,1.62,0,0,1,2.28,0A1.62,1.62,0,1,1,190,379,1.54,1.54,0,0,1,190.5,377.83Zm2.31,6.76v13.56h-2.36V384.59Z"/><path d="M206.05,388a2.35,2.35,0,0,0-1-1.13,3.07,3.07,0,0,0-1.59-.39,3.79,3.79,0,0,0-1.82.43,3.08,3.08,0,0,0-1.21,1.19,3.67,3.67,0,0,0-.42,1.77v8.26h-2.36V384.59H200v2.12a4.5,4.5,0,0,1,1.69-1.83,4.63,4.63,0,0,1,2.35-.59,4.57,4.57,0,0,1,2.47.65,4.3,4.3,0,0,1,1.61,1.83,6.43,6.43,0,0,1,.57,2.83v8.55h-2.36v-8.26A4.68,4.68,0,0,0,206.05,388Z"/><path d="M217.87,384.59v2.21h-6.78v-2.21Zm-2.21-4.72v18.28H213.3V379.87Z"/><path d="M222.13,397.54a6,6,0,0,1-2.27-2.49,8,8,0,0,1-.81-3.68,8.26,8.26,0,0,1,.49-2.89,6.39,6.39,0,0,1,1.37-2.23,6.13,6.13,0,0,1,2.12-1.44,7,7,0,0,1,2.75-.52,6.66,6.66,0,0,1,3.43.84,5.54,5.54,0,0,1,2.2,2.41,8.36,8.36,0,0,1,.76,3.71c0,.14,0,.28,0,.43s0,.24,0,.28H220.56v-2h9.73l-.95,1.36a2,2,0,0,0,.18-.46,1.89,1.89,0,0,0,.09-.51,4.23,4.23,0,0,0-.49-2.1,3.49,3.49,0,0,0-1.34-1.38,3.83,3.83,0,0,0-2-.5,4.8,4.8,0,0,0-1.82.32,3.69,3.69,0,0,0-1.37.94,4.18,4.18,0,0,0-.85,1.54,6.56,6.56,0,0,0-.3,2.06,6.66,6.66,0,0,0,.5,2.71,3.71,3.71,0,0,0,1.48,1.71,4.4,4.4,0,0,0,2.36.59,4.85,4.85,0,0,0,2.44-.6,5,5,0,0,0,1.8-1.84l1.92,1.2a7.08,7.08,0,0,1-2.67,2.58,7.83,7.83,0,0,1-3.79.87A6.27,6.27,0,0,1,222.13,397.54Z"/><path d="M237.78,398.15h-2.36V384.59h2.36ZM241,386.66a2.69,2.69,0,0,0-1-.16,2,2,0,0,0-1.39.45,2.3,2.3,0,0,0-.69,1.2,7.13,7.13,0,0,0-.19,1.74h-1.07a6.84,6.84,0,0,1,.58-2.87,5.29,5.29,0,0,1,1.49-2,3,3,0,0,1,1.86-.74,5,5,0,0,1,1.37.19,2.7,2.7,0,0,1,1.16.75l-1.3,1.95A4.64,4.64,0,0,0,241,386.66Z"/><path d="M251.28,384.59v2.21H244.5v-2.21Zm-.93-7.24a2.35,2.35,0,0,0-.75-.14,1.12,1.12,0,0,0-.75.26,1.6,1.6,0,0,0-.49.84,5.47,5.47,0,0,0-.18,1.56v18.28h-2.35V379.57a6.32,6.32,0,0,1,.47-2.65,3.36,3.36,0,0,1,1.34-1.55,4.1,4.1,0,0,1,2.11-.51,3.43,3.43,0,0,1,1.15.17,3.56,3.56,0,0,1,.87.45,2.34,2.34,0,0,1,.57.56L251,378A1.29,1.29,0,0,0,250.35,377.35Z"/><path d="M255.39,395.29a2.32,2.32,0,0,0,1,.84,3.85,3.85,0,0,0,1.52.28,4.31,4.31,0,0,0,2-.44,3.52,3.52,0,0,0,1.39-1.26,3.43,3.43,0,0,0,.52-1.87l.47,1.77a3.06,3.06,0,0,1-.78,2.15,4.69,4.69,0,0,1-1.92,1.27,6.47,6.47,0,0,1-2.26.41,5.34,5.34,0,0,1-2.31-.51,4.22,4.22,0,0,1-1.72-1.49,4.56,4.56,0,0,1,0-4.66,4.2,4.2,0,0,1,1.83-1.52,6.82,6.82,0,0,1,2.84-.54,7.59,7.59,0,0,1,2.47.34,6,6,0,0,1,1.57.76,4.12,4.12,0,0,1,.8.7v1.38a7.5,7.5,0,0,0-2.12-1,8.8,8.8,0,0,0-2.33-.31,5,5,0,0,0-1.88.3,2.28,2.28,0,0,0-1.07.82A2.23,2.23,0,0,0,255,394,2.41,2.41,0,0,0,255.39,395.29ZM253.52,386a10.83,10.83,0,0,1,2.11-1.12,8.42,8.42,0,0,1,3.23-.56,7.19,7.19,0,0,1,2.78.49,4.11,4.11,0,0,1,1.86,1.4,3.73,3.73,0,0,1,.66,2.24v9.73h-2.35v-9.41a2.47,2.47,0,0,0-.24-1.16,1.77,1.77,0,0,0-.66-.72,3.11,3.11,0,0,0-1-.39,5.63,5.63,0,0,0-1.18-.11,6.36,6.36,0,0,0-1.81.23,6.59,6.59,0,0,0-1.37.56c-.38.22-.67.4-.89.56Z"/><path d="M269.81,393.87a4.47,4.47,0,0,0,4,2.36,5.94,5.94,0,0,0,2-.34,5.47,5.47,0,0,0,1.67-.91,3.37,3.37,0,0,0,1-1.22v2.94a4.59,4.59,0,0,1-2,1.29,8.21,8.21,0,0,1-2.69.45,7,7,0,0,1-3.57-.91,6.77,6.77,0,0,1-2.52-2.52,7.63,7.63,0,0,1,0-7.3,6.82,6.82,0,0,1,2.52-2.51,7.13,7.13,0,0,1,3.57-.91,8,8,0,0,1,2.69.46,4.49,4.49,0,0,1,2,1.28v3a3.2,3.2,0,0,0-1-1.24,5.92,5.92,0,0,0-1.67-.9,6.19,6.19,0,0,0-2-.34,4.62,4.62,0,0,0-2.38.62,4.43,4.43,0,0,0-1.65,1.73,5.16,5.16,0,0,0-.6,2.52A5.08,5.08,0,0,0,269.81,393.87Z"/><path d="M284.14,397.54a6,6,0,0,1-2.27-2.49,8.77,8.77,0,0,1-.32-6.57,6.39,6.39,0,0,1,1.37-2.23,6,6,0,0,1,2.12-1.44,7,7,0,0,1,2.74-.52,6.69,6.69,0,0,1,3.44.84,5.52,5.52,0,0,1,2.19,2.41,8.35,8.35,0,0,1,.77,3.71c0,.14,0,.28,0,.43s0,.24,0,.28H282.56v-2h9.73l-.94,1.36a2,2,0,0,0,.18-.46,1.89,1.89,0,0,0,.09-.51,4.34,4.34,0,0,0-.49-2.1,3.56,3.56,0,0,0-1.34-1.38,3.85,3.85,0,0,0-2-.5,4.75,4.75,0,0,0-1.81.32,3.69,3.69,0,0,0-1.37.94,4.19,4.19,0,0,0-.86,1.54,6.88,6.88,0,0,0-.29,2.06,6.49,6.49,0,0,0,.5,2.71,3.64,3.64,0,0,0,1.47,1.71,4.42,4.42,0,0,0,2.36.59,4.89,4.89,0,0,0,2.45-.6,5,5,0,0,0,1.8-1.84l1.91,1.2a7,7,0,0,1-2.66,2.58,7.88,7.88,0,0,1-3.79.87A6.24,6.24,0,0,1,284.14,397.54Z"/><path d="M306.71,384.59l3.83,9.58,3.84-9.58H317l-6.49,14.59-6.48-14.59Z"/><path d="M318.55,387.71a6.82,6.82,0,0,1,2.52-2.51,7.48,7.48,0,0,1,7.15,0,6.87,6.87,0,0,1,2.51,2.51,7.63,7.63,0,0,1,0,7.3,6.82,6.82,0,0,1-2.51,2.52,7.48,7.48,0,0,1-7.15,0,6.77,6.77,0,0,1-2.52-2.52,7.63,7.63,0,0,1,0-7.3Zm2.06,6.16a4.65,4.65,0,0,0,1.65,1.73,4.58,4.58,0,0,0,6.4-1.73,5,5,0,0,0,.61-2.5,5.06,5.06,0,0,0-.61-2.52,4.43,4.43,0,0,0-1.65-1.73,4.58,4.58,0,0,0-6.4,1.73,5.16,5.16,0,0,0-.6,2.52A5.08,5.08,0,0,0,320.61,393.87Z"/><path d="M334.65,387.71a6.82,6.82,0,0,1,2.52-2.51,7.48,7.48,0,0,1,7.15,0,6.87,6.87,0,0,1,2.51,2.51,7.7,7.7,0,0,1,0,7.3,6.82,6.82,0,0,1-2.51,2.52,7.48,7.48,0,0,1-7.15,0,6.77,6.77,0,0,1-2.52-2.52,7.63,7.63,0,0,1,0-7.3Zm2.06,6.16a4.58,4.58,0,0,0,8.05,0,5.09,5.09,0,0,0,.61-2.5,5.16,5.16,0,0,0-.61-2.52,4.43,4.43,0,0,0-1.65-1.73,4.86,4.86,0,0,0-4.75,0,4.43,4.43,0,0,0-1.65,1.73,5.16,5.16,0,0,0-.6,2.52A5.08,5.08,0,0,0,336.71,393.87Z"/><path d="M353.36,398.15H351V384.59h2.36Zm3.24-11.49a2.69,2.69,0,0,0-1-.16,2,2,0,0,0-1.39.45,2.3,2.3,0,0,0-.69,1.2,7.13,7.13,0,0,0-.19,1.74h-1.07a6.84,6.84,0,0,1,.58-2.87,5.29,5.29,0,0,1,1.49-2,3,3,0,0,1,1.86-.74,5,5,0,0,1,1.37.19,2.7,2.7,0,0,1,1.16.75l-1.3,1.95A4.64,4.64,0,0,0,356.6,386.66Z"/><path d="M371.86,397.54a6,6,0,0,1-2.27-2.49,8,8,0,0,1-.81-3.68,8.26,8.26,0,0,1,.48-2.89,6.54,6.54,0,0,1,1.37-2.23,6.08,6.08,0,0,1,2.13-1.44,6.93,6.93,0,0,1,2.74-.52,6.63,6.63,0,0,1,3.43.84,5.48,5.48,0,0,1,2.2,2.41,8.35,8.35,0,0,1,.77,3.71c0,.14,0,.28,0,.43s0,.24,0,.28H370.28v-2H380l-.94,1.36a2.06,2.06,0,0,0,.17-.46,1.89,1.89,0,0,0,.09-.51,4.34,4.34,0,0,0-.48-2.1,3.58,3.58,0,0,0-1.35-1.38,3.81,3.81,0,0,0-2-.5,4.75,4.75,0,0,0-1.81.32,3.72,3.72,0,0,0-1.38.94,4.33,4.33,0,0,0-.85,1.54,6.56,6.56,0,0,0-.3,2.06,6.49,6.49,0,0,0,.51,2.71,3.64,3.64,0,0,0,1.47,1.71,4.42,4.42,0,0,0,2.36.59,4.91,4.91,0,0,0,2.45-.6,5,5,0,0,0,1.79-1.84l1.92,1.2a7.08,7.08,0,0,1-2.67,2.58,7.83,7.83,0,0,1-3.79.87A6.23,6.23,0,0,1,371.86,397.54Z"/><path d="M393.51,388a2.3,2.3,0,0,0-1-1.13,3,3,0,0,0-1.59-.39,3.75,3.75,0,0,0-1.81.43,3,3,0,0,0-1.21,1.19,3.57,3.57,0,0,0-.43,1.77v8.26h-2.36V384.59h2.36v2.12a4.52,4.52,0,0,1,1.7-1.83,5,5,0,0,1,4.82.06,4.34,4.34,0,0,1,1.6,1.83,6.29,6.29,0,0,1,.58,2.83v8.55h-2.36v-8.26A4.67,4.67,0,0,0,393.51,388Z"/><path d="M409.2,387.58a6.35,6.35,0,0,1,2.45-2.43,6.78,6.78,0,0,1,3.36-.86,5.35,5.35,0,0,1,2.31.49,5,5,0,0,1,1.8,1.4,6.7,6.7,0,0,1,1.17,2.22,10.11,10.11,0,0,1,.41,3,10,10,0,0,1-.41,3,6.65,6.65,0,0,1-1.17,2.23,5.11,5.11,0,0,1-1.8,1.4,5.49,5.49,0,0,1-2.31.48,6.77,6.77,0,0,1-3.36-.85,6.34,6.34,0,0,1-2.45-2.45,8.31,8.31,0,0,1,0-7.56Zm2.11,6.44a4.19,4.19,0,0,0,1.69,1.65,4.8,4.8,0,0,0,2.3.56,4,4,0,0,0,1.54-.32,4.57,4.57,0,0,0,1.4-1,4.5,4.5,0,0,0,1-1.51,5.74,5.74,0,0,0,0-4.16,4.5,4.5,0,0,0-2.41-2.46,3.88,3.88,0,0,0-1.54-.33,4.92,4.92,0,0,0-2.3.56,4.32,4.32,0,0,0-1.69,1.65,5.83,5.83,0,0,0,0,5.31ZM422,375.15v23h-2.36v-23Z"/><path d="M426,387.71a6.82,6.82,0,0,1,2.52-2.51,7.48,7.48,0,0,1,7.15,0,6.87,6.87,0,0,1,2.51,2.51,7.63,7.63,0,0,1,0,7.3,6.82,6.82,0,0,1-2.51,2.52,7.48,7.48,0,0,1-7.15,0A6.77,6.77,0,0,1,426,395a7.63,7.63,0,0,1,0-7.3Zm2.07,6.16a4.57,4.57,0,0,0,8,0,5,5,0,0,0,.61-2.5,5.06,5.06,0,0,0-.61-2.52,4.43,4.43,0,0,0-1.65-1.73,4.84,4.84,0,0,0-4.74,0,4.43,4.43,0,0,0-1.65,1.73,5.06,5.06,0,0,0-.61,2.52A5,5,0,0,0,428.09,393.87Z"/><path d="M442.12,387.71a6.82,6.82,0,0,1,2.52-2.51,7.48,7.48,0,0,1,7.15,0,6.87,6.87,0,0,1,2.51,2.51,7.63,7.63,0,0,1,0,7.3,6.82,6.82,0,0,1-2.51,2.52,7.48,7.48,0,0,1-7.15,0,6.77,6.77,0,0,1-2.52-2.52,7.63,7.63,0,0,1,0-7.3Zm2.06,6.16a4.65,4.65,0,0,0,1.65,1.73,4.58,4.58,0,0,0,6.4-1.73,5,5,0,0,0,.61-2.5,5.06,5.06,0,0,0-.61-2.52,4.43,4.43,0,0,0-1.65-1.73,4.58,4.58,0,0,0-6.4,1.73,5.16,5.16,0,0,0-.6,2.52A5.08,5.08,0,0,0,444.18,393.87Z"/><path d="M460.83,398.15h-2.36V384.59h2.36Zm3.24-11.49a2.65,2.65,0,0,0-1-.16,2,2,0,0,0-1.39.45,2.3,2.3,0,0,0-.69,1.2,7.13,7.13,0,0,0-.19,1.74h-1.06a6.84,6.84,0,0,1,.57-2.87,5.29,5.29,0,0,1,1.49-2,3,3,0,0,1,1.86-.74,5,5,0,0,1,1.37.19,2.7,2.7,0,0,1,1.16.75l-1.29,1.95A4.68,4.68,0,0,0,464.07,386.66Z"/><path d="M221.43,423a6.4,6.4,0,0,1,2.44-2.43,6.84,6.84,0,0,1,3.37-.86,5.5,5.5,0,0,1,2.31.49,5.11,5.11,0,0,1,1.8,1.4,6.46,6.46,0,0,1,1.16,2.23,10.64,10.64,0,0,1,0,5.92,6.46,6.46,0,0,1-1.16,2.23,5,5,0,0,1-1.8,1.4,5.5,5.5,0,0,1-2.31.49,6.84,6.84,0,0,1-3.37-.86,6.31,6.31,0,0,1-2.44-2.45,8.23,8.23,0,0,1,0-7.56Zm1.74,11.46a3.27,3.27,0,0,0,.53,1.81,3.89,3.89,0,0,0,1.5,1.36,4.91,4.91,0,0,0,2.3.51,4.45,4.45,0,0,0,2-.5A4.11,4.11,0,0,0,231.2,436a5.22,5.22,0,0,0,.66-2.78V420h2.36v13.27a7.28,7.28,0,0,1-1,3.9,6.29,6.29,0,0,1-2.51,2.38,6.92,6.92,0,0,1-3.24.79,7.89,7.89,0,0,1-3.49-.73,5.76,5.76,0,0,1-2.38-2.08,5.61,5.61,0,0,1-.85-3.08Zm.36-5a4.3,4.3,0,0,0,1.7,1.66,4.89,4.89,0,0,0,2.3.56,3.84,3.84,0,0,0,1.53-.33,4.42,4.42,0,0,0,1.4-.94,4.67,4.67,0,0,0,1-1.52,5.88,5.88,0,0,0,0-4.16,4.67,4.67,0,0,0-1-1.52,4.6,4.6,0,0,0-1.4-.94,3.82,3.82,0,0,0-1.53-.32,4.77,4.77,0,0,0-2.3.56,4.21,4.21,0,0,0-1.7,1.65,5.89,5.89,0,0,0,0,5.3Z"/><path d="M240.4,432.93a6.15,6.15,0,0,1-2.27-2.49,8.79,8.79,0,0,1-.32-6.58,6.48,6.48,0,0,1,1.37-2.23,6.18,6.18,0,0,1,2.12-1.44,7.12,7.12,0,0,1,2.74-.52,6.69,6.69,0,0,1,3.44.84,5.57,5.57,0,0,1,2.19,2.41,8.35,8.35,0,0,1,.77,3.71c0,.14,0,.28,0,.43s0,.24,0,.28H238.82v-2h9.73l-.94,1.36a2,2,0,0,0,.18-.46,2.2,2.2,0,0,0,.08-.51,4.34,4.34,0,0,0-.48-2.1,3.63,3.63,0,0,0-1.34-1.38,3.94,3.94,0,0,0-2-.5,4.94,4.94,0,0,0-1.81.32,3.6,3.6,0,0,0-1.37.95,4.07,4.07,0,0,0-.86,1.53,6.93,6.93,0,0,0-.29,2.06,6.58,6.58,0,0,0,.5,2.72,3.74,3.74,0,0,0,1.47,1.71,4.52,4.52,0,0,0,2.36.59,4.92,4.92,0,0,0,2.45-.61,5,5,0,0,0,1.8-1.84l1.91,1.21a7.06,7.06,0,0,1-2.66,2.58,7.88,7.88,0,0,1-3.79.87A6.24,6.24,0,0,1,240.4,432.93Z"/><path d="M255.89,433.53h-2.35v-23h2.35Zm10.44-3A6.36,6.36,0,0,1,263.9,433a6.77,6.77,0,0,1-3.38.86,5.5,5.5,0,0,1-2.31-.49,5,5,0,0,1-1.8-1.4,6.65,6.65,0,0,1-1.17-2.23,10.89,10.89,0,0,1,0-5.92,6.65,6.65,0,0,1,1.17-2.23,5.11,5.11,0,0,1,1.8-1.4,5.5,5.5,0,0,1,2.31-.49,6.77,6.77,0,0,1,3.38.86,6.44,6.44,0,0,1,2.43,2.43,8.23,8.23,0,0,1,0,7.56Zm-2.11-6.42a4.16,4.16,0,0,0-1.68-1.65,4.76,4.76,0,0,0-2.31-.56,3.82,3.82,0,0,0-1.53.32,4.47,4.47,0,0,0-2.42,2.46,5.74,5.74,0,0,0,0,4.16,4.65,4.65,0,0,0,1,1.52,4.46,4.46,0,0,0,1.41.94,3.84,3.84,0,0,0,1.53.33,4.87,4.87,0,0,0,2.31-.56,4.25,4.25,0,0,0,1.68-1.66,5.81,5.81,0,0,0,0-5.3Z"/><path d="M272.85,433.53h-2.36V420h2.36Zm3.24-11.48a2.46,2.46,0,0,0-1-.16,2,2,0,0,0-1.39.44,2.34,2.34,0,0,0-.69,1.21,7.08,7.08,0,0,0-.19,1.74h-1.06a6.92,6.92,0,0,1,.57-2.88,5.38,5.38,0,0,1,1.49-2,3,3,0,0,1,1.86-.74,4.63,4.63,0,0,1,1.37.2,2.52,2.52,0,0,1,1.16.75L277,422.56A4.57,4.57,0,0,0,276.09,422.05Z"/><path d="M283.29,430.07a2.44,2.44,0,0,0,1,1.15,3,3,0,0,0,1.59.4,3.75,3.75,0,0,0,1.81-.43,3,3,0,0,0,1.21-1.2,3.52,3.52,0,0,0,.43-1.77V420h2.36v13.56H289.3v-2.12a4.69,4.69,0,0,1-1.68,1.81,4.53,4.53,0,0,1-2.36.61,4.61,4.61,0,0,1-2.46-.65,4.28,4.28,0,0,1-1.62-1.84,6.37,6.37,0,0,1-.58-2.82V420H283v8.25A4.6,4.6,0,0,0,283.29,430.07Z"/><path d="M296.57,413.22a1.54,1.54,0,0,1,1.13-.47,1.62,1.62,0,0,1,1.63,1.62,1.55,1.55,0,0,1-.48,1.13,1.51,1.51,0,0,1-1.15.49,1.68,1.68,0,0,1-1.62-1.62A1.51,1.51,0,0,1,296.57,413.22Zm2.31,6.75v13.56h-2.36V420Z"/><path d="M306,410.53v23H303.6v-23Zm8,9.44-5.9,5.6,6.49,8h-2.95l-6.48-8L311,420Z"/><path d="M318.18,432.93a6.15,6.15,0,0,1-2.27-2.49,8.79,8.79,0,0,1-.32-6.58,6.48,6.48,0,0,1,1.37-2.23,6.18,6.18,0,0,1,2.12-1.44,7.15,7.15,0,0,1,2.74-.52,6.69,6.69,0,0,1,3.44.84,5.57,5.57,0,0,1,2.19,2.41,8.35,8.35,0,0,1,.77,3.71c0,.14,0,.28,0,.43s0,.24,0,.28H316.6v-2h9.73l-.94,1.36a2,2,0,0,0,.18-.46,1.83,1.83,0,0,0,.09-.51,4.34,4.34,0,0,0-.49-2.1,3.63,3.63,0,0,0-1.34-1.38,3.94,3.94,0,0,0-2-.5,4.94,4.94,0,0,0-1.81.32,3.6,3.6,0,0,0-1.37.95,4.07,4.07,0,0,0-.86,1.53,6.93,6.93,0,0,0-.29,2.06,6.58,6.58,0,0,0,.5,2.72,3.74,3.74,0,0,0,1.47,1.71,4.52,4.52,0,0,0,2.36.59,4.89,4.89,0,0,0,2.45-.61,5,5,0,0,0,1.8-1.84l1.91,1.21a7.06,7.06,0,0,1-2.66,2.58,7.88,7.88,0,0,1-3.79.87A6.24,6.24,0,0,1,318.18,432.93Z"/><path d="M333.82,433.53h-2.36V420h2.36Zm3.25-11.48a2.51,2.51,0,0,0-1-.16,2,2,0,0,0-1.38.44,2.28,2.28,0,0,0-.7,1.21,7.6,7.6,0,0,0-.19,1.74h-1.06a6.77,6.77,0,0,1,.58-2.88,5.38,5.38,0,0,1,1.49-2,2.92,2.92,0,0,1,1.85-.74,4.63,4.63,0,0,1,1.37.2,2.5,2.5,0,0,1,1.17.75l-1.3,1.94A4.53,4.53,0,0,0,337.07,422.05Z"/><path d="M343.08,430.52a4,4,0,0,0,1.22.85,3.82,3.82,0,0,0,1.52.3,2.5,2.5,0,0,0,1.58-.45A1.53,1.53,0,0,0,348,430a1.69,1.69,0,0,0-.46-1.19,4,4,0,0,0-1.17-.83q-.71-.33-1.5-.63a15.88,15.88,0,0,1-1.78-.84,4.66,4.66,0,0,1-1.51-1.27,3.5,3.5,0,0,1,0-4,3.69,3.69,0,0,1,1.65-1.18,5.85,5.85,0,0,1,2.11-.39,5.78,5.78,0,0,1,2,.36,6.09,6.09,0,0,1,1.7.94,4.43,4.43,0,0,1,1.14,1.36l-1.88,1.21a4.61,4.61,0,0,0-1.4-1.27,3.6,3.6,0,0,0-1.9-.5,2.42,2.42,0,0,0-1.27.32,1.08,1.08,0,0,0-.53,1,1.29,1.29,0,0,0,.41,1,4.4,4.4,0,0,0,1.06.74c.43.21.89.42,1.36.61a20.55,20.55,0,0,1,2.15,1,4.93,4.93,0,0,1,1.55,1.31,3.25,3.25,0,0,1,.57,2,3.79,3.79,0,0,1-.59,2.11,4.15,4.15,0,0,1-1.63,1.47,5.14,5.14,0,0,1-2.44.55,6,6,0,0,1-4.29-1.74,5.9,5.9,0,0,1-1.13-1.57l1.86-1.15A6.94,6.94,0,0,0,343.08,430.52Z"/><path d="M362,421.15v-2.36l15,6.49v1.32l-15,6.49v-2.36l11.15-4.66Z"/></g></g></svg>