<svg xmlns="http://www.w3.org/2000/svg" viewBox="0 0 566.42 474.35"><g id="Layer_2" data-name="Layer 2"><g id="Layer_1-2" data-name="Layer 1"><path d="M277.82,474.32c-35.84-.89-86.62-5.91-135.9-21.11-35.39-10.92-67.28-27.87-91.81-56.53-23.18-27.08-36.55-58.88-44-93.32-6.55-30.12-8-60.63-3.35-91.1,13-85.16,55.92-148.67,135.86-184.67C186.33,6.08,236.72-3,288.66.86c101,7.5,181.39,52.61,238.79,136.69,20.49,30,34.37,63.12,38,99.53,3.6,35.54-3.41,69.57-18.61,101.91-26.55,56.48-71.2,92.63-128.67,114.21C378,468.3,336.2,474.82,277.82,474.32Z" style="fill:#dbcc3f"/><path d="M57.76,211.76a14.87,14.87,0,0,1,3.25-5A15.19,15.19,0,0,1,66,203.46a16.44,16.44,0,0,1,12.33,0,15.16,15.16,0,0,1,4.91,3.32,14.89,14.89,0,0,1,3.26,5,17.34,17.34,0,0,1,0,12.42,14.88,14.88,0,0,1-3.26,5,15.16,15.16,0,0,1-4.91,3.32,16.44,16.44,0,0,1-12.33,0A15.19,15.19,0,0,1,61,229.18a14.85,14.85,0,0,1-3.25-5,17.2,17.2,0,0,1,0-12.42Zm3.62,11a11.14,11.14,0,0,0,2.43,3.82,10.84,10.84,0,0,0,3.69,2.51,12.23,12.23,0,0,0,9.21,0,11.07,11.07,0,0,0,6.11-6.33,13.87,13.87,0,0,0,0-9.56,11.07,11.07,0,0,0-6.11-6.33,12.23,12.23,0,0,0-9.21,0,10.84,10.84,0,0,0-3.69,2.51,11.24,11.24,0,0,0-2.43,3.82,13.87,13.87,0,0,0,0,9.56Z"/><path d="M92.41,242.87V213.18H95.9v29.69Zm19-14.06a9.42,9.42,0,0,1-3.6,3.62,10,10,0,0,1-5,1.27,8,8,0,0,1-3.43-.72,7.53,7.53,0,0,1-2.66-2.07,9.77,9.77,0,0,1-1.73-3.3,16.1,16.1,0,0,1,0-8.78,9.62,9.62,0,0,1,1.73-3.29,7.44,7.44,0,0,1,2.66-2.08,8,8,0,0,1,3.43-.72,10,10,0,0,1,5,1.27,9.43,9.43,0,0,1,3.6,3.6,12.29,12.29,0,0,1,0,11.2Zm-3.12-9.52a6.27,6.27,0,0,0-2.49-2.44,7.1,7.1,0,0,0-3.43-.83,5.79,5.79,0,0,0-2.27.48A6.56,6.56,0,0,0,98,217.89a6.79,6.79,0,0,0-1.51,2.25,8.61,8.61,0,0,0,0,6.16,6.81,6.81,0,0,0,3.58,3.65,5.79,5.79,0,0,0,2.27.48,7.22,7.22,0,0,0,3.43-.83,6.37,6.37,0,0,0,2.49-2.45,8.69,8.69,0,0,0,0-7.86Z"/><path d="M131.49,213.18l5,13L142,211.65l5.85,14.67,5.06-13.14h3.93l-8.73,21.61L142,220.16l-5.72,14.63-8.73-21.61Z"/><path d="M162.47,232.37a9.09,9.09,0,0,1-3.36-3.69,11.75,11.75,0,0,1-1.21-5.46,11.9,11.9,0,0,1,.73-4.28,9.55,9.55,0,0,1,2-3.3,9.22,9.22,0,0,1,3.14-2.14,10.64,10.64,0,0,1,4.06-.76A9.87,9.87,0,0,1,173,214a8.18,8.18,0,0,1,3.25,3.55,12.37,12.37,0,0,1,1.14,5.51q0,.3,0,.63c0,.22,0,.36,0,.41H160.13v-3h14.41l-1.4,2a2.85,2.85,0,0,0,.27-.67,3.24,3.24,0,0,0,.13-.77,6.37,6.37,0,0,0-.72-3.1,5.37,5.37,0,0,0-2-2.05,5.72,5.72,0,0,0-3-.74,7.15,7.15,0,0,0-2.68.48,5.41,5.41,0,0,0-2,1.39,6.21,6.21,0,0,0-1.26,2.28,11.07,11.07,0,0,0,.3,7.07,5.5,5.5,0,0,0,2.19,2.53,6.62,6.62,0,0,0,3.49.88,7.12,7.12,0,0,0,3.62-.9,7.45,7.45,0,0,0,2.67-2.73l2.84,1.79a10.55,10.55,0,0,1-4,3.82,11.56,11.56,0,0,1-5.61,1.29A9.22,9.22,0,0,1,162.47,232.37Z"/><path d="M185.63,199.2v34.06h-3.49V199.2Z"/><path d="M195.46,199.2v34.06H192V199.2Zm11.79,14-8.74,8.29,9.61,11.79h-4.37l-9.6-11.79,8.73-8.29Z"/><path d="M213.56,232.37a9,9,0,0,1-3.37-3.69,11.87,11.87,0,0,1-1.2-5.46,12.12,12.12,0,0,1,.72-4.28,9.7,9.7,0,0,1,2-3.3,9.26,9.26,0,0,1,3.15-2.14,10.6,10.6,0,0,1,4.06-.76A9.9,9.9,0,0,1,224,214a8.18,8.18,0,0,1,3.25,3.55,12.37,12.37,0,0,1,1.13,5.51c0,.2,0,.41,0,.63s0,.36,0,.41H211.22v-3h14.41l-1.4,2a2.52,2.52,0,0,0,.26-.67,2.8,2.8,0,0,0,.13-.77,6.26,6.26,0,0,0-.72-3.1,5.34,5.34,0,0,0-2-2.05,5.74,5.74,0,0,0-3-.74,7.2,7.2,0,0,0-2.69.48,5.45,5.45,0,0,0-2,1.39A6.21,6.21,0,0,0,213,220a11.07,11.07,0,0,0,.3,7.07,5.44,5.44,0,0,0,2.19,2.53,6.62,6.62,0,0,0,3.49.88,7.15,7.15,0,0,0,3.62-.9,7.45,7.45,0,0,0,2.67-2.73l2.83,1.79a10.46,10.46,0,0,1-3.95,3.82,11.56,11.56,0,0,1-5.61,1.29A9.22,9.22,0,0,1,213.56,232.37Z"/><path d="M273.84,233.26h-3.5V221a8.29,8.29,0,0,0-.41-2.84,3.27,3.27,0,0,0-1.27-1.64,4,4,0,0,0-2.16-.54,5,5,0,0,0-2.49.58,4,4,0,0,0-1.62,1.73,6.12,6.12,0,0,0-.56,2.71v12.22h-3.5V221a8.05,8.05,0,0,0-.41-2.84,3.27,3.27,0,0,0-1.27-1.64,4,4,0,0,0-2.16-.54,5,5,0,0,0-2.49.58,4,4,0,0,0-1.61,1.73,6,6,0,0,0-.57,2.71v12.22h-3.49V213.18h3.49v2.92a7.08,7.08,0,0,1,1.42-1.87,5.4,5.4,0,0,1,1.85-1.12,6.71,6.71,0,0,1,2.27-.37,7,7,0,0,1,2.54.44,5.77,5.77,0,0,1,2,1.26,5.31,5.31,0,0,1,1.29,2.06,7.32,7.32,0,0,1,2.62-2.82,6.81,6.81,0,0,1,3.58-.94,6.4,6.4,0,0,1,3.5.92,5.78,5.78,0,0,1,2.2,2.68,10.7,10.7,0,0,1,.77,4.26Z"/><path d="M280,217.81a10.11,10.11,0,0,1,3.74-3.72,11.06,11.06,0,0,1,10.59,0,10.18,10.18,0,0,1,3.71,3.72,11.33,11.33,0,0,1,0,10.8,10.16,10.16,0,0,1-3.71,3.74,11.06,11.06,0,0,1-10.59,0,10.09,10.09,0,0,1-3.74-3.74,11.33,11.33,0,0,1,0-10.8Zm3.06,9.12a6.77,6.77,0,0,0,2.45,2.56,7,7,0,0,0,7,0,6.82,6.82,0,0,0,2.44-2.56,7.47,7.47,0,0,0,.9-3.71,7.6,7.6,0,0,0-.9-3.73,6.61,6.61,0,0,0-2.44-2.56,7.24,7.24,0,0,0-7,0,6.56,6.56,0,0,0-2.45,2.56,7.59,7.59,0,0,0-.89,3.73A7.46,7.46,0,0,0,283.07,226.93Z"/><path d="M331.74,233.26h-3.5V221a8.29,8.29,0,0,0-.41-2.84,3.27,3.27,0,0,0-1.27-1.64,4,4,0,0,0-2.16-.54,5,5,0,0,0-2.49.58,3.91,3.91,0,0,0-1.61,1.73,6,6,0,0,0-.57,2.71v12.22h-3.5V221a8.05,8.05,0,0,0-.41-2.84,3.27,3.27,0,0,0-1.27-1.64,3.93,3.93,0,0,0-2.16-.54,5,5,0,0,0-2.49.58,4,4,0,0,0-1.61,1.73,6,6,0,0,0-.57,2.71v12.22h-3.49V213.18h3.49v2.92a7.08,7.08,0,0,1,1.42-1.87,5.4,5.4,0,0,1,1.85-1.12,6.73,6.73,0,0,1,2.28-.37,7,7,0,0,1,2.53.44,5.77,5.77,0,0,1,2,1.26,5.31,5.31,0,0,1,1.29,2.06,7.32,7.32,0,0,1,2.62-2.82,6.81,6.81,0,0,1,3.58-.94,6.4,6.4,0,0,1,3.5.92,5.78,5.78,0,0,1,2.2,2.68,10.7,10.7,0,0,1,.77,4.26Z"/><path d="M341.1,232.37a9.09,9.09,0,0,1-3.36-3.69,11.87,11.87,0,0,1-1.2-5.46,12.12,12.12,0,0,1,.72-4.28,9.7,9.7,0,0,1,2-3.3,9.22,9.22,0,0,1,3.14-2.14,10.69,10.69,0,0,1,4.07-.76,9.86,9.86,0,0,1,5.08,1.25,8.2,8.2,0,0,1,3.26,3.55,12.51,12.51,0,0,1,1.13,5.51c0,.2,0,.41,0,.63s0,.36,0,.41H338.77v-3h14.41l-1.4,2a2.91,2.91,0,0,0,.26-.67,2.8,2.8,0,0,0,.13-.77,6.37,6.37,0,0,0-.72-3.1,5.3,5.3,0,0,0-2-2.05,5.68,5.68,0,0,0-3-.74,7.2,7.2,0,0,0-2.69.48,5.37,5.37,0,0,0-2,1.39,6.23,6.23,0,0,0-1.27,2.28,9.94,9.94,0,0,0-.43,3.05,9.75,9.75,0,0,0,.74,4,5.43,5.43,0,0,0,2.18,2.53,6.66,6.66,0,0,0,3.5.88,7.18,7.18,0,0,0,3.62-.9,7.35,7.35,0,0,0,2.66-2.73l2.84,1.79a10.53,10.53,0,0,1-3.95,3.82,11.62,11.62,0,0,1-5.61,1.29A9.25,9.25,0,0,1,341.1,232.37Z"/><path d="M373.17,218.26a3.51,3.51,0,0,0-1.44-1.68,4.62,4.62,0,0,0-2.35-.56,5.54,5.54,0,0,0-2.69.63,4.42,4.42,0,0,0-1.79,1.77,5.29,5.29,0,0,0-.63,2.62v12.22h-3.5V213.18h3.5v3.14a6.38,6.38,0,0,1,6-3.58,6.76,6.76,0,0,1,3.67,1,6.43,6.43,0,0,1,2.38,2.71,9.57,9.57,0,0,1,.85,4.19v12.66h-3.5V221A7.07,7.07,0,0,0,373.17,218.26Z"/><path d="M390.68,213.18v3.27h-10v-3.27Zm-3.27-7v27.07h-3.49V206.19Z"/><path d="M407.93,213.18l5.68,14.19,5.67-14.19h3.93l-9.6,21.61L404,213.18Z"/><path d="M425.46,217.81a10,10,0,0,1,3.74-3.72,11.06,11.06,0,0,1,10.59,0,10.18,10.18,0,0,1,3.71,3.72,11.33,11.33,0,0,1,0,10.8,10.16,10.16,0,0,1-3.71,3.74,11.06,11.06,0,0,1-10.59,0,10,10,0,0,1-3.74-3.74,11.33,11.33,0,0,1,0-10.8Zm3.06,9.12a6.82,6.82,0,0,0,2.44,2.56,6.8,6.8,0,0,0,9.48-2.56,7.47,7.47,0,0,0,.9-3.71,7.6,7.6,0,0,0-.9-3.73,6.56,6.56,0,0,0-2.45-2.56,7.24,7.24,0,0,0-7,0,6.61,6.61,0,0,0-2.44,2.56,7.6,7.6,0,0,0-.9,3.73A7.47,7.47,0,0,0,428.52,226.93Z"/><path d="M452.49,232.37a9.09,9.09,0,0,1-3.36-3.69,11.87,11.87,0,0,1-1.2-5.46,12.12,12.12,0,0,1,.72-4.28,9.7,9.7,0,0,1,2-3.3,9.22,9.22,0,0,1,3.14-2.14,10.67,10.67,0,0,1,4.06-.76A9.87,9.87,0,0,1,463,214a8.12,8.12,0,0,1,3.25,3.55,12.37,12.37,0,0,1,1.14,5.51c0,.2,0,.41,0,.63s0,.36,0,.41H450.15v-3h14.41l-1.39,2a3.46,3.46,0,0,0,.26-.67,2.8,2.8,0,0,0,.13-.77,6.37,6.37,0,0,0-.72-3.1,5.3,5.3,0,0,0-2-2.05,5.69,5.69,0,0,0-3-.74,7.15,7.15,0,0,0-2.68.48,5.37,5.37,0,0,0-2,1.39A6.09,6.09,0,0,0,451.9,220a9.94,9.94,0,0,0-.43,3.05,9.75,9.75,0,0,0,.74,4,5.43,5.43,0,0,0,2.18,2.53,6.65,6.65,0,0,0,3.49.88,7.19,7.19,0,0,0,3.63-.9,7.43,7.43,0,0,0,2.66-2.73l2.84,1.79a10.6,10.6,0,0,1-3.95,3.82,11.62,11.62,0,0,1-5.61,1.29A9.23,9.23,0,0,1,452.49,232.37Z"/><path d="M475.66,199.2v34.06h-3.5V199.2Z"/><path d="M481.81,217.61a9.37,9.37,0,0,1,3.63-3.6,10,10,0,0,1,5-1.27,8,8,0,0,1,3.43.72,7.56,7.56,0,0,1,2.67,2.08,9.78,9.78,0,0,1,1.72,3.29,16.1,16.1,0,0,1,0,8.78,9.93,9.93,0,0,1-1.72,3.3,7.65,7.65,0,0,1-2.67,2.07,8,8,0,0,1-3.43.72,10,10,0,0,1-5-1.27,9.35,9.35,0,0,1-3.63-3.62,12.29,12.29,0,0,1,0-11.2Zm3.12,9.54a6.35,6.35,0,0,0,2.51,2.45,7.25,7.25,0,0,0,3.41.83,5.79,5.79,0,0,0,2.27-.48,6.72,6.72,0,0,0,3.58-3.65,8.61,8.61,0,0,0,0-6.16,6.93,6.93,0,0,0-1.5-2.25,6.71,6.71,0,0,0-2.08-1.39,5.79,5.79,0,0,0-2.27-.48,7.14,7.14,0,0,0-3.41.83,6.26,6.26,0,0,0-2.51,2.44,8.77,8.77,0,0,0,0,7.86Zm15.83-28v34.06h-3.49V199.2Z"/><path d="M509.91,232.37a9.09,9.09,0,0,1-3.36-3.69,11.87,11.87,0,0,1-1.2-5.46,12.12,12.12,0,0,1,.72-4.28,9.7,9.7,0,0,1,2-3.3,9.22,9.22,0,0,1,3.14-2.14,10.67,10.67,0,0,1,4.06-.76,9.87,9.87,0,0,1,5.09,1.25,8.12,8.12,0,0,1,3.25,3.55,12.37,12.37,0,0,1,1.14,5.51c0,.2,0,.41,0,.63s0,.36,0,.41H507.57v-3H522l-1.39,2a3.46,3.46,0,0,0,.26-.67,2.8,2.8,0,0,0,.13-.77,6.37,6.37,0,0,0-.72-3.1,5.3,5.3,0,0,0-2-2.05,5.69,5.69,0,0,0-3-.74,7.15,7.15,0,0,0-2.68.48,5.37,5.37,0,0,0-2,1.39,6.09,6.09,0,0,0-1.27,2.28,9.94,9.94,0,0,0-.43,3.05,9.75,9.75,0,0,0,.74,4,5.43,5.43,0,0,0,2.18,2.53,6.65,6.65,0,0,0,3.49.88,7.19,7.19,0,0,0,3.63-.9,7.43,7.43,0,0,0,2.66-2.73l2.84,1.79a10.6,10.6,0,0,1-3.95,3.82,11.62,11.62,0,0,1-5.61,1.29A9.23,9.23,0,0,1,509.91,232.37Z"/><path d="M71.3,291.47a2.51,2.51,0,0,0,1.24.31,1.79,1.79,0,0,0,1.2-.4,2.36,2.36,0,0,0,.68-1.26,10,10,0,0,0,.22-2.27V265.58h3.49v22.7a9.49,9.49,0,0,1-.68,3.76,5.14,5.14,0,0,1-2,2.4,6.35,6.35,0,0,1-4.72.63,4,4,0,0,1-1.27-.59,4.54,4.54,0,0,1-1-1l1.92-2.88A2.47,2.47,0,0,0,71.3,291.47Zm3.25-35.87a2.36,2.36,0,0,1,3.34,3.34,2.34,2.34,0,0,1-3.34,0,2.26,2.26,0,0,1-.7-1.66A2.23,2.23,0,0,1,74.55,255.6Z"/><path d="M86.05,255.58a2.34,2.34,0,0,1,1.69-.7,2.39,2.39,0,0,1,2.4,2.4,2.36,2.36,0,0,1-.7,1.68,2.3,2.3,0,0,1-1.7.72,2.46,2.46,0,0,1-2.41-2.4A2.27,2.27,0,0,1,86.05,255.58Zm3.43,10v20.08H86V265.58Z"/><path d="M93.56,291.47a2.57,2.57,0,0,0,1.25.31,1.81,1.81,0,0,0,1.2-.4,2.36,2.36,0,0,0,.68-1.26,10,10,0,0,0,.22-2.27V265.58h3.49v22.7a9.49,9.49,0,0,1-.68,3.76,5.14,5.14,0,0,1-2,2.4,6.35,6.35,0,0,1-4.72.63,4,4,0,0,1-1.27-.59,4.54,4.54,0,0,1-1-1l1.92-2.88A2.53,2.53,0,0,0,93.56,291.47Zm3.26-35.87a2.36,2.36,0,0,1,3.34,3.34,2.34,2.34,0,0,1-3.34,0,2.26,2.26,0,0,1-.7-1.66A2.23,2.23,0,0,1,96.82,255.6Z"/><path d="M117.58,291.47a2.54,2.54,0,0,0,1.25.31,1.81,1.81,0,0,0,1.2-.4,2.36,2.36,0,0,0,.67-1.26,9.45,9.45,0,0,0,.22-2.27V265.58h3.49v22.7a9.5,9.5,0,0,1-.67,3.76,5.16,5.16,0,0,1-2,2.4,6.32,6.32,0,0,1-4.71.63,4,4,0,0,1-1.27-.59,4.58,4.58,0,0,1-1-1l1.93-2.88A2.53,2.53,0,0,0,117.58,291.47Zm3.25-35.87a2.32,2.32,0,0,1,1.66-.68,2.28,2.28,0,0,1,1.68.68,2.25,2.25,0,0,1,.68,1.68,2.28,2.28,0,0,1-.68,1.66,2.23,2.23,0,0,1-1.68.7,2.26,2.26,0,0,1-1.66-.7,2.29,2.29,0,0,1-.69-1.66A2.25,2.25,0,0,1,120.83,255.6Z"/><path d="M134.44,284.77a9,9,0,0,1-3.37-3.69,11.87,11.87,0,0,1-1.2-5.46,12.12,12.12,0,0,1,.72-4.28,9.7,9.7,0,0,1,2-3.3,9.26,9.26,0,0,1,3.15-2.14,10.42,10.42,0,0,1,4.06-.76,9.9,9.9,0,0,1,5.09,1.24,8.26,8.26,0,0,1,3.25,3.56,12.36,12.36,0,0,1,1.13,5.5c0,.21,0,.42,0,.64s0,.35,0,.41H132.1v-3h14.41l-1.4,2a2.52,2.52,0,0,0,.26-.67,2.8,2.8,0,0,0,.13-.77,6.23,6.23,0,0,0-.72-3.1,5.28,5.28,0,0,0-2-2.05,5.74,5.74,0,0,0-3-.74,7.2,7.2,0,0,0-2.69.48,5.45,5.45,0,0,0-2,1.39,6.17,6.17,0,0,0-1.26,2.27,10,10,0,0,0-.44,3.06,9.92,9.92,0,0,0,.74,4,5.49,5.49,0,0,0,2.19,2.53,6.62,6.62,0,0,0,3.49.87,7.14,7.14,0,0,0,3.62-.89,7.45,7.45,0,0,0,2.67-2.73L149,281a10.46,10.46,0,0,1-3.95,3.82,11.56,11.56,0,0,1-5.61,1.29A9.22,9.22,0,0,1,134.44,284.77Z"/><path d="M166.81,270a9.44,9.44,0,0,1,3.63-3.6,10,10,0,0,1,5-1.27,8,8,0,0,1,3.42.72,7.56,7.56,0,0,1,2.67,2.07,9.93,9.93,0,0,1,1.72,3.3,16.1,16.1,0,0,1,0,8.78,9.78,9.78,0,0,1-1.72,3.29,7.48,7.48,0,0,1-2.67,2.08,8,8,0,0,1-3.42.72,10,10,0,0,1-5-1.27,9.42,9.42,0,0,1-3.63-3.62,12.29,12.29,0,0,1,0-11.2Zm3.13,9.54a6.14,6.14,0,0,0,2.51,2.44,7.07,7.07,0,0,0,3.4.83,5.79,5.79,0,0,0,2.27-.48A6.71,6.71,0,0,0,180.2,281a6.93,6.93,0,0,0,1.5-2.25,8.61,8.61,0,0,0,0-6.16,6.72,6.72,0,0,0-3.58-3.65,6,6,0,0,0-2.27-.48,7.18,7.18,0,0,0-3.4.83,6.22,6.22,0,0,0-2.51,2.45,8.69,8.69,0,0,0,0,7.86Zm15.82-28v34.06h-3.49V251.6Z"/><path d="M192.82,255.58a2.39,2.39,0,0,1,3.38,0,2.29,2.29,0,0,1,.7,1.7,2.32,2.32,0,0,1-.7,1.68,2.39,2.39,0,1,1-3.38-3.38Zm3.42,10v20.08h-3.49V265.58Z"/><path d="M203.06,270a9.41,9.41,0,0,1,3.62-3.6,10,10,0,0,1,5-1.27,8.07,8.07,0,0,1,3.43.72,7.53,7.53,0,0,1,2.66,2.07,9.75,9.75,0,0,1,1.72,3.3,16.1,16.1,0,0,1,0,8.78,9.61,9.61,0,0,1-1.72,3.29,7.44,7.44,0,0,1-2.66,2.08,8.07,8.07,0,0,1-3.43.72,10,10,0,0,1-5-1.27,9.4,9.4,0,0,1-3.62-3.62,12.21,12.21,0,0,1,0-11.2Zm2.57,17a4.91,4.91,0,0,0,.79,2.69,5.71,5.71,0,0,0,2.22,2,7.18,7.18,0,0,0,3.41.76,6.72,6.72,0,0,0,3-.74,6.14,6.14,0,0,0,2.47-2.34,7.71,7.71,0,0,0,1-4.12V265.58H222v19.65a10.73,10.73,0,0,1-1.45,5.78,9.41,9.41,0,0,1-3.71,3.52,10.32,10.32,0,0,1-4.8,1.18,11.63,11.63,0,0,1-5.17-1.1,8.2,8.2,0,0,1-4.79-7.64Zm.55-7.42a6.14,6.14,0,0,0,2.51,2.44,7.1,7.1,0,0,0,3.4.83,5.75,5.75,0,0,0,2.27-.48,6.65,6.65,0,0,0,3.58-3.64,8.61,8.61,0,0,0,0-6.16,6.77,6.77,0,0,0-1.5-2.25,6.93,6.93,0,0,0-2.08-1.4,5.93,5.93,0,0,0-2.27-.48,7.21,7.21,0,0,0-3.4.83,6.22,6.22,0,0,0-2.51,2.45,8.69,8.69,0,0,0,0,7.86Z"/><path d="M229.06,255.58a2.32,2.32,0,0,1,1.68-.7,2.39,2.39,0,0,1,2.4,2.4,2.32,2.32,0,0,1-.7,1.68,2.27,2.27,0,0,1-1.7.72,2.46,2.46,0,0,1-2.4-2.4A2.27,2.27,0,0,1,229.06,255.58Zm3.42,10v20.08H229V265.58Z"/><path d="M246.68,265.58v3.27H236.63v-3.27Zm-3.28-7v27.07h-3.49V258.59Z"/><path d="M252.29,281.43a3.32,3.32,0,0,0,1.53,1.24,5.63,5.63,0,0,0,2.24.42,6.3,6.3,0,0,0,2.91-.66,5.16,5.16,0,0,0,2-1.85,5.06,5.06,0,0,0,.76-2.78l.7,2.62a4.55,4.55,0,0,1-1.15,3.19,7,7,0,0,1-2.84,1.88,9.92,9.92,0,0,1-3.34.61,7.83,7.83,0,0,1-3.43-.77,6.19,6.19,0,0,1-2.55-2.2,6.07,6.07,0,0,1-1-3.49,6.16,6.16,0,0,1,.94-3.41,6.25,6.25,0,0,1,2.71-2.25,10,10,0,0,1,4.21-.81,11.22,11.22,0,0,1,3.65.51,9,9,0,0,1,2.34,1.13,6.46,6.46,0,0,1,1.18,1v2.05a10.84,10.84,0,0,0-3.15-1.51,12.84,12.84,0,0,0-3.45-.45,7.46,7.46,0,0,0-2.77.43,3.14,3.14,0,0,0-2.12,3.1A3.47,3.47,0,0,0,252.29,281.43Zm-2.77-13.8a15.15,15.15,0,0,1,3.12-1.66,12.43,12.43,0,0,1,4.78-.83,10.83,10.83,0,0,1,4.12.72,6.24,6.24,0,0,1,2.76,2.07,5.55,5.55,0,0,1,1,3.32v14.41h-3.5V271.73a3.76,3.76,0,0,0-.34-1.72,2.76,2.76,0,0,0-1-1.07,4.64,4.64,0,0,0-1.46-.57,8.25,8.25,0,0,0-1.75-.17,9.3,9.3,0,0,0-2.68.35,9,9,0,0,0-2,.83,13,13,0,0,0-1.31.83Z"/><path d="M273.29,281.43a3.32,3.32,0,0,0,1.53,1.24,5.64,5.64,0,0,0,2.25.42,6.28,6.28,0,0,0,2.9-.66,5.16,5.16,0,0,0,2-1.85,5.07,5.07,0,0,0,.77-2.78l.7,2.62a4.55,4.55,0,0,1-1.16,3.19,7,7,0,0,1-2.84,1.88,9.88,9.88,0,0,1-3.34.61,7.83,7.83,0,0,1-3.43-.77,6,6,0,0,1-3.51-5.69,6.08,6.08,0,0,1,.94-3.41,6.17,6.17,0,0,1,2.7-2.25,10.09,10.09,0,0,1,4.22-.81,11.16,11.16,0,0,1,3.64.51,8.8,8.8,0,0,1,2.34,1.13,6.46,6.46,0,0,1,1.18,1v2.05a10.84,10.84,0,0,0-3.15-1.51,12.73,12.73,0,0,0-3.45-.45,7.46,7.46,0,0,0-2.77.43,3.4,3.4,0,0,0-1.59,1.22,3.32,3.32,0,0,0-.53,1.88A3.55,3.55,0,0,0,273.29,281.43Zm-2.77-13.8a15.15,15.15,0,0,1,3.12-1.66,12.43,12.43,0,0,1,4.78-.83,10.92,10.92,0,0,1,4.13.72,6.21,6.21,0,0,1,2.75,2.07,5.55,5.55,0,0,1,1,3.32v14.41h-3.49V271.73a3.76,3.76,0,0,0-.35-1.72,2.74,2.74,0,0,0-1-1.07,4.7,4.7,0,0,0-1.47-.57,8.15,8.15,0,0,0-1.74-.17,9.38,9.38,0,0,0-2.69.35,9,9,0,0,0-2,.83,14.26,14.26,0,0,0-1.31.83Z"/><path d="M295.67,251.6v34.06h-3.49V251.6Z"/><path d="M316,265.58l5.68,14.19,5.67-14.19h3.93l-9.6,21.61L312,265.58Z"/><path d="M336.69,284.77a9.09,9.09,0,0,1-3.36-3.69,11.87,11.87,0,0,1-1.2-5.46,12.12,12.12,0,0,1,.72-4.28,9.7,9.7,0,0,1,2-3.3A9.22,9.22,0,0,1,338,265.9a10.45,10.45,0,0,1,4.06-.76,9.87,9.87,0,0,1,5.09,1.24,8.2,8.2,0,0,1,3.25,3.56,12.36,12.36,0,0,1,1.14,5.5c0,.21,0,.42,0,.64s0,.35,0,.41H334.35v-3h14.41l-1.39,2a3.46,3.46,0,0,0,.26-.67,2.8,2.8,0,0,0,.13-.77A6.34,6.34,0,0,0,347,271a5.23,5.23,0,0,0-2-2.05,5.69,5.69,0,0,0-3-.74,7.15,7.15,0,0,0-2.68.48,5.37,5.37,0,0,0-2,1.39,6,6,0,0,0-1.27,2.27,10,10,0,0,0-.44,3.06,9.75,9.75,0,0,0,.75,4,5.47,5.47,0,0,0,2.18,2.53,6.62,6.62,0,0,0,3.49.87,7.18,7.18,0,0,0,3.63-.89,7.43,7.43,0,0,0,2.66-2.73l2.84,1.79a10.6,10.6,0,0,1-3.95,3.82,11.62,11.62,0,0,1-5.61,1.29A9.23,9.23,0,0,1,336.69,284.77Z"/><path d="M359.86,285.66h-3.5V265.58h3.5Zm4.8-17a3.93,3.93,0,0,0-1.44-.24,3,3,0,0,0-2.05.66,3.39,3.39,0,0,0-1,1.79,10.68,10.68,0,0,0-.28,2.58h-1.58a10.1,10.1,0,0,1,.86-4.26,7.91,7.91,0,0,1,2.2-2.95,4.34,4.34,0,0,1,2.75-1.09,6.92,6.92,0,0,1,2,.28,3.94,3.94,0,0,1,1.73,1.12l-1.92,2.88A6.32,6.32,0,0,0,364.66,268.65Z"/><path d="M374.61,285.66h-3.49V251.6h3.49Zm15.46-4.45a9.42,9.42,0,0,1-3.6,3.62,10,10,0,0,1-5,1.27,8,8,0,0,1-3.43-.72,7.44,7.44,0,0,1-2.66-2.08,9.8,9.8,0,0,1-1.73-3.29,16.1,16.1,0,0,1,0-8.78,10,10,0,0,1,1.73-3.3,7.53,7.53,0,0,1,2.66-2.07,8,8,0,0,1,3.43-.72,10,10,0,0,1,5,1.27,9.43,9.43,0,0,1,3.6,3.6,12.21,12.21,0,0,1,0,11.2ZM387,271.69a6.37,6.37,0,0,0-2.49-2.45,7.19,7.19,0,0,0-3.43-.83,6,6,0,0,0-2.27.48,6.81,6.81,0,0,0-3.58,3.65,8.61,8.61,0,0,0,0,6.16,6.79,6.79,0,0,0,1.51,2.25,6.56,6.56,0,0,0,2.07,1.39,5.79,5.79,0,0,0,2.27.48,7.07,7.07,0,0,0,3.43-.83,6.27,6.27,0,0,0,2.49-2.44,8.69,8.69,0,0,0,0-7.86Z"/><path d="M395.86,270.21a10,10,0,0,1,3.73-3.72,11.06,11.06,0,0,1,10.59,0,10.11,10.11,0,0,1,3.71,3.72,11.26,11.26,0,0,1,0,10.8,10.09,10.09,0,0,1-3.71,3.74,11.06,11.06,0,0,1-10.59,0,10,10,0,0,1-3.73-3.74,11.26,11.26,0,0,1,0-10.8Zm3.05,9.12a6.77,6.77,0,0,0,2.45,2.56,7.11,7.11,0,0,0,7,0,6.75,6.75,0,0,0,2.44-2.56,7.49,7.49,0,0,0,.9-3.71,7.6,7.6,0,0,0-.9-3.73,6.47,6.47,0,0,0-2.44-2.56,7.17,7.17,0,0,0-7,0,6.5,6.5,0,0,0-2.45,2.56,7.7,7.7,0,0,0-.89,3.73A7.6,7.6,0,0,0,398.91,279.33Z"/><path d="M432.47,270.66A3.51,3.51,0,0,0,431,269a4.56,4.56,0,0,0-2.36-.57,5.5,5.5,0,0,0-2.68.64,4.36,4.36,0,0,0-1.79,1.77,5.19,5.19,0,0,0-.64,2.62v12.22h-3.49V265.58h3.49v3.14a6.9,6.9,0,0,1,2.51-2.71,7.43,7.43,0,0,1,7.14.09,6.43,6.43,0,0,1,2.38,2.71,9.43,9.43,0,0,1,.85,4.19v12.66H433V273.44A7.07,7.07,0,0,0,432.47,270.66Z"/><path d="M442.6,270a9.41,9.41,0,0,1,3.62-3.6,10,10,0,0,1,5-1.27,8,8,0,0,1,3.43.72,7.53,7.53,0,0,1,2.66,2.07,9.77,9.77,0,0,1,1.73,3.3,16.1,16.1,0,0,1,0,8.78,9.62,9.62,0,0,1-1.73,3.29,7.44,7.44,0,0,1-2.66,2.08,8,8,0,0,1-3.43.72,10,10,0,0,1-5-1.27,9.4,9.4,0,0,1-3.62-3.62,12.29,12.29,0,0,1,0-11.2Zm3.12,9.54a6.26,6.26,0,0,0,2.51,2.44,7.14,7.14,0,0,0,3.41.83,5.79,5.79,0,0,0,2.27-.48A6.56,6.56,0,0,0,456,281a6.79,6.79,0,0,0,1.51-2.25,8.61,8.61,0,0,0,0-6.16,6.81,6.81,0,0,0-3.58-3.65,6,6,0,0,0-2.27-.48,7.25,7.25,0,0,0-3.41.83,6.35,6.35,0,0,0-2.51,2.45,8.69,8.69,0,0,0,0,7.86Zm15.83-28v34.06h-3.49V251.6Z"/><path d="M470.7,284.77a9.09,9.09,0,0,1-3.36-3.69,11.74,11.74,0,0,1-1.2-5.46,12.12,12.12,0,0,1,.72-4.28,9.55,9.55,0,0,1,2-3.3A9.22,9.22,0,0,1,472,265.9a10.45,10.45,0,0,1,4.06-.76,9.87,9.87,0,0,1,5.09,1.24,8.26,8.26,0,0,1,3.25,3.56,12.36,12.36,0,0,1,1.14,5.5c0,.21,0,.42,0,.64s0,.35,0,.41H468.36v-3h14.41l-1.4,2a2.85,2.85,0,0,0,.27-.67,3.24,3.24,0,0,0,.13-.77,6.34,6.34,0,0,0-.72-3.1,5.3,5.3,0,0,0-2-2.05,5.69,5.69,0,0,0-3-.74,7.15,7.15,0,0,0-2.68.48,5.3,5.3,0,0,0-2,1.39,6,6,0,0,0-1.27,2.27,10,10,0,0,0-.44,3.06,9.92,9.92,0,0,0,.74,4A5.55,5.55,0,0,0,472.6,282a6.62,6.62,0,0,0,3.49.87,7.18,7.18,0,0,0,3.63-.89,7.51,7.51,0,0,0,2.66-2.73l2.84,1.79a10.6,10.6,0,0,1-4,3.82,11.63,11.63,0,0,1-5.62,1.29A9.22,9.22,0,0,1,470.7,284.77Z"/><path d="M502.77,270.66a3.51,3.51,0,0,0-1.44-1.68,4.56,4.56,0,0,0-2.36-.57,5.5,5.5,0,0,0-2.68.64,4.42,4.42,0,0,0-1.79,1.77,5.19,5.19,0,0,0-.64,2.62v12.22h-3.49V265.58h3.49v3.14a6.38,6.38,0,0,1,6-3.58,6.75,6.75,0,0,1,3.66,1,6.36,6.36,0,0,1,2.38,2.71,9.43,9.43,0,0,1,.85,4.19v12.66h-3.49V273.44A7.07,7.07,0,0,0,502.77,270.66Z"/><path d="M146.2,318v3.27h-10V318Zm-3.27-7v27.07h-3.49V311Z"/><path d="M149.33,322.6a10,10,0,0,1,3.73-3.71,11.06,11.06,0,0,1,10.59,0,10.08,10.08,0,0,1,3.71,3.71,11.27,11.27,0,0,1,0,10.81,10,10,0,0,1-3.71,3.73,11,11,0,0,1-10.59,0,9.9,9.9,0,0,1-3.73-3.73,11.27,11.27,0,0,1,0-10.81Zm3,9.13a6.67,6.67,0,0,0,2.45,2.55,6.79,6.79,0,0,0,9.47-2.55,7.49,7.49,0,0,0,.9-3.71,7.6,7.6,0,0,0-.9-3.73,6.47,6.47,0,0,0-2.44-2.56,7.17,7.17,0,0,0-7,0,6.5,6.5,0,0,0-2.45,2.56,7.7,7.7,0,0,0-.89,3.73A7.6,7.6,0,0,0,152.38,331.73Z"/><path d="M180.52,318v3.27h-10V318Zm-3.27-7v27.07h-3.49V311Z"/><path d="M197.84,308a2.39,2.39,0,0,1,3.38,0,2.29,2.29,0,0,1,.7,1.7,2.32,2.32,0,0,1-.7,1.68,2.39,2.39,0,1,1-3.38-3.38Zm3.42,10v20.08h-3.49V318Z"/><path d="M211.29,337.17a9.11,9.11,0,0,1-3.37-3.69,11.9,11.9,0,0,1-1.2-5.46,12.12,12.12,0,0,1,.72-4.28,9.7,9.7,0,0,1,2-3.3,9.26,9.26,0,0,1,3.15-2.14,10.42,10.42,0,0,1,4.06-.76,9.9,9.9,0,0,1,5.09,1.24,8.26,8.26,0,0,1,3.25,3.56,12.36,12.36,0,0,1,1.13,5.5c0,.21,0,.42,0,.64s0,.35,0,.41H209v-3h14.41l-1.4,2a2.47,2.47,0,0,0,.26-.68,2.74,2.74,0,0,0,.13-.76,6.34,6.34,0,0,0-.71-3.1,5.37,5.37,0,0,0-2-2.05,5.74,5.74,0,0,0-3-.74,7.2,7.2,0,0,0-2.69.48,5.45,5.45,0,0,0-2,1.39,6.17,6.17,0,0,0-1.26,2.27,11.1,11.1,0,0,0,.3,7.08,5.55,5.55,0,0,0,2.19,2.53,6.62,6.62,0,0,0,3.49.87,7.12,7.12,0,0,0,3.62-.89A7.45,7.45,0,0,0,223,331.6l2.84,1.79a10.55,10.55,0,0,1-4,3.82,11.56,11.56,0,0,1-5.61,1.29A9.31,9.31,0,0,1,211.29,337.17Z"/><path d="M237.94,318v3.27h-10V318Zm-3.27-7v27.07h-3.49V311Z"/><path d="M243.66,333.61a6,6,0,0,0,1.82,1.24,5.34,5.34,0,0,0,2.24.46,3.62,3.62,0,0,0,2.34-.68,2.23,2.23,0,0,0,.85-1.85,2.45,2.45,0,0,0-.68-1.77,5.59,5.59,0,0,0-1.72-1.22,24.1,24.1,0,0,0-2.23-.94,26.12,26.12,0,0,1-2.64-1.25,7,7,0,0,1-2.23-1.87,5.18,5.18,0,0,1,.05-5.88,5.5,5.5,0,0,1,2.44-1.74,8.8,8.8,0,0,1,3.13-.57,8.69,8.69,0,0,1,3,.52,9,9,0,0,1,2.51,1.4,6.34,6.34,0,0,1,1.7,2l-2.79,1.79a7,7,0,0,0-2.07-1.88,5.44,5.44,0,0,0-2.82-.74,3.55,3.55,0,0,0-1.88.48,1.61,1.61,0,0,0-.78,1.48,1.91,1.91,0,0,0,.61,1.4,5.8,5.8,0,0,0,1.57,1.09c.64.32,1.31.63,2,.92a28.72,28.72,0,0,1,3.19,1.51,7.22,7.22,0,0,1,2.29,1.94,4.73,4.73,0,0,1,.85,2.92,5.74,5.74,0,0,1-.87,3.13,6.27,6.27,0,0,1-2.43,2.18,7.65,7.65,0,0,1-3.6.81,8.76,8.76,0,0,1-3.62-.72,8.68,8.68,0,0,1-2.73-1.86,8.56,8.56,0,0,1-1.68-2.31l2.75-1.71A10.83,10.83,0,0,0,243.66,333.61Z"/><path d="M271.74,322.41a9.41,9.41,0,0,1,3.62-3.6,10,10,0,0,1,5-1.27,8,8,0,0,1,3.43.72,7.53,7.53,0,0,1,2.66,2.07,9.67,9.67,0,0,1,1.73,3.3,16.1,16.1,0,0,1,0,8.78,9.62,9.62,0,0,1-1.73,3.29,7.44,7.44,0,0,1-2.66,2.08,8,8,0,0,1-3.43.72,10,10,0,0,1-5-1.27,9.4,9.4,0,0,1-3.62-3.62,12.29,12.29,0,0,1,0-11.2Zm2.58,17a5,5,0,0,0,.78,2.69,5.81,5.81,0,0,0,2.23,2,7.29,7.29,0,0,0,3.4.76,6.76,6.76,0,0,0,3-.74,6.2,6.2,0,0,0,2.47-2.34,7.82,7.82,0,0,0,1-4.13V318h3.49v19.64a10.86,10.86,0,0,1-1.44,5.79,9.48,9.48,0,0,1-3.71,3.52,10.38,10.38,0,0,1-4.81,1.17,11.66,11.66,0,0,1-5.17-1.09,8.24,8.24,0,0,1-4.78-7.64Zm.54-7.42a6.2,6.2,0,0,0,2.51,2.44,7.14,7.14,0,0,0,3.41.83,5.79,5.79,0,0,0,2.27-.48,6.56,6.56,0,0,0,2.07-1.39,6.9,6.9,0,0,0,1.51-2.25,8.61,8.61,0,0,0,0-6.16,6.79,6.79,0,0,0-1.51-2.25,6.59,6.59,0,0,0-2.07-1.4,5.79,5.79,0,0,0-2.27-.48,7.25,7.25,0,0,0-3.41.83,6.29,6.29,0,0,0-2.51,2.45,8.69,8.69,0,0,0,0,7.86Z"/><path d="M300.52,338.06H297V318h3.5Zm4.8-17a3.73,3.73,0,0,0-1.44-.24,3,3,0,0,0-2.05.66,3.39,3.39,0,0,0-1,1.79,10.59,10.59,0,0,0-.28,2.57h-1.58a10,10,0,0,1,.86-4.25,7.91,7.91,0,0,1,2.2-2.95,4.34,4.34,0,0,1,2.75-1.09,6.92,6.92,0,0,1,2,.28,3.94,3.94,0,0,1,1.73,1.12l-1.92,2.88A6.32,6.32,0,0,0,305.32,321.05Z"/><path d="M311,322.6a10,10,0,0,1,3.74-3.71,11.06,11.06,0,0,1,10.59,0A10.15,10.15,0,0,1,329,322.6a11.35,11.35,0,0,1,0,10.81,10.06,10.06,0,0,1-3.71,3.73,11,11,0,0,1-10.59,0,9.92,9.92,0,0,1-3.74-3.73,11.35,11.35,0,0,1,0-10.81Zm3.06,9.13a6.72,6.72,0,0,0,2.44,2.55,6.81,6.81,0,0,0,9.48-2.55,7.49,7.49,0,0,0,.9-3.71,7.6,7.6,0,0,0-.9-3.73,6.5,6.5,0,0,0-2.45-2.56,7.17,7.17,0,0,0-7,0,6.54,6.54,0,0,0-2.44,2.56,7.6,7.6,0,0,0-.9,3.73A7.49,7.49,0,0,0,314,331.73Z"/><path d="M342.17,318v3.27h-10V318Zm-3.27-7v27.07h-3.5V311Z"/><path d="M348.48,337.17a9.09,9.09,0,0,1-3.36-3.69,11.9,11.9,0,0,1-1.2-5.46,12.12,12.12,0,0,1,.72-4.28,9.7,9.7,0,0,1,2-3.3,9.22,9.22,0,0,1,3.14-2.14,10.45,10.45,0,0,1,4.06-.76,9.87,9.87,0,0,1,5.09,1.24,8.2,8.2,0,0,1,3.25,3.56,12.36,12.36,0,0,1,1.14,5.5c0,.21,0,.42,0,.64s0,.35,0,.41H346.14v-3h14.41l-1.39,2a3.35,3.35,0,0,0,.26-.68,2.74,2.74,0,0,0,.13-.76,6.34,6.34,0,0,0-.72-3.1,5.23,5.23,0,0,0-2-2.05,5.69,5.69,0,0,0-3-.74,7.15,7.15,0,0,0-2.68.48,5.37,5.37,0,0,0-2,1.39,6,6,0,0,0-1.27,2.27,10,10,0,0,0-.44,3.06,9.75,9.75,0,0,0,.75,4,5.47,5.47,0,0,0,2.18,2.53,6.62,6.62,0,0,0,3.49.87,7.18,7.18,0,0,0,3.63-.89,7.43,7.43,0,0,0,2.66-2.73l2.84,1.79a10.6,10.6,0,0,1-3.95,3.82,11.62,11.62,0,0,1-5.61,1.29A9.32,9.32,0,0,1,348.48,337.17Z"/><path d="M371.65,338.06h-3.5V318h3.5Zm4.8-17a3.73,3.73,0,0,0-1.44-.24,3,3,0,0,0-2.05.66,3.39,3.39,0,0,0-1,1.79,10.59,10.59,0,0,0-.28,2.57h-1.58a10,10,0,0,1,.86-4.25,7.91,7.91,0,0,1,2.2-2.95,4.34,4.34,0,0,1,2.75-1.09,6.92,6.92,0,0,1,2,.28,3.94,3.94,0,0,1,1.73,1.12l-1.92,2.88A6.32,6.32,0,0,0,376.45,321.05Z"/><path d="M397.23,313a5.16,5.16,0,0,0-2.22-2,7.83,7.83,0,0,0-3.41-.7,6.76,6.76,0,0,0-3.73,1,7.8,7.8,0,0,0-2.56,2.64l-2.84-1.79a15.27,15.27,0,0,1,2.23-2.69,8.43,8.43,0,0,1,3-1.79,13.07,13.07,0,0,1,4.35-.63,9.88,9.88,0,0,1,3.77.7,9.26,9.26,0,0,1,3,1.94,9.15,9.15,0,0,1,2,2.9,9,9,0,0,1,.72,3.63,8.2,8.2,0,0,1-1.31,4.52,10.26,10.26,0,0,1-3.41,3.27,9.83,9.83,0,0,1-4.54,1.38l-.31,5.24h-2.62L388.5,323h1.14a9.39,9.39,0,0,0,4.49-1,7.65,7.65,0,0,0,2.88-2.55,5.81,5.81,0,0,0,1-3.21A6,6,0,0,0,397.23,313Zm-8.14,21.57a2.36,2.36,0,0,1,1.68-.7,2.4,2.4,0,0,1,1.7,4.09,2.27,2.27,0,0,1-1.7.72,2.4,2.4,0,0,1-1.68-4.11Z"/><path d="M420.11,319.72v-3.49l22.27,9.6v2l-22.27,9.61v-3.5l16.51-6.9Z"/><text transform="translate(161.58 124.51)" style="font-size:48px;font-family:CooperBlack, Cooper Black">VRA<tspan x="115.48" y="0" style="letter-spacing:-0.041015625em">A</tspan><tspan x="153.19" y="0">G</tspan></text></g></g></svg>