<svg xmlns="http://www.w3.org/2000/svg" viewBox="0 0 506.14 473.7"><g id="Layer_2" data-name="Layer 2"><g id="Layer_1-2" data-name="Layer 1"><path d="M298.14,0c49.83-.23,95.62,13.28,136,44.1C463,66.18,485.27,94,497.62,129.35c7.74,22.2,9.74,45.39,7.86,68.71-4.93,60.83-24.76,116.51-56.63,167.52-25.44,40.7-59.11,72.05-102.12,91.89-47.65,22-94.86,22.24-141.77-2.94C174.2,438,147.55,416,123.14,390.88,73.84,340.2,36.91,281,11.08,214.25A164,164,0,0,1,.18,164.51C-1.45,137.23,8.06,115.25,28,97.69c18.84-16.56,40.54-28,63.1-37.64,45.49-19.44,91.08-38.75,139-51.19C252.4,3.07,275.07-.3,298.14,0Z" style="fill:#10609e"/><text transform="translate(73.05 150.87)" style="font-size:60px;font-family:CooperBlack, Cooper Black"><tspan style="letter-spacing:-0.07666015625em">W</tspan><tspan x="57.77" y="0">ANDE</tspan><tspan x="246.77" y="0" style="letter-spacing:0.05224609375em">L</tspan><tspan x="287.87" y="0">-</tspan><tspan x="0" y="72">METHODIEK</tspan></text><path d="M109.34,298a10,10,0,0,1,2.2-3.36,10.07,10.07,0,0,1,3.33-2.24,11.11,11.11,0,0,1,8.33,0,10.24,10.24,0,0,1,3.32,2.24,10.08,10.08,0,0,1,2.19,3.36,11.67,11.67,0,0,1,0,8.39,10.12,10.12,0,0,1-2.19,3.37A10.24,10.24,0,0,1,123.2,312a11.11,11.11,0,0,1-8.33,0,10.11,10.11,0,0,1-5.53-5.61,11.67,11.67,0,0,1,0-8.39Zm2.45,7.43a7.66,7.66,0,0,0,1.63,2.58,7.42,7.42,0,0,0,2.5,1.69,8.23,8.23,0,0,0,6.22,0,7.43,7.43,0,0,0,4.12-4.27,9.28,9.28,0,0,0,0-6.46,7.43,7.43,0,0,0-4.12-4.27,8.23,8.23,0,0,0-6.22,0,7.42,7.42,0,0,0-2.5,1.69,7.66,7.66,0,0,0-1.63,2.58,9.28,9.28,0,0,0,0,6.46Z"/><path d="M141.26,302.37a2.32,2.32,0,0,0-1-1.13,3,3,0,0,0-1.59-.39,3.75,3.75,0,0,0-1.81.43,3,3,0,0,0-1.21,1.19,3.57,3.57,0,0,0-.43,1.77v8.26h-2.36V298.94h2.36v2.12a4.52,4.52,0,0,1,1.7-1.83,5,5,0,0,1,4.82.06,4.36,4.36,0,0,1,1.61,1.83,6.46,6.46,0,0,1,.57,2.83v8.55h-2.36v-8.26A4.86,4.86,0,0,0,141.26,302.37Z"/><path d="M153.08,298.94v2.21H146.3v-2.21Zm-2.21-4.72V312.5h-2.36V294.22Z"/><path d="M155.17,301.93a6.42,6.42,0,0,1,2.45-2.43,6.78,6.78,0,0,1,3.36-.86,5.36,5.36,0,0,1,2.32.49,5.08,5.08,0,0,1,1.8,1.4,6.5,6.5,0,0,1,1.16,2.22,9.78,9.78,0,0,1,.41,3,9.67,9.67,0,0,1-.41,3,6.46,6.46,0,0,1-1.16,2.23,5.2,5.2,0,0,1-1.8,1.4,5.5,5.5,0,0,1-2.32.48,6.77,6.77,0,0,1-3.36-.85,6.41,6.41,0,0,1-2.45-2.45,8.31,8.31,0,0,1,0-7.56Zm2.11,6.44A4.15,4.15,0,0,0,159,310a4.77,4.77,0,0,0,2.3.56,3.82,3.82,0,0,0,1.53-.32,4.6,4.6,0,0,0,1.4-.94,4.83,4.83,0,0,0,1-1.52,5.88,5.88,0,0,0,0-4.16,4.72,4.72,0,0,0-1-1.52,4.42,4.42,0,0,0-1.4-.94,3.84,3.84,0,0,0-1.53-.33,4.89,4.89,0,0,0-2.3.56,4.28,4.28,0,0,0-1.7,1.65,5.26,5.26,0,0,0-.63,2.66A5.2,5.2,0,0,0,157.28,308.37ZM168,289.5v23h-2.36v-23Z"/><path d="M174.15,311.9a6,6,0,0,1-2.27-2.5,8,8,0,0,1-.81-3.68,8.26,8.26,0,0,1,.48-2.89,6.54,6.54,0,0,1,1.37-2.23,6.08,6.08,0,0,1,2.13-1.44,6.93,6.93,0,0,1,2.74-.52,6.63,6.63,0,0,1,3.43.84,5.48,5.48,0,0,1,2.2,2.41,8.35,8.35,0,0,1,.77,3.71c0,.14,0,.28,0,.43s0,.24,0,.28H172.57v-2h9.73l-.94,1.36a1.66,1.66,0,0,0,.17-.46,1.89,1.89,0,0,0,.09-.51,4.34,4.34,0,0,0-.48-2.1,3.58,3.58,0,0,0-1.35-1.38,3.81,3.81,0,0,0-2-.5A4.75,4.75,0,0,0,176,301a3.69,3.69,0,0,0-1.37.94,4.19,4.19,0,0,0-.86,1.54,6.56,6.56,0,0,0-.3,2.06,6.49,6.49,0,0,0,.51,2.71,3.64,3.64,0,0,0,1.47,1.71,4.4,4.4,0,0,0,2.36.59,4.91,4.91,0,0,0,2.45-.6,5,5,0,0,0,1.79-1.84l1.92,1.2a7,7,0,0,1-2.67,2.58,7.83,7.83,0,0,1-3.79.87A6.23,6.23,0,0,1,174.15,311.9Z"/><path d="M189.64,289.5v23h-2.36v-23Zm8,9.44-5.89,5.6,6.48,8h-2.95l-6.48-8,5.89-5.6Z"/><path d="M211.61,312.5h-2.36v-23h2.36Zm6-10.13a2.28,2.28,0,0,0-1-1.13,3,3,0,0,0-1.6-.39,3.61,3.61,0,0,0-1.82.45,3,3,0,0,0-1.2,1.2,3.51,3.51,0,0,0-.43,1.74h-.77a6.44,6.44,0,0,1,.62-2.87,5,5,0,0,1,1.7-2,4.28,4.28,0,0,1,2.49-.74,5,5,0,0,1,2.46.59,3.88,3.88,0,0,1,1.62,1.77,6.77,6.77,0,0,1,.58,2.95v8.55H218v-8.26A4.67,4.67,0,0,0,217.62,302.37Z"/><path d="M224.48,302.06a6.79,6.79,0,0,1,2.52-2.5,7.41,7.41,0,0,1,7.15,0,6.84,6.84,0,0,1,2.51,2.5,7.7,7.7,0,0,1,0,7.3,6.82,6.82,0,0,1-2.51,2.52,7.48,7.48,0,0,1-7.15,0,6.77,6.77,0,0,1-2.52-2.52,7.63,7.63,0,0,1,0-7.3Zm2.06,6.16a4.65,4.65,0,0,0,1.65,1.73,4.58,4.58,0,0,0,6.4-1.73,5.09,5.09,0,0,0,.61-2.5,5.16,5.16,0,0,0-.61-2.52,4.43,4.43,0,0,0-1.65-1.73,4.58,4.58,0,0,0-6.4,1.73,5.16,5.16,0,0,0-.6,2.52A5.08,5.08,0,0,0,226.54,308.22Z"/><path d="M242.73,311.9a6.11,6.11,0,0,1-2.27-2.5,8,8,0,0,1-.81-3.68,8.26,8.26,0,0,1,.48-2.89,6.56,6.56,0,0,1,1.38-2.23,6,6,0,0,1,2.12-1.44,6.93,6.93,0,0,1,2.74-.52,6.69,6.69,0,0,1,3.44.84,5.52,5.52,0,0,1,2.19,2.41,8.35,8.35,0,0,1,.77,3.71c0,.14,0,.28,0,.43s0,.24,0,.28H241.15v-2h9.73l-.94,1.36a2,2,0,0,0,.18-.46,2.28,2.28,0,0,0,.08-.51,4.34,4.34,0,0,0-.48-2.1,3.56,3.56,0,0,0-1.34-1.38,3.85,3.85,0,0,0-2-.5,4.75,4.75,0,0,0-1.81.32,3.69,3.69,0,0,0-1.37.94,4.19,4.19,0,0,0-.86,1.54,6.57,6.57,0,0,0-.29,2.06,6.49,6.49,0,0,0,.5,2.71A3.64,3.64,0,0,0,244,310a4.42,4.42,0,0,0,2.36.59,4.91,4.91,0,0,0,2.45-.6,5,5,0,0,0,1.8-1.84l1.91,1.2a6.87,6.87,0,0,1-2.67,2.58,7.82,7.82,0,0,1-3.78.87A6.24,6.24,0,0,1,242.73,311.9Z"/><path d="M264.59,301.93A6.42,6.42,0,0,1,267,299.5a6.78,6.78,0,0,1,3.36-.86,5.36,5.36,0,0,1,2.32.49,5,5,0,0,1,1.79,1.4,6.52,6.52,0,0,1,1.17,2.22,10.11,10.11,0,0,1,.41,3,10,10,0,0,1-.41,3,6.48,6.48,0,0,1-1.17,2.23,5.16,5.16,0,0,1-1.79,1.4,5.5,5.5,0,0,1-2.32.48,6.77,6.77,0,0,1-3.36-.85,6.41,6.41,0,0,1-2.45-2.45,8.31,8.31,0,0,1,0-7.56Zm2.11,6.44a4.15,4.15,0,0,0,1.7,1.65,4.74,4.74,0,0,0,2.3.56,3.82,3.82,0,0,0,1.53-.32,4.6,4.6,0,0,0,1.4-.94,4.83,4.83,0,0,0,1-1.52,5.88,5.88,0,0,0,0-4.16,4.72,4.72,0,0,0-1-1.52,4.42,4.42,0,0,0-1.4-.94,3.84,3.84,0,0,0-1.53-.33,4.86,4.86,0,0,0-2.3.56,4.28,4.28,0,0,0-1.7,1.65,5.26,5.26,0,0,0-.63,2.66A5.2,5.2,0,0,0,266.7,308.37Zm10.69-18.87v23H275v-23Z"/><path d="M282.15,292.18a1.62,1.62,0,0,1,2.76,1.15,1.61,1.61,0,0,1-2.76,1.14,1.58,1.58,0,0,1,0-2.29Zm2.32,6.76V312.5h-2.36V298.94Z"/><path d="M294.05,298.94v2.21h-6.78v-2.21Zm-2.21-4.72V312.5h-2.36V294.22Z"/><path d="M306.92,308.22a4.46,4.46,0,0,0,4,2.36,6,6,0,0,0,2.05-.34,5.47,5.47,0,0,0,1.67-.91,3.48,3.48,0,0,0,1-1.22v2.95a4.57,4.57,0,0,1-2,1.28,8.22,8.22,0,0,1-2.7.45,7.08,7.08,0,0,1-3.57-.91,6.77,6.77,0,0,1-2.52-2.52,7.7,7.7,0,0,1,0-7.3,6.79,6.79,0,0,1,2.52-2.5,7.08,7.08,0,0,1,3.57-.92,8,8,0,0,1,2.7.46,4.49,4.49,0,0,1,2,1.28v2.95a3.29,3.29,0,0,0-1-1.24,5.92,5.92,0,0,0-1.67-.9,6.25,6.25,0,0,0-2.05-.34,4.6,4.6,0,0,0-2.37.62,4.43,4.43,0,0,0-1.65,1.73,5.06,5.06,0,0,0-.61,2.52A5,5,0,0,0,306.92,308.22Z"/><path d="M319.1,302.06a6.65,6.65,0,0,1,2.52-2.5,7.41,7.41,0,0,1,7.15,0,6.81,6.81,0,0,1,2.5,2.5,7.63,7.63,0,0,1,0,7.3,6.79,6.79,0,0,1-2.5,2.52,7.48,7.48,0,0,1-7.15,0,6.63,6.63,0,0,1-2.52-2.52,7.63,7.63,0,0,1,0-7.3Zm2.06,6.16a4.67,4.67,0,0,0,6.4,1.73,4.57,4.57,0,0,0,1.65-1.73,5.08,5.08,0,0,0,.6-2.5,5.16,5.16,0,0,0-.6-2.52,4.5,4.5,0,0,0-1.65-1.73,4.86,4.86,0,0,0-4.75,0,4.43,4.43,0,0,0-1.65,1.73,5.16,5.16,0,0,0-.61,2.52A5.09,5.09,0,0,0,321.16,308.22Z"/><path d="M337.11,308.22a4.46,4.46,0,0,0,4,2.36,6,6,0,0,0,2.05-.34,5.47,5.47,0,0,0,1.67-.91,3.37,3.37,0,0,0,1-1.22v2.95a4.57,4.57,0,0,1-2,1.28,8.22,8.22,0,0,1-2.7.45,7,7,0,0,1-3.56-.91,6.77,6.77,0,0,1-2.52-2.52,7.63,7.63,0,0,1,0-7.3,6.79,6.79,0,0,1,2.52-2.5,7,7,0,0,1,3.56-.92,8,8,0,0,1,2.7.46,4.49,4.49,0,0,1,2,1.28v2.95a3.2,3.2,0,0,0-1-1.24,5.92,5.92,0,0,0-1.67-.9,6.21,6.21,0,0,0-2.05-.34,4.6,4.6,0,0,0-2.37.62,4.43,4.43,0,0,0-1.65,1.73,5.16,5.16,0,0,0-.6,2.52A5.08,5.08,0,0,0,337.11,308.22Z"/><path d="M351.9,312.5h-2.36V298.94h2.36ZM355.14,301a2.48,2.48,0,0,0-1-.17,2,2,0,0,0-1.39.45,2.3,2.3,0,0,0-.69,1.2,7.19,7.19,0,0,0-.19,1.74h-1.06a6.87,6.87,0,0,1,.57-2.87,5.29,5.29,0,0,1,1.49-2,3,3,0,0,1,1.86-.74,5,5,0,0,1,1.37.19,2.7,2.7,0,0,1,1.16.75l-1.3,1.95A3.81,3.81,0,0,0,355.14,301Z"/><path d="M361.11,311.9a6.11,6.11,0,0,1-2.27-2.5,8.77,8.77,0,0,1-.32-6.57,6.39,6.39,0,0,1,1.37-2.23,6,6,0,0,1,2.12-1.44,7,7,0,0,1,2.74-.52,6.69,6.69,0,0,1,3.44.84,5.52,5.52,0,0,1,2.19,2.41,8.22,8.22,0,0,1,.77,3.71c0,.14,0,.28,0,.43s0,.24,0,.28H359.53v-2h9.73l-.94,1.36a2,2,0,0,0,.18-.46,1.89,1.89,0,0,0,.09-.51,4.34,4.34,0,0,0-.49-2.1,3.56,3.56,0,0,0-1.34-1.38,3.85,3.85,0,0,0-2-.5,4.75,4.75,0,0,0-1.81.32,3.69,3.69,0,0,0-1.37.94,4.19,4.19,0,0,0-.86,1.54,6.88,6.88,0,0,0-.29,2.06,6.49,6.49,0,0,0,.5,2.71,3.64,3.64,0,0,0,1.47,1.71,4.42,4.42,0,0,0,2.36.59,4.89,4.89,0,0,0,2.45-.6,5,5,0,0,0,1.8-1.84l1.91,1.2a6.91,6.91,0,0,1-2.66,2.58,7.88,7.88,0,0,1-3.79.87A6.24,6.24,0,0,1,361.11,311.9Z"/><path d="M375.82,309.64a2.29,2.29,0,0,0,1,.84,3.77,3.77,0,0,0,1.51.28,4.36,4.36,0,0,0,2-.44,3.54,3.54,0,0,0,1.38-1.25,3.41,3.41,0,0,0,.52-1.88l.47,1.77a3.06,3.06,0,0,1-.78,2.15,4.69,4.69,0,0,1-1.92,1.27,6.46,6.46,0,0,1-2.25.41,5.35,5.35,0,0,1-2.32-.51,4.15,4.15,0,0,1-1.72-1.49,4.09,4.09,0,0,1-.65-2.36,4.15,4.15,0,0,1,.63-2.3,4.2,4.2,0,0,1,1.83-1.52,6.82,6.82,0,0,1,2.84-.54,7.59,7.59,0,0,1,2.47.34,6,6,0,0,1,1.57.76,4.12,4.12,0,0,1,.8.7v1.38a7.5,7.5,0,0,0-2.12-1,8.8,8.8,0,0,0-2.33-.31,4.91,4.91,0,0,0-1.87.3,2.31,2.31,0,0,0-1.08.82,2.22,2.22,0,0,0-.35,1.27A2.41,2.41,0,0,0,375.82,309.64ZM374,300.32a10.83,10.83,0,0,1,2.11-1.12,8.42,8.42,0,0,1,3.23-.56,7.19,7.19,0,0,1,2.78.49,4.11,4.11,0,0,1,1.86,1.4,3.74,3.74,0,0,1,.67,2.24v9.73h-2.36v-9.41a2.47,2.47,0,0,0-.24-1.16,1.77,1.77,0,0,0-.66-.72,3.11,3.11,0,0,0-1-.39,6.88,6.88,0,0,0-3,.12,6.59,6.59,0,0,0-1.37.56c-.38.22-.67.41-.89.56Z"/><path d="M393.29,298.94v2.21h-6.78v-2.21Zm-2.21-4.72V312.5h-2.36V294.22Z"/><path d="M396.14,292.18a1.58,1.58,0,0,1,1.13-.47,1.61,1.61,0,0,1,1.15,2.76,1.54,1.54,0,0,1-1.15.49,1.56,1.56,0,0,1-1.13-.49,1.58,1.58,0,0,1,0-2.29Zm2.31,6.76V312.5h-2.36V298.94Z"/><path d="M405.22,311.9a6.11,6.11,0,0,1-2.27-2.5,8.77,8.77,0,0,1-.32-6.57A6.39,6.39,0,0,1,404,300.6a6,6,0,0,1,2.12-1.44,7,7,0,0,1,2.74-.52,6.69,6.69,0,0,1,3.44.84,5.52,5.52,0,0,1,2.19,2.41,8.35,8.35,0,0,1,.77,3.71c0,.14,0,.28,0,.43s0,.24,0,.28H403.64v-2h9.73l-.94,1.36a2,2,0,0,0,.18-.46,2.39,2.39,0,0,0,.09-.51,4.34,4.34,0,0,0-.49-2.1,3.56,3.56,0,0,0-1.34-1.38,3.85,3.85,0,0,0-2-.5,4.75,4.75,0,0,0-1.81.32,3.69,3.69,0,0,0-1.37.94,4.19,4.19,0,0,0-.86,1.54,6.88,6.88,0,0,0-.29,2.06,6.49,6.49,0,0,0,.5,2.71A3.64,3.64,0,0,0,406.5,310a4.42,4.42,0,0,0,2.36.59,4.91,4.91,0,0,0,2.45-.6,5,5,0,0,0,1.8-1.84l1.91,1.2a6.91,6.91,0,0,1-2.66,2.58,7.88,7.88,0,0,1-3.79.87A6.24,6.24,0,0,1,405.22,311.9Z"/><path d="M424.25,298.94v2.21h-6.78v-2.21Zm-.93-7.24a2.28,2.28,0,0,0-.75-.13,1.15,1.15,0,0,0-.75.25,1.6,1.6,0,0,0-.49.84,5.91,5.91,0,0,0-.17,1.56V312.5H418.8V293.92a6.32,6.32,0,0,1,.47-2.65,3.36,3.36,0,0,1,1.34-1.55,4.1,4.1,0,0,1,2.11-.51,3.71,3.71,0,0,1,1.15.17,3.56,3.56,0,0,1,.87.45,2.17,2.17,0,0,1,.57.56L424,292.33A1.35,1.35,0,0,0,423.32,291.7Z"/><path d="M160.89,344.87a4.17,4.17,0,0,0,1.23.85,3.79,3.79,0,0,0,1.52.31,2.49,2.49,0,0,0,1.57-.46,1.5,1.5,0,0,0,.58-1.25,1.67,1.67,0,0,0-.46-1.2,4,4,0,0,0-1.16-.83c-.47-.22-1-.43-1.51-.63a15,15,0,0,1-1.78-.84,4.62,4.62,0,0,1-1.5-1.27,3.06,3.06,0,0,1-.61-2,3.13,3.13,0,0,1,.63-2,3.78,3.78,0,0,1,1.66-1.18,5.93,5.93,0,0,1,4.15,0,6,6,0,0,1,1.7.94,4.61,4.61,0,0,1,1.15,1.36l-1.89,1.21a4.61,4.61,0,0,0-1.4-1.27,3.67,3.67,0,0,0-1.9-.5,2.47,2.47,0,0,0-1.27.32,1.11,1.11,0,0,0-.53,1,1.32,1.32,0,0,0,.41.94,4.28,4.28,0,0,0,1.07.74c.43.21.88.42,1.35.62a17.25,17.25,0,0,1,2.15,1,4.93,4.93,0,0,1,1.55,1.31,3.19,3.19,0,0,1,.58,2,3.87,3.87,0,0,1-.59,2.11,4.18,4.18,0,0,1-1.64,1.47,5.12,5.12,0,0,1-2.43.55,6,6,0,0,1-4.29-1.74,6,6,0,0,1-1.14-1.57l1.86-1.14A7.91,7.91,0,0,0,160.89,344.87Z"/><path d="M171,337.45a6.75,6.75,0,0,1,2.52-2.51,7.41,7.41,0,0,1,7.15,0,6.79,6.79,0,0,1,2.51,2.51,7.61,7.61,0,0,1,0,7.29,6.82,6.82,0,0,1-2.51,2.52,7.41,7.41,0,0,1-7.15,0,6.77,6.77,0,0,1-2.52-2.52,7.61,7.61,0,0,1,0-7.29Zm2.07,6.16a4.65,4.65,0,0,0,6.4,1.72,4.7,4.7,0,0,0,1.65-1.72,5.15,5.15,0,0,0,.6-2.51,5.21,5.21,0,0,0-.6-2.52,4.7,4.7,0,0,0-6.4-1.72,4.34,4.34,0,0,0-1.65,1.72,5.11,5.11,0,0,0-.61,2.52A5,5,0,0,0,173.09,343.61Z"/><path d="M189,343.61a4.52,4.52,0,0,0,4,2.36,6.25,6.25,0,0,0,2.05-.34,5.49,5.49,0,0,0,1.67-.92,3.48,3.48,0,0,0,1-1.22v2.95a4.49,4.49,0,0,1-2,1.28,8,8,0,0,1-2.7.46,7.08,7.08,0,0,1-3.57-.92,6.77,6.77,0,0,1-2.52-2.52,7.68,7.68,0,0,1,0-7.29,6.75,6.75,0,0,1,2.52-2.51,7.08,7.08,0,0,1,3.57-.92,8.23,8.23,0,0,1,2.7.46,4.57,4.57,0,0,1,2,1.28v2.95a3.37,3.37,0,0,0-1-1.24,5.66,5.66,0,0,0-1.67-.89,6,6,0,0,0-2.05-.34,4.51,4.51,0,0,0-2.37.62,4.34,4.34,0,0,0-1.65,1.72,5.11,5.11,0,0,0-.61,2.52A5,5,0,0,0,189,343.61Z"/><path d="M202,327.57a1.62,1.62,0,0,1,2.76,1.15,1.58,1.58,0,0,1-.47,1.13,1.58,1.58,0,0,1-2.29,0,1.59,1.59,0,0,1,0-2.28Zm2.32,6.75v13.56h-2.36V334.32Z"/><path d="M210.56,345a2.19,2.19,0,0,0,1,.84,3.85,3.85,0,0,0,1.52.28,4.19,4.19,0,0,0,2-.44,3.49,3.49,0,0,0,1.39-1.25,3.46,3.46,0,0,0,.52-1.87l.47,1.76a3.08,3.08,0,0,1-.78,2.16,4.73,4.73,0,0,1-1.92,1.26,6.49,6.49,0,0,1-2.26.42,5.35,5.35,0,0,1-2.31-.52,4.24,4.24,0,0,1-1.73-1.49,4.16,4.16,0,0,1,1.82-6.17,6.66,6.66,0,0,1,2.84-.55,7.48,7.48,0,0,1,2.46.34,6,6,0,0,1,1.58.77,4.13,4.13,0,0,1,.8.69v1.38a7.14,7.14,0,0,0-2.13-1,8.29,8.29,0,0,0-2.32-.31,5.23,5.23,0,0,0-1.88.29,2.23,2.23,0,0,0-1.07.83,2.21,2.21,0,0,0-.36,1.27A2.38,2.38,0,0,0,210.56,345Zm-1.87-9.31a10.29,10.29,0,0,1,2.11-1.13A8.42,8.42,0,0,1,214,334a7.38,7.38,0,0,1,2.78.49,4.18,4.18,0,0,1,1.86,1.4,3.73,3.73,0,0,1,.66,2.24v9.73H217v-9.4a2.51,2.51,0,0,0-.24-1.17,1.91,1.91,0,0,0-.66-.72,3.09,3.09,0,0,0-1-.38,5.69,5.69,0,0,0-1.18-.12,6.41,6.41,0,0,0-3.19.79c-.37.22-.66.41-.88.57Z"/><path d="M224.74,345a2.17,2.17,0,0,0,1,.84,3.77,3.77,0,0,0,1.51.28,4.23,4.23,0,0,0,2-.44,3.47,3.47,0,0,0,1.38-1.25,3.37,3.37,0,0,0,.52-1.87l.47,1.76a3.08,3.08,0,0,1-.78,2.16,4.67,4.67,0,0,1-1.92,1.26,6.48,6.48,0,0,1-2.25.42,5.36,5.36,0,0,1-2.32-.52,4.15,4.15,0,0,1-1.72-1.49,4.09,4.09,0,0,1-.65-2.36,3.94,3.94,0,0,1,2.46-3.81,6.66,6.66,0,0,1,2.84-.55,7.59,7.59,0,0,1,2.47.34,6,6,0,0,1,1.57.77,3.84,3.84,0,0,1,.8.69v1.38a7.2,7.2,0,0,0-2.12-1,8.41,8.41,0,0,0-2.33-.31,5.13,5.13,0,0,0-1.87.29,2.26,2.26,0,0,0-1.08.83,2.2,2.2,0,0,0-.35,1.27A2.37,2.37,0,0,0,224.74,345Zm-1.87-9.31a10.29,10.29,0,0,1,2.11-1.13,8.42,8.42,0,0,1,3.23-.56,7.38,7.38,0,0,1,2.78.49,4.18,4.18,0,0,1,1.86,1.4,3.74,3.74,0,0,1,.67,2.24v9.73h-2.36v-9.4a2.51,2.51,0,0,0-.24-1.17,1.91,1.91,0,0,0-.66-.72,3.09,3.09,0,0,0-1-.38,5.62,5.62,0,0,0-1.18-.12,6.73,6.73,0,0,0-1.81.23,6.59,6.59,0,0,0-1.37.56,10.27,10.27,0,0,0-.89.57Z"/><path d="M239.86,324.88v23H237.5v-23Z"/><path d="M261.5,337.75a2.32,2.32,0,0,0-1-1.13,3,3,0,0,0-1.59-.38,3.75,3.75,0,0,0-1.81.42,3,3,0,0,0-1.21,1.2,3.52,3.52,0,0,0-.43,1.77v8.25h-2.36V334.32h2.36v2.12a4.33,4.33,0,0,1,4-2.42,4.61,4.61,0,0,1,2.48.65,4.39,4.39,0,0,1,1.6,1.83,6.32,6.32,0,0,1,.58,2.83v8.55h-2.36v-8.25A4.92,4.92,0,0,0,261.5,337.75Z"/><path d="M270.5,347.28a6.15,6.15,0,0,1-2.27-2.49,8.79,8.79,0,0,1-.32-6.58,6.35,6.35,0,0,1,1.37-2.22,6.16,6.16,0,0,1,2.12-1.45,7.17,7.17,0,0,1,2.75-.52,6.56,6.56,0,0,1,3.43.85,5.51,5.51,0,0,1,2.2,2.4,8.36,8.36,0,0,1,.76,3.71c0,.14,0,.28,0,.43s0,.24,0,.28H268.93v-2h9.73l-1,1.35a2,2,0,0,0,.18-.46,1.83,1.83,0,0,0,.09-.51,4.19,4.19,0,0,0-.49-2.09,3.51,3.51,0,0,0-1.34-1.39,3.93,3.93,0,0,0-2-.5,5,5,0,0,0-1.82.32,3.6,3.6,0,0,0-1.37.95,4.05,4.05,0,0,0-.85,1.53,6.61,6.61,0,0,0-.3,2.06,6.71,6.71,0,0,0,.5,2.72,3.82,3.82,0,0,0,1.48,1.71,4.49,4.49,0,0,0,2.36.59,4.88,4.88,0,0,0,2.44-.61,5,5,0,0,0,1.8-1.84l1.92,1.21a7.16,7.16,0,0,1-2.67,2.58,7.86,7.86,0,0,1-3.79.87A6.27,6.27,0,0,1,270.5,347.28Z"/><path d="M288.5,334.32v2.21h-6.78v-2.21Zm-2.21-4.72v18.28h-2.36V329.6Z"/><path d="M291.45,334.32l3.39,8.82,3.69-9.85,4,9.9,3.42-8.87h2.65l-5.89,14.6-4.1-9.88-3.86,9.88-5.9-14.6Z"/><path d="M312.37,347.28a6.15,6.15,0,0,1-2.27-2.49,8.79,8.79,0,0,1-.32-6.58,6.35,6.35,0,0,1,1.37-2.22,6.16,6.16,0,0,1,2.12-1.45A7.15,7.15,0,0,1,316,334a6.6,6.6,0,0,1,3.44.85,5.57,5.57,0,0,1,2.2,2.4,8.36,8.36,0,0,1,.76,3.71c0,.14,0,.28,0,.43s0,.24,0,.28H310.79v-2h9.74l-.95,1.35a2,2,0,0,0,.18-.46,1.83,1.83,0,0,0,.09-.51,4.19,4.19,0,0,0-.49-2.09,3.51,3.51,0,0,0-1.34-1.39,3.94,3.94,0,0,0-2-.5,5,5,0,0,0-1.81.32,3.6,3.6,0,0,0-1.37.95,4.21,4.21,0,0,0-.86,1.53,6.93,6.93,0,0,0-.29,2.06,6.71,6.71,0,0,0,.5,2.72,3.8,3.8,0,0,0,1.47,1.71A4.52,4.52,0,0,0,316,346a4.89,4.89,0,0,0,2.45-.61,5,5,0,0,0,1.8-1.84l1.92,1.21a7.16,7.16,0,0,1-2.67,2.58,7.86,7.86,0,0,1-3.79.87A6.27,6.27,0,0,1,312.37,347.28Z"/><path d="M328,347.88h-2.35V334.32H328Zm3.25-11.48a2.51,2.51,0,0,0-1-.16,2,2,0,0,0-1.38.44,2.21,2.21,0,0,0-.69,1.21,7.05,7.05,0,0,0-.2,1.74H327a6.77,6.77,0,0,1,.58-2.88,5.38,5.38,0,0,1,1.49-2,2.94,2.94,0,0,1,1.85-.74,4.7,4.7,0,0,1,1.38.2,2.52,2.52,0,0,1,1.16.75l-1.3,1.94A4.53,4.53,0,0,0,331.26,336.4Z"/><path d="M338,324.88v23h-2.36v-23Zm8,9.44-5.9,5.6,6.49,8h-2.95l-6.48-8,5.89-5.6Z"/><path d="M358.07,327.57a1.58,1.58,0,0,1,1.14-.47,1.55,1.55,0,0,1,1.15.47,1.62,1.62,0,0,1,0,2.28,1.54,1.54,0,0,1-1.15.49,1.62,1.62,0,0,1-1.14-2.77Zm2.32,6.75v13.56H358V334.32Z"/><path d="M366.76,344.87a4,4,0,0,0,1.22.85,3.79,3.79,0,0,0,1.52.31,2.52,2.52,0,0,0,1.58-.46,1.52,1.52,0,0,0,.57-1.25,1.7,1.7,0,0,0-.45-1.2,4.16,4.16,0,0,0-1.17-.83q-.7-.33-1.5-.63a15.12,15.12,0,0,1-1.79-.84,4.62,4.62,0,0,1-1.5-1.27,3.45,3.45,0,0,1,0-4,3.69,3.69,0,0,1,1.65-1.18,6,6,0,0,1,5.85.91,4.47,4.47,0,0,1,1.15,1.36L372,337.89a4.5,4.5,0,0,0-1.4-1.27,3.67,3.67,0,0,0-1.9-.5,2.47,2.47,0,0,0-1.27.32,1.11,1.11,0,0,0-.53,1,1.3,1.3,0,0,0,.42.94,4.21,4.21,0,0,0,1.06.74c.43.21.88.42,1.35.62a18.12,18.12,0,0,1,2.16,1,4.88,4.88,0,0,1,1.54,1.31,3.19,3.19,0,0,1,.58,2,3.87,3.87,0,0,1-.59,2.11,4.11,4.11,0,0,1-1.64,1.47,5.07,5.07,0,0,1-2.43.55,6,6,0,0,1-4.29-1.74,5.69,5.69,0,0,1-1.13-1.57l1.85-1.14A7.37,7.37,0,0,0,366.76,344.87Z"/><path d="M179.09,372.83a6.75,6.75,0,0,1,2.52-2.51,7.48,7.48,0,0,1,7.15,0,6.84,6.84,0,0,1,2.5,2.51,7.61,7.61,0,0,1,0,7.29,6.75,6.75,0,0,1-2.5,2.53,7.48,7.48,0,0,1-7.15,0,6.66,6.66,0,0,1-2.52-2.53,7.61,7.61,0,0,1,0-7.29Zm2.06,6.16a4.59,4.59,0,0,0,8,0,5.12,5.12,0,0,0,.6-2.51,5.21,5.21,0,0,0-.6-2.52,4.34,4.34,0,0,0-1.65-1.72,4.86,4.86,0,0,0-4.75,0,4.34,4.34,0,0,0-1.65,1.72,5.21,5.21,0,0,0-.6,2.52A5.12,5.12,0,0,0,181.15,379Z"/><path d="M195.29,389.75V369.7h2.36v20.05Zm12.79-9.49a6.4,6.4,0,0,1-2.43,2.44,6.76,6.76,0,0,1-3.37.86,5.36,5.36,0,0,1-2.32-.49,5,5,0,0,1-1.8-1.4,6.5,6.5,0,0,1-1.16-2.22,9.77,9.77,0,0,1-.42-3,9.66,9.66,0,0,1,.42-3,6.55,6.55,0,0,1,1.16-2.23,5.11,5.11,0,0,1,1.8-1.4,5.5,5.5,0,0,1,2.32-.48,6.75,6.75,0,0,1,3.37.85,6.44,6.44,0,0,1,2.43,2.43,8.25,8.25,0,0,1,0,7.57Zm-2.1-6.43a4.29,4.29,0,0,0-1.68-1.65,4.77,4.77,0,0,0-2.32-.56,4,4,0,0,0-1.53.32,4.46,4.46,0,0,0-1.4.95,4.38,4.38,0,0,0-1,1.51,5.88,5.88,0,0,0,0,4.16,4.56,4.56,0,0,0,2.42,2.46,3.84,3.84,0,0,0,1.53.33,4.88,4.88,0,0,0,2.32-.56,4.36,4.36,0,0,0,1.68-1.65,5.91,5.91,0,0,0,0-5.31Z"/><path d="M212,372.69a6.4,6.4,0,0,1,2.44-2.43,6.82,6.82,0,0,1,3.36-.85,5.5,5.5,0,0,1,2.32.48,5.11,5.11,0,0,1,1.8,1.4,6.55,6.55,0,0,1,1.16,2.23,9.66,9.66,0,0,1,.42,3,9.77,9.77,0,0,1-.42,3,6.5,6.5,0,0,1-1.16,2.22,5,5,0,0,1-1.8,1.4,5.36,5.36,0,0,1-2.32.49,6.83,6.83,0,0,1-3.36-.86,6.36,6.36,0,0,1-2.44-2.44,8.25,8.25,0,0,1,0-7.57Zm1.74,11.46a3.27,3.27,0,0,0,.53,1.81,3.89,3.89,0,0,0,1.5,1.36,4.91,4.91,0,0,0,2.3.51,4.38,4.38,0,0,0,2-.5,4.11,4.11,0,0,0,1.67-1.57,5.29,5.29,0,0,0,.66-2.79V369.7h2.36V383a7.32,7.32,0,0,1-1,3.91,6.33,6.33,0,0,1-2.51,2.37,6.93,6.93,0,0,1-3.24.8,7.89,7.89,0,0,1-3.49-.74,5.69,5.69,0,0,1-2.38-2.08,5.59,5.59,0,0,1-.85-3.08Zm.36-5a4.28,4.28,0,0,0,1.7,1.65,4.89,4.89,0,0,0,2.3.56,3.84,3.84,0,0,0,1.53-.33,4.56,4.56,0,0,0,2.42-2.46,5.88,5.88,0,0,0,0-4.16,4.38,4.38,0,0,0-1-1.51,4.46,4.46,0,0,0-1.4-.95,4,4,0,0,0-1.53-.32,4.77,4.77,0,0,0-2.3.56,4.21,4.21,0,0,0-1.7,1.65,5.91,5.91,0,0,0,0,5.31Z"/><path d="M231,382.66a6.15,6.15,0,0,1-2.27-2.49,8.79,8.79,0,0,1-.32-6.58,6.44,6.44,0,0,1,1.37-2.22,6.2,6.2,0,0,1,2.12-1.45,7.11,7.11,0,0,1,2.74-.51,6.69,6.69,0,0,1,3.44.84,5.55,5.55,0,0,1,2.19,2.4,8.37,8.37,0,0,1,.77,3.72c0,.13,0,.28,0,.42s0,.24,0,.28H229.37v-2h9.73l-.94,1.35a1.88,1.88,0,0,0,.18-.45,2.36,2.36,0,0,0,.08-.52,4.33,4.33,0,0,0-.48-2.09A3.65,3.65,0,0,0,236.6,372a3.94,3.94,0,0,0-2-.5,4.94,4.94,0,0,0-1.81.32,3.71,3.71,0,0,0-1.37.95,4.07,4.07,0,0,0-.86,1.53,7,7,0,0,0-.29,2.07,6.53,6.53,0,0,0,.5,2.71,3.64,3.64,0,0,0,1.47,1.71,4.52,4.52,0,0,0,2.36.59,4.82,4.82,0,0,0,2.45-.61,4.9,4.9,0,0,0,1.8-1.84l1.91,1.21a7,7,0,0,1-2.67,2.58,7.82,7.82,0,0,1-3.78.87A6.24,6.24,0,0,1,231,382.66Z"/><path d="M246.44,383.26h-2.35v-23h2.35Zm10.44-3a6.4,6.4,0,0,1-2.43,2.44,6.77,6.77,0,0,1-3.38.86,5.35,5.35,0,0,1-2.31-.49,5,5,0,0,1-1.8-1.4,6.5,6.5,0,0,1-1.16-2.22,9.77,9.77,0,0,1-.42-3,9.66,9.66,0,0,1,.42-3,6.55,6.55,0,0,1,1.16-2.23,5.11,5.11,0,0,1,1.8-1.4,5.49,5.49,0,0,1,2.31-.48,6.76,6.76,0,0,1,3.38.85,6.44,6.44,0,0,1,2.43,2.43,8.25,8.25,0,0,1,0,7.57Zm-2.11-6.43a4.16,4.16,0,0,0-1.68-1.65,4.73,4.73,0,0,0-2.31-.56,4,4,0,0,0-1.53.32,4.56,4.56,0,0,0-2.42,2.46,5.74,5.74,0,0,0,0,4.16,4.54,4.54,0,0,0,1,1.52,4.46,4.46,0,0,0,1.41.94,3.84,3.84,0,0,0,1.53.33,4.84,4.84,0,0,0,2.31-.56,4.23,4.23,0,0,0,1.68-1.65,5.83,5.83,0,0,0,0-5.31Z"/><path d="M260.79,372.83a6.82,6.82,0,0,1,2.52-2.51,7.48,7.48,0,0,1,7.15,0,6.87,6.87,0,0,1,2.51,2.51,7.68,7.68,0,0,1,0,7.29,6.77,6.77,0,0,1-2.51,2.53,7.48,7.48,0,0,1-7.15,0,6.73,6.73,0,0,1-2.52-2.53,7.61,7.61,0,0,1,0-7.29Zm2.06,6.16a4.55,4.55,0,0,0,1.65,1.72,4.59,4.59,0,0,0,6.4-1.72,5.12,5.12,0,0,0,.61-2.51,5.22,5.22,0,0,0-.61-2.52,4.34,4.34,0,0,0-1.65-1.72,4.86,4.86,0,0,0-4.75,0,4.41,4.41,0,0,0-1.65,1.72,5.21,5.21,0,0,0-.6,2.52A5.12,5.12,0,0,0,262.85,379Z"/><path d="M279.82,379.8a2.5,2.5,0,0,0,1,1.15,3,3,0,0,0,1.6.4,3.67,3.67,0,0,0,1.81-.43,3,3,0,0,0,1.21-1.19,3.62,3.62,0,0,0,.43-1.77V369.7h2.36v13.56h-2.36v-2.12a4.9,4.9,0,0,1-1.69,1.82,4.46,4.46,0,0,1-2.35.6,4.62,4.62,0,0,1-2.47-.65,4.41,4.41,0,0,1-1.62-1.84,6.51,6.51,0,0,1-.57-2.82V369.7h2.36V378A4.59,4.59,0,0,0,279.82,379.8Z"/><path d="M293.21,369.7l3.39,8.82,3.68-9.85,4,9.91,3.41-8.88h2.66l-5.9,14.6-4.1-9.88-3.86,9.88-5.9-14.6Z"/><path d="M312.4,372.69a6.42,6.42,0,0,1,2.45-2.43,6.77,6.77,0,0,1,3.36-.85,5.5,5.5,0,0,1,2.32.48,5.16,5.16,0,0,1,1.79,1.4,6.75,6.75,0,0,1,1.17,2.23,10,10,0,0,1,.41,3,10.11,10.11,0,0,1-.41,3,6.7,6.7,0,0,1-1.17,2.22,5,5,0,0,1-1.79,1.4,5.36,5.36,0,0,1-2.32.49,6.78,6.78,0,0,1-3.36-.86,6.38,6.38,0,0,1-2.45-2.44,8.33,8.33,0,0,1,0-7.57Zm2.11,6.45a4.21,4.21,0,0,0,1.7,1.65,4.86,4.86,0,0,0,2.3.56A3.84,3.84,0,0,0,320,381a4.42,4.42,0,0,0,1.4-.94,4.72,4.72,0,0,0,1-1.52,5.88,5.88,0,0,0,0-4.16,4.67,4.67,0,0,0-1-1.51,4.46,4.46,0,0,0-1.4-.95,4,4,0,0,0-1.53-.32,4.74,4.74,0,0,0-2.3.56,4.15,4.15,0,0,0-1.7,1.65,5.91,5.91,0,0,0,0,5.31Zm10.69-18.87v23h-2.36v-23Z"/><path d="M338,370.88v-2.36l15,6.49v1.33l-15,6.48v-2.36l11.15-4.66Z"/></g></g></svg>