<svg xmlns="http://www.w3.org/2000/svg" viewBox="0 0 437.99 425.9"><g id="Layer_2" data-name="Layer 2"><g id="Layer_1-2" data-name="Layer 1"><path d="M438,216.85c-1.05,32.85-3.42,65.55-9,97.94-3.57,20.71-8.91,40.9-18.52,59.8-13.51,26.54-35.2,41.93-64.07,47.66-42.34,8.4-83.07,1.63-122.82-13.55-28.9-11-55.59-26.4-81.91-42.41-26.59-16.17-53.34-32.11-79.35-49.17-18.36-12-34.06-27.29-45.61-46.3C2.17,246.91-1.94,220.54.79,193.39,7.66,125.23,42.13,73.54,98.47,36.1c29.38-19.53,62.11-30.85,97.34-34.61,66.72-7.11,125.61,11.26,176.11,55.2,38.52,33.52,60.11,76.12,64.2,127.25C437,194.89,437.38,205.88,438,216.85Z" style="fill:#10609e"/><text transform="translate(89.11 121.63)" style="font-size:60px;font-family:CooperBlack, Cooper Black"><tspan style="letter-spacing:-0.03955078125em">O</tspan><tspan x="44.33" y="0">VER</tspan><tspan x="0" y="72" style="letter-spacing:-0.00732421875em">B</tspan><tspan x="42.6" y="72">ALNEA</tspan></text><path d="M101.55,275.74a10,10,0,0,1,2.2-3.36,10.26,10.26,0,0,1,3.33-2.25,11.11,11.11,0,0,1,8.33,0,10.28,10.28,0,0,1,3.31,2.25,10,10,0,0,1,2.2,3.36,11.67,11.67,0,0,1,0,8.39,10,10,0,0,1-2.2,3.37,10.09,10.09,0,0,1-3.31,2.24,11.11,11.11,0,0,1-8.33,0,10.11,10.11,0,0,1-5.53-5.61,11.67,11.67,0,0,1,0-8.39Zm2.45,7.43a7.43,7.43,0,0,0,4.12,4.27,8.26,8.26,0,0,0,6.23,0,7.63,7.63,0,0,0,2.49-1.69,7.51,7.51,0,0,0,1.63-2.58,9.28,9.28,0,0,0,0-6.46,7.51,7.51,0,0,0-1.63-2.58,7.66,7.66,0,0,0-2.49-1.7,8.39,8.39,0,0,0-6.23,0,7.48,7.48,0,0,0-4.12,4.28,9.28,9.28,0,0,0,0,6.46Z"/><path d="M133.47,280.13a2.32,2.32,0,0,0-1-1.13,3,3,0,0,0-1.59-.39,3.75,3.75,0,0,0-1.81.43,3,3,0,0,0-1.21,1.19,3.57,3.57,0,0,0-.43,1.77v8.26h-2.36V276.7h2.36v2.12a4.52,4.52,0,0,1,1.7-1.83,5,5,0,0,1,4.82.06,4.36,4.36,0,0,1,1.61,1.83,6.43,6.43,0,0,1,.57,2.83v8.55h-2.36V282A4.86,4.86,0,0,0,133.47,280.13Z"/><path d="M145.29,276.7v2.21h-6.78V276.7ZM143.08,272v18.28h-2.36V272Z"/><path d="M147.38,279.69a6.42,6.42,0,0,1,2.45-2.43,6.78,6.78,0,0,1,3.36-.86,5.36,5.36,0,0,1,2.32.49,5.17,5.17,0,0,1,1.8,1.4,6.5,6.5,0,0,1,1.16,2.22,9.78,9.78,0,0,1,.41,3,9.67,9.67,0,0,1-.41,3,6.46,6.46,0,0,1-1.16,2.23,5.29,5.29,0,0,1-1.8,1.4,5.5,5.5,0,0,1-2.32.48,6.77,6.77,0,0,1-3.36-.85,6.41,6.41,0,0,1-2.45-2.45,8.31,8.31,0,0,1,0-7.56Zm2.11,6.44a4.15,4.15,0,0,0,1.7,1.65,4.77,4.77,0,0,0,2.3.56A4,4,0,0,0,155,288a4.46,4.46,0,0,0,1.4-.95,4.67,4.67,0,0,0,1-1.51,5.88,5.88,0,0,0,0-4.16,4.72,4.72,0,0,0-1-1.52,4.42,4.42,0,0,0-1.4-.94,3.84,3.84,0,0,0-1.53-.33,4.89,4.89,0,0,0-2.3.56,4.28,4.28,0,0,0-1.7,1.65,5.91,5.91,0,0,0,0,5.31Zm10.69-18.87v23h-2.36v-23Z"/><path d="M166.36,289.65a6.08,6.08,0,0,1-2.27-2.49,8,8,0,0,1-.81-3.68,8.26,8.26,0,0,1,.48-2.89,6.54,6.54,0,0,1,1.37-2.23,6.08,6.08,0,0,1,2.13-1.44,6.93,6.93,0,0,1,2.74-.52,6.63,6.63,0,0,1,3.43.84,5.51,5.51,0,0,1,2.2,2.4,8.4,8.4,0,0,1,.77,3.72c0,.14,0,.28,0,.43s0,.24,0,.28H164.78v-2h9.73l-.94,1.36a2.06,2.06,0,0,0,.17-.46,1.89,1.89,0,0,0,.09-.51,4.34,4.34,0,0,0-.48-2.1A3.58,3.58,0,0,0,172,279a3.81,3.81,0,0,0-2-.5,4.75,4.75,0,0,0-1.81.32,3.72,3.72,0,0,0-1.38.94,4.33,4.33,0,0,0-.85,1.54,6.56,6.56,0,0,0-.3,2.06,6.49,6.49,0,0,0,.51,2.71,3.64,3.64,0,0,0,1.47,1.71,4.42,4.42,0,0,0,2.36.59,4.91,4.91,0,0,0,2.45-.6,5,5,0,0,0,1.79-1.85l1.92,1.21a7.16,7.16,0,0,1-2.67,2.58,7.83,7.83,0,0,1-3.79.87A6.23,6.23,0,0,1,166.36,289.65Z"/><path d="M181.85,267.26v23h-2.36v-23Zm8,9.44-5.89,5.6,6.48,8h-3l-6.48-8,5.89-5.6Z"/><path d="M201.19,279.69a6.42,6.42,0,0,1,2.45-2.43,6.78,6.78,0,0,1,3.36-.86,5.36,5.36,0,0,1,2.32.49,5.17,5.17,0,0,1,1.8,1.4,6.68,6.68,0,0,1,1.16,2.22,9.78,9.78,0,0,1,.41,3,9.67,9.67,0,0,1-.41,3,6.64,6.64,0,0,1-1.16,2.23,5.29,5.29,0,0,1-1.8,1.4,5.5,5.5,0,0,1-2.32.48,6.77,6.77,0,0,1-3.36-.85,6.41,6.41,0,0,1-2.45-2.45,8.31,8.31,0,0,1,0-7.56Zm2.11,6.44a4.15,4.15,0,0,0,1.7,1.65,4.74,4.74,0,0,0,2.3.56,4,4,0,0,0,1.53-.32,4.46,4.46,0,0,0,1.4-.95,4.67,4.67,0,0,0,1-1.51,5.88,5.88,0,0,0,0-4.16,4.72,4.72,0,0,0-1-1.52,4.42,4.42,0,0,0-1.4-.94,3.84,3.84,0,0,0-1.53-.33,4.86,4.86,0,0,0-2.3.56,4.28,4.28,0,0,0-1.7,1.65,5.91,5.91,0,0,0,0,5.31ZM214,267.26v23h-2.36v-23Z"/><path d="M220.17,289.65a6.08,6.08,0,0,1-2.27-2.49,8,8,0,0,1-.81-3.68,8.26,8.26,0,0,1,.48-2.89,6.54,6.54,0,0,1,1.37-2.23,6.08,6.08,0,0,1,2.13-1.44,6.93,6.93,0,0,1,2.74-.52,6.63,6.63,0,0,1,3.43.84,5.51,5.51,0,0,1,2.2,2.4,8.4,8.4,0,0,1,.77,3.72c0,.14,0,.28,0,.43s0,.24,0,.28H218.59v-2h9.73l-.94,1.36a2.06,2.06,0,0,0,.17-.46,1.89,1.89,0,0,0,.09-.51,4.34,4.34,0,0,0-.48-2.1,3.58,3.58,0,0,0-1.35-1.38,3.81,3.81,0,0,0-2-.5,4.75,4.75,0,0,0-1.81.32,3.72,3.72,0,0,0-1.38.94,4.33,4.33,0,0,0-.85,1.54,6.56,6.56,0,0,0-.3,2.06A6.49,6.49,0,0,0,220,286a3.64,3.64,0,0,0,1.47,1.71,4.4,4.4,0,0,0,2.36.59,4.91,4.91,0,0,0,2.45-.6,5,5,0,0,0,1.79-1.85L230,287.1a7.16,7.16,0,0,1-2.67,2.58,7.83,7.83,0,0,1-3.79.87A6.23,6.23,0,0,1,220.17,289.65Z"/><path d="M243.73,287.4a2.26,2.26,0,0,0,1,.84,3.82,3.82,0,0,0,1.52.28,4.34,4.34,0,0,0,2-.44,3.5,3.5,0,0,0,1.38-1.26,3.35,3.35,0,0,0,.52-1.87l.47,1.77a3.06,3.06,0,0,1-.78,2.15,4.69,4.69,0,0,1-1.92,1.27,6.42,6.42,0,0,1-2.25.41,5.35,5.35,0,0,1-2.32-.51,4.22,4.22,0,0,1-1.72-1.49,4.56,4.56,0,0,1,0-4.66,4.26,4.26,0,0,1,1.83-1.52,6.87,6.87,0,0,1,2.85-.54,7.56,7.56,0,0,1,2.46.34,6.13,6.13,0,0,1,1.58.76,4.31,4.31,0,0,1,.79.7V285a7.37,7.37,0,0,0-2.12-1,8.75,8.75,0,0,0-2.33-.31,4.91,4.91,0,0,0-1.87.3,2.29,2.29,0,0,0-1.08.82,2.22,2.22,0,0,0-.35,1.27A2.33,2.33,0,0,0,243.73,287.4Zm-1.88-9.32A11.14,11.14,0,0,1,244,277a8.45,8.45,0,0,1,3.23-.56,7.28,7.28,0,0,1,2.79.49,4.13,4.13,0,0,1,1.85,1.4,3.65,3.65,0,0,1,.67,2.24v9.73h-2.36v-9.41a2.47,2.47,0,0,0-.24-1.16,1.77,1.77,0,0,0-.66-.72,3.11,3.11,0,0,0-1-.39,5.57,5.57,0,0,0-1.18-.11,6.36,6.36,0,0,0-1.81.23,6.59,6.59,0,0,0-1.37.56c-.38.22-.67.4-.89.56Z"/><path d="M258.14,286a4.65,4.65,0,0,0,1.65,1.73,4.53,4.53,0,0,0,2.38.63,6,6,0,0,0,2.05-.34,5.42,5.42,0,0,0,1.66-.91,3.41,3.41,0,0,0,1-1.22v2.94a4.71,4.71,0,0,1-2,1.29,8.31,8.31,0,0,1-2.7.45,7,7,0,0,1-3.57-.91,6.77,6.77,0,0,1-2.52-2.52,7.63,7.63,0,0,1,0-7.3,6.82,6.82,0,0,1,2.52-2.51,7.13,7.13,0,0,1,3.57-.91,8.06,8.06,0,0,1,2.7.46,4.6,4.6,0,0,1,2,1.28v2.95a3.23,3.23,0,0,0-1-1.24,5.86,5.86,0,0,0-1.66-.9,6.25,6.25,0,0,0-2.05-.34,4.62,4.62,0,0,0-2.38.62,4.51,4.51,0,0,0-1.65,1.73,5.16,5.16,0,0,0-.6,2.52A5.08,5.08,0,0,0,258.14,286Z"/><path d="M272.93,290.26h-2.36v-23h2.36Zm6-10.13a2.39,2.39,0,0,0-1-1.13,3,3,0,0,0-1.61-.39,3.65,3.65,0,0,0-1.81.44,3.13,3.13,0,0,0-1.21,1.21,3.45,3.45,0,0,0-.43,1.74h-.77a6.41,6.41,0,0,1,.62-2.87,5.1,5.1,0,0,1,1.7-2,4.32,4.32,0,0,1,2.49-.74,5,5,0,0,1,2.46.59,3.88,3.88,0,0,1,1.62,1.77,6.63,6.63,0,0,1,.58,2.95v8.55h-2.36V282A4.86,4.86,0,0,0,279,280.13Z"/><path d="M290.77,276.7v2.21H284V276.7ZM288.56,272v18.28H286.2V272Z"/><path d="M295,289.65a6.15,6.15,0,0,1-2.27-2.49,8,8,0,0,1-.81-3.68,8.26,8.26,0,0,1,.48-2.89,6.56,6.56,0,0,1,1.38-2.23,6,6,0,0,1,2.12-1.44,6.93,6.93,0,0,1,2.74-.52,6.69,6.69,0,0,1,3.44.84,5.55,5.55,0,0,1,2.19,2.4,8.4,8.4,0,0,1,.77,3.72c0,.14,0,.28,0,.43s0,.24,0,.28H293.45v-2h9.73l-.94,1.36a2,2,0,0,0,.18-.46,2.28,2.28,0,0,0,.08-.51,4.34,4.34,0,0,0-.48-2.1,3.56,3.56,0,0,0-1.34-1.38,3.85,3.85,0,0,0-2-.5,4.75,4.75,0,0,0-1.81.32,3.69,3.69,0,0,0-1.37.94,4.19,4.19,0,0,0-.86,1.54,6.57,6.57,0,0,0-.29,2.06,6.49,6.49,0,0,0,.5,2.71,3.64,3.64,0,0,0,1.47,1.71,4.42,4.42,0,0,0,2.36.59,4.91,4.91,0,0,0,2.45-.6,5,5,0,0,0,1.8-1.85l1.91,1.21a7,7,0,0,1-2.67,2.58,7.82,7.82,0,0,1-3.78.87A6.24,6.24,0,0,1,295,289.65Z"/><path d="M310.67,290.26h-2.36V276.7h2.36Zm3.24-11.49a2.65,2.65,0,0,0-1-.16,2,2,0,0,0-1.38.44,2.32,2.32,0,0,0-.7,1.21,7.08,7.08,0,0,0-.19,1.74h-1.06a6.84,6.84,0,0,1,.57-2.87,5.4,5.4,0,0,1,1.49-2,3,3,0,0,1,1.86-.74,5,5,0,0,1,1.37.19,2.79,2.79,0,0,1,1.17.75l-1.3,2A4.18,4.18,0,0,0,313.91,278.77Z"/><path d="M317.72,279.69a6.4,6.4,0,0,1,2.44-2.43,6.84,6.84,0,0,1,3.37-.86,5.35,5.35,0,0,1,2.31.49,5,5,0,0,1,1.8,1.4,6.5,6.5,0,0,1,1.16,2.22,9.77,9.77,0,0,1,.42,3,9.66,9.66,0,0,1-.42,3,6.46,6.46,0,0,1-1.16,2.23,5.11,5.11,0,0,1-1.8,1.4,5.49,5.49,0,0,1-2.31.48,6.83,6.83,0,0,1-3.37-.85,6.38,6.38,0,0,1-2.44-2.45,8.23,8.23,0,0,1,0-7.56Zm1.74,11.45A3.3,3.3,0,0,0,320,293a3.79,3.79,0,0,0,1.5,1.35,4.79,4.79,0,0,0,2.3.52,4.58,4.58,0,0,0,2-.5,4.18,4.18,0,0,0,1.66-1.58,5.28,5.28,0,0,0,.67-2.79V276.7h2.35V290a7.29,7.29,0,0,1-1,3.91,6.33,6.33,0,0,1-2.51,2.37,6.82,6.82,0,0,1-3.24.8,7.89,7.89,0,0,1-3.49-.74,5.53,5.53,0,0,1-3.23-5.16Zm.37-5a4.13,4.13,0,0,0,1.69,1.65,4.8,4.8,0,0,0,2.3.56,4,4,0,0,0,1.53-.32,4.65,4.65,0,0,0,2.42-2.46,5.74,5.74,0,0,0,0-4.16,4.42,4.42,0,0,0-1-1.52,4.31,4.31,0,0,0-1.4-.94,3.84,3.84,0,0,0-1.53-.33,4.92,4.92,0,0,0-2.3.56,4.25,4.25,0,0,0-1.69,1.65,5.83,5.83,0,0,0,0,5.31Z"/><path d="M337.15,290.26h-2.36V276.7h2.36Zm3.24-11.49a2.65,2.65,0,0,0-1-.16,2.07,2.07,0,0,0-1.39.44,2.38,2.38,0,0,0-.69,1.21,7.08,7.08,0,0,0-.19,1.74h-1.06a6.84,6.84,0,0,1,.57-2.87,5.29,5.29,0,0,1,1.49-2,3,3,0,0,1,1.86-.74,5,5,0,0,1,1.37.19,2.7,2.7,0,0,1,1.16.75l-1.29,2A4.18,4.18,0,0,0,340.39,278.77Z"/><path d="M344.21,279.82a6.82,6.82,0,0,1,2.52-2.51,7.48,7.48,0,0,1,7.15,0,6.87,6.87,0,0,1,2.51,2.51,7.63,7.63,0,0,1,0,7.3,6.82,6.82,0,0,1-2.51,2.52,7.48,7.48,0,0,1-7.15,0,6.77,6.77,0,0,1-2.52-2.52,7.63,7.63,0,0,1,0-7.3Zm2.06,6.16a4.65,4.65,0,0,0,1.65,1.73,4.58,4.58,0,0,0,6.4-1.73,5,5,0,0,0,.61-2.5,5.06,5.06,0,0,0-.61-2.52,4.37,4.37,0,0,0-1.65-1.73,4.86,4.86,0,0,0-4.75,0,4.51,4.51,0,0,0-1.65,1.73,5.16,5.16,0,0,0-.6,2.52A5.08,5.08,0,0,0,346.27,286Z"/><path d="M368.93,280.13a2.3,2.3,0,0,0-1-1.13,3,3,0,0,0-1.59-.39,3.82,3.82,0,0,0-1.82.43,3,3,0,0,0-1.2,1.19,3.57,3.57,0,0,0-.43,1.77v8.26h-2.36V276.7h2.36v2.12a4.57,4.57,0,0,1,1.69-1.83,4.63,4.63,0,0,1,2.35-.59,4.55,4.55,0,0,1,2.47.65,4.3,4.3,0,0,1,1.61,1.83,6.43,6.43,0,0,1,.58,2.83v8.55h-2.36V282A4.67,4.67,0,0,0,368.93,280.13Z"/><path d="M375.77,279.69a6.42,6.42,0,0,1,2.45-2.43,6.78,6.78,0,0,1,3.36-.86,5.36,5.36,0,0,1,2.32.49,5.17,5.17,0,0,1,1.8,1.4,6.68,6.68,0,0,1,1.16,2.22,10.11,10.11,0,0,1,.41,3,10,10,0,0,1-.41,3,6.64,6.64,0,0,1-1.16,2.23,5.29,5.29,0,0,1-1.8,1.4,5.5,5.5,0,0,1-2.32.48,6.77,6.77,0,0,1-3.36-.85,6.41,6.41,0,0,1-2.45-2.45,8.31,8.31,0,0,1,0-7.56Zm2.11,6.44a4.15,4.15,0,0,0,1.7,1.65,4.74,4.74,0,0,0,2.3.56,4,4,0,0,0,1.53-.32,4.46,4.46,0,0,0,1.4-.95,4.67,4.67,0,0,0,1-1.51,5.88,5.88,0,0,0,0-4.16,4.72,4.72,0,0,0-1-1.52,4.42,4.42,0,0,0-1.4-.94,3.84,3.84,0,0,0-1.53-.33,4.86,4.86,0,0,0-2.3.56,4.28,4.28,0,0,0-1.7,1.65,5.91,5.91,0,0,0,0,5.31Zm10.69-18.87v23h-2.36v-23Z"/><path d="M144.82,312.08l3.83,9.58,3.84-9.58h2.65l-6.49,14.59-6.48-14.59Z"/><path d="M158.78,322.78a2.19,2.19,0,0,0,1,.84,3.82,3.82,0,0,0,1.52.28,4.19,4.19,0,0,0,2-.44,3.37,3.37,0,0,0,1.9-3.13l.47,1.77a3.08,3.08,0,0,1-.78,2.16,4.7,4.7,0,0,1-1.91,1.26,6.49,6.49,0,0,1-2.26.42,5.32,5.32,0,0,1-2.31-.52,4.06,4.06,0,0,1-2.38-3.85,4.08,4.08,0,0,1,.64-2.3,4.2,4.2,0,0,1,1.83-1.52,6.82,6.82,0,0,1,2.84-.54,7.56,7.56,0,0,1,2.46.34,6,6,0,0,1,1.58.76,4.46,4.46,0,0,1,.8.7v1.38a7.14,7.14,0,0,0-2.13-1,8.31,8.31,0,0,0-2.33-.31,5.17,5.17,0,0,0-1.87.29,2.23,2.23,0,0,0-1.07.83,2.18,2.18,0,0,0-.36,1.27A2.3,2.3,0,0,0,158.78,322.78Zm-1.87-9.32a10.83,10.83,0,0,1,2.11-1.12,8.4,8.4,0,0,1,3.22-.56,7.4,7.4,0,0,1,2.79.49,4.11,4.11,0,0,1,1.86,1.4,3.73,3.73,0,0,1,.66,2.24v9.73h-2.36v-9.4a2.65,2.65,0,0,0-.23-1.17,1.86,1.86,0,0,0-.67-.72,2.75,2.75,0,0,0-1-.38,5.69,5.69,0,0,0-1.18-.12,6.34,6.34,0,0,0-3.19.79c-.37.22-.67.41-.88.56Z"/><path d="M179.91,315.51a2.32,2.32,0,0,0-1-1.13,3,3,0,0,0-1.59-.38,3.75,3.75,0,0,0-1.81.42,3,3,0,0,0-1.21,1.2,3.52,3.52,0,0,0-.43,1.77v8.25h-2.36V312.08h2.36v2.12a4.65,4.65,0,0,1,1.7-1.83,5,5,0,0,1,4.82.06,4.33,4.33,0,0,1,1.6,1.83,6.32,6.32,0,0,1,.58,2.83v8.55h-2.36v-8.25A4.88,4.88,0,0,0,179.91,315.51Z"/><path d="M195.59,315.07a6.42,6.42,0,0,1,2.45-2.43,6.78,6.78,0,0,1,3.36-.86,5.46,5.46,0,0,1,2.31.49,5,5,0,0,1,1.8,1.4,6.65,6.65,0,0,1,1.17,2.23,10.89,10.89,0,0,1,0,5.92,6.65,6.65,0,0,1-1.17,2.23,5,5,0,0,1-1.8,1.4,5.46,5.46,0,0,1-2.31.49,6.78,6.78,0,0,1-3.36-.86,6.34,6.34,0,0,1-2.45-2.45,8.31,8.31,0,0,1,0-7.56Zm2.11,6.44a4.24,4.24,0,0,0,1.7,1.66,4.85,4.85,0,0,0,2.3.55,3.82,3.82,0,0,0,1.53-.32,4.6,4.6,0,0,0,1.4-.94,4.83,4.83,0,0,0,1-1.52,5.88,5.88,0,0,0,0-4.16,4.83,4.83,0,0,0-1-1.52,4.6,4.6,0,0,0-1.4-.94,3.82,3.82,0,0,0-1.53-.32,4.85,4.85,0,0,0-2.3.55,4.24,4.24,0,0,0-1.7,1.66,5.89,5.89,0,0,0,0,5.3Zm10.69-18.87v23H206v-23Z"/><path d="M213.15,305.33a1.55,1.55,0,0,1,1.13-.48,1.62,1.62,0,0,1,1.16,2.76,1.54,1.54,0,0,1-1.16.49,1.52,1.52,0,0,1-1.13-.49,1.56,1.56,0,0,1-.49-1.13A1.54,1.54,0,0,1,213.15,305.33Zm2.31,6.75v13.56h-2.35V312.08Z"/><path d="M225.05,312.08v2.21h-6.78v-2.21Zm-2.21-4.72v18.28h-2.36V307.36Z"/><path d="M236.1,332.13V312.08h2.36v20.05Zm12.8-9.5a6.36,6.36,0,0,1-2.43,2.45,6.8,6.8,0,0,1-3.38.86,5.46,5.46,0,0,1-2.31-.49,5,5,0,0,1-1.8-1.4,6.65,6.65,0,0,1-1.17-2.23,10.89,10.89,0,0,1,0-5.92,6.65,6.65,0,0,1,1.17-2.23,5,5,0,0,1,1.8-1.4,5.46,5.46,0,0,1,2.31-.49,6.8,6.8,0,0,1,3.38.86,6.44,6.44,0,0,1,2.43,2.43,8.31,8.31,0,0,1,0,7.56Zm-2.11-6.42a4.25,4.25,0,0,0-1.68-1.66,4.86,4.86,0,0,0-2.31-.55,3.83,3.83,0,0,0-1.54.32,4.6,4.6,0,0,0-1.4.94,4.65,4.65,0,0,0-1,1.52,5.74,5.74,0,0,0,0,4.16,4.65,4.65,0,0,0,1,1.52,4.6,4.6,0,0,0,1.4.94,3.83,3.83,0,0,0,1.54.32,4.86,4.86,0,0,0,2.31-.55,4.25,4.25,0,0,0,1.68-1.66,5.81,5.81,0,0,0,0-5.3Z"/><path d="M255.42,325.64h-2.36V312.08h2.36Zm3.24-11.48a2.49,2.49,0,0,0-1-.16,2,2,0,0,0-1.39.44,2.3,2.3,0,0,0-.69,1.21,7.08,7.08,0,0,0-.19,1.74h-1.07a6.89,6.89,0,0,1,.58-2.88,5.38,5.38,0,0,1,1.49-2,3,3,0,0,1,1.86-.74,4.68,4.68,0,0,1,1.37.2,2.52,2.52,0,0,1,1.16.75l-1.3,1.94A4.53,4.53,0,0,0,258.66,314.16Z"/><path d="M262.48,315.2a6.79,6.79,0,0,1,2.52-2.5,7.41,7.41,0,0,1,7.15,0,6.84,6.84,0,0,1,2.51,2.5,7.7,7.7,0,0,1,0,7.3,6.82,6.82,0,0,1-2.51,2.52,7.41,7.41,0,0,1-7.15,0,6.77,6.77,0,0,1-2.52-2.52,7.63,7.63,0,0,1,0-7.3Zm2.06,6.17a4.59,4.59,0,0,0,8,0,5.15,5.15,0,0,0,.61-2.51,5.22,5.22,0,0,0-.61-2.52,4.43,4.43,0,0,0-1.65-1.73,4.93,4.93,0,0,0-4.75,0,4.43,4.43,0,0,0-1.65,1.73,5.21,5.21,0,0,0-.6,2.52A5.15,5.15,0,0,0,264.54,321.37Z"/><path d="M276.72,329.56a1.64,1.64,0,0,0,.84.21,1.2,1.2,0,0,0,.81-.27,1.57,1.57,0,0,0,.46-.85,7,7,0,0,0,.14-1.53v-15h2.36v15.33a6.52,6.52,0,0,1-.45,2.54,3.61,3.61,0,0,1-1.35,1.62,3.9,3.9,0,0,1-2.12.56,4.27,4.27,0,0,1-1.06-.13,3.22,3.22,0,0,1-.86-.4,3.17,3.17,0,0,1-.67-.65l1.29-1.95A1.64,1.64,0,0,0,276.72,329.56Zm2.19-24.22a1.6,1.6,0,0,1,1.13-.46,1.55,1.55,0,0,1,1.13.46,1.53,1.53,0,0,1,.46,1.14,1.55,1.55,0,0,1-.46,1.12,1.52,1.52,0,0,1-1.13.47,1.6,1.6,0,0,1-1.6-1.59A1.54,1.54,0,0,1,278.91,305.34Z"/><path d="M288.1,325a6.15,6.15,0,0,1-2.27-2.49,8.79,8.79,0,0,1-.32-6.58,6.48,6.48,0,0,1,1.37-2.23A6.18,6.18,0,0,1,289,312.3a7.15,7.15,0,0,1,2.74-.52,6.69,6.69,0,0,1,3.44.84,5.57,5.57,0,0,1,2.19,2.41,8.35,8.35,0,0,1,.77,3.71c0,.14,0,.28,0,.43s0,.24,0,.28H286.52v-2h9.73l-.94,1.36a2,2,0,0,0,.18-.46,2.29,2.29,0,0,0,.09-.51,4.34,4.34,0,0,0-.49-2.1,3.56,3.56,0,0,0-1.34-1.38,3.85,3.85,0,0,0-2-.5,4.94,4.94,0,0,0-1.81.32,3.6,3.6,0,0,0-1.37.95,4.07,4.07,0,0,0-.86,1.53,6.93,6.93,0,0,0-.29,2.06,6.49,6.49,0,0,0,.5,2.71,3.71,3.71,0,0,0,1.47,1.72,4.51,4.51,0,0,0,2.36.58,4.91,4.91,0,0,0,2.45-.6,5,5,0,0,0,1.8-1.84l1.91,1.21a7.06,7.06,0,0,1-2.66,2.58,7.88,7.88,0,0,1-3.79.87A6.24,6.24,0,0,1,288.1,325Z"/><path d="M303.05,321.37a4.48,4.48,0,0,0,4,2.35,6.25,6.25,0,0,0,2.05-.33,5.49,5.49,0,0,0,1.67-.92,3.48,3.48,0,0,0,1-1.22v2.95a4.57,4.57,0,0,1-2,1.28,8.23,8.23,0,0,1-2.7.46,7,7,0,0,1-3.56-.92A6.63,6.63,0,0,1,301,322.5a7.63,7.63,0,0,1,0-7.3,6.65,6.65,0,0,1,2.52-2.5,7,7,0,0,1,3.56-.92,8.23,8.23,0,0,1,2.7.46,4.57,4.57,0,0,1,2,1.28v3a3.37,3.37,0,0,0-1-1.24,5.92,5.92,0,0,0-1.67-.9,6.25,6.25,0,0,0-2.05-.33,4.6,4.6,0,0,0-2.37.61,4.43,4.43,0,0,0-1.65,1.73,5.22,5.22,0,0,0-.61,2.52A5.15,5.15,0,0,0,303.05,321.37Z"/><path d="M320.2,312.08v2.21h-6.79v-2.21ZM318,307.36v18.28h-2.36V307.36Z"/><path d="M331.1,313.26V310.9l15,6.49v1.32l-15,6.49v-2.36l11.15-4.66Z"/></g></g></svg>