<svg xmlns="http://www.w3.org/2000/svg" viewBox="0 0 420.44 464.46"><g id="Layer_2" data-name="Layer 2"><g id="Layer_1-2" data-name="Layer 1"><path d="M.06,315.67c.18-32.38,5.88-61.46,11.73-90.49,5.68-28.17,11.2-56.41,18-84.32,6.6-27,17.44-52.47,35-74.41C90.77,34.08,124.6,14.06,164.69,4.34c33.09-8,65.45-4.51,97,7.27,43.78,16.33,79.73,43.74,109.89,79,20.8,24.33,36.75,51.36,44.74,82.68,7.61,29.8,4.1,58.78-6.65,87.12-14.3,37.69-37.12,70.18-62.46,101.05-27.07,33-59,60.15-97.44,79-28.82,14.12-59.19,23.38-91.48,24-49.71.89-91.08-18-124.13-55C9.71,382.07-.88,349.56.06,315.67Z" style="fill:#ff8236"/><text transform="translate(105.37 145.21)" style="font-size:60px;font-family:CooperBlack, Cooper Black">GEE<tspan x="130.55" y="0" style="letter-spacing:-0.03662109375em">R</tspan><tspan x="174.93" y="0">T</tspan></text><path d="M54.19,259.2v20.64H51.68V259.2Zm-1.12,8.26H67.22v2.35H53.07Zm15-8.26v20.64H65.54V259.2Z"/><path d="M72.37,269.4a6.72,6.72,0,0,1,2.52-2.5,7.41,7.41,0,0,1,7.15,0,6.81,6.81,0,0,1,2.5,2.5,7.63,7.63,0,0,1,0,7.3,6.79,6.79,0,0,1-2.5,2.52,7.41,7.41,0,0,1-7.15,0,6.7,6.7,0,0,1-2.52-2.52,7.63,7.63,0,0,1,0-7.3Zm2.06,6.16a4.58,4.58,0,0,0,8,0,5.08,5.08,0,0,0,.6-2.5,5.16,5.16,0,0,0-.6-2.52,4.43,4.43,0,0,0-1.65-1.73,4.86,4.86,0,0,0-4.75,0,4.43,4.43,0,0,0-1.65,1.73,5.16,5.16,0,0,0-.6,2.52A5.08,5.08,0,0,0,74.43,275.56Z"/><path d="M90.62,279.24a6,6,0,0,1-2.27-2.5,8,8,0,0,1-.81-3.68,8.26,8.26,0,0,1,.48-2.89,6.54,6.54,0,0,1,1.37-2.23,6.08,6.08,0,0,1,2.13-1.44,6.93,6.93,0,0,1,2.74-.52,6.63,6.63,0,0,1,3.43.84,5.48,5.48,0,0,1,2.2,2.41,8.35,8.35,0,0,1,.77,3.71c0,.14,0,.28,0,.43s0,.24,0,.28H89v-2h9.73L97.83,273a2.06,2.06,0,0,0,.17-.46,1.89,1.89,0,0,0,.09-.51,4.34,4.34,0,0,0-.48-2.1,3.58,3.58,0,0,0-1.35-1.38,3.83,3.83,0,0,0-2-.5,4.83,4.83,0,0,0-1.82.32,3.77,3.77,0,0,0-1.37.94,4.33,4.33,0,0,0-.85,1.54,6.61,6.61,0,0,0-.3,2.06,6.49,6.49,0,0,0,.51,2.71,3.64,3.64,0,0,0,1.47,1.71,4.4,4.4,0,0,0,2.36.59,4.91,4.91,0,0,0,2.45-.6,5,5,0,0,0,1.79-1.84l1.92,1.21a7.16,7.16,0,0,1-2.67,2.58,7.83,7.83,0,0,1-3.79.87A6.23,6.23,0,0,1,90.62,279.24Z"/><path d="M115,279.84H112.6v-23H115Zm10.44-3a6.52,6.52,0,0,1-2.44,2.45,6.76,6.76,0,0,1-3.37.86,5.51,5.51,0,0,1-2.32-.49,5.11,5.11,0,0,1-1.8-1.4,6.46,6.46,0,0,1-1.16-2.23,10.89,10.89,0,0,1,0-5.92,6.46,6.46,0,0,1,1.16-2.23,5,5,0,0,1,1.8-1.4,5.36,5.36,0,0,1,2.32-.49,6.76,6.76,0,0,1,3.37.86,6.54,6.54,0,0,1,2.44,2.43,8.31,8.31,0,0,1,0,7.56Zm-2.11-6.43a4.43,4.43,0,0,0-1.68-1.65,4.88,4.88,0,0,0-2.32-.56,3.84,3.84,0,0,0-1.53.33,4.42,4.42,0,0,0-1.4.94,4.56,4.56,0,0,0-1,1.52,5.88,5.88,0,0,0,0,4.16,4.67,4.67,0,0,0,1,1.52,4.6,4.6,0,0,0,1.4.94,3.82,3.82,0,0,0,1.53.32,4.77,4.77,0,0,0,2.32-.56,4.29,4.29,0,0,0,1.68-1.65,5.2,5.2,0,0,0,.63-2.65A5.26,5.26,0,0,0,123.29,270.4Z"/><path d="M131.45,279.24a6.11,6.11,0,0,1-2.27-2.5,8.77,8.77,0,0,1-.32-6.57,6.39,6.39,0,0,1,1.37-2.23,6.13,6.13,0,0,1,2.12-1.44,7,7,0,0,1,2.75-.52,6.66,6.66,0,0,1,3.43.84,5.54,5.54,0,0,1,2.2,2.41,8.36,8.36,0,0,1,.76,3.71c0,.14,0,.28,0,.43s0,.24,0,.28H129.88v-2h9.73l-1,1.36a2,2,0,0,0,.18-.46,1.89,1.89,0,0,0,.09-.51,4.23,4.23,0,0,0-.49-2.1,3.49,3.49,0,0,0-1.34-1.38,3.83,3.83,0,0,0-2-.5,4.8,4.8,0,0,0-1.82.32,3.69,3.69,0,0,0-1.37.94,4.18,4.18,0,0,0-.85,1.54,7.43,7.43,0,0,0,.2,4.77,3.71,3.71,0,0,0,1.48,1.71,4.38,4.38,0,0,0,2.36.59,4.88,4.88,0,0,0,2.44-.6,5,5,0,0,0,1.8-1.84l1.92,1.21a7.16,7.16,0,0,1-2.67,2.58,7.86,7.86,0,0,1-3.79.87A6.27,6.27,0,0,1,131.45,279.24Z"/><path d="M147.1,279.84h-2.36v-23h2.36Zm6-10.13a2.39,2.39,0,0,0-1-1.13,3,3,0,0,0-1.6-.39,3.59,3.59,0,0,0-1.82.45,3.06,3.06,0,0,0-1.21,1.21,3.54,3.54,0,0,0-.42,1.73h-.77a6.31,6.31,0,0,1,.62-2.87,5.07,5.07,0,0,1,1.69-2,4.33,4.33,0,0,1,2.5-.74,5,5,0,0,1,2.46.59,4,4,0,0,1,1.62,1.77,6.77,6.77,0,0,1,.57,3v8.55h-2.35v-8.26A4.67,4.67,0,0,0,153.11,269.71Z"/><path d="M160,269.4a6.72,6.72,0,0,1,2.52-2.5,7.41,7.41,0,0,1,7.15,0,6.81,6.81,0,0,1,2.5,2.5,7.63,7.63,0,0,1,0,7.3,6.79,6.79,0,0,1-2.5,2.52,7.41,7.41,0,0,1-7.15,0A6.7,6.7,0,0,1,160,276.7a7.63,7.63,0,0,1,0-7.3Zm2.06,6.16a4.58,4.58,0,0,0,8.05,0,5.08,5.08,0,0,0,.6-2.5,5.16,5.16,0,0,0-.6-2.52,4.43,4.43,0,0,0-1.65-1.73,4.86,4.86,0,0,0-4.75,0,4.43,4.43,0,0,0-1.65,1.73,5.16,5.16,0,0,0-.6,2.52A5.08,5.08,0,0,0,162,275.56Z"/><path d="M179,276.38a2.44,2.44,0,0,0,1,1.15,3,3,0,0,0,1.59.39,3.79,3.79,0,0,0,1.82-.42,3.1,3.1,0,0,0,1.21-1.2,3.62,3.62,0,0,0,.42-1.77v-8.25h2.36v13.56H185v-2.12a4.76,4.76,0,0,1-1.68,1.81,4.5,4.5,0,0,1-2.36.61,4.61,4.61,0,0,1-2.46-.65,4.31,4.31,0,0,1-1.62-1.85,6.43,6.43,0,0,1-.57-2.81v-8.55h2.35v8.25A4.64,4.64,0,0,0,179,276.38Z"/><path d="M191.53,269.27a6.35,6.35,0,0,1,2.45-2.43,6.78,6.78,0,0,1,3.36-.86,5.35,5.35,0,0,1,2.31.49,5,5,0,0,1,1.8,1.4,6.65,6.65,0,0,1,1.17,2.23,10.89,10.89,0,0,1,0,5.92,6.65,6.65,0,0,1-1.17,2.23,5.11,5.11,0,0,1-1.8,1.4,5.5,5.5,0,0,1-2.31.49,6.78,6.78,0,0,1-3.36-.86,6.34,6.34,0,0,1-2.45-2.45,8.23,8.23,0,0,1,0-7.56Zm2.11,6.44a4.13,4.13,0,0,0,1.69,1.65,4.8,4.8,0,0,0,2.3.56,3.9,3.9,0,0,0,1.54-.32,4.72,4.72,0,0,0,1.4-.94,4.65,4.65,0,0,0,1-1.52,5.74,5.74,0,0,0,0-4.16,4.5,4.5,0,0,0-2.41-2.46,3.92,3.92,0,0,0-1.54-.33,4.92,4.92,0,0,0-2.3.56,4.25,4.25,0,0,0-1.69,1.65,5.16,5.16,0,0,0-.64,2.66A5.1,5.1,0,0,0,193.64,275.71Zm10.69-18.87v23H202v-23Z"/><path d="M210.5,279.24a6.11,6.11,0,0,1-2.27-2.5,8.77,8.77,0,0,1-.32-6.57,6.39,6.39,0,0,1,1.37-2.23,6.13,6.13,0,0,1,2.12-1.44,7,7,0,0,1,2.74-.52,6.67,6.67,0,0,1,3.44.84,5.6,5.6,0,0,1,2.2,2.41,8.36,8.36,0,0,1,.76,3.71c0,.14,0,.28,0,.43s0,.24,0,.28H208.93v-2h9.73l-.95,1.36a2,2,0,0,0,.18-.46A1.89,1.89,0,0,0,218,272a4.23,4.23,0,0,0-.49-2.1,3.49,3.49,0,0,0-1.34-1.38,3.85,3.85,0,0,0-2-.5,4.78,4.78,0,0,0-1.81.32,3.69,3.69,0,0,0-1.37.94,4.18,4.18,0,0,0-.85,1.54,7.43,7.43,0,0,0,.2,4.77,3.71,3.71,0,0,0,1.48,1.71,4.36,4.36,0,0,0,2.35.59,4.89,4.89,0,0,0,2.45-.6,5,5,0,0,0,1.8-1.84l1.92,1.21a7.16,7.16,0,0,1-2.67,2.58,7.86,7.86,0,0,1-3.79.87A6.27,6.27,0,0,1,210.5,279.24Z"/><path d="M232.16,269.71a2.35,2.35,0,0,0-1-1.13,3.08,3.08,0,0,0-1.6-.39,3.78,3.78,0,0,0-1.81.43,3.08,3.08,0,0,0-1.21,1.19,3.67,3.67,0,0,0-.42,1.77v8.26h-2.36V266.28h2.36v2.12a4.57,4.57,0,0,1,1.69-1.83,5,5,0,0,1,4.82.06,4.36,4.36,0,0,1,1.61,1.83,6.46,6.46,0,0,1,.57,2.83v8.55h-2.36v-8.26A4.68,4.68,0,0,0,232.16,269.71Z"/><path d="M248.7,266.28l3.39,8.81,3.69-9.85,4,9.91,3.42-8.87h2.65l-5.9,14.59L255.81,271l-3.87,9.88-5.89-14.59Z"/><path d="M269.62,279.24a6.11,6.11,0,0,1-2.27-2.5,8,8,0,0,1-.81-3.68,8.26,8.26,0,0,1,.48-2.89,6.56,6.56,0,0,1,1.38-2.23,6,6,0,0,1,2.12-1.44,6.93,6.93,0,0,1,2.74-.52,6.69,6.69,0,0,1,3.44.84,5.52,5.52,0,0,1,2.19,2.41,8.35,8.35,0,0,1,.77,3.71c0,.14,0,.28,0,.43a2,2,0,0,0,0,.28H268v-2h9.73l-.94,1.36a2,2,0,0,0,.18-.46,1.82,1.82,0,0,0,.08-.51,4.34,4.34,0,0,0-.48-2.1,3.56,3.56,0,0,0-1.34-1.38,3.85,3.85,0,0,0-2-.5,4.75,4.75,0,0,0-1.81.32,3.69,3.69,0,0,0-1.37.94,4.19,4.19,0,0,0-.86,1.54,6.62,6.62,0,0,0-.29,2.06,6.49,6.49,0,0,0,.5,2.71,3.64,3.64,0,0,0,1.47,1.71,4.42,4.42,0,0,0,2.36.59,4.89,4.89,0,0,0,2.45-.6,5,5,0,0,0,1.8-1.84l1.91,1.21a7.06,7.06,0,0,1-2.66,2.58,7.88,7.88,0,0,1-3.79.87A6.24,6.24,0,0,1,269.62,279.24Z"/><path d="M291.5,269.4a6.79,6.79,0,0,1,2.52-2.5,7.41,7.41,0,0,1,7.15,0,6.84,6.84,0,0,1,2.51,2.5,7.7,7.7,0,0,1,0,7.3,6.82,6.82,0,0,1-2.51,2.52,7.41,7.41,0,0,1-7.15,0,6.77,6.77,0,0,1-2.52-2.52,7.63,7.63,0,0,1,0-7.3Zm2.06,6.16a4.57,4.57,0,0,0,1.65,1.73,4.58,4.58,0,0,0,6.4-1.73,5.09,5.09,0,0,0,.61-2.5,5.16,5.16,0,0,0-.61-2.52,4.43,4.43,0,0,0-1.65-1.73,4.86,4.86,0,0,0-4.75,0,4.5,4.5,0,0,0-1.65,1.73,5.16,5.16,0,0,0-.6,2.52A5.08,5.08,0,0,0,293.56,275.56Z"/><path d="M316.22,269.71a2.35,2.35,0,0,0-1-1.13,3,3,0,0,0-1.59-.39,3.79,3.79,0,0,0-1.82.43,3.08,3.08,0,0,0-1.21,1.19,3.67,3.67,0,0,0-.42,1.77v8.26h-2.36V266.28h2.36v2.12a4.57,4.57,0,0,1,1.69-1.83,4.63,4.63,0,0,1,2.35-.59,4.57,4.57,0,0,1,2.47.65,4.3,4.3,0,0,1,1.61,1.83,6.46,6.46,0,0,1,.57,2.83v8.55h-2.35v-8.26A4.67,4.67,0,0,0,316.22,269.71Z"/><path d="M322.44,268.49v-2.21h11.8l-8.41,11.35h7.82v2.21H321.56l8.4-11.35Z"/><path d="M338.35,279.24a6.11,6.11,0,0,1-2.27-2.5,8,8,0,0,1-.81-3.68,8.26,8.26,0,0,1,.48-2.89,6.56,6.56,0,0,1,1.38-2.23,6,6,0,0,1,2.12-1.44A6.93,6.93,0,0,1,342,266a6.69,6.69,0,0,1,3.44.84,5.52,5.52,0,0,1,2.19,2.41,8.35,8.35,0,0,1,.77,3.71c0,.14,0,.28,0,.43s0,.24,0,.28H336.77v-2h9.73l-.94,1.36a1.66,1.66,0,0,0,.17-.46,1.89,1.89,0,0,0,.09-.51,4.34,4.34,0,0,0-.48-2.1,3.56,3.56,0,0,0-1.34-1.38,3.85,3.85,0,0,0-2-.5,4.75,4.75,0,0,0-1.81.32,3.69,3.69,0,0,0-1.37.94,4.19,4.19,0,0,0-.86,1.54,6.62,6.62,0,0,0-.29,2.06,6.49,6.49,0,0,0,.5,2.71,3.64,3.64,0,0,0,1.47,1.71,4.42,4.42,0,0,0,2.36.59,4.91,4.91,0,0,0,2.45-.6,5,5,0,0,0,1.8-1.84l1.91,1.21a7.08,7.08,0,0,1-2.67,2.58,7.82,7.82,0,0,1-3.78.87A6.24,6.24,0,0,1,338.35,279.24Z"/><path d="M63.06,312.36a2.17,2.17,0,0,0,1,.84,3.77,3.77,0,0,0,1.51.28,4.19,4.19,0,0,0,2-.44,3.4,3.4,0,0,0,1.91-3.12l.47,1.77a3.07,3.07,0,0,1-.78,2.15,4.79,4.79,0,0,1-1.92,1.27,6.71,6.71,0,0,1-2.26.41,5.21,5.21,0,0,1-2.31-.52A4.24,4.24,0,0,1,61,313.51a4.16,4.16,0,0,1,1.82-6.17,6.66,6.66,0,0,1,2.84-.55,7.59,7.59,0,0,1,2.47.34,6,6,0,0,1,1.57.77,3.84,3.84,0,0,1,.8.69V310a7,7,0,0,0-2.12-1,8.41,8.41,0,0,0-2.33-.31,5.23,5.23,0,0,0-1.88.29,2.23,2.23,0,0,0-1.07.83,2.21,2.21,0,0,0-.36,1.27A2.38,2.38,0,0,0,63.06,312.36Zm-1.87-9.31a9.85,9.85,0,0,1,2.11-1.12,8.22,8.22,0,0,1,3.23-.57,7.38,7.38,0,0,1,2.78.49,4.18,4.18,0,0,1,1.86,1.4,3.73,3.73,0,0,1,.66,2.24v9.73H69.48v-9.4a2.54,2.54,0,0,0-.24-1.17,1.91,1.91,0,0,0-.66-.72,3.09,3.09,0,0,0-1-.38,5.62,5.62,0,0,0-1.18-.12,6.73,6.73,0,0,0-1.81.23,6.08,6.08,0,0,0-1.37.57,8.49,8.49,0,0,0-.89.56Z"/><path d="M78.5,311.76a2.44,2.44,0,0,0,1,1.15,3,3,0,0,0,1.59.4,3.79,3.79,0,0,0,1.82-.43,3.08,3.08,0,0,0,1.21-1.19,3.67,3.67,0,0,0,.42-1.77v-8.26h2.36v13.56H84.51V313.1a4.69,4.69,0,0,1-1.68,1.81,4.41,4.41,0,0,1-2.36.61,4.61,4.61,0,0,1-2.46-.65A4.28,4.28,0,0,1,76.39,313a6.51,6.51,0,0,1-.57-2.82v-8.55h2.35v8.26A4.59,4.59,0,0,0,78.5,311.76Z"/><path d="M96,301.66v2.21H89.23v-2.21Zm-2.21-4.72v18.28H91.44V296.94Z"/><path d="M98.12,304.79a6.75,6.75,0,0,1,2.52-2.51,7.41,7.41,0,0,1,7.15,0,6.79,6.79,0,0,1,2.51,2.51,7.61,7.61,0,0,1,0,7.29,6.82,6.82,0,0,1-2.51,2.52,7.41,7.41,0,0,1-7.15,0,6.77,6.77,0,0,1-2.52-2.52,7.61,7.61,0,0,1,0-7.29Zm2.06,6.16a4.57,4.57,0,0,0,1.66,1.72,4.38,4.38,0,0,0,2.37.64,4.52,4.52,0,0,0,4-2.36,5,5,0,0,0,.61-2.51,5.11,5.11,0,0,0-.61-2.52,4.34,4.34,0,0,0-1.65-1.72,4.51,4.51,0,0,0-2.37-.62,4.48,4.48,0,0,0-4,2.34,5.21,5.21,0,0,0-.6,2.52A5.12,5.12,0,0,0,100.18,311Z"/><path d="M122.84,305.1a2.33,2.33,0,0,0-1-1.14,3,3,0,0,0-1.59-.38,3.79,3.79,0,0,0-1.82.42,3,3,0,0,0-1.2,1.2,3.52,3.52,0,0,0-.43,1.77v8.25h-2.36V301.66h2.36v2.12a4.71,4.71,0,0,1,1.69-1.83,4.63,4.63,0,0,1,2.35-.59,4.55,4.55,0,0,1,2.47.65,4.41,4.41,0,0,1,1.61,1.83,6.46,6.46,0,0,1,.58,2.83v8.55h-2.36V307A4.64,4.64,0,0,0,122.84,305.1Z"/><path d="M129.7,304.79a6.75,6.75,0,0,1,2.52-2.51,7.41,7.41,0,0,1,7.15,0,6.79,6.79,0,0,1,2.51,2.51,7.68,7.68,0,0,1,0,7.29,6.82,6.82,0,0,1-2.51,2.52,7.41,7.41,0,0,1-7.15,0,6.77,6.77,0,0,1-2.52-2.52,7.61,7.61,0,0,1,0-7.29Zm2.06,6.16a4.55,4.55,0,0,0,1.65,1.72,4.59,4.59,0,0,0,6.4-1.72,5.12,5.12,0,0,0,.61-2.51,5.22,5.22,0,0,0-.61-2.52,4.34,4.34,0,0,0-1.65-1.72,4.86,4.86,0,0,0-4.75,0,4.41,4.41,0,0,0-1.65,1.72,5.21,5.21,0,0,0-.6,2.52A5.12,5.12,0,0,0,131.76,311Z"/><path d="M164.62,315.22h-2.35V307a5.39,5.39,0,0,0-.29-1.92,2.19,2.19,0,0,0-.85-1.11,2.7,2.7,0,0,0-1.46-.36A3.42,3.42,0,0,0,158,304a2.69,2.69,0,0,0-1.09,1.17,4,4,0,0,0-.38,1.83v8.25h-2.36V307a5.65,5.65,0,0,0-.28-1.92,2.26,2.26,0,0,0-.86-1.11,2.7,2.7,0,0,0-1.46-.36,3.42,3.42,0,0,0-1.68.39,2.75,2.75,0,0,0-1.09,1.17,4,4,0,0,0-.38,1.83v8.25h-2.36V301.66h2.36v2a4.54,4.54,0,0,1,1-1.27,3.52,3.52,0,0,1,1.26-.75,4.47,4.47,0,0,1,1.53-.26,4.65,4.65,0,0,1,1.71.3,3.85,3.85,0,0,1,1.34.86,3.39,3.39,0,0,1,.87,1.38,4.94,4.94,0,0,1,1.77-1.9,4.68,4.68,0,0,1,2.42-.64,4.34,4.34,0,0,1,2.36.62,4,4,0,0,1,1.49,1.82,7.26,7.26,0,0,1,.51,2.87Z"/><path d="M169.53,294.91a1.62,1.62,0,0,1,2.76,1.15,1.58,1.58,0,0,1-.47,1.13,1.58,1.58,0,0,1-2.29,0,1.59,1.59,0,0,1,0-2.28Zm2.32,6.75v13.56h-2.36V301.66Z"/><path d="M178.61,314.62a6.15,6.15,0,0,1-2.27-2.49,8.79,8.79,0,0,1-.32-6.58,6.24,6.24,0,0,1,3.49-3.67,7.17,7.17,0,0,1,2.75-.52,6.66,6.66,0,0,1,3.43.85,5.57,5.57,0,0,1,2.2,2.4,8.36,8.36,0,0,1,.76,3.71c0,.14,0,.28,0,.43s0,.24,0,.28H177v-2h9.73l-1,1.35a2.07,2.07,0,0,0,.18-.45,2,2,0,0,0,.09-.52,4.19,4.19,0,0,0-.49-2.09,3.58,3.58,0,0,0-1.34-1.39,3.93,3.93,0,0,0-2-.5,5,5,0,0,0-1.82.32,3.6,3.6,0,0,0-1.37.95,4.05,4.05,0,0,0-.85,1.53,6.61,6.61,0,0,0-.3,2.06,6.71,6.71,0,0,0,.5,2.72,3.82,3.82,0,0,0,1.48,1.71,4.49,4.49,0,0,0,2.36.59,4.78,4.78,0,0,0,2.44-.61,4.9,4.9,0,0,0,1.8-1.84l1.92,1.21a7.16,7.16,0,0,1-2.67,2.58,7.86,7.86,0,0,1-3.79.87A6.27,6.27,0,0,1,178.61,314.62Z"/><path d="M203,315.22H200.6v-23H203Zm10.44-3a6.4,6.4,0,0,1-2.43,2.44,6.77,6.77,0,0,1-3.38.86,5.35,5.35,0,0,1-2.31-.49,5,5,0,0,1-1.8-1.4,6.46,6.46,0,0,1-1.16-2.23,10.64,10.64,0,0,1,0-5.92,6.46,6.46,0,0,1,1.16-2.23,5.11,5.11,0,0,1,1.8-1.4,5.5,5.5,0,0,1,2.31-.49,6.77,6.77,0,0,1,3.38.86,6.44,6.44,0,0,1,2.43,2.43,8.25,8.25,0,0,1,0,7.57Zm-2.11-6.43a4.16,4.16,0,0,0-1.68-1.65,4.76,4.76,0,0,0-2.31-.56,4,4,0,0,0-1.53.32,4.47,4.47,0,0,0-2.42,2.46,5.74,5.74,0,0,0,0,4.16,4.54,4.54,0,0,0,1,1.52,4.46,4.46,0,0,0,1.41.94,3.84,3.84,0,0,0,1.53.33,4.87,4.87,0,0,0,2.31-.56,4.29,4.29,0,0,0,1.68-1.65,5.83,5.83,0,0,0,0-5.31Z"/><path d="M218,294.91a1.61,1.61,0,0,1,2.28,2.28,1.61,1.61,0,1,1-2.28-2.28Zm2.31,6.75v13.56H218V301.66Z"/><path d="M233.59,305.1a2.38,2.38,0,0,0-1-1.14,3.08,3.08,0,0,0-1.6-.38,3.78,3.78,0,0,0-1.81.42,3.1,3.1,0,0,0-1.21,1.2,3.62,3.62,0,0,0-.43,1.77v8.25h-2.35V301.66h2.35v2.12a4.73,4.73,0,0,1,1.7-1.83,5,5,0,0,1,4.82.06,4.49,4.49,0,0,1,1.61,1.83,6.46,6.46,0,0,1,.57,2.83v8.55h-2.36V307A4.65,4.65,0,0,0,233.59,305.1Z"/><path d="M249.07,305.1a2.38,2.38,0,0,0-1-1.14,3.08,3.08,0,0,0-1.6-.38,3.78,3.78,0,0,0-1.81.42,3.1,3.1,0,0,0-1.21,1.2,3.62,3.62,0,0,0-.43,1.77v8.25h-2.36V301.66h2.36v2.12a4.73,4.73,0,0,1,1.7-1.83,5,5,0,0,1,4.82.06,4.49,4.49,0,0,1,1.61,1.83,6.46,6.46,0,0,1,.57,2.83v8.55h-2.36V307A4.83,4.83,0,0,0,249.07,305.1Z"/><path d="M258.08,314.62a6.08,6.08,0,0,1-2.27-2.49,7.9,7.9,0,0,1-.82-3.69,8.3,8.3,0,0,1,.49-2.89,6.5,6.5,0,0,1,1.37-2.22,6.24,6.24,0,0,1,2.13-1.45,7.08,7.08,0,0,1,2.74-.52,6.66,6.66,0,0,1,3.43.85,5.51,5.51,0,0,1,2.2,2.4,8.35,8.35,0,0,1,.77,3.71c0,.14,0,.28,0,.43s0,.24,0,.28H256.5v-2h9.73l-1,1.35a2.07,2.07,0,0,0,.18-.45,2,2,0,0,0,.09-.52,4.19,4.19,0,0,0-.49-2.09,3.58,3.58,0,0,0-1.34-1.39,3.93,3.93,0,0,0-2-.5,5,5,0,0,0-1.82.32,3.67,3.67,0,0,0-1.37.95,4.05,4.05,0,0,0-.85,1.53,6.61,6.61,0,0,0-.3,2.06,6.71,6.71,0,0,0,.5,2.72,3.82,3.82,0,0,0,1.48,1.71,4.49,4.49,0,0,0,2.36.59,4.75,4.75,0,0,0,2.44-.61,4.9,4.9,0,0,0,1.8-1.84l1.92,1.21a7.16,7.16,0,0,1-2.67,2.58,7.83,7.83,0,0,1-3.79.87A6.21,6.21,0,0,1,258.08,314.62Z"/><path d="M279.73,305.1a2.33,2.33,0,0,0-1-1.14,3,3,0,0,0-1.59-.38,3.79,3.79,0,0,0-1.82.42,3,3,0,0,0-1.2,1.2,3.52,3.52,0,0,0-.43,1.77v8.25h-2.36V301.66h2.36v2.12a4.3,4.3,0,0,1,4-2.42,4.55,4.55,0,0,1,2.47.65,4.41,4.41,0,0,1,1.61,1.83,6.46,6.46,0,0,1,.58,2.83v8.55h-2.36V307A4.64,4.64,0,0,0,279.73,305.1Z"/><path d="M297.59,314.62a6.08,6.08,0,0,1-2.27-2.49,7.9,7.9,0,0,1-.82-3.69,8.3,8.3,0,0,1,.49-2.89,6.5,6.5,0,0,1,1.37-2.22,6.3,6.3,0,0,1,2.12-1.45,7.17,7.17,0,0,1,2.75-.52,6.66,6.66,0,0,1,3.43.85,5.51,5.51,0,0,1,2.2,2.4,8.35,8.35,0,0,1,.77,3.71c0,.14,0,.28,0,.43s0,.24,0,.28H296v-2h9.73l-.95,1.35a2.07,2.07,0,0,0,.18-.45,2,2,0,0,0,.09-.52,4.19,4.19,0,0,0-.49-2.09,3.58,3.58,0,0,0-1.34-1.39,3.93,3.93,0,0,0-2-.5,5,5,0,0,0-1.82.32,3.67,3.67,0,0,0-1.37.95,4.05,4.05,0,0,0-.85,1.53,6.61,6.61,0,0,0-.3,2.06,6.71,6.71,0,0,0,.5,2.72,3.82,3.82,0,0,0,1.48,1.71,4.49,4.49,0,0,0,2.36.59,4.75,4.75,0,0,0,2.44-.61,4.9,4.9,0,0,0,1.8-1.84l1.92,1.21a7.16,7.16,0,0,1-2.67,2.58,7.83,7.83,0,0,1-3.79.87A6.21,6.21,0,0,1,297.59,314.62Z"/><path d="M312.77,314.62a6.15,6.15,0,0,1-2.27-2.49,8.79,8.79,0,0,1-.32-6.58,6.35,6.35,0,0,1,1.37-2.22,6.2,6.2,0,0,1,2.12-1.45,7.15,7.15,0,0,1,2.74-.52,6.7,6.7,0,0,1,3.44.85,5.55,5.55,0,0,1,2.19,2.4,8.22,8.22,0,0,1,.77,3.71c0,.14,0,.28,0,.43s0,.24,0,.28H311.19v-2h9.73l-.94,1.35a2.07,2.07,0,0,0,.18-.45,2,2,0,0,0,.09-.52,4.3,4.3,0,0,0-.49-2.09,3.65,3.65,0,0,0-1.34-1.39,3.94,3.94,0,0,0-2-.5,4.94,4.94,0,0,0-1.81.32,3.6,3.6,0,0,0-1.37.95,4.07,4.07,0,0,0-.86,1.53,6.93,6.93,0,0,0-.29,2.06,6.54,6.54,0,0,0,.5,2.72,3.74,3.74,0,0,0,1.47,1.71,4.52,4.52,0,0,0,2.36.59,4.79,4.79,0,0,0,2.45-.61,4.9,4.9,0,0,0,1.8-1.84l1.91,1.21a7.06,7.06,0,0,1-2.66,2.58,7.88,7.88,0,0,1-3.79.87A6.24,6.24,0,0,1,312.77,314.62Z"/><path d="M334.43,305.1a2.34,2.34,0,0,0-1-1.14,3,3,0,0,0-1.59-.38,3.75,3.75,0,0,0-1.81.42,3.1,3.1,0,0,0-1.21,1.2,3.62,3.62,0,0,0-.43,1.77v8.25h-2.36V301.66h2.36v2.12a4.33,4.33,0,0,1,4-2.42,4.58,4.58,0,0,1,2.48.65,4.49,4.49,0,0,1,1.61,1.83,6.46,6.46,0,0,1,.57,2.83v8.55h-2.36V307A4.83,4.83,0,0,0,334.43,305.1Z"/><path d="M69.55,347.6a4.15,4.15,0,0,0,1.22.84,3.79,3.79,0,0,0,1.52.31,2.44,2.44,0,0,0,1.58-.46,1.51,1.51,0,0,0,.57-1.25,1.72,1.72,0,0,0-.45-1.2,3.94,3.94,0,0,0-1.17-.82c-.47-.23-1-.44-1.5-.64a15.12,15.12,0,0,1-1.79-.84,4.6,4.6,0,0,1-1.5-1.27,3.5,3.5,0,0,1,0-4,3.77,3.77,0,0,1,1.65-1.18,5.84,5.84,0,0,1,2.11-.38,5.77,5.77,0,0,1,2.05.35,6.36,6.36,0,0,1,1.7.94,4.43,4.43,0,0,1,1.14,1.36l-1.88,1.21a4.87,4.87,0,0,0-1.4-1.27,3.7,3.7,0,0,0-1.91-.5,2.41,2.41,0,0,0-1.26.32,1.1,1.1,0,0,0-.53,1,1.27,1.27,0,0,0,.41.94,4,4,0,0,0,1.06.74c.43.21.89.42,1.36.62a18.71,18.71,0,0,1,2.15,1,5.07,5.07,0,0,1,1.55,1.32,3.22,3.22,0,0,1,.57,2,3.79,3.79,0,0,1-.59,2.11,4.15,4.15,0,0,1-1.63,1.47,5.14,5.14,0,0,1-2.44.55,5.81,5.81,0,0,1-2.44-.49,6,6,0,0,1-1.85-1.25,5.8,5.8,0,0,1-1.13-1.56l1.86-1.15A7.88,7.88,0,0,0,69.55,347.6Z"/><path d="M84.65,337v2.21H77.86V337Zm-2.21-4.72v18.29H80.08V332.32Z"/><path d="M88.91,350a6.08,6.08,0,0,1-2.27-2.49,8,8,0,0,1-.81-3.69,8.3,8.3,0,0,1,.48-2.89,6.59,6.59,0,0,1,1.37-2.22,6.24,6.24,0,0,1,2.13-1.45,7.11,7.11,0,0,1,2.74-.51,6.63,6.63,0,0,1,3.43.84,5.51,5.51,0,0,1,2.2,2.4,8.37,8.37,0,0,1,.77,3.72c0,.13,0,.28,0,.42s0,.24,0,.28H87.33v-2h9.73l-.94,1.35a2.66,2.66,0,0,0,.26-1,4.33,4.33,0,0,0-.48-2.09,3.68,3.68,0,0,0-1.35-1.39,3.91,3.91,0,0,0-2-.5,4.83,4.83,0,0,0-1.82.33,3.65,3.65,0,0,0-1.37.94,4.2,4.2,0,0,0-.85,1.53,6.63,6.63,0,0,0-.3,2.07,6.52,6.52,0,0,0,.51,2.71,3.64,3.64,0,0,0,1.47,1.71,4.49,4.49,0,0,0,2.36.59,4.82,4.82,0,0,0,2.45-.61,5,5,0,0,0,1.79-1.84l1.92,1.21A7.16,7.16,0,0,1,96,350a7.83,7.83,0,0,1-3.79.87A6.23,6.23,0,0,1,88.91,350Z"/><path d="M104.55,350.61h-2.36V337h2.36Zm3.24-11.49a2.46,2.46,0,0,0-1-.16,2.07,2.07,0,0,0-1.39.44,2.38,2.38,0,0,0-.69,1.21,7.08,7.08,0,0,0-.19,1.74h-1.06a6.92,6.92,0,0,1,.57-2.88,5.46,5.46,0,0,1,1.49-2,3,3,0,0,1,1.86-.73,4.63,4.63,0,0,1,1.37.19,2.7,2.7,0,0,1,1.16.75l-1.29,1.95A4.18,4.18,0,0,0,107.79,339.12Z"/><path d="M114.51,327.61v23h-2.35v-23Zm8,9.43-5.9,5.6,6.49,8h-2.95l-6.49-8,5.9-5.6Z"/><path d="M133.86,340a6.4,6.4,0,0,1,2.44-2.43,6.79,6.79,0,0,1,3.36-.85,5.5,5.5,0,0,1,2.32.48,5.11,5.11,0,0,1,1.8,1.4,6.55,6.55,0,0,1,1.16,2.23,9.66,9.66,0,0,1,.42,3,9.77,9.77,0,0,1-.42,3,6.5,6.5,0,0,1-1.16,2.22,5,5,0,0,1-1.8,1.4,5.36,5.36,0,0,1-2.32.49,6.8,6.8,0,0,1-3.36-.86,6.29,6.29,0,0,1-2.44-2.44,8.25,8.25,0,0,1,0-7.57Zm1.74,11.46a3.27,3.27,0,0,0,.53,1.81,3.89,3.89,0,0,0,1.5,1.36,4.91,4.91,0,0,0,2.3.52,4.39,4.39,0,0,0,2-.51,4.11,4.11,0,0,0,1.67-1.57,5.29,5.29,0,0,0,.66-2.79V337h2.36v13.27a7.32,7.32,0,0,1-1,3.91,6.4,6.4,0,0,1-2.51,2.37,6.93,6.93,0,0,1-3.24.8,7.89,7.89,0,0,1-3.49-.74,5.53,5.53,0,0,1-3.23-5.16Zm.36-5a4.28,4.28,0,0,0,1.7,1.65,4.89,4.89,0,0,0,2.3.56,3.84,3.84,0,0,0,1.53-.33,4.42,4.42,0,0,0,1.4-.94,4.56,4.56,0,0,0,1-1.52,5.88,5.88,0,0,0,0-4.16,4.62,4.62,0,0,0-1-1.51,4.46,4.46,0,0,0-1.4-1A4,4,0,0,0,140,339a4.89,4.89,0,0,0-2.3.56,4.21,4.21,0,0,0-1.7,1.65,5.91,5.91,0,0,0,0,5.31Z"/><path d="M152.83,350a6.15,6.15,0,0,1-2.27-2.49,8,8,0,0,1-.81-3.69,8.3,8.3,0,0,1,.48-2.89,6.62,6.62,0,0,1,1.38-2.22,6.2,6.2,0,0,1,2.12-1.45,7.11,7.11,0,0,1,2.74-.51,6.69,6.69,0,0,1,3.44.84,5.55,5.55,0,0,1,2.19,2.4,8.37,8.37,0,0,1,.77,3.72c0,.13,0,.28,0,.42s0,.24,0,.28H151.25v-2H161l-.94,1.35a1.88,1.88,0,0,0,.18-.45,2.36,2.36,0,0,0,.08-.52,4.33,4.33,0,0,0-.48-2.09,3.65,3.65,0,0,0-1.34-1.39,3.94,3.94,0,0,0-2-.5,4.75,4.75,0,0,0-1.81.33,3.57,3.57,0,0,0-1.37.94,4.07,4.07,0,0,0-.86,1.53,6.64,6.64,0,0,0-.29,2.07,6.53,6.53,0,0,0,.5,2.71,3.64,3.64,0,0,0,1.47,1.71,4.52,4.52,0,0,0,2.36.59,4.82,4.82,0,0,0,2.45-.61,4.9,4.9,0,0,0,1.8-1.84l1.91,1.21A7,7,0,0,1,160,350a7.82,7.82,0,0,1-3.78.87A6.24,6.24,0,0,1,152.83,350Z"/><path d="M165.85,340a6.4,6.4,0,0,1,2.44-2.43,6.83,6.83,0,0,1,3.37-.85,5.49,5.49,0,0,1,2.31.48,5.11,5.11,0,0,1,1.8,1.4,6.55,6.55,0,0,1,1.16,2.23,9.66,9.66,0,0,1,.42,3,9.77,9.77,0,0,1-.42,3,6.5,6.5,0,0,1-1.16,2.22,5,5,0,0,1-1.8,1.4,5.35,5.35,0,0,1-2.31.49,6.84,6.84,0,0,1-3.37-.86,6.29,6.29,0,0,1-2.44-2.44,8.25,8.25,0,0,1,0-7.57Zm2.11,6.45a4.19,4.19,0,0,0,1.69,1.65,4.92,4.92,0,0,0,2.3.56,3.84,3.84,0,0,0,1.53-.33,4.56,4.56,0,0,0,2.42-2.46,5.88,5.88,0,0,0,0-4.16,4.65,4.65,0,0,0-2.42-2.46A4,4,0,0,0,172,339a4.92,4.92,0,0,0-2.3.56,4.13,4.13,0,0,0-1.69,1.65,5.83,5.83,0,0,0,0,5.31Zm10.68-18.87v23h-2.36v-23Z"/><path d="M183.41,330.29a1.62,1.62,0,0,1,2.28,0,1.62,1.62,0,0,1,0,2.28,1.61,1.61,0,1,1-2.28-2.28Zm2.31,6.75v13.57h-2.36V337Z"/><path d="M190.32,340a6.35,6.35,0,0,1,2.45-2.43,6.77,6.77,0,0,1,3.36-.85,5.49,5.49,0,0,1,2.31.48,5.11,5.11,0,0,1,1.8,1.4,6.75,6.75,0,0,1,1.17,2.23,10,10,0,0,1,.41,3,10.11,10.11,0,0,1-.41,3,6.7,6.7,0,0,1-1.17,2.22,5,5,0,0,1-1.8,1.4,5.35,5.35,0,0,1-2.31.49,6.78,6.78,0,0,1-3.36-.86,6.25,6.25,0,0,1-2.45-2.44,8.33,8.33,0,0,1,0-7.57Zm1.74,11.46a3.35,3.35,0,0,0,.53,1.81,3.89,3.89,0,0,0,1.5,1.36,4.91,4.91,0,0,0,2.3.52,4.46,4.46,0,0,0,2-.51,4.09,4.09,0,0,0,1.66-1.57,5.19,5.19,0,0,0,.67-2.79V337h2.36v13.27a7.32,7.32,0,0,1-1,3.91,6.38,6.38,0,0,1-2.5,2.37,7,7,0,0,1-3.25.8,7.92,7.92,0,0,1-3.49-.74,5.57,5.57,0,0,1-3.23-5.16Zm.37-5a4.25,4.25,0,0,0,1.69,1.65,4.92,4.92,0,0,0,2.3.56,3.92,3.92,0,0,0,1.54-.33,4.5,4.5,0,0,0,2.41-2.46,5.74,5.74,0,0,0,0-4.16,4.58,4.58,0,0,0-2.41-2.46,4.09,4.09,0,0,0-1.54-.32,4.92,4.92,0,0,0-2.3.56,4.19,4.19,0,0,0-1.69,1.65,5.83,5.83,0,0,0,0,5.31Z"/><path d="M207.88,330.29a1.58,1.58,0,0,1,1.13-.47,1.56,1.56,0,0,1,1.15.47,1.62,1.62,0,0,1,0,2.28,1.51,1.51,0,0,1-1.15.49,1.61,1.61,0,0,1-1.13-2.77Zm2.31,6.75v13.57h-2.36V337Z"/><path d="M219.77,337v2.21H213V337Zm-2.21-4.72v18.29H215.2V332.32Z"/><path d="M223.56,347.74a2.25,2.25,0,0,0,1,.85,4,4,0,0,0,1.51.28,4.19,4.19,0,0,0,2-.45A3.4,3.4,0,0,0,230,345.3l.47,1.77a3.07,3.07,0,0,1-.78,2.15,4.79,4.79,0,0,1-1.92,1.27,6.71,6.71,0,0,1-2.26.41,5.21,5.21,0,0,1-2.31-.52,4.2,4.2,0,0,1-1.72-1.48,4.17,4.17,0,0,1,1.81-6.18,6.69,6.69,0,0,1,2.84-.55,7.87,7.87,0,0,1,2.47.34,6,6,0,0,1,1.57.77,3.84,3.84,0,0,1,.8.69v1.39a7.5,7.5,0,0,0-2.12-1,8.41,8.41,0,0,0-2.33-.31,5.13,5.13,0,0,0-1.87.29,2.27,2.27,0,0,0-1.08.83,2.21,2.21,0,0,0-.36,1.27A2.38,2.38,0,0,0,223.56,347.74Zm-1.87-9.31a9.85,9.85,0,0,1,2.11-1.12,8.23,8.23,0,0,1,3.23-.56,7.39,7.39,0,0,1,2.78.48,4.18,4.18,0,0,1,1.86,1.4,3.74,3.74,0,0,1,.67,2.24v9.74H230V341.2a2.54,2.54,0,0,0-.24-1.17,1.91,1.91,0,0,0-.66-.72,3.34,3.34,0,0,0-1-.38,5.62,5.62,0,0,0-1.18-.12,6.35,6.35,0,0,0-1.81.24,5.65,5.65,0,0,0-1.37.56,8.49,8.49,0,0,0-.89.56Z"/><path d="M238.67,327.61v23h-2.35v-23Z"/><path d="M243.58,330.29a1.62,1.62,0,0,1,1.14-.47,1.59,1.59,0,0,1,1.15.47,1.62,1.62,0,0,1,0,2.28,1.54,1.54,0,0,1-1.15.49,1.62,1.62,0,0,1-1.14-2.77ZM245.9,337v13.57h-2.36V337Z"/><path d="M252.27,347.6a4.15,4.15,0,0,0,1.22.84,3.79,3.79,0,0,0,1.52.31,2.46,2.46,0,0,0,1.58-.46,1.51,1.51,0,0,0,.57-1.25,1.68,1.68,0,0,0-.46-1.2,3.77,3.77,0,0,0-1.16-.82c-.47-.23-1-.44-1.5-.64a15.12,15.12,0,0,1-1.79-.84,4.5,4.5,0,0,1-1.5-1.27,3.45,3.45,0,0,1,0-4,3.77,3.77,0,0,1,1.65-1.18,6.11,6.11,0,0,1,4.16,0,6.15,6.15,0,0,1,1.69.94,4.47,4.47,0,0,1,1.15,1.36l-1.88,1.21a4.91,4.91,0,0,0-1.41-1.27,3.67,3.67,0,0,0-1.9-.5,2.41,2.41,0,0,0-1.26.32,1.11,1.11,0,0,0-.54,1,1.28,1.28,0,0,0,.42.94,4,4,0,0,0,1.06.74c.43.21.88.42,1.35.62a18.12,18.12,0,0,1,2.16,1A5.07,5.07,0,0,1,259,344.8a3.22,3.22,0,0,1,.57,2,3.87,3.87,0,0,1-.59,2.11,4.11,4.11,0,0,1-1.64,1.47,5.07,5.07,0,0,1-2.43.55,6,6,0,0,1-4.29-1.74,5.8,5.8,0,0,1-1.13-1.56l1.85-1.15A8,8,0,0,0,252.27,347.6Z"/><path d="M264.55,350a6.08,6.08,0,0,1-2.27-2.49,8,8,0,0,1-.81-3.69,8.3,8.3,0,0,1,.48-2.89,6.59,6.59,0,0,1,1.37-2.22,6.24,6.24,0,0,1,2.13-1.45,7.11,7.11,0,0,1,2.74-.51,6.63,6.63,0,0,1,3.43.84,5.51,5.51,0,0,1,2.2,2.4,8.37,8.37,0,0,1,.77,3.72c0,.13,0,.28,0,.42s0,.24,0,.28H263v-2h9.73l-.94,1.35a2.66,2.66,0,0,0,.26-1,4.33,4.33,0,0,0-.48-2.09,3.68,3.68,0,0,0-1.35-1.39,3.91,3.91,0,0,0-2-.5,4.75,4.75,0,0,0-1.81.33,3.61,3.61,0,0,0-1.38.94,4.2,4.2,0,0,0-.85,1.53,6.64,6.64,0,0,0-.29,2.07,6.53,6.53,0,0,0,.5,2.71,3.64,3.64,0,0,0,1.47,1.71,4.52,4.52,0,0,0,2.36.59,4.82,4.82,0,0,0,2.45-.61,5,5,0,0,0,1.8-1.84l1.91,1.21a7.16,7.16,0,0,1-2.67,2.58,7.83,7.83,0,0,1-3.79.87A6.23,6.23,0,0,1,264.55,350Z"/><path d="M279.73,350a6.15,6.15,0,0,1-2.27-2.49,8.79,8.79,0,0,1-.32-6.58,6.44,6.44,0,0,1,1.37-2.22,6.3,6.3,0,0,1,2.12-1.45,7.15,7.15,0,0,1,2.74-.51,6.67,6.67,0,0,1,3.44.84A5.63,5.63,0,0,1,289,340a8.37,8.37,0,0,1,.76,3.72c0,.13,0,.28,0,.42s0,.24,0,.28H278.15v-2h9.74l-.95,1.35a1.88,1.88,0,0,0,.18-.45,2,2,0,0,0,.09-.52,4.22,4.22,0,0,0-.49-2.09,3.58,3.58,0,0,0-1.34-1.39,3.94,3.94,0,0,0-2-.5,4.78,4.78,0,0,0-1.81.33,3.57,3.57,0,0,0-1.37.94,4.21,4.21,0,0,0-.86,1.53,7,7,0,0,0-.29,2.07,6.69,6.69,0,0,0,.5,2.71A3.66,3.66,0,0,0,281,348.1a4.45,4.45,0,0,0,2.35.59,4.79,4.79,0,0,0,2.45-.61,4.9,4.9,0,0,0,1.8-1.84l1.92,1.21a7.16,7.16,0,0,1-2.67,2.58,7.86,7.86,0,0,1-3.79.87A6.27,6.27,0,0,1,279.73,350Z"/><path d="M295.37,350.61H293V337h2.35Zm3.25-11.49a2.49,2.49,0,0,0-1-.16,2.05,2.05,0,0,0-1.39.44,2.24,2.24,0,0,0-.69,1.21,7.05,7.05,0,0,0-.2,1.74h-1.06a6.77,6.77,0,0,1,.58-2.88,5.46,5.46,0,0,1,1.49-2,2.94,2.94,0,0,1,1.85-.73,4.7,4.7,0,0,1,1.38.19,2.7,2.7,0,0,1,1.16.75l-1.3,1.95A4.14,4.14,0,0,0,298.62,339.12Z"/><path d="M302.86,340a6.42,6.42,0,0,1,2.45-2.43,6.77,6.77,0,0,1,3.36-.85,5.5,5.5,0,0,1,2.32.48,5.16,5.16,0,0,1,1.79,1.4,6.57,6.57,0,0,1,1.17,2.23,9.67,9.67,0,0,1,.41,3,9.78,9.78,0,0,1-.41,3,6.52,6.52,0,0,1-1.17,2.22,5,5,0,0,1-1.79,1.4,5.36,5.36,0,0,1-2.32.49,6.78,6.78,0,0,1-3.36-.86,6.31,6.31,0,0,1-2.45-2.44,8.33,8.33,0,0,1,0-7.57Zm2.11,6.45a4.21,4.21,0,0,0,1.7,1.65,4.86,4.86,0,0,0,2.3.56,3.84,3.84,0,0,0,1.53-.33,4.42,4.42,0,0,0,1.4-.94,4.72,4.72,0,0,0,1-1.52,5.88,5.88,0,0,0,0-4.16,4.78,4.78,0,0,0-1-1.51,4.46,4.46,0,0,0-1.4-1A4,4,0,0,0,309,339a4.86,4.86,0,0,0-2.3.56,4.15,4.15,0,0,0-1.7,1.65,5.91,5.91,0,0,0,0,5.31Zm10.69-18.87v23H313.3v-23Z"/><path d="M321.84,350a6.08,6.08,0,0,1-2.27-2.49,8,8,0,0,1-.81-3.69,8.3,8.3,0,0,1,.48-2.89,6.59,6.59,0,0,1,1.37-2.22,6.24,6.24,0,0,1,2.13-1.45,7.11,7.11,0,0,1,2.74-.51,6.63,6.63,0,0,1,3.43.84,5.51,5.51,0,0,1,2.2,2.4,8.37,8.37,0,0,1,.77,3.72c0,.13,0,.28,0,.42s0,.24,0,.28H320.26v-2H330l-.94,1.35a2.66,2.66,0,0,0,.26-1,4.22,4.22,0,0,0-.49-2.09,3.58,3.58,0,0,0-1.34-1.39,3.91,3.91,0,0,0-2-.5,4.75,4.75,0,0,0-1.81.33,3.61,3.61,0,0,0-1.38.94,4.2,4.2,0,0,0-.85,1.53,6.63,6.63,0,0,0-.3,2.07,6.52,6.52,0,0,0,.51,2.71,3.64,3.64,0,0,0,1.47,1.71,4.49,4.49,0,0,0,2.36.59,4.82,4.82,0,0,0,2.45-.61,5,5,0,0,0,1.79-1.84l1.92,1.21A7.16,7.16,0,0,1,329,350a7.83,7.83,0,0,1-3.79.87A6.23,6.23,0,0,1,321.84,350Z"/><path d="M138.49,372.42l3.39,8.82,3.68-9.85,3.95,9.91,3.42-8.88h2.66l-5.9,14.6-4.1-9.88L141.73,387l-5.9-14.6Z"/><path d="M159.4,385.38a6.22,6.22,0,0,1-2.27-2.49,8,8,0,0,1-.81-3.68,8.26,8.26,0,0,1,.49-2.89,6.39,6.39,0,0,1,1.37-2.23,6.13,6.13,0,0,1,2.12-1.44,7,7,0,0,1,2.75-.52,6.66,6.66,0,0,1,3.43.84,5.51,5.51,0,0,1,2.2,2.4,8.4,8.4,0,0,1,.76,3.72c0,.14,0,.28,0,.43s0,.24,0,.28H157.83v-2h9.73l-.95,1.36a2,2,0,0,0,.18-.46,2,2,0,0,0,.09-.52,4.22,4.22,0,0,0-.49-2.09,3.58,3.58,0,0,0-1.34-1.39,3.93,3.93,0,0,0-2-.5,4.8,4.8,0,0,0-1.82.33,3.57,3.57,0,0,0-1.37.94A4.13,4.13,0,0,0,159,377a7.46,7.46,0,0,0,.2,4.78,3.71,3.71,0,0,0,1.48,1.71,4.49,4.49,0,0,0,2.36.59,4.85,4.85,0,0,0,2.44-.6,5,5,0,0,0,1.8-1.85l1.92,1.21a7.16,7.16,0,0,1-2.67,2.58,7.83,7.83,0,0,1-3.79.87A6.27,6.27,0,0,1,159.4,385.38Z"/><path d="M175.05,386h-2.36V372.42h2.36Zm3.24-11.49a2.69,2.69,0,0,0-1-.16,2.07,2.07,0,0,0-1.39.44,2.38,2.38,0,0,0-.69,1.21,7.08,7.08,0,0,0-.19,1.74H174a6.84,6.84,0,0,1,.57-2.87,5.29,5.29,0,0,1,1.49-2,3,3,0,0,1,1.86-.74,4.63,4.63,0,0,1,1.37.19,2.7,2.7,0,0,1,1.16.75L179.15,375A4.18,4.18,0,0,0,178.29,374.5Z"/><path d="M184.26,385.38a6.15,6.15,0,0,1-2.27-2.49,8.77,8.77,0,0,1-.32-6.57,6.39,6.39,0,0,1,1.37-2.23,6,6,0,0,1,2.12-1.44,7,7,0,0,1,2.74-.52,6.69,6.69,0,0,1,3.44.84,5.55,5.55,0,0,1,2.19,2.4,8.26,8.26,0,0,1,.77,3.72c0,.14,0,.28,0,.43s0,.24,0,.28H182.68v-2h9.73l-.94,1.36a2,2,0,0,0,.18-.46,2,2,0,0,0,.09-.52,4.33,4.33,0,0,0-.49-2.09,3.65,3.65,0,0,0-1.34-1.39,3.94,3.94,0,0,0-2-.5,4.75,4.75,0,0,0-1.81.33,3.57,3.57,0,0,0-1.37.94,4.15,4.15,0,0,0-.86,1.53,7,7,0,0,0-.29,2.07,6.53,6.53,0,0,0,.5,2.71,3.69,3.69,0,0,0,1.47,1.71,4.52,4.52,0,0,0,2.36.59,4.89,4.89,0,0,0,2.45-.6,5,5,0,0,0,1.8-1.85l1.92,1.21a7.16,7.16,0,0,1-2.67,2.58,7.88,7.88,0,0,1-3.79.87A6.24,6.24,0,0,1,184.26,385.38Z"/><path d="M199.9,363v23h-2.36V363Z"/><path d="M204.06,375.42a6.45,6.45,0,0,1,2.45-2.44,6.77,6.77,0,0,1,3.36-.85,5.35,5.35,0,0,1,2.31.49A5,5,0,0,1,214,374a6.7,6.7,0,0,1,1.17,2.22,10.11,10.11,0,0,1,.41,3,10,10,0,0,1-.41,3A6.75,6.75,0,0,1,214,384.4a5.11,5.11,0,0,1-1.8,1.4,5.49,5.49,0,0,1-2.31.48,6.77,6.77,0,0,1-3.36-.85,6.34,6.34,0,0,1-2.45-2.45,8.31,8.31,0,0,1,0-7.56Zm2.11,6.44a4.19,4.19,0,0,0,1.69,1.65,4.92,4.92,0,0,0,2.3.56,4,4,0,0,0,1.54-.32,4.56,4.56,0,0,0,2.41-2.47,5.72,5.72,0,0,0,0-4.15,4.5,4.5,0,0,0-2.41-2.46,3.88,3.88,0,0,0-1.54-.33,4.92,4.92,0,0,0-2.3.56,4.25,4.25,0,0,0-1.69,1.65,5.83,5.83,0,0,0,0,5.31ZM216.86,363v23H214.5V363Z"/><path d="M230.66,369.09a3.48,3.48,0,0,0-1.51-1.35,5.13,5.13,0,0,0-2.3-.48,4.64,4.64,0,0,0-2.52.67,5.33,5.33,0,0,0-1.72,1.78l-1.92-1.21a10,10,0,0,1,1.5-1.81,5.82,5.82,0,0,1,2-1.21,9,9,0,0,1,2.94-.43,6.84,6.84,0,0,1,2.55.47,6.47,6.47,0,0,1,2,1.32,6,6,0,0,1,1.84,4.41,5.51,5.51,0,0,1-.88,3.05,7,7,0,0,1-2.3,2.21,6.63,6.63,0,0,1-3.07.93l-.2,3.54h-1.77l-.59-5.17h.76a6.38,6.38,0,0,0,3-.67,5.08,5.08,0,0,0,1.95-1.73,4,4,0,0,0,.68-2.16A4.17,4.17,0,0,0,230.66,369.09Zm-5.5,14.57a1.61,1.61,0,0,1,2.28,2.28,1.61,1.61,0,1,1-2.28-2.28Z"/><path d="M246.11,373.6v-2.35l15,6.48v1.33l-15,6.49v-2.36l11.14-4.66Z"/></g></g></svg>