<svg xmlns="http://www.w3.org/2000/svg" viewBox="0 0 488.73 429.59"><g id="Layer_2" data-name="Layer 2"><g id="Layer_1-2" data-name="Layer 1"><path d="M301.38,0c52.34.4,92.53,7.66,125.82,36.05C461,64.89,480.39,101.92,487,145.8c5.38,35.67-2.21,69.39-16.55,101.58-23,51.61-53.19,98.77-91.92,140.09-18.51,19.74-40,35.15-67.42,40.37-20.3,3.87-40.11.91-59.62-4.86-32.71-9.68-62.17-26.1-90.84-44.14-32.9-20.72-62.13-45.81-88.94-73.91-20.55-21.53-39.6-44.17-54.23-70.19C6.76,215.66-1,195.59.1,173.12c1-20.37,10-37.43,22.32-52.9C43.26,94,70,74.76,98.45,57.76,143.36,31,192.11,15,243.53,7,266,3.47,288.73,1.49,301.38,0Z" style="fill:#b58147"/><text transform="translate(85.95 145.8)" style="font-size:60px;font-family:CooperBlack, Cooper Black">SIEGLINDE</text><path d="M98.15,224.79v20.64H95.64V224.79ZM97,233.05h14.15v2.36H97Zm15-8.26v20.64H109.5V224.79Z"/><path d="M116.33,235a6.82,6.82,0,0,1,2.52-2.51,7.48,7.48,0,0,1,7.15,0,6.84,6.84,0,0,1,2.5,2.51,7.61,7.61,0,0,1,0,7.29,6.75,6.75,0,0,1-2.5,2.53,7.48,7.48,0,0,1-7.15,0,6.73,6.73,0,0,1-2.52-2.53,7.61,7.61,0,0,1,0-7.29Zm2.06,6.16a4.59,4.59,0,0,0,8,0,5.12,5.12,0,0,0,.6-2.51,5.21,5.21,0,0,0-.6-2.52,4.34,4.34,0,0,0-1.65-1.72,4.86,4.86,0,0,0-4.75,0,4.34,4.34,0,0,0-1.65,1.72,5.21,5.21,0,0,0-.6,2.52A5.12,5.12,0,0,0,118.39,241.16Z"/><path d="M134.58,244.83a6.08,6.08,0,0,1-2.27-2.49,8,8,0,0,1-.81-3.69,8.3,8.3,0,0,1,.48-2.89,6.59,6.59,0,0,1,1.37-2.22,6.24,6.24,0,0,1,2.13-1.45,7.11,7.11,0,0,1,2.74-.51,6.63,6.63,0,0,1,3.43.84,5.51,5.51,0,0,1,2.2,2.4,8.35,8.35,0,0,1,.77,3.71c0,.14,0,.29,0,.43s0,.24,0,.28H133v-2h9.73l-.94,1.35a2.66,2.66,0,0,0,.26-1,4.33,4.33,0,0,0-.48-2.09,3.68,3.68,0,0,0-1.35-1.39,3.91,3.91,0,0,0-2-.5,4.94,4.94,0,0,0-1.81.32,3.63,3.63,0,0,0-1.38.95,4.2,4.2,0,0,0-.85,1.53,6.63,6.63,0,0,0-.3,2.07,6.52,6.52,0,0,0,.51,2.71,3.69,3.69,0,0,0,1.47,1.71,4.49,4.49,0,0,0,2.36.59,4.82,4.82,0,0,0,2.45-.61,5,5,0,0,0,1.79-1.84l1.92,1.21a7.16,7.16,0,0,1-2.67,2.58,7.83,7.83,0,0,1-3.79.87A6.23,6.23,0,0,1,134.58,244.83Z"/><path d="M158.92,222.44v23h-2.36v-23Zm8,9.43-5.9,5.6,6.49,8h-2.95l-6.49-8,5.9-5.6Z"/><path d="M172.07,242a2.44,2.44,0,0,0,1,1.15,2.93,2.93,0,0,0,1.59.4,3.71,3.71,0,0,0,1.82-.43,2.93,2.93,0,0,0,1.2-1.19,3.52,3.52,0,0,0,.43-1.77v-8.26h2.36v13.56h-2.36v-2.12a4.69,4.69,0,0,1-1.68,1.81,4.41,4.41,0,0,1-2.36.61,4.61,4.61,0,0,1-2.46-.65,4.28,4.28,0,0,1-1.62-1.84,6.37,6.37,0,0,1-.58-2.82v-8.55h2.36v8.26A4.59,4.59,0,0,0,172.07,242Z"/><path d="M193.24,235.31a2.34,2.34,0,0,0-1-1.14,3.12,3.12,0,0,0-1.59-.38,3.64,3.64,0,0,0-1.81.43,3,3,0,0,0-1.21,1.19,3.52,3.52,0,0,0-.43,1.77v8.25h-2.36V231.87h2.36V234a4.73,4.73,0,0,1,6.52-1.76,4.39,4.39,0,0,1,1.61,1.82,6.46,6.46,0,0,1,.57,2.83v8.55h-2.36v-8.25A4.83,4.83,0,0,0,193.24,235.31Z"/><path d="M208.72,235.31a2.34,2.34,0,0,0-1-1.14,3.12,3.12,0,0,0-1.59-.38,3.64,3.64,0,0,0-1.81.43,3,3,0,0,0-1.21,1.19,3.52,3.52,0,0,0-.43,1.77v8.25h-2.36V231.87h2.36V234a4.73,4.73,0,0,1,6.52-1.76,4.31,4.31,0,0,1,1.6,1.82,6.32,6.32,0,0,1,.58,2.83v8.55H209v-8.25A4.83,4.83,0,0,0,208.72,235.31Z"/><path d="M217.72,244.83a6.15,6.15,0,0,1-2.27-2.49,8,8,0,0,1-.81-3.69,8.3,8.3,0,0,1,.49-2.89,6.44,6.44,0,0,1,1.37-2.22,6.3,6.3,0,0,1,2.12-1.45,7.16,7.16,0,0,1,2.75-.51,6.66,6.66,0,0,1,3.43.84,5.57,5.57,0,0,1,2.2,2.4,8.36,8.36,0,0,1,.76,3.71c0,.14,0,.29,0,.43s0,.24,0,.28H216.15v-2h9.73l-.95,1.35a1.88,1.88,0,0,0,.18-.45,2,2,0,0,0,.09-.52,4.22,4.22,0,0,0-.49-2.09,3.58,3.58,0,0,0-1.34-1.39,3.93,3.93,0,0,0-2-.5,5,5,0,0,0-1.82.32,3.6,3.6,0,0,0-1.37.95,4.05,4.05,0,0,0-.85,1.53,7.46,7.46,0,0,0,.2,4.78,3.76,3.76,0,0,0,1.48,1.71,4.49,4.49,0,0,0,2.36.59,4.75,4.75,0,0,0,2.44-.61,4.9,4.9,0,0,0,1.8-1.84l1.92,1.21a7.16,7.16,0,0,1-2.67,2.58,7.83,7.83,0,0,1-3.79.87A6.27,6.27,0,0,1,217.72,244.83Z"/><path d="M239.38,235.31a2.38,2.38,0,0,0-1-1.14,3.12,3.12,0,0,0-1.59-.38,3.68,3.68,0,0,0-1.82.43,3,3,0,0,0-1.21,1.19,3.62,3.62,0,0,0-.42,1.77v8.25H231V231.87h2.36V234a4.32,4.32,0,0,1,4-2.41,4.48,4.48,0,0,1,2.47.65,4.33,4.33,0,0,1,1.61,1.82,6.46,6.46,0,0,1,.57,2.83v8.55h-2.35v-8.25A4.64,4.64,0,0,0,239.38,235.31Z"/><path d="M255.92,231.87l3.39,8.82,3.69-9.85,3.95,9.91,3.42-8.88H273l-5.89,14.6-4.1-9.88-3.86,9.88-5.9-14.6Z"/><path d="M276.84,244.83a6.15,6.15,0,0,1-2.27-2.49,8.79,8.79,0,0,1-.32-6.58,6.44,6.44,0,0,1,1.37-2.22,6.3,6.3,0,0,1,2.12-1.45,7.15,7.15,0,0,1,2.74-.51,6.69,6.69,0,0,1,3.44.84,5.63,5.63,0,0,1,2.2,2.4,8.36,8.36,0,0,1,.76,3.71c0,.14,0,.29,0,.43s0,.24,0,.28H275.26v-2H285l-.94,1.35a1.88,1.88,0,0,0,.18-.45,2,2,0,0,0,.09-.52,4.33,4.33,0,0,0-.49-2.09,3.58,3.58,0,0,0-1.34-1.39,3.94,3.94,0,0,0-2-.5,4.94,4.94,0,0,0-1.81.32,3.6,3.6,0,0,0-1.37.95,4.21,4.21,0,0,0-.86,1.53,7,7,0,0,0-.29,2.07,6.69,6.69,0,0,0,.5,2.71,3.74,3.74,0,0,0,1.47,1.71,4.52,4.52,0,0,0,2.36.59,4.79,4.79,0,0,0,2.45-.61,4.9,4.9,0,0,0,1.8-1.84l1.92,1.21a7.16,7.16,0,0,1-2.67,2.58,7.86,7.86,0,0,1-3.79.87A6.27,6.27,0,0,1,276.84,244.83Z"/><path d="M301.33,245.43H299v-23h2.36Zm6-10.12a2.34,2.34,0,0,0-.95-1.14,3.14,3.14,0,0,0-1.61-.38,3.65,3.65,0,0,0-1.81.44,3.06,3.06,0,0,0-1.21,1.21,3.45,3.45,0,0,0-.43,1.74h-.77a6.49,6.49,0,0,1,.62-2.88,5.16,5.16,0,0,1,1.7-2,4.27,4.27,0,0,1,2.49-.73,4.87,4.87,0,0,1,2.46.59,3.88,3.88,0,0,1,1.62,1.77,6.55,6.55,0,0,1,.58,2.94v8.55h-2.36v-8.25A4.64,4.64,0,0,0,307.34,235.31Z"/><path d="M316.35,244.83a6.15,6.15,0,0,1-2.27-2.49,8.79,8.79,0,0,1-.32-6.58,6.44,6.44,0,0,1,1.37-2.22,6.3,6.3,0,0,1,2.12-1.45,7.15,7.15,0,0,1,2.74-.51,6.69,6.69,0,0,1,3.44.84,5.55,5.55,0,0,1,2.19,2.4,8.22,8.22,0,0,1,.77,3.71c0,.14,0,.29,0,.43s0,.24,0,.28H314.77v-2h9.73l-.94,1.35a1.88,1.88,0,0,0,.18-.45,2,2,0,0,0,.09-.52,4.33,4.33,0,0,0-.49-2.09,3.58,3.58,0,0,0-1.34-1.39,3.94,3.94,0,0,0-2-.5,4.94,4.94,0,0,0-1.81.32,3.6,3.6,0,0,0-1.37.95,4.21,4.21,0,0,0-.86,1.53,7,7,0,0,0-.29,2.07,6.53,6.53,0,0,0,.5,2.71,3.74,3.74,0,0,0,1.47,1.71,4.52,4.52,0,0,0,2.36.59,4.79,4.79,0,0,0,2.45-.61,4.9,4.9,0,0,0,1.8-1.84l1.92,1.21a7.16,7.16,0,0,1-2.67,2.58,7.86,7.86,0,0,1-3.79.87A6.24,6.24,0,0,1,316.35,244.83Z"/><path d="M334.35,231.87v2.21h-6.78v-2.21Zm-2.21-4.72v18.28h-2.36V227.15Z"/><path d="M346,225.12a1.62,1.62,0,0,1,2.76,1.15,1.58,1.58,0,0,1-.47,1.13,1.58,1.58,0,0,1-2.29,0,1.59,1.59,0,0,1,0-2.28Zm2.32,6.75v13.56H346V231.87Z"/><path d="M361.6,235.31a2.34,2.34,0,0,0-1-1.14,3.12,3.12,0,0,0-1.59-.38,3.64,3.64,0,0,0-1.81.43,3,3,0,0,0-1.21,1.19,3.52,3.52,0,0,0-.43,1.77v8.25h-2.36V231.87h2.36V234a4.56,4.56,0,0,1,1.7-1.82,5,5,0,0,1,4.82.06,4.37,4.37,0,0,1,1.6,1.82,6.32,6.32,0,0,1,.58,2.83v8.55h-2.36v-8.25A4.83,4.83,0,0,0,361.6,235.31Z"/><path d="M373.42,231.87v2.21h-6.78v-2.21Zm-2.21-4.72v18.28h-2.36V227.15Z"/><path d="M377.68,244.83a6.15,6.15,0,0,1-2.27-2.49,8,8,0,0,1-.81-3.69,8.3,8.3,0,0,1,.48-2.89,6.62,6.62,0,0,1,1.38-2.22,6.2,6.2,0,0,1,2.12-1.45,7.11,7.11,0,0,1,2.74-.51,6.69,6.69,0,0,1,3.44.84,5.55,5.55,0,0,1,2.19,2.4,8.35,8.35,0,0,1,.77,3.71c0,.14,0,.29,0,.43s0,.24,0,.28H376.1v-2h9.73l-.94,1.35a1.88,1.88,0,0,0,.18-.45,2.36,2.36,0,0,0,.08-.52,4.33,4.33,0,0,0-.48-2.09,3.65,3.65,0,0,0-1.34-1.39,3.94,3.94,0,0,0-2-.5,4.94,4.94,0,0,0-1.81.32,3.6,3.6,0,0,0-1.37.95,4.07,4.07,0,0,0-.86,1.53,6.64,6.64,0,0,0-.29,2.07,6.53,6.53,0,0,0,.5,2.71,3.69,3.69,0,0,0,1.47,1.71,4.52,4.52,0,0,0,2.36.59,4.82,4.82,0,0,0,2.45-.61,5,5,0,0,0,1.8-1.84l1.91,1.21a7.06,7.06,0,0,1-2.66,2.58,7.88,7.88,0,0,1-3.79.87A6.24,6.24,0,0,1,377.68,244.83Z"/><path d="M393.32,245.43H391V231.87h2.36ZM396.57,234a2.51,2.51,0,0,0-1-.16,2,2,0,0,0-1.38.44,2.32,2.32,0,0,0-.7,1.21,7.6,7.6,0,0,0-.19,1.74h-1.06a6.92,6.92,0,0,1,.57-2.88,5.57,5.57,0,0,1,1.49-2,3,3,0,0,1,1.86-.73,4.63,4.63,0,0,1,1.37.19,2.73,2.73,0,0,1,1.17.75l-1.3,1.95A4.14,4.14,0,0,0,396.57,234Z"/><path d="M409.45,235.31a2.38,2.38,0,0,0-1-1.14,3.18,3.18,0,0,0-1.6-.38,3.67,3.67,0,0,0-1.81.43,3,3,0,0,0-1.21,1.19,3.62,3.62,0,0,0-.43,1.77v8.25h-2.35V231.87h2.35V234a4.63,4.63,0,0,1,1.7-1.82,5,5,0,0,1,4.82.06,4.39,4.39,0,0,1,1.61,1.82,6.46,6.46,0,0,1,.57,2.83v8.55h-2.36v-8.25A4.65,4.65,0,0,0,409.45,235.31Z"/><path d="M418.46,244.83a6.08,6.08,0,0,1-2.27-2.49,8,8,0,0,1-.81-3.69,8.3,8.3,0,0,1,.48-2.89,6.59,6.59,0,0,1,1.37-2.22,6.24,6.24,0,0,1,2.13-1.45,7.11,7.11,0,0,1,2.74-.51,6.63,6.63,0,0,1,3.43.84,5.51,5.51,0,0,1,2.2,2.4,8.35,8.35,0,0,1,.77,3.71c0,.14,0,.29,0,.43s0,.24,0,.28H416.88v-2h9.73l-.94,1.35a2.66,2.66,0,0,0,.26-1,4.33,4.33,0,0,0-.48-2.09,3.68,3.68,0,0,0-1.35-1.39,3.91,3.91,0,0,0-2-.5,4.94,4.94,0,0,0-1.81.32,3.63,3.63,0,0,0-1.38.95,4.2,4.2,0,0,0-.85,1.53,6.63,6.63,0,0,0-.3,2.07,6.52,6.52,0,0,0,.51,2.71,3.69,3.69,0,0,0,1.47,1.71,4.49,4.49,0,0,0,2.36.59,4.82,4.82,0,0,0,2.45-.61,5,5,0,0,0,1.79-1.84l1.92,1.21a7.16,7.16,0,0,1-2.67,2.58,7.83,7.83,0,0,1-3.79.87A6.23,6.23,0,0,1,418.46,244.83Z"/><path d="M436.46,231.87v2.21h-6.78v-2.21Zm-2.21-4.72v18.28h-2.36V227.15Z"/><path d="M169.37,280.82H167v-8.26a5.49,5.49,0,0,0-.28-1.92,2.14,2.14,0,0,0-.86-1.1,2.58,2.58,0,0,0-1.45-.37,3.32,3.32,0,0,0-1.68.4,2.63,2.63,0,0,0-1.1,1.16,4.12,4.12,0,0,0-.38,1.83v8.26H158.9v-8.26a5.49,5.49,0,0,0-.28-1.92,2.18,2.18,0,0,0-.85-1.1,2.64,2.64,0,0,0-1.46-.37,3.32,3.32,0,0,0-1.68.4,2.61,2.61,0,0,0-1.09,1.16,4,4,0,0,0-.39,1.83v8.26h-2.36V267.25h2.36v2a5.1,5.1,0,0,1,1-1.27,3.69,3.69,0,0,1,1.25-.75,4.56,4.56,0,0,1,1.54-.25,4.87,4.87,0,0,1,1.71.29,4,4,0,0,1,1.34.86,3.7,3.7,0,0,1,.87,1.38,5,5,0,0,1,1.77-1.9A4.65,4.65,0,0,1,165,267a4.29,4.29,0,0,1,2.35.62,3.9,3.9,0,0,1,1.49,1.81,7.16,7.16,0,0,1,.52,2.88Z"/><path d="M173.54,270.38a6.82,6.82,0,0,1,2.52-2.51,7.48,7.48,0,0,1,7.15,0,6.87,6.87,0,0,1,2.51,2.51,7.63,7.63,0,0,1,0,7.3,6.82,6.82,0,0,1-2.51,2.52,7.48,7.48,0,0,1-7.15,0,6.77,6.77,0,0,1-2.52-2.52,7.63,7.63,0,0,1,0-7.3Zm2.07,6.16a4.57,4.57,0,0,0,1.65,1.73,4.77,4.77,0,0,0,4.74,0,4.67,4.67,0,0,0,1.66-1.73,5.08,5.08,0,0,0,.6-2.5,5.23,5.23,0,0,0-.6-2.53,4.5,4.5,0,0,0-1.66-1.72,4.84,4.84,0,0,0-4.74,0,4.41,4.41,0,0,0-1.65,1.72A5.12,5.12,0,0,0,175,274,5,5,0,0,0,175.61,276.54Z"/><path d="M189.62,270.25a6.45,6.45,0,0,1,2.45-2.44,6.77,6.77,0,0,1,3.36-.85,5.36,5.36,0,0,1,2.32.49,5,5,0,0,1,1.8,1.4,6.5,6.5,0,0,1,1.16,2.22,10.93,10.93,0,0,1,0,5.93,6.55,6.55,0,0,1-1.16,2.23,5.22,5.22,0,0,1-1.8,1.4,5.5,5.5,0,0,1-2.32.48,6.77,6.77,0,0,1-3.36-.85,6.41,6.41,0,0,1-2.45-2.45,8.31,8.31,0,0,1,0-7.56Zm2.11,6.44a4.21,4.21,0,0,0,1.7,1.65,4.89,4.89,0,0,0,2.3.56,4,4,0,0,0,1.53-.32,4.46,4.46,0,0,0,1.4-.95,4.72,4.72,0,0,0,1-1.52,5.86,5.86,0,0,0,0-4.15,4.72,4.72,0,0,0-1-1.52,4.63,4.63,0,0,0-1.4-.95,4,4,0,0,0-1.53-.32,4.89,4.89,0,0,0-2.3.56,4.28,4.28,0,0,0-1.7,1.65,5.91,5.91,0,0,0,0,5.31Zm10.69-18.87v23h-2.36v-23Z"/><path d="M208.6,280.21a6.15,6.15,0,0,1-2.27-2.49,8,8,0,0,1-.81-3.68,8.22,8.22,0,0,1,.48-2.89,6.56,6.56,0,0,1,1.38-2.23,6,6,0,0,1,2.12-1.44,6.93,6.93,0,0,1,2.74-.52,6.69,6.69,0,0,1,3.44.84,5.55,5.55,0,0,1,2.19,2.4,8.37,8.37,0,0,1,.77,3.72c0,.14,0,.28,0,.43s0,.24,0,.27H207v-2h9.73l-.94,1.36a2,2,0,0,0,.18-.46,2.36,2.36,0,0,0,.08-.52,4.33,4.33,0,0,0-.48-2.09,3.65,3.65,0,0,0-1.34-1.39,3.94,3.94,0,0,0-2-.5,4.75,4.75,0,0,0-1.81.33,3.57,3.57,0,0,0-1.37.94,4.07,4.07,0,0,0-.86,1.53,6.64,6.64,0,0,0-.29,2.07,6.53,6.53,0,0,0,.5,2.71,3.64,3.64,0,0,0,1.47,1.71,4.52,4.52,0,0,0,2.36.59,4.91,4.91,0,0,0,2.45-.6,5.08,5.08,0,0,0,1.8-1.85l1.91,1.21a7,7,0,0,1-2.67,2.58,7.82,7.82,0,0,1-3.78.87A6.24,6.24,0,0,1,208.6,280.21Z"/><path d="M224.24,280.82h-2.36V267.25h2.36Zm3.24-11.49a2.46,2.46,0,0,0-1-.16,2.07,2.07,0,0,0-1.39.44,2.38,2.38,0,0,0-.69,1.21,7.08,7.08,0,0,0-.19,1.74h-1.06a6.84,6.84,0,0,1,.57-2.87,5.4,5.4,0,0,1,1.49-2,2.91,2.91,0,0,1,1.86-.74,4.63,4.63,0,0,1,1.37.19,2.79,2.79,0,0,1,1.17.75l-1.3,2A4.18,4.18,0,0,0,227.48,269.33Z"/><path d="M233.45,280.21a6.15,6.15,0,0,1-2.27-2.49,8,8,0,0,1-.81-3.68,8.22,8.22,0,0,1,.49-2.89,6.39,6.39,0,0,1,1.37-2.23,6.13,6.13,0,0,1,2.12-1.44,7,7,0,0,1,2.75-.52,6.66,6.66,0,0,1,3.43.84,5.57,5.57,0,0,1,2.2,2.4,8.37,8.37,0,0,1,.76,3.72c0,.14,0,.28,0,.43s0,.24,0,.27H231.88v-2h9.73l-1,1.36a2,2,0,0,0,.18-.46,2,2,0,0,0,.09-.52,4.22,4.22,0,0,0-.49-2.09,3.58,3.58,0,0,0-1.34-1.39,3.93,3.93,0,0,0-2-.5,4.8,4.8,0,0,0-1.82.33,3.57,3.57,0,0,0-1.37.94,4.05,4.05,0,0,0-.85,1.53,7.46,7.46,0,0,0,.2,4.78,3.71,3.71,0,0,0,1.48,1.71,4.49,4.49,0,0,0,2.36.59,4.85,4.85,0,0,0,2.44-.6,5,5,0,0,0,1.8-1.85l1.92,1.21a7.16,7.16,0,0,1-2.67,2.58,7.83,7.83,0,0,1-3.79.87A6.27,6.27,0,0,1,233.45,280.21Z"/><path d="M249.1,280.82h-2.36V267.25h2.36Zm3.24-11.49a2.49,2.49,0,0,0-1-.16,2.07,2.07,0,0,0-1.39.44,2.38,2.38,0,0,0-.69,1.21,7.08,7.08,0,0,0-.19,1.74H248a6.84,6.84,0,0,1,.58-2.87,5.29,5.29,0,0,1,1.49-2A2.91,2.91,0,0,1,252,267a4.63,4.63,0,0,1,1.37.19,2.7,2.7,0,0,1,1.16.75l-1.29,2A4.18,4.18,0,0,0,252.34,269.33Z"/><path d="M258.31,280.21a6.15,6.15,0,0,1-2.27-2.49,8.77,8.77,0,0,1-.32-6.57,6.39,6.39,0,0,1,1.37-2.23,6,6,0,0,1,2.12-1.44A6.93,6.93,0,0,1,262,267a6.69,6.69,0,0,1,3.44.84,5.55,5.55,0,0,1,2.19,2.4,8.37,8.37,0,0,1,.77,3.72c0,.14,0,.28,0,.43a1.87,1.87,0,0,0,0,.27H256.73v-2h9.73l-.94,1.36a2,2,0,0,0,.18-.46,1.88,1.88,0,0,0,.08-.52,4.33,4.33,0,0,0-.48-2.09,3.65,3.65,0,0,0-1.34-1.39,3.94,3.94,0,0,0-2-.5,4.75,4.75,0,0,0-1.81.33,3.57,3.57,0,0,0-1.37.94,4.07,4.07,0,0,0-.86,1.53,7,7,0,0,0-.29,2.07,6.53,6.53,0,0,0,.5,2.71,3.64,3.64,0,0,0,1.47,1.71,4.52,4.52,0,0,0,2.36.59,4.89,4.89,0,0,0,2.45-.6,5,5,0,0,0,1.8-1.85l1.91,1.21a7.06,7.06,0,0,1-2.66,2.58,7.88,7.88,0,0,1-3.79.87A6.24,6.24,0,0,1,258.31,280.21Z"/><path d="M280,270.69a2.39,2.39,0,0,0-1-1.14,3.12,3.12,0,0,0-1.59-.38,3.64,3.64,0,0,0-1.81.43,3,3,0,0,0-1.21,1.19,3.52,3.52,0,0,0-.43,1.77v8.26h-2.36V267.25H274v2.13a4.52,4.52,0,0,1,1.7-1.83,5,5,0,0,1,4.82.06,4.27,4.27,0,0,1,1.6,1.83,6.29,6.29,0,0,1,.58,2.83v8.55h-2.36v-8.26A4.83,4.83,0,0,0,280,270.69Z"/><path d="M295.67,270.38a6.82,6.82,0,0,1,2.52-2.51,7.48,7.48,0,0,1,7.15,0,6.87,6.87,0,0,1,2.51,2.51,7.7,7.7,0,0,1,0,7.3,6.82,6.82,0,0,1-2.51,2.52,7.48,7.48,0,0,1-7.15,0,6.77,6.77,0,0,1-2.52-2.52,7.63,7.63,0,0,1,0-7.3Zm2.06,6.16a4.65,4.65,0,0,0,1.65,1.73,4.58,4.58,0,0,0,6.4-1.73,5.09,5.09,0,0,0,.61-2.5,5.23,5.23,0,0,0-.61-2.53,4.41,4.41,0,0,0-1.65-1.72,4.86,4.86,0,0,0-4.75,0,4.48,4.48,0,0,0-1.65,1.72,5.23,5.23,0,0,0-.6,2.53A5.08,5.08,0,0,0,297.73,276.54Z"/><path d="M311.87,287.3V267.25h2.36V287.3Zm12.8-9.49a6.38,6.38,0,0,1-2.44,2.45,6.72,6.72,0,0,1-3.37.85,5.5,5.5,0,0,1-2.32-.48,5.42,5.42,0,0,1-1.8-1.4,6.73,6.73,0,0,1-1.16-2.23,10.93,10.93,0,0,1,0-5.93,6.68,6.68,0,0,1,1.16-2.22,5.17,5.17,0,0,1,1.8-1.4,5.36,5.36,0,0,1,2.32-.49,6.72,6.72,0,0,1,3.37.85,6.42,6.42,0,0,1,2.44,2.44,8.31,8.31,0,0,1,0,7.56Zm-2.11-6.43a4.29,4.29,0,0,0-1.68-1.65,4.88,4.88,0,0,0-2.32-.56,4,4,0,0,0-1.53.32,4.63,4.63,0,0,0-1.4.95,4.72,4.72,0,0,0-1,1.52,5.86,5.86,0,0,0,0,4.15,4.72,4.72,0,0,0,1,1.52,4.46,4.46,0,0,0,1.4.95,4,4,0,0,0,1.53.32,4.88,4.88,0,0,0,2.32-.56,4.23,4.23,0,0,0,1.68-1.65,5.91,5.91,0,0,0,0-5.31Z"/><path d="M339.57,280.21a6.15,6.15,0,0,1-2.27-2.49,8.77,8.77,0,0,1-.32-6.57,6.39,6.39,0,0,1,1.37-2.23,6,6,0,0,1,2.12-1.44,6.93,6.93,0,0,1,2.74-.52,6.69,6.69,0,0,1,3.44.84,5.55,5.55,0,0,1,2.19,2.4,8.37,8.37,0,0,1,.77,3.72c0,.14,0,.28,0,.43a1.87,1.87,0,0,0,0,.27H338v-2h9.73l-.94,1.36a2,2,0,0,0,.18-.46A1.88,1.88,0,0,0,347,273a4.33,4.33,0,0,0-.48-2.09,3.65,3.65,0,0,0-1.34-1.39,3.94,3.94,0,0,0-2-.5,4.75,4.75,0,0,0-1.81.33,3.57,3.57,0,0,0-1.37.94,4.07,4.07,0,0,0-.86,1.53,7,7,0,0,0-.29,2.07,6.53,6.53,0,0,0,.5,2.71,3.64,3.64,0,0,0,1.47,1.71,4.52,4.52,0,0,0,2.36.59,4.89,4.89,0,0,0,2.45-.6,5,5,0,0,0,1.8-1.85l1.91,1.21a7.06,7.06,0,0,1-2.66,2.58,7.88,7.88,0,0,1-3.79.87A6.24,6.24,0,0,1,339.57,280.21Z"/><path d="M354.76,280.21a6.08,6.08,0,0,1-2.27-2.49,7.89,7.89,0,0,1-.82-3.68,8.22,8.22,0,0,1,.49-2.89,6.54,6.54,0,0,1,1.37-2.23,6.08,6.08,0,0,1,2.13-1.44,6.9,6.9,0,0,1,2.74-.52,6.66,6.66,0,0,1,3.43.84,5.57,5.57,0,0,1,2.2,2.4,8.37,8.37,0,0,1,.76,3.72c0,.14,0,.28,0,.43s0,.24,0,.27H353.18v-2h9.73L362,274a2,2,0,0,0,.18-.46,2,2,0,0,0,.09-.52,4.22,4.22,0,0,0-.49-2.09,3.58,3.58,0,0,0-1.34-1.39,3.93,3.93,0,0,0-2-.5,4.8,4.8,0,0,0-1.82.33,3.65,3.65,0,0,0-1.37.94,4.05,4.05,0,0,0-.85,1.53,7.46,7.46,0,0,0,.2,4.78,3.71,3.71,0,0,0,1.48,1.71,4.49,4.49,0,0,0,2.36.59,4.85,4.85,0,0,0,2.44-.6,5,5,0,0,0,1.8-1.85l1.92,1.21a7.16,7.16,0,0,1-2.67,2.58,7.83,7.83,0,0,1-3.79.87A6.21,6.21,0,0,1,354.76,280.21Z"/><path d="M376.41,270.69a2.37,2.37,0,0,0-1-1.14,3.12,3.12,0,0,0-1.59-.38,3.68,3.68,0,0,0-1.82.43,3,3,0,0,0-1.21,1.19,3.62,3.62,0,0,0-.42,1.77v8.26H368V267.25h2.36v2.13a4.5,4.5,0,0,1,1.69-1.83,4.63,4.63,0,0,1,2.35-.59,4.55,4.55,0,0,1,2.47.65,4.3,4.3,0,0,1,1.61,1.83,6.43,6.43,0,0,1,.58,2.83v8.55h-2.36v-8.26A4.64,4.64,0,0,0,376.41,270.69Z"/><path d="M176.46,305.63a6.42,6.42,0,0,1,2.45-2.43,6.78,6.78,0,0,1,3.36-.86,5.31,5.31,0,0,1,2.31.49,5,5,0,0,1,1.8,1.4,6.7,6.7,0,0,1,1.17,2.22,10.11,10.11,0,0,1,.41,3,10,10,0,0,1-.41,3,6.65,6.65,0,0,1-1.17,2.23,5.11,5.11,0,0,1-1.8,1.4,5.46,5.46,0,0,1-2.31.48,6.77,6.77,0,0,1-3.36-.85,6.41,6.41,0,0,1-2.45-2.45,8.31,8.31,0,0,1,0-7.56Zm2.11,6.44a4.19,4.19,0,0,0,1.69,1.65,4.8,4.8,0,0,0,2.3.56,4,4,0,0,0,1.54-.32,4.57,4.57,0,0,0,1.4-.95,4.5,4.5,0,0,0,1-1.51,5.74,5.74,0,0,0,0-4.16,4.5,4.5,0,0,0-2.41-2.46,3.88,3.88,0,0,0-1.54-.33,4.92,4.92,0,0,0-2.3.56,4.32,4.32,0,0,0-1.69,1.65,5.83,5.83,0,0,0,0,5.31Zm10.69-18.87v23H186.9v-23Z"/><path d="M195.43,315.59a6.15,6.15,0,0,1-2.27-2.49,8,8,0,0,1-.81-3.68,8.26,8.26,0,0,1,.49-2.89,6.39,6.39,0,0,1,1.37-2.23,6.13,6.13,0,0,1,2.12-1.44,7,7,0,0,1,2.75-.52,6.66,6.66,0,0,1,3.43.84,5.57,5.57,0,0,1,2.2,2.4,8.43,8.43,0,0,1,.76,3.72c0,.14,0,.28,0,.43s0,.24,0,.28H193.86v-2h9.73l-1,1.36a2,2,0,0,0,.18-.46,1.89,1.89,0,0,0,.09-.51,4.23,4.23,0,0,0-.49-2.1,3.49,3.49,0,0,0-1.34-1.38,3.83,3.83,0,0,0-2-.5,4.8,4.8,0,0,0-1.82.32,3.69,3.69,0,0,0-1.37.94,4.18,4.18,0,0,0-.85,1.54,6.56,6.56,0,0,0-.3,2.06,6.66,6.66,0,0,0,.5,2.71,3.71,3.71,0,0,0,1.48,1.71,4.4,4.4,0,0,0,2.36.59,4.85,4.85,0,0,0,2.44-.6,4.93,4.93,0,0,0,1.8-1.85l1.92,1.21a7.16,7.16,0,0,1-2.67,2.58,7.83,7.83,0,0,1-3.79.87A6.27,6.27,0,0,1,195.43,315.59Z"/><path d="M227.29,316.2h-2.36v-8.26a5.39,5.39,0,0,0-.28-1.91,2.19,2.19,0,0,0-.85-1.11,2.72,2.72,0,0,0-1.46-.37,3.42,3.42,0,0,0-1.68.4,2.63,2.63,0,0,0-1.09,1.17,4,4,0,0,0-.39,1.82v8.26h-2.36v-8.26a5.39,5.39,0,0,0-.28-1.91,2.19,2.19,0,0,0-.85-1.11,2.7,2.7,0,0,0-1.46-.37,3.42,3.42,0,0,0-1.68.4,2.63,2.63,0,0,0-1.09,1.17,4,4,0,0,0-.38,1.82v8.26h-2.36V302.64h2.36v2a4.85,4.85,0,0,1,.95-1.27,3.83,3.83,0,0,1,1.26-.75,4.47,4.47,0,0,1,1.53-.25,4.65,4.65,0,0,1,1.71.3,3.83,3.83,0,0,1,1.34.85,3.54,3.54,0,0,1,.87,1.39,5,5,0,0,1,1.77-1.91,4.65,4.65,0,0,1,2.42-.63,4.34,4.34,0,0,1,2.36.62,4,4,0,0,1,1.49,1.81,7.34,7.34,0,0,1,.51,2.88Z"/><path d="M231.46,305.76a6.77,6.77,0,0,1,2.53-2.51,7.48,7.48,0,0,1,7.15,0,6.84,6.84,0,0,1,2.5,2.51,7.63,7.63,0,0,1,0,7.3,6.79,6.79,0,0,1-2.5,2.52,7.48,7.48,0,0,1-7.15,0,6.73,6.73,0,0,1-2.53-2.52,7.7,7.7,0,0,1,0-7.3Zm2.07,6.16a4.67,4.67,0,0,0,6.4,1.73,4.65,4.65,0,0,0,1.65-1.73,5.08,5.08,0,0,0,.6-2.5,5.16,5.16,0,0,0-.6-2.52,4.51,4.51,0,0,0-1.65-1.73,4.86,4.86,0,0,0-4.75,0,4.37,4.37,0,0,0-1.65,1.73,5.16,5.16,0,0,0-.61,2.52A5.09,5.09,0,0,0,233.53,311.92Z"/><path d="M249.48,311.92a4.46,4.46,0,0,0,4,2.36,6,6,0,0,0,2.05-.34,5.47,5.47,0,0,0,1.67-.91,3.37,3.37,0,0,0,1-1.22v2.94a4.59,4.59,0,0,1-2,1.29,8.22,8.22,0,0,1-2.7.45,7,7,0,0,1-3.56-.91,6.7,6.7,0,0,1-2.52-2.52,7.63,7.63,0,0,1,0-7.3,6.75,6.75,0,0,1,2.52-2.51,7.12,7.12,0,0,1,3.56-.91,8,8,0,0,1,2.7.46,4.49,4.49,0,0,1,2,1.28V307a3.2,3.2,0,0,0-1-1.24,5.92,5.92,0,0,0-1.67-.9,6.25,6.25,0,0,0-2.05-.34,4.6,4.6,0,0,0-2.37.62,4.37,4.37,0,0,0-1.65,1.73,5.16,5.16,0,0,0-.6,2.52A5.08,5.08,0,0,0,249.48,311.92Z"/><path d="M264.27,316.2h-2.36V302.64h2.36Zm3.24-11.49a2.69,2.69,0,0,0-1-.16,2.07,2.07,0,0,0-1.39.44,2.38,2.38,0,0,0-.69,1.21,7.08,7.08,0,0,0-.19,1.74h-1.06a6.84,6.84,0,0,1,.57-2.87,5.29,5.29,0,0,1,1.49-2,3,3,0,0,1,1.86-.74,5,5,0,0,1,1.37.19,2.7,2.7,0,0,1,1.16.75l-1.29,2A4.18,4.18,0,0,0,267.51,304.71Z"/><path d="M273.45,313.34a2.32,2.32,0,0,0,1,.84,3.85,3.85,0,0,0,1.52.28,4.31,4.31,0,0,0,2-.44,3.59,3.59,0,0,0,1.39-1.26,3.43,3.43,0,0,0,.51-1.87l.48,1.77a3.06,3.06,0,0,1-.79,2.15,4.72,4.72,0,0,1-1.91,1.27,6.47,6.47,0,0,1-2.26.41,5.31,5.31,0,0,1-2.31-.51,4.31,4.31,0,0,1-1.73-1.49,4.18,4.18,0,0,1,1.82-6.18,6.82,6.82,0,0,1,2.84-.54,7.56,7.56,0,0,1,2.46.34,6,6,0,0,1,1.58.76,4.46,4.46,0,0,1,.8.7V311a7.43,7.43,0,0,0-2.13-1,8.69,8.69,0,0,0-2.33-.31,4.94,4.94,0,0,0-1.87.3,2.28,2.28,0,0,0-1.07.82,2.23,2.23,0,0,0-.36,1.27A2.33,2.33,0,0,0,273.45,313.34ZM271.58,304a10.83,10.83,0,0,1,2.11-1.12,8.42,8.42,0,0,1,3.23-.56,7.19,7.19,0,0,1,2.78.49,4.11,4.11,0,0,1,1.86,1.4,3.71,3.71,0,0,1,.66,2.24v9.73h-2.36v-9.41a2.6,2.6,0,0,0-.23-1.16,1.73,1.73,0,0,0-.67-.72,3,3,0,0,0-1-.39,5.69,5.69,0,0,0-1.18-.11,6.43,6.43,0,0,0-1.82.23,6.83,6.83,0,0,0-1.37.56c-.37.22-.66.4-.88.56Z"/><path d="M290.92,302.64v2.21h-6.78v-2.21Zm-2.21-4.72V316.2h-2.36V297.92Z"/><path d="M293.77,295.88a1.62,1.62,0,0,1,2.28,0,1.62,1.62,0,1,1-2.77,1.15A1.54,1.54,0,0,1,293.77,295.88Zm2.31,6.76V316.2h-2.36V302.64Z"/><path d="M302.45,313.19a3.8,3.8,0,0,0,1.22.84,3.63,3.63,0,0,0,1.52.31,2.44,2.44,0,0,0,1.58-.46,1.51,1.51,0,0,0,.57-1.25,1.68,1.68,0,0,0-.45-1.19,4,4,0,0,0-1.17-.83c-.47-.22-1-.44-1.5-.63a19.12,19.12,0,0,1-1.79-.84,4.75,4.75,0,0,1-1.5-1.27,3.51,3.51,0,0,1,0-4,3.77,3.77,0,0,1,1.65-1.18,6.06,6.06,0,0,1,2.11-.38,5.78,5.78,0,0,1,2,.36,5.67,5.67,0,0,1,1.69.94,4.32,4.32,0,0,1,1.15,1.35l-1.88,1.21a4.7,4.7,0,0,0-1.4-1.26,3.62,3.62,0,0,0-1.91-.51,2.32,2.32,0,0,0-1.26.33,1.08,1.08,0,0,0-.53,1,1.25,1.25,0,0,0,.41.94,3.76,3.76,0,0,0,1.06.74c.43.22.89.43,1.36.62a18.71,18.71,0,0,1,2.15,1,4.91,4.91,0,0,1,1.55,1.31,3.23,3.23,0,0,1,.57,2,3.84,3.84,0,0,1-.59,2.1,4.25,4.25,0,0,1-1.63,1.48,5.25,5.25,0,0,1-2.44.54,6,6,0,0,1-2.44-.48,5.88,5.88,0,0,1-1.85-1.26,5.8,5.8,0,0,1-1.13-1.56l1.86-1.15A7.38,7.38,0,0,0,302.45,313.19Z"/><path d="M314.49,311.92a4.6,4.6,0,0,0,1.66,1.73,4.47,4.47,0,0,0,2.37.63,6,6,0,0,0,2.05-.34,5.42,5.42,0,0,0,1.66-.91,3.41,3.41,0,0,0,1-1.22v2.94a4.71,4.71,0,0,1-2,1.29,8.31,8.31,0,0,1-2.7.45,7,7,0,0,1-3.57-.91,6.77,6.77,0,0,1-2.52-2.52,7.63,7.63,0,0,1,0-7.3,6.82,6.82,0,0,1,2.52-2.51,7.13,7.13,0,0,1,3.57-.91,8.06,8.06,0,0,1,2.7.46,4.6,4.6,0,0,1,2,1.28V307a3.23,3.23,0,0,0-1-1.24,5.86,5.86,0,0,0-1.66-.9,6.25,6.25,0,0,0-2.05-.34,4.55,4.55,0,0,0-2.37.62,4.46,4.46,0,0,0-1.66,1.73,5.16,5.16,0,0,0-.6,2.52A5.08,5.08,0,0,0,314.49,311.92Z"/><path d="M329.28,316.2h-2.36v-23h2.36Zm6-10.13a2.39,2.39,0,0,0-1-1.13,3,3,0,0,0-1.61-.39,3.65,3.65,0,0,0-1.81.44,3.13,3.13,0,0,0-1.21,1.21,3.45,3.45,0,0,0-.43,1.74h-.77a6.41,6.41,0,0,1,.62-2.87,5.1,5.1,0,0,1,1.7-2,4.32,4.32,0,0,1,2.49-.74,5,5,0,0,1,2.46.59,3.88,3.88,0,0,1,1.62,1.77,6.63,6.63,0,0,1,.58,2.95v8.55h-2.36v-8.26A4.86,4.86,0,0,0,335.3,306.07Z"/><path d="M344.3,315.59A6.15,6.15,0,0,1,342,313.1a8.77,8.77,0,0,1-.32-6.57,6.39,6.39,0,0,1,1.37-2.23,6.13,6.13,0,0,1,2.12-1.44,7,7,0,0,1,2.75-.52,6.66,6.66,0,0,1,3.43.84,5.57,5.57,0,0,1,2.2,2.4,8.43,8.43,0,0,1,.76,3.72c0,.14,0,.28,0,.43s0,.24,0,.28H342.73v-2h9.73l-.95,1.36a2,2,0,0,0,.18-.46,1.89,1.89,0,0,0,.09-.51,4.23,4.23,0,0,0-.49-2.1,3.49,3.49,0,0,0-1.34-1.38,3.83,3.83,0,0,0-2-.5,4.8,4.8,0,0,0-1.82.32,3.69,3.69,0,0,0-1.37.94,4.18,4.18,0,0,0-.85,1.54,6.56,6.56,0,0,0-.3,2.06,6.66,6.66,0,0,0,.5,2.71,3.71,3.71,0,0,0,1.48,1.71,4.38,4.38,0,0,0,2.36.59,4.88,4.88,0,0,0,2.44-.6,4.93,4.93,0,0,0,1.8-1.85l1.92,1.21a7.16,7.16,0,0,1-2.67,2.58,7.86,7.86,0,0,1-3.79.87A6.27,6.27,0,0,1,344.3,315.59Z"/><path d="M220.85,351.58h-2.36v-8.25a5.41,5.41,0,0,0-.28-1.92,2.25,2.25,0,0,0-.85-1.11,2.72,2.72,0,0,0-1.46-.36,3.42,3.42,0,0,0-1.68.39,2.71,2.71,0,0,0-1.1,1.17,4.12,4.12,0,0,0-.38,1.83v8.25h-2.36v-8.25a5.41,5.41,0,0,0-.28-1.92,2.19,2.19,0,0,0-.85-1.11,2.72,2.72,0,0,0-1.46-.36,3.42,3.42,0,0,0-1.68.39A2.69,2.69,0,0,0,205,341.5a4,4,0,0,0-.39,1.83v8.25h-2.36V338h2.36v2a4.87,4.87,0,0,1,1-1.26,3.56,3.56,0,0,1,1.25-.76,4.83,4.83,0,0,1,1.54-.25,4.65,4.65,0,0,1,1.71.3,4,4,0,0,1,1.34.85,3.74,3.74,0,0,1,.87,1.39,4.87,4.87,0,0,1,1.77-1.9,4.65,4.65,0,0,1,2.42-.64,4.34,4.34,0,0,1,2.36.62,4,4,0,0,1,1.48,1.82,7.08,7.08,0,0,1,.52,2.87Z"/><path d="M226.7,348.72a2.17,2.17,0,0,0,1,.84,3.77,3.77,0,0,0,1.51.28,4.19,4.19,0,0,0,2-.44,3.43,3.43,0,0,0,1.39-1.25,3.47,3.47,0,0,0,.52-1.88l.47,1.77a3.08,3.08,0,0,1-.78,2.16,4.73,4.73,0,0,1-1.92,1.26,6.49,6.49,0,0,1-2.26.42,5.35,5.35,0,0,1-2.31-.52,4.24,4.24,0,0,1-1.73-1.49,4.18,4.18,0,0,1,1.82-6.18,6.82,6.82,0,0,1,2.84-.54,7.59,7.59,0,0,1,2.47.34,6,6,0,0,1,1.57.76,4.12,4.12,0,0,1,.8.7v1.38a7.2,7.2,0,0,0-2.12-1,8.41,8.41,0,0,0-2.33-.31,5.23,5.23,0,0,0-1.88.29,2.23,2.23,0,0,0-1.07.83,2.18,2.18,0,0,0-.36,1.27A2.38,2.38,0,0,0,226.7,348.72Zm-1.87-9.32a10.83,10.83,0,0,1,2.11-1.12,8.42,8.42,0,0,1,3.23-.56,7.38,7.38,0,0,1,2.78.49,4.11,4.11,0,0,1,1.86,1.4,3.73,3.73,0,0,1,.66,2.24v9.73h-2.35v-9.4a2.51,2.51,0,0,0-.24-1.17,1.91,1.91,0,0,0-.66-.72,2.88,2.88,0,0,0-1-.38,5.62,5.62,0,0,0-1.18-.12,6.73,6.73,0,0,0-1.81.23,6.59,6.59,0,0,0-1.37.56c-.38.22-.67.41-.89.56Z"/><path d="M247.83,341.45a2.35,2.35,0,0,0-1-1.13,3.08,3.08,0,0,0-1.6-.38,3.75,3.75,0,0,0-1.81.42,3.1,3.1,0,0,0-1.21,1.2,3.62,3.62,0,0,0-.43,1.77v8.25h-2.36V338h2.36v2.12a4.73,4.73,0,0,1,1.7-1.83,5,5,0,0,1,4.82.06,4.42,4.42,0,0,1,1.61,1.83,6.46,6.46,0,0,1,.57,2.83v8.55h-2.36v-8.25A4.88,4.88,0,0,0,247.83,341.45Z"/><path d="M255.42,331.27a1.62,1.62,0,0,1,2.29,2.28,1.58,1.58,0,0,1-2.29,0,1.56,1.56,0,0,1-.49-1.13A1.54,1.54,0,0,1,255.42,331.27Zm2.32,6.75v13.56h-2.36V338Z"/><path d="M264.5,351a6.15,6.15,0,0,1-2.27-2.49,8.79,8.79,0,0,1-.32-6.58,6.48,6.48,0,0,1,1.37-2.23,6.27,6.27,0,0,1,2.12-1.44,7.15,7.15,0,0,1,2.74-.52,6.69,6.69,0,0,1,3.44.84,5.65,5.65,0,0,1,2.2,2.41,8.36,8.36,0,0,1,.76,3.71c0,.14,0,.28,0,.43s0,.24,0,.28H262.92v-2h9.74l-1,1.36a2,2,0,0,0,.18-.46,1.83,1.83,0,0,0,.09-.51,4.23,4.23,0,0,0-.49-2.1,3.49,3.49,0,0,0-1.34-1.38,3.85,3.85,0,0,0-2-.5,5,5,0,0,0-1.81.32,3.6,3.6,0,0,0-1.37.95,4.21,4.21,0,0,0-.86,1.53,6.93,6.93,0,0,0-.29,2.06,6.74,6.74,0,0,0,.5,2.72,3.8,3.8,0,0,0,1.47,1.71,4.51,4.51,0,0,0,2.36.58,4.89,4.89,0,0,0,2.45-.6,5,5,0,0,0,1.8-1.84l1.92,1.21a7.16,7.16,0,0,1-2.67,2.58,7.86,7.86,0,0,1-3.79.87A6.27,6.27,0,0,1,264.5,351Z"/><path d="M280.14,351.58h-2.35V338h2.35Zm3.25-11.48a2.51,2.51,0,0,0-1-.16,2,2,0,0,0-1.38.44,2.21,2.21,0,0,0-.69,1.21,7.05,7.05,0,0,0-.2,1.74h-1.06a6.73,6.73,0,0,1,.58-2.88,5.38,5.38,0,0,1,1.49-2,2.94,2.94,0,0,1,1.85-.74,4.7,4.7,0,0,1,1.38.2,2.52,2.52,0,0,1,1.16.75l-1.3,1.94A4.53,4.53,0,0,0,283.39,340.1Z"/><path d="M297.42,334.69a3.48,3.48,0,0,0-1.5-1.36,5.3,5.3,0,0,0-2.3-.47,4.62,4.62,0,0,0-2.52.66,5.3,5.3,0,0,0-1.73,1.79l-1.91-1.21a10,10,0,0,1,1.5-1.82,5.57,5.57,0,0,1,2-1.2,8.63,8.63,0,0,1,2.93-.43,6.58,6.58,0,0,1,2.55.47,6.21,6.21,0,0,1,2,1.31,6.05,6.05,0,0,1,1.84,4.41,5.49,5.49,0,0,1-.88,3.05,7,7,0,0,1-2.3,2.21,6.67,6.67,0,0,1-3.07.93l-.21,3.54h-1.76l-.59-5.16h.76a6.41,6.41,0,0,0,3-.68,5.3,5.3,0,0,0,1.95-1.72,4,4,0,0,0,.67-2.17A4,4,0,0,0,297.42,334.69Zm-5.5,14.56a1.62,1.62,0,0,1,1.14-.47,1.6,1.6,0,0,1,1.62,1.62,1.62,1.62,0,0,1-.47,1.14,1.56,1.56,0,0,1-1.15.48,1.64,1.64,0,0,1-1.62-1.62A1.56,1.56,0,0,1,291.92,349.25Z"/><path d="M312.87,339.2v-2.36l15,6.49v1.32l-15,6.49v-2.36L324,344.12Z"/></g></g></svg>