<?xml version="1.0" encoding="utf-8"?>
<!-- Generator: Adobe Illustrator 26.0.1, SVG Export Plug-In . SVG Version: 6.00 Build 0)  -->
<svg version="1.1" id="visual" xmlns="http://www.w3.org/2000/svg" xmlns:xlink="http://www.w3.org/1999/xlink" x="0px" y="0px"
	 viewBox="0 0 40 40" style="enable-background:new 0 0 40 40;" xml:space="preserve">
<style type="text/css">
	.st0{fill:#FFFFFF;}
</style>
<g transform="translate(439.44049986008423 305.45099957816177)">
	<path class="st0" d="M-407.5-302.4c3.6,2.1,6.1,6.3,7.3,10.7c1.2,4.4,1,9-0.5,13.1c-1.5,4-4.4,7.5-8,9.5c-3.5,2.1-7.7,2.8-11.5,2.4
		c-3.9-0.4-7.4-2-10.8-4.1c-3.5-2.1-6.8-4.7-7.9-8.1c-1.1-3.4,0.1-7.5,1.5-11.3c1.5-3.8,3.3-7.3,6.2-9.7c2.9-2.4,6.8-3.6,11.1-4.2
		C-415.8-304.6-411.1-304.5-407.5-302.4"/>
</g>
</svg>
