<svg xmlns="http://www.w3.org/2000/svg" viewBox="0 0 477.5 444.25"><defs><style>.cls-1{fill:#ff9700;}.cls-2{font-size:60px;font-family:CooperBlack, Cooper Black;}</style></defs><g id="Layer_2" data-name="Layer 2"><g id="Layer_1-2" data-name="Layer 1"><path class="cls-1" d="M299.43,0C337,1.44,368.38,8.21,397.35,24.55c28.17,15.89,48,39.33,61.79,68.11A184,184,0,0,1,477,186.79c-1.8,25.35-9,49.47-20.05,72.23A1073,1073,0,0,1,378.7,394.21c-10.92,16.07-24.14,30.19-41.36,40-13.43,7.63-27.92,10.46-43.19,10-28.06-.82-54.26-9.51-80.18-19.21-38.05-14.23-75.9-29-110.7-50.34C60.55,348.45,28.18,313.19,10,265.93,0,240-3.63,213.48,4.36,186.23c5-16.91,14.16-31.47,25.15-45,14.8-18.26,32.41-33.57,51-47.75,34.08-26,69.52-50,108.6-68C216.48,12.73,245,4.07,275.15,1.26,284.76.37,294.44.25,299.43,0Z"/><text class="cls-2" transform="translate(181.16 109.99)">TIMON</text><path d="M174.31,261v20.64h-2.5V261Zm-1.12,8.26h14.15v2.35H173.19Zm15-8.26v20.64h-2.51V261Z"/><path d="M192.49,271.18a6.72,6.72,0,0,1,2.52-2.5,7.41,7.41,0,0,1,7.15,0,6.76,6.76,0,0,1,2.51,2.5,7.63,7.63,0,0,1,0,7.3,6.82,6.82,0,0,1-2.51,2.52,7.48,7.48,0,0,1-7.15,0,6.77,6.77,0,0,1-2.52-2.52,7.63,7.63,0,0,1,0-7.3Zm2.06,6.16a4.65,4.65,0,0,0,1.65,1.73,4.58,4.58,0,0,0,6.4-1.73,5,5,0,0,0,.61-2.5,5.06,5.06,0,0,0-.61-2.52,4.43,4.43,0,0,0-1.65-1.73,4.58,4.58,0,0,0-6.4,1.73,5.16,5.16,0,0,0-.6,2.52A5.08,5.08,0,0,0,194.55,277.34Z"/><path d="M210.74,281a6.11,6.11,0,0,1-2.27-2.5,8.77,8.77,0,0,1-.32-6.57,6.39,6.39,0,0,1,1.37-2.23,6.13,6.13,0,0,1,2.12-1.44,7,7,0,0,1,2.74-.52,6.69,6.69,0,0,1,3.44.84A5.52,5.52,0,0,1,220,271a8.22,8.22,0,0,1,.77,3.71c0,.14,0,.28,0,.43s0,.24,0,.28H209.16v-2h9.73l-.94,1.36a2,2,0,0,0,.18-.46,1.89,1.89,0,0,0,.09-.51,4.34,4.34,0,0,0-.49-2.1,3.49,3.49,0,0,0-1.34-1.38,3.85,3.85,0,0,0-2-.5,4.75,4.75,0,0,0-1.81.32,3.69,3.69,0,0,0-1.37.94,4.34,4.34,0,0,0-.86,1.54,6.88,6.88,0,0,0-.29,2.06,6.49,6.49,0,0,0,.5,2.71,3.64,3.64,0,0,0,1.47,1.71,4.42,4.42,0,0,0,2.36.59,4.89,4.89,0,0,0,2.45-.6,5,5,0,0,0,1.8-1.84l1.91,1.2a7,7,0,0,1-2.66,2.58,7.86,7.86,0,0,1-3.79.87A6.33,6.33,0,0,1,210.74,281Z"/><path d="M232,270.27v-2.21h11.79l-8.4,11.35h7.81v2.21H231.1l8.4-11.35Z"/><path d="M246.92,261.3a1.58,1.58,0,0,1,1.13-.47,1.61,1.61,0,0,1,1.15,2.76,1.54,1.54,0,0,1-1.15.49,1.56,1.56,0,0,1-1.13-.49,1.58,1.58,0,0,1,0-2.29Zm2.31,6.76v13.56h-2.36V268.06Z"/><path d="M256,281a6.11,6.11,0,0,1-2.27-2.5,8.77,8.77,0,0,1-.32-6.57,6.39,6.39,0,0,1,1.37-2.23,6,6,0,0,1,2.12-1.44,7,7,0,0,1,2.74-.52,6.69,6.69,0,0,1,3.44.84,5.52,5.52,0,0,1,2.19,2.41,8.35,8.35,0,0,1,.77,3.71c0,.14,0,.28,0,.43s0,.24,0,.28H254.42v-2h9.73l-.94,1.36a2,2,0,0,0,.18-.46,1.89,1.89,0,0,0,.09-.51,4.34,4.34,0,0,0-.49-2.1,3.56,3.56,0,0,0-1.34-1.38,3.85,3.85,0,0,0-2-.5,4.75,4.75,0,0,0-1.81.32,3.69,3.69,0,0,0-1.37.94,4.19,4.19,0,0,0-.86,1.54,6.88,6.88,0,0,0-.29,2.06,6.49,6.49,0,0,0,.5,2.71,3.64,3.64,0,0,0,1.47,1.71,4.42,4.42,0,0,0,2.36.59,4.89,4.89,0,0,0,2.45-.6,5,5,0,0,0,1.8-1.84l1.91,1.2a7,7,0,0,1-2.66,2.58,7.88,7.88,0,0,1-3.79.87A6.33,6.33,0,0,1,256,281Z"/><path d="M274,268.06v2.21h-6.78v-2.21Zm-2.21-4.72v18.28h-2.36V263.34Z"/><path d="M285,271.18a6.67,6.67,0,0,1,2.53-2.5,7.39,7.39,0,0,1,7.14,0,6.69,6.69,0,0,1,2.51,2.5,7.63,7.63,0,0,1,0,7.3,6.75,6.75,0,0,1-2.51,2.52,7.46,7.46,0,0,1-7.14,0,6.73,6.73,0,0,1-2.53-2.52,7.7,7.7,0,0,1,0-7.3Zm2.07,6.16a4.67,4.67,0,0,0,6.4,1.73,4.65,4.65,0,0,0,1.65-1.73,5.08,5.08,0,0,0,.6-2.5,5.16,5.16,0,0,0-.6-2.52,4.7,4.7,0,0,0-6.4-1.73,4.43,4.43,0,0,0-1.65,1.73,5.16,5.16,0,0,0-.61,2.52A5.09,5.09,0,0,0,287,277.34Z"/><path d="M309.68,271.49a2.32,2.32,0,0,0-1-1.13,3,3,0,0,0-1.59-.39,3.75,3.75,0,0,0-1.81.43,3,3,0,0,0-1.21,1.19,3.57,3.57,0,0,0-.43,1.77v8.26H301.3V268.06h2.36v2.12a4.52,4.52,0,0,1,1.7-1.83,5,5,0,0,1,4.82.06,4.27,4.27,0,0,1,1.6,1.83,6.29,6.29,0,0,1,.58,2.83v8.55H310v-8.26A4.86,4.86,0,0,0,309.68,271.49Z"/><path d="M315.9,270.27v-2.21h11.79l-8.4,11.35h7.81v2.21H315l8.41-11.35Z"/><path d="M331.81,281a6.13,6.13,0,0,1-2.28-2.5,8,8,0,0,1-.81-3.68,8.26,8.26,0,0,1,.49-2.89,6.39,6.39,0,0,1,1.37-2.23,6.13,6.13,0,0,1,2.12-1.44,7,7,0,0,1,2.75-.52,6.66,6.66,0,0,1,3.43.84,5.48,5.48,0,0,1,2.2,2.41,8.35,8.35,0,0,1,.77,3.71c0,.14,0,.28,0,.43s0,.24,0,.28H330.23v-2H340l-.95,1.36a2,2,0,0,0,.18-.46,1.89,1.89,0,0,0,.09-.51,4.23,4.23,0,0,0-.49-2.1,3.49,3.49,0,0,0-1.34-1.38,3.83,3.83,0,0,0-2-.5,4.8,4.8,0,0,0-1.82.32,3.77,3.77,0,0,0-1.37.94,4.18,4.18,0,0,0-.85,1.54,6.56,6.56,0,0,0-.3,2.06,6.66,6.66,0,0,0,.5,2.71,3.71,3.71,0,0,0,1.48,1.71,4.4,4.4,0,0,0,2.36.59,4.85,4.85,0,0,0,2.44-.6,5,5,0,0,0,1.8-1.84l1.92,1.2a7.08,7.08,0,0,1-2.67,2.58,7.83,7.83,0,0,1-3.79.87A6.29,6.29,0,0,1,331.81,281Z"/><path d="M136.93,312.73a4.54,4.54,0,0,0,1.65,1.72,4.5,4.5,0,0,0,2.37.64,6.25,6.25,0,0,0,2.05-.34,5.44,5.44,0,0,0,1.66-.92,3.41,3.41,0,0,0,1-1.22v2.95a4.54,4.54,0,0,1-2,1.28,8.06,8.06,0,0,1-2.7.46,7,7,0,0,1-3.57-.92,6.77,6.77,0,0,1-2.52-2.52,7.63,7.63,0,0,1,0-7.3,6.79,6.79,0,0,1,2.52-2.5,7,7,0,0,1,3.57-.92,8.32,8.32,0,0,1,2.7.46,4.63,4.63,0,0,1,2,1.28v2.95a3.3,3.3,0,0,0-1-1.24,5.86,5.86,0,0,0-1.66-.9,6.25,6.25,0,0,0-2.05-.33,4.49,4.49,0,0,0-2.37.62,4.34,4.34,0,0,0-1.65,1.72,5.11,5.11,0,0,0-.61,2.52A5,5,0,0,0,136.93,312.73Z"/><path d="M149.1,306.56a6.79,6.79,0,0,1,2.52-2.5,7.41,7.41,0,0,1,7.15,0,6.77,6.77,0,0,1,2.51,2.5,7.63,7.63,0,0,1,0,7.3,6.75,6.75,0,0,1-2.51,2.52,7.41,7.41,0,0,1-7.15,0,6.77,6.77,0,0,1-2.52-2.52,7.63,7.63,0,0,1,0-7.3Zm2.07,6.17a4.52,4.52,0,0,0,4,2.36,4.47,4.47,0,0,0,2.37-.64,4.65,4.65,0,0,0,1.66-1.72,5.15,5.15,0,0,0,.6-2.51,5.21,5.21,0,0,0-.6-2.52,4.48,4.48,0,0,0-4-2.34,4.51,4.51,0,0,0-2.37.62,4.34,4.34,0,0,0-1.65,1.72,5.11,5.11,0,0,0-.61,2.52A5,5,0,0,0,151.17,312.73Z"/><path d="M184,317h-2.36v-8.25a5.41,5.41,0,0,0-.28-1.92,2.21,2.21,0,0,0-.86-1.11,2.7,2.7,0,0,0-1.46-.36,3.47,3.47,0,0,0-1.68.39,2.75,2.75,0,0,0-1.09,1.17,4.12,4.12,0,0,0-.38,1.83V317h-2.36v-8.25a5.41,5.41,0,0,0-.28-1.92,2.21,2.21,0,0,0-.86-1.11,2.66,2.66,0,0,0-1.45-.36,3.49,3.49,0,0,0-1.69.39,2.75,2.75,0,0,0-1.09,1.17,4.12,4.12,0,0,0-.38,1.83V317h-2.36V303.44h2.36v2a4.87,4.87,0,0,1,1-1.26,3.4,3.4,0,0,1,1.25-.75,4.48,4.48,0,0,1,1.54-.26,4.73,4.73,0,0,1,1.71.3,4.08,4.08,0,0,1,1.34.85,3.74,3.74,0,0,1,.87,1.39,4.94,4.94,0,0,1,1.77-1.9,4.62,4.62,0,0,1,2.41-.64,4.32,4.32,0,0,1,2.36.62,3.92,3.92,0,0,1,1.49,1.82,7.08,7.08,0,0,1,.52,2.87Z"/><path d="M207,317h-2.36v-8.25a5.65,5.65,0,0,0-.28-1.92,2.26,2.26,0,0,0-.86-1.11,2.7,2.7,0,0,0-1.46-.36,3.42,3.42,0,0,0-1.68.39,2.75,2.75,0,0,0-1.09,1.17,4,4,0,0,0-.38,1.83V317h-2.36v-8.25a5.41,5.41,0,0,0-.28-1.92,2.21,2.21,0,0,0-.86-1.11,2.7,2.7,0,0,0-1.46-.36,3.45,3.45,0,0,0-1.68.39,2.75,2.75,0,0,0-1.09,1.17,4.12,4.12,0,0,0-.38,1.83V317h-2.36V303.44h2.36v2a4.46,4.46,0,0,1,1-1.26,3.4,3.4,0,0,1,1.25-.75,4.47,4.47,0,0,1,1.53-.26,4.65,4.65,0,0,1,1.71.3,4,4,0,0,1,1.35.85,3.74,3.74,0,0,1,.87,1.39,5,5,0,0,1,1.76-1.9,4.68,4.68,0,0,1,2.42-.64,4.32,4.32,0,0,1,2.36.62,3.92,3.92,0,0,1,1.49,1.82,7.25,7.25,0,0,1,.52,2.87Z"/><path d="M214.13,313.54a2.46,2.46,0,0,0,1,1.15,3,3,0,0,0,1.59.4,3.78,3.78,0,0,0,1.81-.43,3,3,0,0,0,1.21-1.2,3.62,3.62,0,0,0,.43-1.77v-8.25h2.36V317h-2.36v-2.12a4.85,4.85,0,0,1-1.68,1.81,4.44,4.44,0,0,1-2.36.61,4.56,4.56,0,0,1-2.46-.65,4.37,4.37,0,0,1-1.63-1.84,6.51,6.51,0,0,1-.57-2.82v-8.55h2.36v8.25A4.79,4.79,0,0,0,214.13,313.54Z"/><path d="M235.3,306.87a2.3,2.3,0,0,0-1-1.13,3,3,0,0,0-1.59-.38,3.79,3.79,0,0,0-1.82.42,3.1,3.1,0,0,0-1.21,1.2,3.62,3.62,0,0,0-.42,1.77V317h-2.36V303.44h2.36v2.12a4.3,4.3,0,0,1,4-2.42,4.55,4.55,0,0,1,2.47.65,4.41,4.41,0,0,1,1.61,1.83,6.46,6.46,0,0,1,.58,2.83V317h-2.36v-8.25A4.72,4.72,0,0,0,235.3,306.87Z"/><path d="M242.89,296.69a1.58,1.58,0,0,1,1.14-.47,1.54,1.54,0,0,1,1.15.47,1.62,1.62,0,0,1,0,2.28,1.52,1.52,0,0,1-1.15.49,1.62,1.62,0,0,1-1.14-2.77Zm2.32,6.75V317h-2.36V303.44Z"/><path d="M251.74,312.73a4.52,4.52,0,0,0,4,2.36,6.21,6.21,0,0,0,2.05-.34,5.49,5.49,0,0,0,1.67-.92,3.37,3.37,0,0,0,1-1.22v2.95a4.49,4.49,0,0,1-2,1.28,8,8,0,0,1-2.7.46,7,7,0,0,1-3.56-.92,6.77,6.77,0,0,1-2.52-2.52,7.63,7.63,0,0,1,0-7.3,6.79,6.79,0,0,1,2.52-2.5,7,7,0,0,1,3.56-.92,8.23,8.23,0,0,1,2.7.46,4.57,4.57,0,0,1,2,1.28v2.95a3.27,3.27,0,0,0-1-1.24,5.92,5.92,0,0,0-1.67-.9,6.21,6.21,0,0,0-2.05-.33,4.51,4.51,0,0,0-2.37.62,4.34,4.34,0,0,0-1.65,1.72,5.21,5.21,0,0,0-.6,2.52A5.15,5.15,0,0,0,251.74,312.73Z"/><path d="M265.6,314.14a2.14,2.14,0,0,0,1,.84,3.82,3.82,0,0,0,1.52.28,4.19,4.19,0,0,0,2-.44,3.42,3.42,0,0,0,1.9-3.13l.47,1.77a3.08,3.08,0,0,1-.78,2.16,4.67,4.67,0,0,1-1.92,1.26,6.39,6.39,0,0,1-2.25.42,5.36,5.36,0,0,1-2.32-.52,4.21,4.21,0,0,1-1.72-1.49,4.17,4.17,0,0,1-.65-2.36,4.08,4.08,0,0,1,.64-2.3,4.23,4.23,0,0,1,1.82-1.52,6.9,6.9,0,0,1,2.85-.54,7.56,7.56,0,0,1,2.46.34,6.12,6.12,0,0,1,1.58.77,3.72,3.72,0,0,1,.79.69v1.38a7,7,0,0,0-2.12-1,8.36,8.36,0,0,0-2.33-.31,5.17,5.17,0,0,0-1.87.29,2.31,2.31,0,0,0-1.08.83,2.26,2.26,0,0,0-.35,1.27A2.3,2.3,0,0,0,265.6,314.14Zm-1.87-9.32a11,11,0,0,1,2.1-1.12,8.45,8.45,0,0,1,3.23-.56,7.47,7.47,0,0,1,2.79.49,4.24,4.24,0,0,1,1.86,1.4,3.73,3.73,0,0,1,.66,2.24V317H272v-9.4a2.65,2.65,0,0,0-.23-1.17,1.86,1.86,0,0,0-.67-.72,2.73,2.73,0,0,0-1-.38,5.55,5.55,0,0,0-1.18-.12,6.79,6.79,0,0,0-1.81.23,6.59,6.59,0,0,0-1.37.56c-.37.22-.67.41-.88.56Z"/><path d="M283.07,303.44v2.21h-6.78v-2.21Zm-2.21-4.72V317H278.5V298.72Z"/><path d="M285.91,296.69a1.58,1.58,0,0,1,1.14-.47,1.55,1.55,0,0,1,1.15.47,1.62,1.62,0,0,1,0,2.28,1.54,1.54,0,0,1-1.15.49,1.62,1.62,0,0,1-1.14-2.77Zm2.32,6.75V317h-2.36V303.44Z"/><path d="M295,316.4a6.15,6.15,0,0,1-2.27-2.49,8,8,0,0,1-.81-3.69,8.3,8.3,0,0,1,.49-2.89,6.48,6.48,0,0,1,1.37-2.23,6.27,6.27,0,0,1,2.12-1.44,7.17,7.17,0,0,1,2.75-.52,6.66,6.66,0,0,1,3.43.84,5.59,5.59,0,0,1,2.2,2.41,8.36,8.36,0,0,1,.76,3.71c0,.14,0,.28,0,.43s0,.24,0,.28H293.42v-2h9.73l-.95,1.35a2,2,0,0,0,.18-.46,1.83,1.83,0,0,0,.09-.51,4.19,4.19,0,0,0-.49-2.09,3.51,3.51,0,0,0-1.34-1.39,3.93,3.93,0,0,0-2-.5,5,5,0,0,0-1.82.32,3.6,3.6,0,0,0-1.37,1,4.05,4.05,0,0,0-.85,1.53,6.61,6.61,0,0,0-.3,2.06,6.71,6.71,0,0,0,.5,2.72,3.82,3.82,0,0,0,1.48,1.71,4.49,4.49,0,0,0,2.36.59,4.88,4.88,0,0,0,2.44-.61,5,5,0,0,0,1.8-1.84l1.92,1.21a7.16,7.16,0,0,1-2.67,2.58,7.86,7.86,0,0,1-3.79.87A6.27,6.27,0,0,1,295,316.4Z"/><path d="M319,316.4a6.15,6.15,0,0,1-2.27-2.49,8,8,0,0,1-.81-3.69,8.3,8.3,0,0,1,.49-2.89,6.48,6.48,0,0,1,1.37-2.23,6.27,6.27,0,0,1,2.12-1.44,7.17,7.17,0,0,1,2.75-.52,6.66,6.66,0,0,1,3.43.84,5.59,5.59,0,0,1,2.2,2.41,8.36,8.36,0,0,1,.76,3.71c0,.14,0,.28,0,.43s0,.24,0,.28H317.45v-2h9.73l-.95,1.35a2,2,0,0,0,.18-.46,1.83,1.83,0,0,0,.09-.51,4.19,4.19,0,0,0-.49-2.09,3.51,3.51,0,0,0-1.34-1.39,3.93,3.93,0,0,0-2-.5,5,5,0,0,0-1.82.32,3.6,3.6,0,0,0-1.37,1,4.05,4.05,0,0,0-.85,1.53,6.61,6.61,0,0,0-.3,2.06,6.71,6.71,0,0,0,.5,2.72,3.82,3.82,0,0,0,1.48,1.71,4.49,4.49,0,0,0,2.36.59,4.85,4.85,0,0,0,2.44-.61,5,5,0,0,0,1.8-1.84l1.92,1.21a7.16,7.16,0,0,1-2.67,2.58,7.83,7.83,0,0,1-3.79.87A6.27,6.27,0,0,1,319,316.4Z"/><path d="M334.67,317h-2.36V303.44h2.36Zm3.24-11.48a2.49,2.49,0,0,0-1-.16,2,2,0,0,0-1.39.44,2.34,2.34,0,0,0-.69,1.21,7.08,7.08,0,0,0-.19,1.74H333.6a6.92,6.92,0,0,1,.58-2.88,5.38,5.38,0,0,1,1.49-2,3,3,0,0,1,1.86-.74,4.68,4.68,0,0,1,1.37.2,2.52,2.52,0,0,1,1.16.75l-1.3,1.94A4.53,4.53,0,0,0,337.91,305.52Z"/><path d="M354,313.54a2.44,2.44,0,0,0,1,1.15,3,3,0,0,0,1.59.4,3.79,3.79,0,0,0,1.82-.43,3,3,0,0,0,1.21-1.2,3.62,3.62,0,0,0,.42-1.77v-8.25h2.36V317H360v-2.12a4.69,4.69,0,0,1-1.68,1.81,4.39,4.39,0,0,1-2.36.61,4.61,4.61,0,0,1-2.46-.65,4.28,4.28,0,0,1-1.62-1.84,6.51,6.51,0,0,1-.57-2.82v-8.55h2.35v8.25A4.6,4.6,0,0,0,354,313.54Z"/><path d="M367.23,296.69a1.62,1.62,0,0,1,2.76,1.15,1.58,1.58,0,0,1-.47,1.13,1.58,1.58,0,0,1-2.29,0,1.57,1.57,0,0,1,0-2.28Zm2.32,6.75V317h-2.36V303.44Z"/><path d="M379.13,303.44v2.21h-6.78v-2.21Zm-2.21-4.72V317h-2.36V298.72Z"/><path d="M146.46,352.38h-2.35v-23h2.35Zm10.44-3a6.4,6.4,0,0,1-2.43,2.44,6.77,6.77,0,0,1-3.38.86,5.35,5.35,0,0,1-2.31-.49,5,5,0,0,1-1.8-1.4,6.5,6.5,0,0,1-1.16-2.22,9.77,9.77,0,0,1-.42-3,9.66,9.66,0,0,1,.42-3,6.55,6.55,0,0,1,1.16-2.23,5.11,5.11,0,0,1,1.8-1.4,5.49,5.49,0,0,1,2.31-.48,6.76,6.76,0,0,1,3.38.85,6.44,6.44,0,0,1,2.43,2.43,8.25,8.25,0,0,1,0,7.57ZM154.79,343a4.16,4.16,0,0,0-1.68-1.65,4.76,4.76,0,0,0-2.31-.56,4,4,0,0,0-1.53.32,4.65,4.65,0,0,0-2.42,2.46,5.74,5.74,0,0,0,0,4.16,4.42,4.42,0,0,0,1,1.52,4.31,4.31,0,0,0,1.4.94,3.84,3.84,0,0,0,1.53.33,4.87,4.87,0,0,0,2.31-.56,4.29,4.29,0,0,0,1.68-1.65,5.83,5.83,0,0,0,0-5.31Z"/><path d="M161.55,332.07a1.61,1.61,0,0,1,2.28,2.28,1.61,1.61,0,1,1-2.28-2.28Zm2.31,6.75v13.56H161.5V338.82Z"/><path d="M177.1,342.26a2.38,2.38,0,0,0-1-1.14,3.18,3.18,0,0,0-1.6-.38,3.67,3.67,0,0,0-1.81.43,3,3,0,0,0-1.21,1.19,3.62,3.62,0,0,0-.43,1.77v8.25h-2.35V338.82h2.35v2.12a4.63,4.63,0,0,1,1.7-1.82,5,5,0,0,1,4.82.06,4.39,4.39,0,0,1,1.61,1.82,6.46,6.46,0,0,1,.57,2.83v8.55h-2.36v-8.25A4.65,4.65,0,0,0,177.1,342.26Z"/><path d="M192.58,342.26a2.38,2.38,0,0,0-1-1.14,3.18,3.18,0,0,0-1.6-.38,3.67,3.67,0,0,0-1.81.43,3,3,0,0,0-1.21,1.19,3.62,3.62,0,0,0-.43,1.77v8.25H184.2V338.82h2.36v2.12a4.63,4.63,0,0,1,1.7-1.82,5,5,0,0,1,4.82.06,4.39,4.39,0,0,1,1.61,1.82,6.46,6.46,0,0,1,.57,2.83v8.55H192.9v-8.25A4.83,4.83,0,0,0,192.58,342.26Z"/><path d="M201.59,351.78a6.08,6.08,0,0,1-2.27-2.49,8,8,0,0,1-.81-3.69,8.3,8.3,0,0,1,.48-2.89,6.59,6.59,0,0,1,1.37-2.22,6.24,6.24,0,0,1,2.13-1.45,7.11,7.11,0,0,1,2.74-.51,6.66,6.66,0,0,1,3.43.84,5.51,5.51,0,0,1,2.2,2.4,8.35,8.35,0,0,1,.77,3.71c0,.14,0,.29,0,.43s0,.24,0,.28H200v-2h9.73l-.94,1.35a2.55,2.55,0,0,0,.17-.45,2,2,0,0,0,.09-.52,4.22,4.22,0,0,0-.49-2.09,3.58,3.58,0,0,0-1.34-1.39,3.93,3.93,0,0,0-2-.5,5,5,0,0,0-1.82.32,3.67,3.67,0,0,0-1.37.95,4.05,4.05,0,0,0-.85,1.53,7.46,7.46,0,0,0,.2,4.78,3.76,3.76,0,0,0,1.48,1.71,4.49,4.49,0,0,0,2.36.59,4.82,4.82,0,0,0,2.45-.61,5,5,0,0,0,1.79-1.84l1.92,1.21a7.16,7.16,0,0,1-2.67,2.58,7.83,7.83,0,0,1-3.79.87A6.21,6.21,0,0,1,201.59,351.78Z"/><path d="M223.24,342.26a2.33,2.33,0,0,0-1-1.14,3.12,3.12,0,0,0-1.59-.38,3.64,3.64,0,0,0-1.81.43,2.89,2.89,0,0,0-1.21,1.19,3.52,3.52,0,0,0-.43,1.77v8.25h-2.36V338.82h2.36v2.12a4.61,4.61,0,0,1,1.69-1.82,4.53,4.53,0,0,1,2.35-.59,4.46,4.46,0,0,1,2.47.65,4.33,4.33,0,0,1,1.61,1.82,6.32,6.32,0,0,1,.58,2.83v8.55h-2.36v-8.25A4.64,4.64,0,0,0,223.24,342.26Z"/><path d="M247.33,342a14.38,14.38,0,0,0,1.17-1.46,6.16,6.16,0,0,0,.73-1.48,4.85,4.85,0,0,0,.26-1.58,3.39,3.39,0,0,0-.27-1.32,3.79,3.79,0,0,0-.78-1.18,4,4,0,0,0-1.25-.86,4.31,4.31,0,0,0-1.69-.32,4.21,4.21,0,0,0-2.28.6,3.86,3.86,0,0,0-1.46,1.74,6.74,6.74,0,0,0-.5,2.7h-2.51a8.93,8.93,0,0,1,.8-3.88,6,6,0,0,1,2.31-2.59,7.68,7.68,0,0,1,6.59-.35,6,6,0,0,1,2,1.47,6.2,6.2,0,0,1,1.18,1.93,5.82,5.82,0,0,1,.38,2,7.1,7.1,0,0,1-.77,3.15,10.81,10.81,0,0,1-2,2.8l-6.58,6.7h9.41v2.35H237.57Z"/><path d="M255.5,337.82a11,11,0,0,1,1.58-3.38,7.32,7.32,0,0,1,2.41-2.21,6.34,6.34,0,0,1,3.12-.78,6.49,6.49,0,0,1,2.53.5,6.73,6.73,0,0,1,2.12,1.45,8.85,8.85,0,0,1,1.63,2.27,12.35,12.35,0,0,1,1,2.93,16.49,16.49,0,0,1,.35,3.46,15.44,15.44,0,0,1-.56,4.25,11,11,0,0,1-1.58,3.38,7.32,7.32,0,0,1-2.41,2.21,6.33,6.33,0,0,1-3.11.78,6.5,6.5,0,0,1-2.54-.5,6.73,6.73,0,0,1-2.12-1.45,8.76,8.76,0,0,1-1.62-2.27,11.94,11.94,0,0,1-1-2.93,16.52,16.52,0,0,1-.35-3.47A15.42,15.42,0,0,1,255.5,337.82Zm2.18,6.94a12.09,12.09,0,0,0,.66,2.29,6.16,6.16,0,0,0,1.07,1.75,4.53,4.53,0,0,0,1.44,1.12,3.89,3.89,0,0,0,1.76.4,3.93,3.93,0,0,0,2.15-.6,5.33,5.33,0,0,0,1.62-1.71,8.81,8.81,0,0,0,1-2.63,15.36,15.36,0,0,0,.12-6,12.09,12.09,0,0,0-.66-2.29,6.16,6.16,0,0,0-1.07-1.75,4.53,4.53,0,0,0-1.44-1.12,3.87,3.87,0,0,0-1.75-.4,4,4,0,0,0-2.14.6,5.28,5.28,0,0,0-1.64,1.71,8.7,8.7,0,0,0-1,2.63,15.89,15.89,0,0,0-.12,6Z"/><path d="M280.4,356.31a1.74,1.74,0,0,0,.84.2,1.25,1.25,0,0,0,.81-.26,1.64,1.64,0,0,0,.46-.86,6.35,6.35,0,0,0,.15-1.53v-15H285v15.33a6.48,6.48,0,0,1-.45,2.54,3.5,3.5,0,0,1-1.35,1.62,3.9,3.9,0,0,1-2.12.56,3.85,3.85,0,0,1-1.06-.13,2.77,2.77,0,0,1-.85-.4,2.8,2.8,0,0,1-.68-.65l1.29-1.94A1.82,1.82,0,0,0,280.4,356.31Zm2.2-24.23a1.59,1.59,0,0,1,2.25,2.26,1.59,1.59,0,1,1-2.25-2.26Z"/><path d="M291.31,349.52a2.14,2.14,0,0,0,1,.84,3.82,3.82,0,0,0,1.52.29,4.19,4.19,0,0,0,2-.45,3.49,3.49,0,0,0,1.39-1.25,3.45,3.45,0,0,0,.51-1.87l.47,1.77a3.07,3.07,0,0,1-.78,2.15,4.79,4.79,0,0,1-1.92,1.27,6.61,6.61,0,0,1-2.25.41,5.15,5.15,0,0,1-2.31-.52,4.06,4.06,0,0,1-2.38-3.85,4,4,0,0,1,.64-2.29A4.16,4.16,0,0,1,291,344.5a6.74,6.74,0,0,1,2.85-.55,7.56,7.56,0,0,1,2.46.34,6.12,6.12,0,0,1,1.58.77,3.72,3.72,0,0,1,.79.69v1.39a6.78,6.78,0,0,0-2.12-1,8.36,8.36,0,0,0-2.33-.31,5.17,5.17,0,0,0-1.87.29,2.38,2.38,0,0,0-1.08.83,2.51,2.51,0,0,0,0,2.59Zm-1.87-9.31a10,10,0,0,1,2.1-1.12,8.26,8.26,0,0,1,3.23-.56,7.48,7.48,0,0,1,2.79.48,4.24,4.24,0,0,1,1.86,1.4,3.73,3.73,0,0,1,.66,2.24v9.73h-2.36V343a2.68,2.68,0,0,0-.23-1.17,1.86,1.86,0,0,0-.67-.72,2.92,2.92,0,0,0-1-.38,5.52,5.52,0,0,0-1.17-.12,6.42,6.42,0,0,0-1.82.24,5.65,5.65,0,0,0-1.37.56,8.19,8.19,0,0,0-.88.56Z"/><path d="M305.49,349.52a2.19,2.19,0,0,0,1,.84,3.82,3.82,0,0,0,1.52.29,4.19,4.19,0,0,0,2-.45,3.49,3.49,0,0,0,1.39-1.25,3.45,3.45,0,0,0,.51-1.87l.48,1.77a3,3,0,0,1-.79,2.15,4.82,4.82,0,0,1-1.91,1.27,6.71,6.71,0,0,1-2.26.41,5.21,5.21,0,0,1-2.31-.52,4.06,4.06,0,0,1-2.38-3.85,4,4,0,0,1,2.47-3.81A6.66,6.66,0,0,1,308,344a7.56,7.56,0,0,1,2.46.34,6,6,0,0,1,1.58.77,4.13,4.13,0,0,1,.8.69v1.39a6.94,6.94,0,0,0-2.13-1,8.31,8.31,0,0,0-2.33-.31,5.17,5.17,0,0,0-1.87.29,2.29,2.29,0,0,0-1.07.83,2.21,2.21,0,0,0-.36,1.27A2.3,2.3,0,0,0,305.49,349.52Zm-1.87-9.31a9.85,9.85,0,0,1,2.11-1.12,8.21,8.21,0,0,1,3.22-.56,7.41,7.41,0,0,1,2.79.48,4.18,4.18,0,0,1,1.86,1.4,3.73,3.73,0,0,1,.66,2.24v9.73H311.9V343a2.54,2.54,0,0,0-.23-1.17,1.86,1.86,0,0,0-.67-.72,3,3,0,0,0-1-.38,5.69,5.69,0,0,0-1.18-.12,6.42,6.42,0,0,0-1.82.24,5.83,5.83,0,0,0-1.37.56,8.19,8.19,0,0,0-.88.56Z"/><path d="M320.6,352.38h-2.36V338.82h2.36Zm3.24-11.48a2.46,2.46,0,0,0-1-.16,2,2,0,0,0-1.38.44,2.32,2.32,0,0,0-.7,1.21,7.08,7.08,0,0,0-.19,1.74h-1.06a6.77,6.77,0,0,1,.58-2.88,5.44,5.44,0,0,1,1.48-2,3,3,0,0,1,1.86-.73,4.63,4.63,0,0,1,1.37.19,2.79,2.79,0,0,1,1.17.75l-1.3,1.95A3.93,3.93,0,0,0,323.84,340.9Z"/><path d="M337.88,335.49a3.53,3.53,0,0,0-1.5-1.36,5.3,5.3,0,0,0-2.3-.47,4.65,4.65,0,0,0-2.53.66,5.46,5.46,0,0,0-1.72,1.79l-1.92-1.21a10.43,10.43,0,0,1,1.51-1.81,5.59,5.59,0,0,1,2-1.21,8.59,8.59,0,0,1,2.93-.43,6.84,6.84,0,0,1,2.55.47,6.38,6.38,0,0,1,2,1.31,6.19,6.19,0,0,1,1.35,2,6,6,0,0,1,.49,2.45,5.5,5.5,0,0,1-.89,3.05,6.76,6.76,0,0,1-2.3,2.21,6.48,6.48,0,0,1-3.06.93l-.21,3.54h-1.77l-.59-5.16h.77a6.29,6.29,0,0,0,3-.68,5.1,5.1,0,0,0,1.94-1.72,4,4,0,0,0,.68-2.17A4.15,4.15,0,0,0,337.88,335.49Zm-5.5,14.57a1.62,1.62,0,0,1,2.76,1.14,1.64,1.64,0,0,1-1.62,1.63,1.67,1.67,0,0,1-1.63-1.63A1.53,1.53,0,0,1,332.38,350.06Z"/><path d="M353.33,340v-2.36l15,6.49v1.33l-15,6.48v-2.36l11.14-4.66Z"/></g></g></svg>