<svg xmlns="http://www.w3.org/2000/svg" viewBox="0 0 509.54 465.51"><defs><style>.cls-1{fill:#dec721;}.cls-2{font-size:48px;font-family:CooperBlack, Cooper Black;}.cls-3{letter-spacing:-0.04em;}</style></defs><g id="Layer_2" data-name="Layer 2"><g id="Layer_1-2" data-name="Layer 1"><path class="cls-1" d="M247.87,464.24c-43.27-.08-83.39-12.42-121.51-31.85-32.74-16.7-62.5-37.65-87.12-65.25-19.89-22.3-34.17-47.47-37.91-77.75a186.66,186.66,0,0,1,2.83-61.13c10.42-50.13,25.05-99,47-145.4C61.45,61,75,41.32,94.49,26.24,111,13.48,129.76,6.49,150,2.9c43.49-7.69,84.74.49,124.61,17.84C302.53,32.88,328,49.38,353.9,65.08,381.8,82,410.29,98,437.48,116c25.91,17.14,47.59,39,59.08,68.71,22.38,57.75,16,112.37-20.28,162.83-19.92,27.74-46,49-74.72,67-32.5,20.41-66.85,36.72-104.68,44.33-16.08,3.23-32.57,4.48-48.88,6.63C248,465.08,247.92,464.66,247.87,464.24Z"/><path d="M115.86,203.21v30.56h-3.72V203.21Zm-1.66,12.22h21v3.5h-21Zm22.18-12.22v30.56h-3.71V203.21Z"/><path d="M142.78,218.32a10,10,0,0,1,3.73-3.72,11.06,11.06,0,0,1,10.59,0,10.11,10.11,0,0,1,3.71,3.72,11.26,11.26,0,0,1,0,10.8,10,10,0,0,1-3.71,3.74,11.06,11.06,0,0,1-10.59,0,9.92,9.92,0,0,1-3.73-3.74,11.26,11.26,0,0,1,0-10.8Zm3.05,9.12a6.77,6.77,0,0,0,2.45,2.56,7,7,0,0,0,7,0,6.75,6.75,0,0,0,2.44-2.56,7.47,7.47,0,0,0,.9-3.71,7.6,7.6,0,0,0-.9-3.73,6.54,6.54,0,0,0-2.44-2.56,7.24,7.24,0,0,0-7,0,6.56,6.56,0,0,0-2.45,2.56,7.7,7.7,0,0,0-.89,3.73A7.57,7.57,0,0,0,145.83,227.44Z"/><path d="M169.81,232.88a9,9,0,0,1-3.37-3.69,11.87,11.87,0,0,1-1.2-5.46,12.12,12.12,0,0,1,.72-4.28,9.7,9.7,0,0,1,2-3.3,9.24,9.24,0,0,1,3.15-2.13,10.42,10.42,0,0,1,4.06-.77,9.84,9.84,0,0,1,5.08,1.25,8.19,8.19,0,0,1,3.26,3.55,12.51,12.51,0,0,1,1.13,5.51c0,.2,0,.41,0,.63s0,.36,0,.41H167.47v-3h14.41l-1.4,2a2.52,2.52,0,0,0,.26-.67,2.8,2.8,0,0,0,.13-.77,6.37,6.37,0,0,0-.72-3.1,5.34,5.34,0,0,0-2-2,5.84,5.84,0,0,0-3-.74,7.2,7.2,0,0,0-2.69.48,5.28,5.28,0,0,0-2,1.4,6.09,6.09,0,0,0-1.26,2.27,9.64,9.64,0,0,0-.44,3,9.92,9.92,0,0,0,.74,4,5.48,5.48,0,0,0,2.18,2.53,6.57,6.57,0,0,0,3.5.88,7.18,7.18,0,0,0,3.62-.9,7.35,7.35,0,0,0,2.66-2.73l2.84,1.79a10.46,10.46,0,0,1-3.95,3.82,11.62,11.62,0,0,1-5.61,1.29A9.22,9.22,0,0,1,169.81,232.88Z"/><path d="M201.27,217v-3.27h17.46L206.29,230.5h11.57v3.27H200L212.4,217Z"/><path d="M221.64,218.32a10,10,0,0,1,3.73-3.72,11.06,11.06,0,0,1,10.59,0,10.11,10.11,0,0,1,3.71,3.72,11.26,11.26,0,0,1,0,10.8,10,10,0,0,1-3.71,3.74,11.06,11.06,0,0,1-10.59,0,9.92,9.92,0,0,1-3.73-3.74,11.26,11.26,0,0,1,0-10.8Zm3.05,9.12a6.77,6.77,0,0,0,2.45,2.56,7,7,0,0,0,7,0,6.75,6.75,0,0,0,2.44-2.56,7.47,7.47,0,0,0,.9-3.71,7.6,7.6,0,0,0-.9-3.73,6.54,6.54,0,0,0-2.44-2.56,7.24,7.24,0,0,0-7,0,6.56,6.56,0,0,0-2.45,2.56,7.7,7.7,0,0,0-.89,3.73A7.57,7.57,0,0,0,224.69,227.44Z"/><path d="M249.82,228.64a3.63,3.63,0,0,0,1.44,1.71,4.47,4.47,0,0,0,2.36.59,5.57,5.57,0,0,0,2.69-.64,4.48,4.48,0,0,0,1.79-1.77,5.29,5.29,0,0,0,.63-2.62V213.69h3.49v20.08h-3.49v-3.14a7.15,7.15,0,0,1-2.49,2.69,6.68,6.68,0,0,1-3.49.89,6.78,6.78,0,0,1-3.65-1,6.4,6.4,0,0,1-2.4-2.73,9.49,9.49,0,0,1-.85-4.17V213.69h3.49v12.22A6.88,6.88,0,0,0,249.82,228.64Z"/><path d="M278.75,239.58a2.53,2.53,0,0,0,1.24.31,1.72,1.72,0,0,0,1.2-.4,2.36,2.36,0,0,0,.68-1.26,9.39,9.39,0,0,0,.22-2.27V213.69h3.49v22.7a9.5,9.5,0,0,1-.67,3.76,5.22,5.22,0,0,1-2,2.4,5.78,5.78,0,0,1-3.15.83,5.48,5.48,0,0,1-1.57-.2,4,4,0,0,1-1.26-.59,4.37,4.37,0,0,1-1-1l1.92-2.88A2.64,2.64,0,0,0,278.75,239.58ZM282,203.71a2.32,2.32,0,0,1,1.66-.68,2.36,2.36,0,0,1,1.68,4,2.23,2.23,0,0,1-1.68.7,2.36,2.36,0,0,1-1.66-4Z"/><path d="M293.51,203.69a2.32,2.32,0,0,1,1.68-.7,2.39,2.39,0,0,1,2.4,2.4,2.32,2.32,0,0,1-.7,1.68,2.27,2.27,0,0,1-1.7.72,2.46,2.46,0,0,1-2.4-2.4A2.27,2.27,0,0,1,293.51,203.69Zm3.42,10v20.08h-3.49V213.69Z"/><path d="M301,239.58a2.53,2.53,0,0,0,1.24.31,1.72,1.72,0,0,0,1.2-.4,2.36,2.36,0,0,0,.68-1.26,9.39,9.39,0,0,0,.22-2.27V213.69h3.49v22.7a9.5,9.5,0,0,1-.67,3.76,5.22,5.22,0,0,1-2,2.4,5.8,5.8,0,0,1-3.15.83,5.48,5.48,0,0,1-1.57-.2,4,4,0,0,1-1.26-.59,4.37,4.37,0,0,1-1-1l1.92-2.88A2.56,2.56,0,0,0,301,239.58Zm3.25-35.87a2.32,2.32,0,0,1,1.66-.68,2.36,2.36,0,0,1,1.68,4,2.23,2.23,0,0,1-1.68.7,2.36,2.36,0,0,1-1.66-4Z"/><path d="M331,232.88a9.09,9.09,0,0,1-3.36-3.69,11.87,11.87,0,0,1-1.2-5.46,12.12,12.12,0,0,1,.72-4.28,9.7,9.7,0,0,1,2-3.3A9.19,9.19,0,0,1,332.3,214a10.49,10.49,0,0,1,4.06-.77,9.87,9.87,0,0,1,5.09,1.25,8.17,8.17,0,0,1,3.25,3.55,12.37,12.37,0,0,1,1.14,5.51c0,.2,0,.41,0,.63s0,.36,0,.41H328.64v-3h14.41l-1.4,2a3.46,3.46,0,0,0,.26-.67,2.8,2.8,0,0,0,.13-.77,6.37,6.37,0,0,0-.72-3.1,5.3,5.3,0,0,0-2-2,5.79,5.79,0,0,0-3-.74,7.15,7.15,0,0,0-2.68.48,5.28,5.28,0,0,0-2,1.4,6.1,6.1,0,0,0-1.27,2.27,9.94,9.94,0,0,0-.43,3,9.75,9.75,0,0,0,.74,4,5.43,5.43,0,0,0,2.18,2.53,6.56,6.56,0,0,0,3.49.88A7.19,7.19,0,0,0,340,230a7.43,7.43,0,0,0,2.66-2.73l2.84,1.79a10.53,10.53,0,0,1-3.95,3.82,11.62,11.62,0,0,1-5.61,1.29A9.23,9.23,0,0,1,331,232.88Z"/><path d="M353.46,232.88a9.09,9.09,0,0,1-3.36-3.69,11.87,11.87,0,0,1-1.2-5.46,12.12,12.12,0,0,1,.72-4.28,9.55,9.55,0,0,1,2-3.3,9.19,9.19,0,0,1,3.14-2.13,10.45,10.45,0,0,1,4.06-.77,9.87,9.87,0,0,1,5.09,1.25,8.17,8.17,0,0,1,3.25,3.55,12.37,12.37,0,0,1,1.14,5.51c0,.2,0,.41,0,.63s0,.36,0,.41H351.12v-3h14.41l-1.39,2a3.46,3.46,0,0,0,.26-.67,2.8,2.8,0,0,0,.13-.77,6.37,6.37,0,0,0-.72-3.1,5.3,5.3,0,0,0-2-2,5.79,5.79,0,0,0-3-.74,7.15,7.15,0,0,0-2.68.48,5.28,5.28,0,0,0-2,1.4,6,6,0,0,0-1.27,2.27,9.94,9.94,0,0,0-.44,3,9.75,9.75,0,0,0,.75,4,5.43,5.43,0,0,0,2.18,2.53,6.53,6.53,0,0,0,3.49.88,7.19,7.19,0,0,0,3.63-.9,7.51,7.51,0,0,0,2.66-2.73L368,229.1a10.6,10.6,0,0,1-4,3.82,11.62,11.62,0,0,1-5.61,1.29A9.23,9.23,0,0,1,353.46,232.88Z"/><path d="M385.53,218.78a3.49,3.49,0,0,0-1.44-1.69,4.63,4.63,0,0,0-2.36-.56,5.5,5.5,0,0,0-2.68.63,4.42,4.42,0,0,0-1.79,1.77,5.32,5.32,0,0,0-.63,2.62v12.22h-3.5V213.69h3.5v3.14a7,7,0,0,1,9.64-2.62,6.42,6.42,0,0,1,2.38,2.71,9.43,9.43,0,0,1,.86,4.19v12.66H386V221.55A7,7,0,0,0,385.53,218.78Z"/><path d="M58.07,270.52a9.41,9.41,0,0,1,3.62-3.6,10,10,0,0,1,5-1.27,8.07,8.07,0,0,1,3.43.72,7.53,7.53,0,0,1,2.66,2.07,9.75,9.75,0,0,1,1.72,3.3,15.85,15.85,0,0,1,0,8.78,9.75,9.75,0,0,1-1.72,3.3,7.53,7.53,0,0,1-2.66,2.07,8.07,8.07,0,0,1-3.43.72,10,10,0,0,1-5-1.27,9.4,9.4,0,0,1-3.62-3.62,12.21,12.21,0,0,1,0-11.2Zm2.57,17a4.91,4.91,0,0,0,.79,2.69,5.71,5.71,0,0,0,2.22,2,7.21,7.21,0,0,0,3.41.76,6.72,6.72,0,0,0,3-.74,6.14,6.14,0,0,0,2.47-2.34,7.71,7.71,0,0,0,1-4.12V266.09H77v19.65a10.82,10.82,0,0,1-1.44,5.78A9.43,9.43,0,0,1,71.86,295a10.32,10.32,0,0,1-4.8,1.18,11.66,11.66,0,0,1-5.17-1.1,8.2,8.2,0,0,1-4.79-7.64Zm.55-7.42a6.22,6.22,0,0,0,2.51,2.45,7.2,7.2,0,0,0,3.4.82,5.84,5.84,0,0,0,2.28-.48A6.74,6.74,0,0,0,73,279.21a8.75,8.75,0,0,0,0-6.16,6.74,6.74,0,0,0-3.58-3.64,5.85,5.85,0,0,0-2.28-.49,7.21,7.21,0,0,0-3.4.83,6.22,6.22,0,0,0-2.51,2.45,8.69,8.69,0,0,0,0,7.86Z"/><path d="M86.16,285.28a9.09,9.09,0,0,1-3.36-3.69,11.87,11.87,0,0,1-1.2-5.46,12.12,12.12,0,0,1,.72-4.28,9.7,9.7,0,0,1,2-3.3,9.16,9.16,0,0,1,3.15-2.14,10.6,10.6,0,0,1,4.06-.76,9.93,9.93,0,0,1,5.08,1.24,8.22,8.22,0,0,1,3.26,3.56A12.51,12.51,0,0,1,101,276c0,.2,0,.41,0,.63s0,.35,0,.41H83.83v-3H98.24l-1.4,2a2.52,2.52,0,0,0,.26-.67,2.8,2.8,0,0,0,.13-.77,6.34,6.34,0,0,0-.72-3.1,5.28,5.28,0,0,0-2-2.05,5.74,5.74,0,0,0-3-.74,7.2,7.2,0,0,0-2.69.48,5.37,5.37,0,0,0-2,1.39,6.37,6.37,0,0,0-1.27,2.28,11.18,11.18,0,0,0,.31,7.07,5.43,5.43,0,0,0,2.18,2.53,6.66,6.66,0,0,0,3.5.87,7.17,7.17,0,0,0,3.62-.89,7.35,7.35,0,0,0,2.66-2.73l2.84,1.79a10.46,10.46,0,0,1-4,3.82,11.62,11.62,0,0,1-5.61,1.29A9.25,9.25,0,0,1,86.16,285.28Z"/><path d="M105.44,270.52a9.44,9.44,0,0,1,3.63-3.6,10,10,0,0,1,5-1.27,8,8,0,0,1,3.42.72,7.56,7.56,0,0,1,2.67,2.07,9.93,9.93,0,0,1,1.72,3.3,16.1,16.1,0,0,1,0,8.78,9.93,9.93,0,0,1-1.72,3.3,7.56,7.56,0,0,1-2.67,2.07,8,8,0,0,1-3.42.72,10,10,0,0,1-5-1.27,9.42,9.42,0,0,1-3.63-3.62,12.29,12.29,0,0,1,0-11.2Zm3.12,9.54a6.31,6.31,0,0,0,2.52,2.45,7.18,7.18,0,0,0,3.4.82,5.79,5.79,0,0,0,2.27-.48,6.71,6.71,0,0,0,2.08-1.39,6.93,6.93,0,0,0,1.5-2.25,8.61,8.61,0,0,0,0-6.16,6.93,6.93,0,0,0-1.5-2.25,6.71,6.71,0,0,0-2.08-1.39,5.8,5.8,0,0,0-2.27-.49,7.18,7.18,0,0,0-3.4.83,6.31,6.31,0,0,0-2.52,2.45,8.77,8.77,0,0,0,0,7.86Zm15.83-27.95v34.06H120.9V252.11Z"/><path d="M133.54,285.28a9.09,9.09,0,0,1-3.36-3.69,11.87,11.87,0,0,1-1.2-5.46,12.12,12.12,0,0,1,.72-4.28,9.7,9.7,0,0,1,2-3.3,9.22,9.22,0,0,1,3.14-2.14,10.67,10.67,0,0,1,4.06-.76,10,10,0,0,1,5.09,1.24,8.2,8.2,0,0,1,3.25,3.56,12.37,12.37,0,0,1,1.14,5.51c0,.2,0,.41,0,.63s0,.35,0,.41H131.2v-3h14.41l-1.39,2a3.46,3.46,0,0,0,.26-.67,2.8,2.8,0,0,0,.13-.77,6.34,6.34,0,0,0-.72-3.1,5.23,5.23,0,0,0-2-2.05,5.69,5.69,0,0,0-3-.74,7.15,7.15,0,0,0-2.68.48,5.37,5.37,0,0,0-2,1.39,6.09,6.09,0,0,0-1.27,2.28,9.94,9.94,0,0,0-.43,3.05,9.75,9.75,0,0,0,.74,4,5.43,5.43,0,0,0,2.18,2.53,6.62,6.62,0,0,0,3.49.87,7.18,7.18,0,0,0,3.63-.89,7.43,7.43,0,0,0,2.66-2.73l2.84,1.79a10.6,10.6,0,0,1-3.95,3.82,11.62,11.62,0,0,1-5.61,1.29A9.23,9.23,0,0,1,133.54,285.28Z"/><path d="M156,285.28a9.09,9.09,0,0,1-3.36-3.69,11.87,11.87,0,0,1-1.2-5.46,12.12,12.12,0,0,1,.72-4.28,9.55,9.55,0,0,1,2-3.3,9.22,9.22,0,0,1,3.14-2.14,10.64,10.64,0,0,1,4.06-.76,10,10,0,0,1,5.09,1.24,8.2,8.2,0,0,1,3.25,3.56A12.37,12.37,0,0,1,170.9,276c0,.2,0,.41,0,.63s0,.35,0,.41H153.69v-3H168.1l-1.39,2a3.46,3.46,0,0,0,.26-.67,2.8,2.8,0,0,0,.13-.77,6.34,6.34,0,0,0-.72-3.1,5.3,5.3,0,0,0-2-2.05,5.69,5.69,0,0,0-3-.74,7.15,7.15,0,0,0-2.68.48,5.37,5.37,0,0,0-2,1.39,6.09,6.09,0,0,0-1.27,2.28,9.94,9.94,0,0,0-.44,3.05,9.75,9.75,0,0,0,.75,4,5.43,5.43,0,0,0,2.18,2.53,6.62,6.62,0,0,0,3.49.87,7.18,7.18,0,0,0,3.63-.89,7.51,7.51,0,0,0,2.66-2.73l2.84,1.79a10.6,10.6,0,0,1-4,3.82,11.62,11.62,0,0,1-5.61,1.29A9.23,9.23,0,0,1,156,285.28Z"/><path d="M179.19,252.11v34.06H175.7V252.11Z"/><path d="M185.35,270.52a9.41,9.41,0,0,1,3.62-3.6,10,10,0,0,1,5-1.27,8,8,0,0,1,3.43.72,7.53,7.53,0,0,1,2.66,2.07,9.77,9.77,0,0,1,1.73,3.3,16.1,16.1,0,0,1,0,8.78,9.77,9.77,0,0,1-1.73,3.3,7.53,7.53,0,0,1-2.66,2.07,8,8,0,0,1-3.43.72,10,10,0,0,1-5-1.27,9.4,9.4,0,0,1-3.62-3.62,12.29,12.29,0,0,1,0-11.2Zm3.12,9.54a6.29,6.29,0,0,0,2.51,2.45,7.24,7.24,0,0,0,3.41.82,5.79,5.79,0,0,0,2.27-.48,6.56,6.56,0,0,0,2.07-1.39,6.79,6.79,0,0,0,1.51-2.25,8.61,8.61,0,0,0,0-6.16,6.79,6.79,0,0,0-1.51-2.25,6.56,6.56,0,0,0-2.07-1.39,5.8,5.8,0,0,0-2.27-.49,7.25,7.25,0,0,0-3.41.83,6.29,6.29,0,0,0-2.51,2.45,8.69,8.69,0,0,0,0,7.86Zm15.83-27.95v34.06h-3.49V252.11Z"/><path d="M213.45,285.28a9.09,9.09,0,0,1-3.36-3.69,11.87,11.87,0,0,1-1.2-5.46,12.12,12.12,0,0,1,.72-4.28,9.55,9.55,0,0,1,2-3.3,9.22,9.22,0,0,1,3.14-2.14,10.64,10.64,0,0,1,4.06-.76,10,10,0,0,1,5.09,1.24,8.2,8.2,0,0,1,3.25,3.56,12.37,12.37,0,0,1,1.14,5.51c0,.2,0,.41,0,.63s0,.35,0,.41H211.11v-3h14.41l-1.39,2a3.46,3.46,0,0,0,.26-.67,3.24,3.24,0,0,0,.13-.77,6.34,6.34,0,0,0-.72-3.1,5.3,5.3,0,0,0-2-2.05,5.69,5.69,0,0,0-3-.74,7.15,7.15,0,0,0-2.68.48,5.37,5.37,0,0,0-2,1.39,6.09,6.09,0,0,0-1.27,2.28,9.94,9.94,0,0,0-.44,3.05,9.75,9.75,0,0,0,.75,4,5.43,5.43,0,0,0,2.18,2.53,6.62,6.62,0,0,0,3.49.87,7.18,7.18,0,0,0,3.63-.89,7.51,7.51,0,0,0,2.66-2.73L228,281.5a10.6,10.6,0,0,1-3.95,3.82,11.62,11.62,0,0,1-5.61,1.29A9.23,9.23,0,0,1,213.45,285.28Z"/><path d="M245.85,270.72a10.09,10.09,0,0,1,3.73-3.72,11.06,11.06,0,0,1,10.59,0,10,10,0,0,1,3.71,3.72,11.26,11.26,0,0,1,0,10.8,10,10,0,0,1-3.71,3.74,11.06,11.06,0,0,1-10.59,0,10.07,10.07,0,0,1-3.73-3.74,11.26,11.26,0,0,1,0-10.8Zm3.05,9.12a6.85,6.85,0,0,0,2.45,2.56,7.11,7.11,0,0,0,7,0,6.85,6.85,0,0,0,2.45-2.56,7.6,7.6,0,0,0,.89-3.71,7.7,7.7,0,0,0-.89-3.73,6.57,6.57,0,0,0-2.45-2.56,7.17,7.17,0,0,0-7,0,6.57,6.57,0,0,0-2.45,2.56,7.7,7.7,0,0,0-.89,3.73A7.6,7.6,0,0,0,248.9,279.84Z"/><path d="M282.46,271.17a3.51,3.51,0,0,0-1.44-1.68,4.56,4.56,0,0,0-2.36-.57,5.5,5.5,0,0,0-2.68.64,4.42,4.42,0,0,0-1.79,1.77,5.3,5.3,0,0,0-.64,2.62v12.22h-3.49V266.09h3.49v3.14a6.38,6.38,0,0,1,6-3.58,6.75,6.75,0,0,1,3.66,1,6.36,6.36,0,0,1,2.38,2.71,9.43,9.43,0,0,1,.85,4.19v12.66h-3.49V274A7.07,7.07,0,0,0,282.46,271.17Z"/><path d="M296.48,252.11v34.06H293V252.11Z"/><path d="M303.75,256.09a2.32,2.32,0,0,1,1.68-.7,2.39,2.39,0,0,1,2.4,2.4,2.32,2.32,0,0,1-.7,1.68,2.27,2.27,0,0,1-1.7.72,2.46,2.46,0,0,1-2.4-2.4A2.27,2.27,0,0,1,303.75,256.09Zm3.43,10v20.08h-3.5V266.09Z"/><path d="M326.78,271.17a3.51,3.51,0,0,0-1.44-1.68,4.56,4.56,0,0,0-2.36-.57,5.5,5.5,0,0,0-2.68.64,4.42,4.42,0,0,0-1.79,1.77,5.3,5.3,0,0,0-.64,2.62v12.22h-3.49V266.09h3.49v3.14a6.41,6.41,0,0,1,6-3.58,6.72,6.72,0,0,1,3.66,1,6.36,6.36,0,0,1,2.38,2.71,9.43,9.43,0,0,1,.86,4.19v12.66h-3.5V274A7.07,7.07,0,0,0,326.78,271.17Z"/><path d="M340.12,285.28a9.09,9.09,0,0,1-3.36-3.69,11.87,11.87,0,0,1-1.2-5.46,12.12,12.12,0,0,1,.72-4.28,9.7,9.7,0,0,1,2-3.3,9.22,9.22,0,0,1,3.14-2.14,10.67,10.67,0,0,1,4.06-.76,10,10,0,0,1,5.09,1.24,8.2,8.2,0,0,1,3.25,3.56A12.37,12.37,0,0,1,355,276c0,.2,0,.41,0,.63s0,.35,0,.41H337.78v-3h14.41l-1.39,2a3.46,3.46,0,0,0,.26-.67,2.8,2.8,0,0,0,.13-.77,6.34,6.34,0,0,0-.72-3.1,5.23,5.23,0,0,0-2-2.05,5.69,5.69,0,0,0-3-.74,7.15,7.15,0,0,0-2.68.48,5.37,5.37,0,0,0-2,1.39,6.09,6.09,0,0,0-1.27,2.28,9.94,9.94,0,0,0-.43,3.05,9.75,9.75,0,0,0,.74,4,5.43,5.43,0,0,0,2.18,2.53,6.62,6.62,0,0,0,3.49.87,7.18,7.18,0,0,0,3.63-.89,7.43,7.43,0,0,0,2.66-2.73l2.84,1.79a10.6,10.6,0,0,1-3.95,3.82,11.62,11.62,0,0,1-5.61,1.29A9.23,9.23,0,0,1,340.12,285.28Z"/><path d="M372.67,295.78V266.09h3.5v29.69Zm18.95-14.06a9.42,9.42,0,0,1-3.6,3.62,9.94,9.94,0,0,1-5,1.27,8.07,8.07,0,0,1-3.43-.72,7.53,7.53,0,0,1-2.66-2.07,9.75,9.75,0,0,1-1.72-3.3,15.85,15.85,0,0,1,0-8.78,9.75,9.75,0,0,1,1.72-3.3,7.53,7.53,0,0,1,2.66-2.07,8.07,8.07,0,0,1,3.43-.72,9.94,9.94,0,0,1,5,1.27,9.43,9.43,0,0,1,3.6,3.6,12.21,12.21,0,0,1,0,11.2Zm-3.12-9.52a6.24,6.24,0,0,0-2.49-2.45,7.15,7.15,0,0,0-3.42-.83,5.85,5.85,0,0,0-2.28.49,6.74,6.74,0,0,0-3.58,3.64,8.75,8.75,0,0,0,0,6.16,6.74,6.74,0,0,0,3.58,3.64,5.84,5.84,0,0,0,2.28.48,7.14,7.14,0,0,0,3.42-.82,6.24,6.24,0,0,0,2.49-2.45,8.69,8.69,0,0,0,0-7.86Z"/><path d="M401.27,252.11v34.06h-3.49V252.11Z"/><path d="M410.64,285.28a9.09,9.09,0,0,1-3.36-3.69,11.87,11.87,0,0,1-1.2-5.46,12.12,12.12,0,0,1,.72-4.28,9.7,9.7,0,0,1,2-3.3,9.22,9.22,0,0,1,3.14-2.14,10.64,10.64,0,0,1,4.06-.76,10,10,0,0,1,5.09,1.24,8.2,8.2,0,0,1,3.25,3.56,12.37,12.37,0,0,1,1.14,5.51c0,.2,0,.41,0,.63s0,.35,0,.41H408.3v-3h14.41l-1.39,2a3.46,3.46,0,0,0,.26-.67,2.8,2.8,0,0,0,.13-.77,6.34,6.34,0,0,0-.72-3.1,5.23,5.23,0,0,0-2-2.05,5.69,5.69,0,0,0-3-.74,7.15,7.15,0,0,0-2.68.48,5.37,5.37,0,0,0-2,1.39,6.09,6.09,0,0,0-1.27,2.28,9.94,9.94,0,0,0-.44,3.05,9.75,9.75,0,0,0,.75,4,5.43,5.43,0,0,0,2.18,2.53,6.62,6.62,0,0,0,3.49.87,7.18,7.18,0,0,0,3.63-.89,7.43,7.43,0,0,0,2.66-2.73l2.84,1.79a10.6,10.6,0,0,1-4,3.82,11.62,11.62,0,0,1-5.61,1.29A9.23,9.23,0,0,1,410.64,285.28Z"/><path d="M433.59,252.11v34.06h-3.5V252.11Zm11.79,14-8.74,8.29,9.61,11.79h-4.37l-9.6-11.79,8.73-8.29Z"/><path d="M147.91,338.57h-3.5V326.35a8.29,8.29,0,0,0-.41-2.84,3.23,3.23,0,0,0-1.27-1.64,4,4,0,0,0-2.16-.55,5,5,0,0,0-2.49.59,3.91,3.91,0,0,0-1.61,1.73,6,6,0,0,0-.57,2.71v12.22h-3.49V326.35a8,8,0,0,0-.42-2.84,3.23,3.23,0,0,0-1.27-1.64,3.93,3.93,0,0,0-2.16-.55,5,5,0,0,0-2.49.59,4,4,0,0,0-1.61,1.73,6,6,0,0,0-.57,2.71v12.22H120.4V318.49h3.49v2.92a7.14,7.14,0,0,1,1.42-1.88,5.48,5.48,0,0,1,1.86-1.11,6.63,6.63,0,0,1,2.27-.37,6.82,6.82,0,0,1,2.53.44,5.91,5.91,0,0,1,2,1.26,5.45,5.45,0,0,1,1.28,2.05,7.37,7.37,0,0,1,2.62-2.81,6.81,6.81,0,0,1,3.58-.94,6.32,6.32,0,0,1,3.5.92,5.78,5.78,0,0,1,2.2,2.68,10.7,10.7,0,0,1,.77,4.26Z"/><path d="M154.09,323.11a10.06,10.06,0,0,1,3.73-3.71,11.06,11.06,0,0,1,10.59,0,10.15,10.15,0,0,1,3.71,3.71,11.27,11.27,0,0,1,0,10.81,10,10,0,0,1-3.71,3.73,11,11,0,0,1-10.59,0,9.9,9.9,0,0,1-3.73-3.73,11.27,11.27,0,0,1,0-10.81Zm3,9.13a6.77,6.77,0,0,0,2.45,2.56,7.11,7.11,0,0,0,7,0,6.75,6.75,0,0,0,2.44-2.56,7.49,7.49,0,0,0,.9-3.71,7.6,7.6,0,0,0-.9-3.73,6.47,6.47,0,0,0-2.44-2.56,7.17,7.17,0,0,0-7,0,6.5,6.5,0,0,0-2.45,2.56,7.7,7.7,0,0,0-.89,3.73A7.6,7.6,0,0,0,157.14,332.24Z"/><path d="M177.9,322.92a9.5,9.5,0,0,1,3.63-3.6,10,10,0,0,1,5-1.27,8,8,0,0,1,3.42.72,7.47,7.47,0,0,1,2.67,2.07,9.75,9.75,0,0,1,1.72,3.3,16.1,16.1,0,0,1,0,8.78,9.61,9.61,0,0,1-1.72,3.29,7.39,7.39,0,0,1-2.67,2.08,8,8,0,0,1-3.42.72,10,10,0,0,1-5-1.27,9.49,9.49,0,0,1-3.63-3.62,12.29,12.29,0,0,1,0-11.2Zm3.13,9.54a6.14,6.14,0,0,0,2.51,2.44,7.1,7.1,0,0,0,3.4.83,5.75,5.75,0,0,0,2.27-.48,6.71,6.71,0,0,0,2.08-1.39,6.88,6.88,0,0,0,1.5-2.25,8.61,8.61,0,0,0,0-6.16,6.77,6.77,0,0,0-1.5-2.25,6.93,6.93,0,0,0-2.08-1.4,5.75,5.75,0,0,0-2.27-.48,7.21,7.21,0,0,0-3.4.83A6.22,6.22,0,0,0,181,324.6a8.69,8.69,0,0,0,0,7.86Zm15.83-27.95v34.06h-3.5V304.51Z"/><path d="M206,337.68a9.09,9.09,0,0,1-3.36-3.69,11.87,11.87,0,0,1-1.2-5.46,12.12,12.12,0,0,1,.72-4.28,9.7,9.7,0,0,1,2-3.3,9.22,9.22,0,0,1,3.14-2.14,10.5,10.5,0,0,1,4.07-.76,9.86,9.86,0,0,1,5.08,1.24,8.28,8.28,0,0,1,3.26,3.56,12.5,12.5,0,0,1,1.13,5.5c0,.21,0,.42,0,.64s0,.35,0,.41H203.67v-3h14.41l-1.4,2a2.84,2.84,0,0,0,.26-.68,2.74,2.74,0,0,0,.13-.76,6.34,6.34,0,0,0-.72-3.1,5.23,5.23,0,0,0-2-2,5.68,5.68,0,0,0-3-.74,7.2,7.2,0,0,0-2.69.48,5.37,5.37,0,0,0-2,1.39,6.18,6.18,0,0,0-1.27,2.27,10,10,0,0,0-.43,3.06,9.75,9.75,0,0,0,.74,4,5.47,5.47,0,0,0,2.18,2.53,6.66,6.66,0,0,0,3.5.87,7.17,7.17,0,0,0,3.62-.89,7.35,7.35,0,0,0,2.66-2.73l2.84,1.79a10.53,10.53,0,0,1-4,3.82A11.62,11.62,0,0,1,211,339,9.25,9.25,0,0,1,206,337.68Z"/><path d="M229.17,338.57h-3.49V318.49h3.49Zm4.8-17a3.73,3.73,0,0,0-1.44-.24,3,3,0,0,0-2.05.66,3.39,3.39,0,0,0-1,1.79,10.62,10.62,0,0,0-.28,2.58H227.6a10.06,10.06,0,0,1,.85-4.26,8,8,0,0,1,2.2-2.95,4.36,4.36,0,0,1,2.75-1.09,6.92,6.92,0,0,1,2,.28,3.89,3.89,0,0,1,1.73,1.12l-1.92,2.88A6.32,6.32,0,0,0,234,321.56Z"/><path d="M242.81,337.68a9.09,9.09,0,0,1-3.36-3.69,11.87,11.87,0,0,1-1.2-5.46,12.12,12.12,0,0,1,.72-4.28,9.7,9.7,0,0,1,2-3.3,9.22,9.22,0,0,1,3.14-2.14,10.5,10.5,0,0,1,4.07-.76,9.86,9.86,0,0,1,5.08,1.24,8.28,8.28,0,0,1,3.26,3.56,12.5,12.5,0,0,1,1.13,5.5c0,.21,0,.42,0,.64s0,.35,0,.41H240.48v-3h14.41l-1.4,2a2.84,2.84,0,0,0,.26-.68,2.74,2.74,0,0,0,.13-.76,6.34,6.34,0,0,0-.72-3.1,5.23,5.23,0,0,0-2-2,5.68,5.68,0,0,0-3-.74,7.2,7.2,0,0,0-2.69.48,5.37,5.37,0,0,0-2,1.39,6.18,6.18,0,0,0-1.27,2.27,10,10,0,0,0-.43,3.06,9.75,9.75,0,0,0,.74,4,5.47,5.47,0,0,0,2.18,2.53,6.66,6.66,0,0,0,3.5.87,7.17,7.17,0,0,0,3.62-.89,7.35,7.35,0,0,0,2.66-2.73l2.84,1.79a10.53,10.53,0,0,1-3.95,3.82,11.62,11.62,0,0,1-5.61,1.29A9.25,9.25,0,0,1,242.81,337.68Z"/><path d="M266,338.57h-3.5V318.49H266Zm4.8-17a3.73,3.73,0,0,0-1.44-.24,3,3,0,0,0-2,.66,3.39,3.39,0,0,0-1,1.79,10.62,10.62,0,0,0-.28,2.58h-1.57a10.06,10.06,0,0,1,.85-4.26,7.91,7.91,0,0,1,2.2-2.95,4.34,4.34,0,0,1,2.75-1.09,6.92,6.92,0,0,1,2,.28,3.94,3.94,0,0,1,1.73,1.12l-1.92,2.88A6.32,6.32,0,0,0,270.78,321.56Z"/><path d="M279.62,337.68a9.09,9.09,0,0,1-3.36-3.69,11.87,11.87,0,0,1-1.2-5.46,12.12,12.12,0,0,1,.72-4.28,9.7,9.7,0,0,1,2-3.3,9.22,9.22,0,0,1,3.14-2.14,10.5,10.5,0,0,1,4.07-.76,9.86,9.86,0,0,1,5.08,1.24,8.2,8.2,0,0,1,3.25,3.56,12.36,12.36,0,0,1,1.14,5.5c0,.21,0,.42,0,.64s0,.35,0,.41H277.29v-3H291.7l-1.4,2a2.84,2.84,0,0,0,.26-.68,2.74,2.74,0,0,0,.13-.76,6.34,6.34,0,0,0-.72-3.1,5.23,5.23,0,0,0-2-2,5.68,5.68,0,0,0-3-.74,7.16,7.16,0,0,0-2.69.48,5.37,5.37,0,0,0-2,1.39,6.18,6.18,0,0,0-1.27,2.27,10,10,0,0,0-.43,3.06,9.75,9.75,0,0,0,.74,4,5.47,5.47,0,0,0,2.18,2.53,6.66,6.66,0,0,0,3.5.87,7.17,7.17,0,0,0,3.62-.89,7.43,7.43,0,0,0,2.66-2.73l2.84,1.79a10.53,10.53,0,0,1-3.95,3.82,11.62,11.62,0,0,1-5.61,1.29A9.25,9.25,0,0,1,279.62,337.68Z"/><path d="M311.69,323.57a3.51,3.51,0,0,0-1.44-1.68,4.52,4.52,0,0,0-2.35-.57,5.54,5.54,0,0,0-2.69.64,4.42,4.42,0,0,0-1.79,1.77,5.29,5.29,0,0,0-.63,2.62v12.22h-3.5V318.49h3.5v3.14a6.38,6.38,0,0,1,6-3.58,6.76,6.76,0,0,1,3.67,1,6.43,6.43,0,0,1,2.38,2.71,9.43,9.43,0,0,1,.85,4.19v12.66h-3.49V326.35A6.89,6.89,0,0,0,311.69,323.57Z"/><path d="M336.32,313.55a5.16,5.16,0,0,0-2.22-2,7.86,7.86,0,0,0-3.41-.7,6.76,6.76,0,0,0-3.73,1,7.8,7.8,0,0,0-2.56,2.64l-2.84-1.79a14.84,14.84,0,0,1,2.23-2.69,8.34,8.34,0,0,1,3-1.79,13.07,13.07,0,0,1,4.35-.63,9.88,9.88,0,0,1,3.77.7,9.26,9.26,0,0,1,3,1.94,8.92,8.92,0,0,1,2.72,6.53,8.12,8.12,0,0,1-1.31,4.52,10.13,10.13,0,0,1-3.4,3.27,9.83,9.83,0,0,1-4.54,1.38l-.31,5.24h-2.62l-.87-7.64h1.13a9.4,9.4,0,0,0,4.5-1A7.65,7.65,0,0,0,336.1,320a5.81,5.81,0,0,0,1-3.21A6,6,0,0,0,336.32,313.55Zm-8.14,21.57a2.36,2.36,0,0,1,1.68-.7,2.4,2.4,0,0,1,1.7,4.09,2.27,2.27,0,0,1-1.7.72,2.4,2.4,0,0,1-1.68-4.11Z"/><path d="M359.2,320.23v-3.49l22.27,9.61v2l-22.27,9.61v-3.5l16.51-6.9Z"/><text class="cls-2" transform="translate(121.72 125.02)">VRA<tspan class="cls-3" x="115.48" y="0">A</tspan><tspan x="153.19" y="0">G</tspan></text></g></g></svg>