<svg xmlns="http://www.w3.org/2000/svg" viewBox="0 0 481.51 517.62"><defs><style>.cls-1{fill:#d24b00;}.cls-2{font-size:60px;font-family:CooperBlack, Cooper Black;}</style></defs><g id="Layer_2" data-name="Layer 2"><g id="Layer_1-2" data-name="Layer 1"><path class="cls-1" d="M479.75,312c.37,53.54-12.31,102.74-48.3,144-27.74,31.77-61.44,53.72-103.79,60.18-22.46,3.43-44.7.59-66.53-5.18-36.28-9.57-69-26.89-100.1-47.36-36.94-24.28-67.83-55.08-96-88.9-20.6-24.75-39.65-50.46-52.91-80C2.32,272.79-2.71,250.14,1.49,226.14,5,205.9,14.29,188,26.62,172a569.38,569.38,0,0,1,39.45-46.19C92.75,98,120.29,70.92,150.63,47,172.52,29.7,195.7,14.33,222.68,6c37-11.37,72.68-5.94,107.14,10.1,48.65,22.64,84.38,58.6,108.5,106.34,17,33.73,27.31,69.67,33.16,106.77,4.31,27.39,6.75,55.06,10,82.61Z"/><text class="cls-2" transform="translate(127.32 169.78)">FEDRIK</text><path d="M145,306.78v20.64h-2.51V306.78ZM143.84,315H158v2.36H143.84Zm15-8.25v20.64h-2.51V306.78Z"/><path d="M163.14,317a6.82,6.82,0,0,1,2.52-2.51,7.48,7.48,0,0,1,7.15,0,6.87,6.87,0,0,1,2.51,2.51,7.7,7.7,0,0,1,0,7.3,6.82,6.82,0,0,1-2.51,2.52,7.48,7.48,0,0,1-7.15,0,6.77,6.77,0,0,1-2.52-2.52,7.63,7.63,0,0,1,0-7.3Zm2.06,6.16a4.65,4.65,0,0,0,1.65,1.73,4.58,4.58,0,0,0,6.4-1.73,5.12,5.12,0,0,0,.61-2.51,5.22,5.22,0,0,0-.61-2.52,4.41,4.41,0,0,0-1.65-1.72,4.86,4.86,0,0,0-4.75,0,4.48,4.48,0,0,0-1.65,1.72,5.21,5.21,0,0,0-.6,2.52A5.12,5.12,0,0,0,165.2,323.14Z"/><path d="M181.39,326.81a6.15,6.15,0,0,1-2.27-2.49,8,8,0,0,1-.81-3.69,8.21,8.21,0,0,1,.48-2.88,6.7,6.7,0,0,1,1.37-2.23,6.24,6.24,0,0,1,2.13-1.45,7.11,7.11,0,0,1,2.74-.51,6.63,6.63,0,0,1,3.43.84,5.51,5.51,0,0,1,2.2,2.4,8.37,8.37,0,0,1,.77,3.72c0,.13,0,.28,0,.42s0,.24,0,.28H179.81v-2h9.73l-.94,1.36a2,2,0,0,0,.18-.46,2.36,2.36,0,0,0,.08-.52,4.33,4.33,0,0,0-.48-2.09,3.61,3.61,0,0,0-1.35-1.39,3.91,3.91,0,0,0-2-.5,4.75,4.75,0,0,0-1.81.33,3.57,3.57,0,0,0-1.37.94,4.07,4.07,0,0,0-.86,1.53,6.64,6.64,0,0,0-.29,2.07,6.53,6.53,0,0,0,.5,2.71,3.64,3.64,0,0,0,1.47,1.71,4.52,4.52,0,0,0,2.36.59,4.91,4.91,0,0,0,2.45-.6,5.08,5.08,0,0,0,1.8-1.85l1.91,1.21a7,7,0,0,1-2.67,2.58,7.82,7.82,0,0,1-3.78.87A6.24,6.24,0,0,1,181.39,326.81Z"/><path d="M205.73,304.42v23h-2.36v-23Zm8,9.43-5.9,5.61,6.49,8h-2.95l-6.49-8,5.9-5.61Z"/><path d="M215.8,317a6.82,6.82,0,0,1,2.52-2.51,7.48,7.48,0,0,1,7.15,0A6.77,6.77,0,0,1,228,317a7.63,7.63,0,0,1,0,7.3,6.72,6.72,0,0,1-2.5,2.52,7.48,7.48,0,0,1-7.15,0,6.77,6.77,0,0,1-2.52-2.52,7.63,7.63,0,0,1,0-7.3Zm2.06,6.16a4.47,4.47,0,0,0,4,2.36,4.52,4.52,0,0,0,2.37-.63,4.57,4.57,0,0,0,1.65-1.73,5.12,5.12,0,0,0,.61-2.51,5.22,5.22,0,0,0-.61-2.52,4.41,4.41,0,0,0-1.65-1.72,4.86,4.86,0,0,0-4.75,0,4.41,4.41,0,0,0-1.65,1.72,5.21,5.21,0,0,0-.6,2.52A5.12,5.12,0,0,0,217.86,323.14Z"/><path d="M232,333.9v-20h2.36v20Zm12.8-9.49a6.38,6.38,0,0,1-2.44,2.45,6.72,6.72,0,0,1-3.37.85,5.36,5.36,0,0,1-2.32-.49,5,5,0,0,1-1.8-1.4,6.5,6.5,0,0,1-1.16-2.22,10.93,10.93,0,0,1,0-5.93,6.41,6.41,0,0,1,1.16-2.22,5.13,5.13,0,0,1,1.8-1.41,5.5,5.5,0,0,1,2.32-.48,6.72,6.72,0,0,1,3.37.85,6.36,6.36,0,0,1,2.44,2.44,8.31,8.31,0,0,1,0,7.56ZM242.69,318a4.29,4.29,0,0,0-1.68-1.65,4.88,4.88,0,0,0-2.32-.56,4,4,0,0,0-1.53.32,4.46,4.46,0,0,0-1.4,1,4.72,4.72,0,0,0-1,1.52,5.86,5.86,0,0,0,0,4.15,4.72,4.72,0,0,0,1,1.52,4.42,4.42,0,0,0,1.4.94,3.84,3.84,0,0,0,1.53.33,4.88,4.88,0,0,0,2.32-.56,4.29,4.29,0,0,0,1.68-1.65,5.91,5.91,0,0,0,0-5.31Z"/><path d="M248.81,333.9v-20h2.35v20Zm12.79-9.49a6.43,6.43,0,0,1-2.43,2.45,6.76,6.76,0,0,1-3.38.85,5.35,5.35,0,0,1-2.31-.49,5,5,0,0,1-1.8-1.4,6.5,6.5,0,0,1-1.16-2.22,10.68,10.68,0,0,1,0-5.93,6.41,6.41,0,0,1,1.16-2.22,5.13,5.13,0,0,1,1.8-1.41,5.49,5.49,0,0,1,2.31-.48,6.76,6.76,0,0,1,3.38.85,6.4,6.4,0,0,1,2.43,2.44,8.23,8.23,0,0,1,0,7.56ZM259.49,318a4.16,4.16,0,0,0-1.68-1.65,4.84,4.84,0,0,0-2.31-.56,4,4,0,0,0-1.53.32,4.5,4.5,0,0,0-1.41,1,4.54,4.54,0,0,0-1,1.52,5.72,5.72,0,0,0,0,4.15,4.54,4.54,0,0,0,1,1.52,4.46,4.46,0,0,0,1.41.94,3.84,3.84,0,0,0,1.53.33,4.84,4.84,0,0,0,2.31-.56,4.16,4.16,0,0,0,1.68-1.65,5.83,5.83,0,0,0,0-5.31Z"/><path d="M267.66,326.81a6.15,6.15,0,0,1-2.27-2.49,8.77,8.77,0,0,1-.32-6.57,6.39,6.39,0,0,1,1.37-2.23,6.3,6.3,0,0,1,2.12-1.45,7.15,7.15,0,0,1,2.74-.51,6.69,6.69,0,0,1,3.44.84,5.55,5.55,0,0,1,2.19,2.4,8.23,8.23,0,0,1,.77,3.72c0,.13,0,.28,0,.42s0,.24,0,.28H266.08v-2h9.73l-.94,1.36a2,2,0,0,0,.18-.46,2,2,0,0,0,.09-.52,4.33,4.33,0,0,0-.49-2.09,3.58,3.58,0,0,0-1.34-1.39,3.94,3.94,0,0,0-2-.5,4.75,4.75,0,0,0-1.81.33,3.57,3.57,0,0,0-1.37.94,4.07,4.07,0,0,0-.86,1.53,7,7,0,0,0-.29,2.07,6.53,6.53,0,0,0,.5,2.71,3.64,3.64,0,0,0,1.47,1.71,4.52,4.52,0,0,0,2.36.59,4.89,4.89,0,0,0,2.45-.6,5,5,0,0,0,1.8-1.85l1.91,1.21a7.06,7.06,0,0,1-2.66,2.58,7.86,7.86,0,0,1-3.79.87A6.24,6.24,0,0,1,267.66,326.81Z"/><path d="M283.3,304.42v23h-2.36v-23Z"/><path d="M289.63,326.81a6.08,6.08,0,0,1-2.27-2.49,8,8,0,0,1-.81-3.69,8.21,8.21,0,0,1,.48-2.88,6.54,6.54,0,0,1,1.37-2.23,6.24,6.24,0,0,1,2.13-1.45,7.11,7.11,0,0,1,2.74-.51,6.63,6.63,0,0,1,3.43.84,5.51,5.51,0,0,1,2.2,2.4,8.37,8.37,0,0,1,.77,3.72c0,.13,0,.28,0,.42s0,.24,0,.28H288.05v-2h9.73l-.94,1.36a2.06,2.06,0,0,0,.17-.46,2,2,0,0,0,.09-.52,4.33,4.33,0,0,0-.48-2.09,3.68,3.68,0,0,0-1.35-1.39,3.91,3.91,0,0,0-2-.5,4.75,4.75,0,0,0-1.81.33,3.61,3.61,0,0,0-1.38.94,4.2,4.2,0,0,0-.85,1.53,6.63,6.63,0,0,0-.3,2.07,6.52,6.52,0,0,0,.51,2.71,3.64,3.64,0,0,0,1.47,1.71,4.49,4.49,0,0,0,2.36.59,4.91,4.91,0,0,0,2.45-.6,5.06,5.06,0,0,0,1.79-1.85l1.92,1.21a7.16,7.16,0,0,1-2.67,2.58,7.83,7.83,0,0,1-3.79.87A6.23,6.23,0,0,1,289.63,326.81Z"/><path d="M311.28,317.29a2.37,2.37,0,0,0-1-1.14,3.12,3.12,0,0,0-1.59-.38,3.64,3.64,0,0,0-1.81.43,2.89,2.89,0,0,0-1.21,1.19,3.52,3.52,0,0,0-.43,1.77v8.26h-2.36V313.85h2.36V316a4.3,4.3,0,0,1,4-2.42,4.52,4.52,0,0,1,2.48.65,4.34,4.34,0,0,1,1.6,1.83,6.26,6.26,0,0,1,.58,2.83v8.55h-2.36v-8.26A4.64,4.64,0,0,0,311.28,317.29Z"/><path d="M327.83,313.85l3.39,8.82,3.68-9.85,4,9.91,3.42-8.88h2.66l-5.9,14.6-4.1-9.88-3.86,9.88-5.9-14.6Z"/><path d="M348.74,326.81a6.15,6.15,0,0,1-2.27-2.49,8,8,0,0,1-.81-3.69,8.21,8.21,0,0,1,.49-2.88,6.39,6.39,0,0,1,1.37-2.23,6.3,6.3,0,0,1,2.12-1.45,7.16,7.16,0,0,1,2.75-.51,6.66,6.66,0,0,1,3.43.84,5.57,5.57,0,0,1,2.2,2.4,8.37,8.37,0,0,1,.76,3.72c0,.13,0,.28,0,.42s0,.24,0,.28H347.17v-2h9.73l-.95,1.36a2,2,0,0,0,.18-.46,2,2,0,0,0,.09-.52,4.22,4.22,0,0,0-.49-2.09,3.58,3.58,0,0,0-1.34-1.39,3.93,3.93,0,0,0-2-.5,4.8,4.8,0,0,0-1.82.33,3.65,3.65,0,0,0-1.37.94,4.05,4.05,0,0,0-.85,1.53,7.46,7.46,0,0,0,.2,4.78,3.71,3.71,0,0,0,1.48,1.71,4.49,4.49,0,0,0,2.36.59,4.85,4.85,0,0,0,2.44-.6,5,5,0,0,0,1.8-1.85l1.92,1.21a7.16,7.16,0,0,1-2.67,2.58,7.83,7.83,0,0,1-3.79.87A6.27,6.27,0,0,1,348.74,326.81Z"/><path d="M370.62,317a6.82,6.82,0,0,1,2.52-2.51,7.48,7.48,0,0,1,7.15,0A6.87,6.87,0,0,1,382.8,317a7.63,7.63,0,0,1,0,7.3,6.82,6.82,0,0,1-2.51,2.52,7.48,7.48,0,0,1-7.15,0,6.77,6.77,0,0,1-2.52-2.52,7.63,7.63,0,0,1,0-7.3Zm2.07,6.16a4.57,4.57,0,0,0,1.65,1.73,4.77,4.77,0,0,0,4.74,0,4.67,4.67,0,0,0,1.66-1.73,5.12,5.12,0,0,0,.6-2.51,5.21,5.21,0,0,0-.6-2.52,4.5,4.5,0,0,0-1.66-1.72,4.84,4.84,0,0,0-4.74,0,4.41,4.41,0,0,0-1.65,1.72,5.11,5.11,0,0,0-.61,2.52A5,5,0,0,0,372.69,323.14Z"/><path d="M395.35,317.29a2.44,2.44,0,0,0-1-1.14,3.12,3.12,0,0,0-1.59-.38,3.64,3.64,0,0,0-1.81.43,3,3,0,0,0-1.21,1.19,3.52,3.52,0,0,0-.43,1.77v8.26H387V313.85h2.36V316a4.73,4.73,0,0,1,6.52-1.77,4.34,4.34,0,0,1,1.6,1.83,6.26,6.26,0,0,1,.58,2.83v8.55h-2.36v-8.26A4.83,4.83,0,0,0,395.35,317.29Z"/><path d="M401.57,316.06v-2.21h11.79L405,325.21h7.81v2.21H400.68l8.41-11.36Z"/><path d="M417.47,326.81a6.15,6.15,0,0,1-2.27-2.49,8,8,0,0,1-.81-3.69,8.21,8.21,0,0,1,.49-2.88,6.39,6.39,0,0,1,1.37-2.23,6.3,6.3,0,0,1,2.12-1.45,7.16,7.16,0,0,1,2.75-.51,6.66,6.66,0,0,1,3.43.84,5.57,5.57,0,0,1,2.2,2.4,8.37,8.37,0,0,1,.76,3.72c0,.13,0,.28,0,.42s0,.24,0,.28H415.9v-2h9.73l-.95,1.36a2,2,0,0,0,.18-.46,2,2,0,0,0,.09-.52,4.22,4.22,0,0,0-.49-2.09,3.58,3.58,0,0,0-1.34-1.39,3.93,3.93,0,0,0-2-.5,4.8,4.8,0,0,0-1.82.33,3.57,3.57,0,0,0-1.37.94,4.05,4.05,0,0,0-.85,1.53,7.46,7.46,0,0,0,.2,4.78,3.71,3.71,0,0,0,1.48,1.71,4.49,4.49,0,0,0,2.36.59,4.85,4.85,0,0,0,2.44-.6,5,5,0,0,0,1.8-1.85l1.92,1.21a7.16,7.16,0,0,1-2.67,2.58,7.83,7.83,0,0,1-3.79.87A6.27,6.27,0,0,1,417.47,326.81Z"/><path d="M154,352.23a6.42,6.42,0,0,1,2.45-2.43,6.78,6.78,0,0,1,3.36-.86,5.36,5.36,0,0,1,2.32.49,5,5,0,0,1,1.79,1.4,6.52,6.52,0,0,1,1.17,2.22,9.78,9.78,0,0,1,.41,3,9.67,9.67,0,0,1-.41,3,6.48,6.48,0,0,1-1.17,2.23,5.16,5.16,0,0,1-1.79,1.4,5.5,5.5,0,0,1-2.32.48,6.77,6.77,0,0,1-3.36-.85,6.41,6.41,0,0,1-2.45-2.45,8.31,8.31,0,0,1,0-7.56Zm2.11,6.44a4.15,4.15,0,0,0,1.7,1.65,4.74,4.74,0,0,0,2.3.56,4,4,0,0,0,1.53-.32,4.46,4.46,0,0,0,1.4-.95,4.67,4.67,0,0,0,1-1.51,5.88,5.88,0,0,0,0-4.16,4.72,4.72,0,0,0-1-1.52,4.42,4.42,0,0,0-1.4-.94,3.84,3.84,0,0,0-1.53-.33,4.86,4.86,0,0,0-2.3.56,4.28,4.28,0,0,0-1.7,1.65,5.91,5.91,0,0,0,0,5.31Zm10.69-18.87v23h-2.36v-23Z"/><path d="M171.51,342.48a1.62,1.62,0,0,1,2.29,2.29,1.62,1.62,0,1,1-2.29-2.29Zm2.32,6.76V362.8h-2.36V349.24Z"/><path d="M178.43,352.23a6.33,6.33,0,0,1,2.44-2.43,6.84,6.84,0,0,1,3.37-.86,5.35,5.35,0,0,1,2.31.49,5,5,0,0,1,1.8,1.4,6.5,6.5,0,0,1,1.16,2.22,9.77,9.77,0,0,1,.42,3,9.66,9.66,0,0,1-.42,3,6.46,6.46,0,0,1-1.16,2.23,5.11,5.11,0,0,1-1.8,1.4,5.49,5.49,0,0,1-2.31.48,6.83,6.83,0,0,1-3.37-.85,6.31,6.31,0,0,1-2.44-2.45,8.23,8.23,0,0,1,0-7.56Zm1.74,11.45a3.3,3.3,0,0,0,.53,1.82,3.79,3.79,0,0,0,1.5,1.35,4.79,4.79,0,0,0,2.3.52,4.51,4.51,0,0,0,2-.5,4.14,4.14,0,0,0,1.67-1.58,5.29,5.29,0,0,0,.66-2.79V349.24h2.36V362.5a7.29,7.29,0,0,1-1,3.91,6.33,6.33,0,0,1-2.51,2.37,6.82,6.82,0,0,1-3.24.8,7.89,7.89,0,0,1-3.49-.74,5.53,5.53,0,0,1-3.23-5.16Zm.36-5a4.21,4.21,0,0,0,1.7,1.65,4.77,4.77,0,0,0,2.3.56,4,4,0,0,0,1.53-.32,4.46,4.46,0,0,0,1.4-.95,4.52,4.52,0,0,0,1-1.51,5.88,5.88,0,0,0,0-4.16,4.56,4.56,0,0,0-1-1.52,4.42,4.42,0,0,0-1.4-.94,3.84,3.84,0,0,0-1.53-.33,4.89,4.89,0,0,0-2.3.56,4.34,4.34,0,0,0-1.7,1.65,5.91,5.91,0,0,0,0,5.31Z"/><path d="M196,342.48a1.62,1.62,0,0,1,1.14-.47,1.62,1.62,0,0,1,1.15,2.76,1.56,1.56,0,0,1-1.15.48,1.59,1.59,0,0,1-1.14-.48,1.61,1.61,0,0,1,0-2.29Zm2.32,6.76V362.8h-2.36V349.24Z"/><path d="M207.88,349.24v2.21H201.1v-2.21Zm-2.21-4.72V362.8h-2.36V344.52Z"/><path d="M211.67,359.94a2.32,2.32,0,0,0,1,.84,3.82,3.82,0,0,0,1.52.28,4.31,4.31,0,0,0,2-.44,3.59,3.59,0,0,0,1.39-1.26,3.43,3.43,0,0,0,.51-1.87l.47,1.77a3.06,3.06,0,0,1-.78,2.15,4.72,4.72,0,0,1-1.91,1.27,6.47,6.47,0,0,1-2.26.41,5.31,5.31,0,0,1-2.31-.51,4.25,4.25,0,0,1-1.73-1.49,4.19,4.19,0,0,1-.65-2.36,4.08,4.08,0,0,1,.64-2.3,4.23,4.23,0,0,1,1.82-1.52,6.9,6.9,0,0,1,2.85-.54,7.56,7.56,0,0,1,2.46.34,6,6,0,0,1,1.58.76,5,5,0,0,1,.8.69v1.39a7.43,7.43,0,0,0-2.13-1,8.69,8.69,0,0,0-2.33-.31,4.94,4.94,0,0,0-1.87.3,2.12,2.12,0,0,0-1.43,2.09A2.33,2.33,0,0,0,211.67,359.94Zm-1.87-9.32a10.32,10.32,0,0,1,2.11-1.12,8.4,8.4,0,0,1,3.22-.56,7.24,7.24,0,0,1,2.79.49,4.11,4.11,0,0,1,1.86,1.4,3.71,3.71,0,0,1,.66,2.24v9.73h-2.36v-9.41a2.6,2.6,0,0,0-.23-1.16,1.73,1.73,0,0,0-.67-.72,3,3,0,0,0-1-.39A5.69,5.69,0,0,0,215,351a6.42,6.42,0,0,0-1.82.24,6.09,6.09,0,0,0-1.37.56,10.14,10.14,0,0,0-.88.56Z"/><path d="M226.78,339.8v23h-2.36v-23Z"/><path d="M233.11,362.19a6.1,6.1,0,0,1-2.28-2.49A8,8,0,0,1,230,356a8.26,8.26,0,0,1,.49-2.89,6.39,6.39,0,0,1,1.37-2.23,6.13,6.13,0,0,1,2.12-1.44,7,7,0,0,1,2.75-.52,6.66,6.66,0,0,1,3.43.84,5.57,5.57,0,0,1,2.2,2.4,8.4,8.4,0,0,1,.76,3.72c0,.14,0,.28,0,.43s0,.24,0,.28H231.53v-2h9.73l-.95,1.36a2,2,0,0,0,.18-.46,2,2,0,0,0,.09-.51,4.23,4.23,0,0,0-.49-2.1,3.49,3.49,0,0,0-1.34-1.38,3.84,3.84,0,0,0-2-.51,4.8,4.8,0,0,0-1.82.33,3.77,3.77,0,0,0-1.37.94,4.18,4.18,0,0,0-.85,1.54,6.52,6.52,0,0,0-.3,2.06,6.66,6.66,0,0,0,.5,2.71,3.71,3.71,0,0,0,1.48,1.71,4.4,4.4,0,0,0,2.36.59,4.85,4.85,0,0,0,2.44-.6,5,5,0,0,0,1.8-1.85l1.92,1.21a7.16,7.16,0,0,1-2.67,2.58,7.83,7.83,0,0,1-3.79.87A6.21,6.21,0,0,1,233.11,362.19Z"/><path d="M256.66,359.94a2.29,2.29,0,0,0,1,.84,3.77,3.77,0,0,0,1.51.28,4.31,4.31,0,0,0,2-.44,3.52,3.52,0,0,0,1.39-1.26,3.43,3.43,0,0,0,.52-1.87l.47,1.77a3.06,3.06,0,0,1-.78,2.15,4.69,4.69,0,0,1-1.92,1.27,6.47,6.47,0,0,1-2.26.41,5.34,5.34,0,0,1-2.31-.51,4.22,4.22,0,0,1-1.72-1.49,4.56,4.56,0,0,1,0-4.66,4.2,4.2,0,0,1,1.83-1.52,6.82,6.82,0,0,1,2.84-.54,7.59,7.59,0,0,1,2.47.34,6,6,0,0,1,1.57.76,4.55,4.55,0,0,1,.8.69v1.39a7.5,7.5,0,0,0-2.12-1,8.8,8.8,0,0,0-2.33-.31,4.91,4.91,0,0,0-1.87.3,2.2,2.2,0,0,0-1.08.82,2.23,2.23,0,0,0-.36,1.27A2.41,2.41,0,0,0,256.66,359.94Zm-1.87-9.32a10.32,10.32,0,0,1,2.11-1.12,8.42,8.42,0,0,1,3.23-.56,7.19,7.19,0,0,1,2.78.49,4.11,4.11,0,0,1,1.86,1.4,3.72,3.72,0,0,1,.67,2.24v9.73h-2.36v-9.41a2.47,2.47,0,0,0-.24-1.16,1.77,1.77,0,0,0-.66-.72,3.11,3.11,0,0,0-1-.39A5.62,5.62,0,0,0,260,351a6.35,6.35,0,0,0-1.81.24,6.09,6.09,0,0,0-1.37.56c-.38.22-.67.4-.89.56Z"/><path d="M271.08,358.52a4.47,4.47,0,0,0,4,2.36,6,6,0,0,0,2.05-.34,5.54,5.54,0,0,0,1.66-.91,3.37,3.37,0,0,0,1-1.22v2.94a4.59,4.59,0,0,1-2,1.29,8.21,8.21,0,0,1-2.69.45,7,7,0,0,1-3.57-.91,6.77,6.77,0,0,1-2.52-2.52,7.63,7.63,0,0,1,0-7.3,6.82,6.82,0,0,1,2.52-2.51,7.13,7.13,0,0,1,3.57-.91,8,8,0,0,1,2.69.46,4.49,4.49,0,0,1,2,1.28v2.95a3.2,3.2,0,0,0-1-1.24,6,6,0,0,0-1.66-.9,6.3,6.3,0,0,0-2.05-.34,4.62,4.62,0,0,0-2.38.62,4.37,4.37,0,0,0-1.65,1.73,5.16,5.16,0,0,0-.6,2.52A5.08,5.08,0,0,0,271.08,358.52Z"/><path d="M288.23,349.24v2.21h-6.78v-2.21ZM286,344.52V362.8h-2.36V344.52Z"/><path d="M291.07,342.48a1.62,1.62,0,0,1,2.29,2.29,1.62,1.62,0,1,1-2.29-2.29Zm2.32,6.76V362.8H291V349.24Z"/><path d="M300.15,362.19a6.15,6.15,0,0,1-2.27-2.49,8.77,8.77,0,0,1-.32-6.57,6.39,6.39,0,0,1,1.37-2.23,6.13,6.13,0,0,1,2.12-1.44,7,7,0,0,1,2.74-.52,6.67,6.67,0,0,1,3.44.84,5.63,5.63,0,0,1,2.2,2.4,8.4,8.4,0,0,1,.76,3.72c0,.14,0,.28,0,.43s0,.24,0,.28H298.58v-2h9.73l-.95,1.36a2,2,0,0,0,.18-.46,2,2,0,0,0,.09-.51,4.23,4.23,0,0,0-.49-2.1,3.49,3.49,0,0,0-1.34-1.38,3.85,3.85,0,0,0-2-.51,4.78,4.78,0,0,0-1.81.33,3.69,3.69,0,0,0-1.37.94,4.18,4.18,0,0,0-.85,1.54,6.52,6.52,0,0,0-.3,2.06,6.66,6.66,0,0,0,.5,2.71,3.71,3.71,0,0,0,1.48,1.71,4.36,4.36,0,0,0,2.35.59,4.89,4.89,0,0,0,2.45-.6,5,5,0,0,0,1.8-1.85l1.92,1.21a7.16,7.16,0,0,1-2.67,2.58,7.86,7.86,0,0,1-3.79.87A6.27,6.27,0,0,1,300.15,362.19Z"/><path d="M314.94,359.79a4,4,0,0,0,1.22.84,3.66,3.66,0,0,0,1.52.31,2.44,2.44,0,0,0,1.58-.46,1.51,1.51,0,0,0,.57-1.25,1.68,1.68,0,0,0-.45-1.19,3.84,3.84,0,0,0-1.17-.83c-.47-.22-1-.44-1.5-.63a19,19,0,0,1-1.78-.84,4.78,4.78,0,0,1-1.51-1.27,3.51,3.51,0,0,1,0-4,3.77,3.77,0,0,1,1.65-1.18,6.11,6.11,0,0,1,4.16,0,5.92,5.92,0,0,1,1.69.95,4.35,4.35,0,0,1,1.16,1.35l-1.89,1.21a4.7,4.7,0,0,0-1.4-1.26,3.6,3.6,0,0,0-1.9-.51,2.33,2.33,0,0,0-1.27.33,1.08,1.08,0,0,0-.53,1,1.27,1.27,0,0,0,.41.94,3.91,3.91,0,0,0,1.06.74c.43.22.89.42,1.36.62a18.71,18.71,0,0,1,2.15,1,4.91,4.91,0,0,1,1.55,1.31,3.23,3.23,0,0,1,.57,2,3.76,3.76,0,0,1-.59,2.1,4.25,4.25,0,0,1-1.63,1.48,5.25,5.25,0,0,1-2.44.54,5.89,5.89,0,0,1-4.29-1.74,5.8,5.8,0,0,1-1.13-1.56l1.86-1.15A7.38,7.38,0,0,0,314.94,359.79Z"/><path d="M335.59,359.94a2.29,2.29,0,0,0,1,.84,3.82,3.82,0,0,0,1.52.28,4.34,4.34,0,0,0,2-.44,3.5,3.5,0,0,0,1.38-1.26,3.35,3.35,0,0,0,.52-1.87l.47,1.77a3.06,3.06,0,0,1-.78,2.15,4.69,4.69,0,0,1-1.92,1.27,6.46,6.46,0,0,1-2.25.41,5.35,5.35,0,0,1-2.32-.51,4.22,4.22,0,0,1-1.72-1.49,4.56,4.56,0,0,1,0-4.66,4.2,4.2,0,0,1,1.83-1.52,6.87,6.87,0,0,1,2.85-.54,7.56,7.56,0,0,1,2.46.34,5.89,5.89,0,0,1,1.57.76,4.55,4.55,0,0,1,.8.69v1.39a7.5,7.5,0,0,0-2.12-1,8.8,8.8,0,0,0-2.33-.31,4.91,4.91,0,0,0-1.87.3,2.25,2.25,0,0,0-1.08.82,2.22,2.22,0,0,0-.35,1.27A2.41,2.41,0,0,0,335.59,359.94Zm-1.87-9.32a10.59,10.59,0,0,1,2.11-1.12,8.42,8.42,0,0,1,3.23-.56,7.28,7.28,0,0,1,2.79.49,4.13,4.13,0,0,1,1.85,1.4,3.65,3.65,0,0,1,.67,2.24v9.73H342v-9.41a2.47,2.47,0,0,0-.24-1.16,1.77,1.77,0,0,0-.66-.72,3.11,3.11,0,0,0-1-.39,5.62,5.62,0,0,0-1.18-.12,6.35,6.35,0,0,0-1.81.24,6.09,6.09,0,0,0-1.37.56c-.38.22-.67.4-.89.56Z"/><path d="M349.78,359.94a2.26,2.26,0,0,0,1,.84,3.82,3.82,0,0,0,1.52.28,4.34,4.34,0,0,0,2-.44,3.5,3.5,0,0,0,1.38-1.26,3.35,3.35,0,0,0,.52-1.87l.47,1.77a3.06,3.06,0,0,1-.78,2.15,4.69,4.69,0,0,1-1.92,1.27,6.42,6.42,0,0,1-2.25.41,5.35,5.35,0,0,1-2.32-.51,4.29,4.29,0,0,1-1.72-1.49,4.56,4.56,0,0,1,0-4.66,4.31,4.31,0,0,1,1.83-1.52,6.9,6.9,0,0,1,2.85-.54,7.56,7.56,0,0,1,2.46.34,6.13,6.13,0,0,1,1.58.76,4.78,4.78,0,0,1,.79.69v1.39a7.37,7.37,0,0,0-2.12-1,8.75,8.75,0,0,0-2.33-.31,4.91,4.91,0,0,0-1.87.3,2.09,2.09,0,0,0-1.43,2.09A2.33,2.33,0,0,0,349.78,359.94Zm-1.88-9.32A10.59,10.59,0,0,1,350,349.5a8.45,8.45,0,0,1,3.23-.56,7.28,7.28,0,0,1,2.79.49,4.13,4.13,0,0,1,1.85,1.4,3.65,3.65,0,0,1,.67,2.24v9.73h-2.36v-9.41a2.47,2.47,0,0,0-.24-1.16,1.64,1.64,0,0,0-.66-.72,3,3,0,0,0-1-.39,5.55,5.55,0,0,0-1.18-.12,6.35,6.35,0,0,0-1.81.24,6.09,6.09,0,0,0-1.37.56c-.37.22-.67.4-.89.56Z"/><path d="M370.9,352.67a2.3,2.3,0,0,0-1-1.13,3,3,0,0,0-1.59-.39,3.68,3.68,0,0,0-1.82.43,3.08,3.08,0,0,0-1.21,1.19,3.65,3.65,0,0,0-.42,1.77v8.26h-2.36V349.24h2.36v2.12a4.5,4.5,0,0,1,1.69-1.83,4.63,4.63,0,0,1,2.35-.59,4.57,4.57,0,0,1,2.47.65,4.3,4.3,0,0,1,1.61,1.83,6.43,6.43,0,0,1,.58,2.83v8.55h-2.36v-8.26A4.67,4.67,0,0,0,370.9,352.67Z"/><path d="M386.59,352.23A6.35,6.35,0,0,1,389,349.8a6.78,6.78,0,0,1,3.36-.86,5.35,5.35,0,0,1,2.31.49,5,5,0,0,1,1.8,1.4,6.5,6.5,0,0,1,1.16,2.22,9.77,9.77,0,0,1,.42,3,9.66,9.66,0,0,1-.42,3,6.46,6.46,0,0,1-1.16,2.23,5.11,5.11,0,0,1-1.8,1.4,5.49,5.49,0,0,1-2.31.48,6.77,6.77,0,0,1-3.36-.85,6.34,6.34,0,0,1-2.45-2.45,8.23,8.23,0,0,1,0-7.56Zm2.11,6.44a4.13,4.13,0,0,0,1.69,1.65,4.8,4.8,0,0,0,2.3.56,4,4,0,0,0,1.53-.32,4.56,4.56,0,0,0,2.42-2.46,5.74,5.74,0,0,0,0-4.16,4.54,4.54,0,0,0-1-1.52,4.46,4.46,0,0,0-1.41-.94,3.84,3.84,0,0,0-1.53-.33,4.92,4.92,0,0,0-2.3.56,4.25,4.25,0,0,0-1.69,1.65,5.83,5.83,0,0,0,0,5.31Zm10.68-18.87v23H397v-23Z"/><path d="M405.56,362.19a6.15,6.15,0,0,1-2.27-2.49,8.77,8.77,0,0,1-.32-6.57,6.39,6.39,0,0,1,1.37-2.23,6.13,6.13,0,0,1,2.12-1.44,7,7,0,0,1,2.74-.52,6.69,6.69,0,0,1,3.44.84,5.55,5.55,0,0,1,2.19,2.4,8.26,8.26,0,0,1,.77,3.72c0,.14,0,.28,0,.43s0,.24,0,.28H404v-2h9.73l-.94,1.36a2,2,0,0,0,.18-.46A2,2,0,0,0,413,355a4.34,4.34,0,0,0-.49-2.1,3.49,3.49,0,0,0-1.34-1.38,3.85,3.85,0,0,0-2-.51,4.75,4.75,0,0,0-1.81.33,3.69,3.69,0,0,0-1.37.94,4.34,4.34,0,0,0-.86,1.54,6.83,6.83,0,0,0-.29,2.06,6.49,6.49,0,0,0,.5,2.71,3.69,3.69,0,0,0,1.47,1.71,4.42,4.42,0,0,0,2.36.59,4.89,4.89,0,0,0,2.45-.6,5,5,0,0,0,1.8-1.85l1.92,1.21a7.16,7.16,0,0,1-2.67,2.58,7.86,7.86,0,0,1-3.79.87A6.24,6.24,0,0,1,405.56,362.19Z"/><path d="M182.24,384.62v2.21h-6.78v-2.21Zm-.92-7.24a2.38,2.38,0,0,0-.76-.13,1.15,1.15,0,0,0-.75.25,1.59,1.59,0,0,0-.48.84,5.47,5.47,0,0,0-.18,1.56v18.28h-2.36V379.6a6.48,6.48,0,0,1,.47-2.65,3.41,3.41,0,0,1,1.34-1.55,4.1,4.1,0,0,1,2.11-.51,3.66,3.66,0,0,1,1.15.17,3.56,3.56,0,0,1,.87.45,2.22,2.22,0,0,1,.58.56L182,378A1.37,1.37,0,0,0,181.32,377.38Z"/><path d="M186.84,404.67h-2.65l3.72-8.41-5.19-11.64h2.8l4.3,10.61-1-.12L193,384.62h2.66Z"/><path d="M199.4,395.17a3.85,3.85,0,0,0,1.23.84,3.63,3.63,0,0,0,1.52.31,2.48,2.48,0,0,0,1.57-.45,1.52,1.52,0,0,0,.58-1.26,1.64,1.64,0,0,0-.46-1.19,3.79,3.79,0,0,0-1.16-.83c-.48-.22-1-.43-1.51-.63a19,19,0,0,1-1.78-.84,4.75,4.75,0,0,1-1.5-1.27,3.06,3.06,0,0,1-.61-2,3.11,3.11,0,0,1,.63-2,3.7,3.7,0,0,1,1.66-1.18,5.93,5.93,0,0,1,4.15,0,6,6,0,0,1,1.7.94,4.37,4.37,0,0,1,1.15,1.36l-1.89,1.21a4.49,4.49,0,0,0-1.4-1.27,3.57,3.57,0,0,0-1.9-.5,2.37,2.37,0,0,0-1.27.32,1.1,1.1,0,0,0-.53,1,1.33,1.33,0,0,0,.41.95,4.12,4.12,0,0,0,1.06.73c.44.22.89.43,1.36.62a19.63,19.63,0,0,1,2.15,1,4.8,4.8,0,0,1,1.55,1.31,3.23,3.23,0,0,1,.58,2,3.9,3.9,0,0,1-.59,2.11,4.18,4.18,0,0,1-1.64,1.47,5.24,5.24,0,0,1-2.43.55,6,6,0,0,1-4.29-1.74,6.29,6.29,0,0,1-1.14-1.57l1.86-1.15A7.48,7.48,0,0,0,199.4,395.17Z"/><path d="M210.27,377.87a1.55,1.55,0,0,1,1.13-.48A1.64,1.64,0,0,1,213,379a1.63,1.63,0,1,1-2.76-1.15Zm2.31,6.75v13.56h-2.35V384.62Z"/><path d="M219.35,397.58a6.11,6.11,0,0,1-2.27-2.5,8.77,8.77,0,0,1-.32-6.57,6.39,6.39,0,0,1,1.37-2.23,6,6,0,0,1,2.12-1.44,7.15,7.15,0,0,1,2.74-.52,6.69,6.69,0,0,1,3.44.84,5.52,5.52,0,0,1,2.19,2.41,8.35,8.35,0,0,1,.77,3.71c0,.14,0,.28,0,.43s0,.24,0,.28H217.77v-2h9.73l-.94,1.36a2,2,0,0,0,.18-.46,1.89,1.89,0,0,0,.09-.51,4.34,4.34,0,0,0-.49-2.1,3.56,3.56,0,0,0-1.34-1.38,3.85,3.85,0,0,0-2-.5,4.94,4.94,0,0,0-1.81.32,3.69,3.69,0,0,0-1.37.94,4.19,4.19,0,0,0-.86,1.54,6.93,6.93,0,0,0-.29,2.06,6.49,6.49,0,0,0,.5,2.71,3.64,3.64,0,0,0,1.47,1.71,4.42,4.42,0,0,0,2.36.59,4.89,4.89,0,0,0,2.45-.6,5,5,0,0,0,1.8-1.84l1.91,1.21a7.06,7.06,0,0,1-2.66,2.58,7.88,7.88,0,0,1-3.79.87A6.24,6.24,0,0,1,219.35,397.58Z"/><path d="M234.84,375.18v23h-2.35v-23Zm8,9.44-5.9,5.6,6.49,8h-3l-6.49-8,5.9-5.6Z"/><path d="M247.07,397.58a6,6,0,0,1-2.27-2.5,7.88,7.88,0,0,1-.81-3.68,8.26,8.26,0,0,1,.48-2.89,6.54,6.54,0,0,1,1.37-2.23,6.08,6.08,0,0,1,2.13-1.44,7.08,7.08,0,0,1,2.74-.52,6.66,6.66,0,0,1,3.43.84,5.48,5.48,0,0,1,2.2,2.41,8.35,8.35,0,0,1,.77,3.71c0,.14,0,.28,0,.43s0,.24,0,.28H245.49v-2h9.73l-.94,1.36a2.72,2.72,0,0,0,.17-.46,1.89,1.89,0,0,0,.09-.51,4.23,4.23,0,0,0-.49-2.1,3.49,3.49,0,0,0-1.34-1.38,3.83,3.83,0,0,0-2-.5,5,5,0,0,0-1.82.32,3.77,3.77,0,0,0-1.37.94,4.33,4.33,0,0,0-.85,1.54,7.43,7.43,0,0,0,.2,4.77,3.71,3.71,0,0,0,1.48,1.71,4.4,4.4,0,0,0,2.36.59,4.91,4.91,0,0,0,2.45-.6,5,5,0,0,0,1.79-1.84l1.92,1.21a7.16,7.16,0,0,1-2.67,2.58,7.83,7.83,0,0,1-3.79.87A6.23,6.23,0,0,1,247.07,397.58Z"/><path d="M269.78,384.62l3.39,8.81,3.69-9.85,3.95,9.91,3.42-8.87h2.66L281,399.21l-4.1-9.88L273,399.21l-5.9-14.59Z"/><path d="M290.7,397.58a6.11,6.11,0,0,1-2.27-2.5,8.77,8.77,0,0,1-.32-6.57,6.39,6.39,0,0,1,1.37-2.23,6.13,6.13,0,0,1,2.12-1.44,7.17,7.17,0,0,1,2.75-.52,6.66,6.66,0,0,1,3.43.84,5.54,5.54,0,0,1,2.2,2.41,8.36,8.36,0,0,1,.76,3.71c0,.14,0,.28,0,.43s0,.24,0,.28H289.13v-2h9.73l-.95,1.36a2,2,0,0,0,.18-.46,1.89,1.89,0,0,0,.09-.51,4.23,4.23,0,0,0-.49-2.1,3.49,3.49,0,0,0-1.34-1.38,3.83,3.83,0,0,0-2-.5,5,5,0,0,0-1.82.32,3.69,3.69,0,0,0-1.37.94,4.18,4.18,0,0,0-.85,1.54,7.43,7.43,0,0,0,.2,4.77,3.71,3.71,0,0,0,1.48,1.71,4.4,4.4,0,0,0,2.36.59,4.88,4.88,0,0,0,2.44-.6,5,5,0,0,0,1.8-1.84l1.92,1.21a7.16,7.16,0,0,1-2.67,2.58,7.86,7.86,0,0,1-3.79.87A6.27,6.27,0,0,1,290.7,397.58Z"/><path d="M306.35,398.18H304V384.62h2.36Zm3.24-11.48a2.48,2.48,0,0,0-1-.17,2,2,0,0,0-1.39.45,2.23,2.23,0,0,0-.69,1.21,7,7,0,0,0-.19,1.73h-1.07a6.87,6.87,0,0,1,.58-2.87,5.29,5.29,0,0,1,1.49-2,3,3,0,0,1,1.86-.74,5,5,0,0,1,1.37.19,2.63,2.63,0,0,1,1.16.76l-1.3,1.94A4,4,0,0,0,309.59,386.7Z"/><path d="M315.56,397.58a6.11,6.11,0,0,1-2.27-2.5,8,8,0,0,1-.81-3.68,8.26,8.26,0,0,1,.48-2.89,6.56,6.56,0,0,1,1.38-2.23,6,6,0,0,1,2.12-1.44,7.12,7.12,0,0,1,2.74-.52,6.69,6.69,0,0,1,3.44.84,5.52,5.52,0,0,1,2.19,2.41,8.35,8.35,0,0,1,.77,3.71c0,.14,0,.28,0,.43s0,.24,0,.28H314v-2h9.73l-.94,1.36a2,2,0,0,0,.18-.46,2.28,2.28,0,0,0,.08-.51,4.34,4.34,0,0,0-.48-2.1,3.56,3.56,0,0,0-1.34-1.38,3.85,3.85,0,0,0-2-.5,4.94,4.94,0,0,0-1.81.32,3.69,3.69,0,0,0-1.37.94,4.19,4.19,0,0,0-.86,1.54,6.62,6.62,0,0,0-.29,2.06,6.49,6.49,0,0,0,.5,2.71,3.64,3.64,0,0,0,1.47,1.71,4.42,4.42,0,0,0,2.36.59,4.91,4.91,0,0,0,2.45-.6,5,5,0,0,0,1.8-1.84l1.91,1.21a7.06,7.06,0,0,1-2.66,2.58,7.88,7.88,0,0,1-3.79.87A6.24,6.24,0,0,1,315.56,397.58Z"/><path d="M331.2,375.18v23h-2.36v-23Z"/><path d="M335.36,387.61a6.35,6.35,0,0,1,2.45-2.43,6.78,6.78,0,0,1,3.36-.86,5.35,5.35,0,0,1,2.31.49,5,5,0,0,1,1.8,1.4,6.65,6.65,0,0,1,1.17,2.23,10.89,10.89,0,0,1,0,5.92,6.65,6.65,0,0,1-1.17,2.23,5.11,5.11,0,0,1-1.8,1.4,5.5,5.5,0,0,1-2.31.49,6.78,6.78,0,0,1-3.36-.86,6.34,6.34,0,0,1-2.45-2.45,8.31,8.31,0,0,1,0-7.56Zm2.11,6.44a4.13,4.13,0,0,0,1.69,1.65,4.8,4.8,0,0,0,2.3.56,3.82,3.82,0,0,0,1.53-.32,4.47,4.47,0,0,0,2.42-2.46,5.74,5.74,0,0,0,0-4.16,4.54,4.54,0,0,0-1-1.52,4.64,4.64,0,0,0-1.41-.94,3.84,3.84,0,0,0-1.53-.33,4.92,4.92,0,0,0-2.3.56,4.21,4.21,0,0,0-1.69,1.66,5.81,5.81,0,0,0,0,5.3Zm10.69-18.87v23H345.8v-23Z"/><path d="M362,381.29a3.42,3.42,0,0,0-1.5-1.36,5.3,5.3,0,0,0-2.3-.47,4.64,4.64,0,0,0-2.52.66,5.33,5.33,0,0,0-1.72,1.78L352,380.7a10,10,0,0,1,1.5-1.82,5.82,5.82,0,0,1,2-1.21,9,9,0,0,1,2.94-.42,6.65,6.65,0,0,1,2.55.47,6.27,6.27,0,0,1,2,1.31,6,6,0,0,1,1.84,4.41,5.49,5.49,0,0,1-.88,3.05,7,7,0,0,1-2.3,2.21,6.63,6.63,0,0,1-3.07.93l-.2,3.54h-1.77l-.59-5.16h.76a6.38,6.38,0,0,0,3-.68,5.22,5.22,0,0,0,1.95-1.72,4,4,0,0,0,.68-2.17A4,4,0,0,0,362,381.29Zm-5.49,14.56a1.61,1.61,0,0,1,2.75,1.15,1.62,1.62,0,0,1-.47,1.14,1.62,1.62,0,1,1-2.28-2.29Z"/><path d="M377.4,385.8v-2.36l15,6.48v1.33l-15,6.49v-2.36l11.15-4.66Z"/></g></g></svg>