<svg xmlns="http://www.w3.org/2000/svg" xmlns:xlink="http://www.w3.org/1999/xlink" viewBox="0 0 939.85 1261.12"><defs><style>.cls-1{fill:none;}.cls-2{fill:#2abf41;}.cls-3{font-size:60px;font-family:CooperBlack, Cooper Black;}.cls-4{font-size:24px;}.cls-5{letter-spacing:-0.01em;}.cls-6{clip-path:url(#clip-path);}.cls-7{fill:#fefefe;}.cls-8{fill:#7db1cb;}.cls-9{fill:#a18962;}.cls-10{fill:#958c7b;}.cls-11{fill:#a37d3c;}.cls-12{fill:#a28b64;}.cls-13{fill:#a47e3e;}.cls-14{fill:#a47f3f;}.cls-15{fill:#a47f3e;}.cls-16{fill:#b39461;}.cls-17{fill:#e3d3a9;}.cls-18{fill:#b9b6b1;}.cls-19{fill:#b9b6b0;}.cls-20{fill:#e2d2a9;}.cls-21{fill:#f9f7f3;}.cls-22{fill:#ceb486;}.cls-23{fill:#b49562;}.cls-24{fill:#cfb587;}.cls-25{fill:#b29360;}.cls-26{fill:#b0905d;}.cls-27{fill:#b2925f;}.cls-28{fill:#b59663;}.cls-29{fill:#cdb384;}.cls-30{fill:#ece4d7;}.cls-31{fill:#aca79e;}.cls-32{fill:#988f7e;}.cls-33{fill:#7db0ca;}.cls-34{fill:#86bedb;}.cls-35{fill:#1d1d1b;}.cls-36{fill:#fff;}</style><clipPath id="clip-path" transform="translate(0 15.16)"><path class="cls-1" d="M497.47,259.11c1.16,9.77,1.36,19.64,1.68,24.66,0,47.25-10.24,86.7-38,120.55-33.7,41.14-77.88,66.11-131.07,76.34-34.86,6.71-69.66,4.41-104.25-2a634.54,634.54,0,0,1-74-18.26c34.91-6.62,63.83-21.35,84.61-35,11.6-7.64,24-15.72,35.73-28.66,41.73-45.89,43.12-116.13,44-161,.3-15-.08-41.59,8-77,2.35-10.28,4.38-16.83,8-29,6.3-21.17,15.12-51.72,25.41-90.5,48.69,28.08,85,68.47,110.21,119.35A306.46,306.46,0,0,1,497.47,259.11Z"/></clipPath></defs><g id="Layer_2" data-name="Layer 2"><g id="Layer_1-2" data-name="Layer 1"><path class="cls-2" d="M499.15,283.77c0,47.25-10.24,86.7-38,120.55-33.7,41.14-77.88,66.11-131.07,76.34-34.86,6.71-69.66,4.41-104.25-2a634.54,634.54,0,0,1-74-18.26,540,540,0,0,1-69.55-27.07c-22-10.42-42.22-23.51-58.21-41.91C8.82,373.9,1.74,353.49.38,331c-1.83-30.28,3.19-59.92,9.71-89.34,8-36.25,16.09-72.49,24.83-108.58A227.08,227.08,0,0,1,57.32,75.6c18.83-33.73,48.36-54.54,85.9-65.24,63.31-18,125.07-11.95,184.62,13.91a292.46,292.46,0,0,1,29.72,14.94c48.69,28.08,85,68.47,110.21,119.35a306.46,306.46,0,0,1,29.7,100.55C498.63,268.88,498.83,278.75,499.15,283.77Z" transform="translate(0 15.16)"/><text class="cls-3" transform="translate(51.07 176.03)">YUM-ME<tspan class="cls-4"><tspan x="0" y="28.8">MET </tspan><tspan class="cls-5" x="60.61" y="28.8">N</tspan><tspan x="80.27" y="28.8">OËMI</tspan></tspan></text><path d="M45.59,286.87v20.64H43.08V286.87Zm-1.12,0H54.88v2.35H44.47Zm0,8.25h9.82v2.36H44.47Zm0,10H54.88v2.36H44.47Z" transform="translate(0 15.16)"/><path d="M63.87,293.94v2.21H57.09v-2.21Zm-2.21-4.72v18.29H59.3V289.22Z" transform="translate(0 15.16)"/><path d="M68.13,306.9a6.15,6.15,0,0,1-2.27-2.49,8.77,8.77,0,0,1-.32-6.57,6.39,6.39,0,0,1,1.37-2.23A6.3,6.3,0,0,1,69,294.16a7.15,7.15,0,0,1,2.74-.51,6.69,6.69,0,0,1,3.44.84,5.55,5.55,0,0,1,2.19,2.4,8.23,8.23,0,0,1,.77,3.72c0,.13,0,.28,0,.42s0,.24,0,.28H66.55v-2h9.73l-.94,1.36a2,2,0,0,0,.18-.46,2,2,0,0,0,.09-.52,4.33,4.33,0,0,0-.49-2.09,3.58,3.58,0,0,0-1.34-1.39,3.94,3.94,0,0,0-2-.5A4.75,4.75,0,0,0,70,296a3.57,3.57,0,0,0-1.37.94,4.21,4.21,0,0,0-.86,1.53,7,7,0,0,0-.29,2.07,6.53,6.53,0,0,0,.5,2.71A3.64,3.64,0,0,0,69.41,305a4.52,4.52,0,0,0,2.36.59,4.89,4.89,0,0,0,2.45-.6,5,5,0,0,0,1.8-1.85l1.91,1.21a7.06,7.06,0,0,1-2.66,2.58,7.86,7.86,0,0,1-3.79.87A6.24,6.24,0,0,1,68.13,306.9Z" transform="translate(0 15.16)"/><path d="M89.79,297.38a2.39,2.39,0,0,0-1-1.14,3.12,3.12,0,0,0-1.59-.38,3.64,3.64,0,0,0-1.81.43,3,3,0,0,0-1.21,1.19,3.62,3.62,0,0,0-.43,1.77v8.26H81.41V293.94h2.36v2.13a4.52,4.52,0,0,1,1.7-1.83,4.62,4.62,0,0,1,2.34-.59,4.5,4.5,0,0,1,2.48.65,4.36,4.36,0,0,1,1.61,1.83,6.4,6.4,0,0,1,.57,2.83v8.55H90.11v-8.26A4.83,4.83,0,0,0,89.79,297.38Z" transform="translate(0 15.16)"/><path d="M107.17,304.65a2.26,2.26,0,0,0,1,.84,4,4,0,0,0,1.52.28,4.19,4.19,0,0,0,2-.45,3.49,3.49,0,0,0,1.39-1.25,3.43,3.43,0,0,0,.51-1.87l.47,1.77a3.07,3.07,0,0,1-.78,2.15,4.82,4.82,0,0,1-1.91,1.27,6.71,6.71,0,0,1-2.26.41,5.28,5.28,0,0,1-2.31-.51,4.32,4.32,0,0,1-1.73-1.49,4.19,4.19,0,0,1-.65-2.36,4.05,4.05,0,0,1,.64-2.3,4.16,4.16,0,0,1,1.82-1.52,6.9,6.9,0,0,1,2.85-.55,7.84,7.84,0,0,1,2.46.34,6,6,0,0,1,1.58.77,3.72,3.72,0,0,1,.79.69v1.39a7.25,7.25,0,0,0-2.12-1,8.36,8.36,0,0,0-2.33-.31,4.94,4.94,0,0,0-1.87.3,2.09,2.09,0,0,0-1.43,2.09A2.35,2.35,0,0,0,107.17,304.65Zm-1.87-9.32a10.48,10.48,0,0,1,2.1-1.12,8.49,8.49,0,0,1,3.23-.56,7.48,7.48,0,0,1,2.79.48,4.2,4.2,0,0,1,1.86,1.41,3.69,3.69,0,0,1,.66,2.24v9.73h-2.36V298.1a2.6,2.6,0,0,0-.23-1.16,1.82,1.82,0,0,0-.67-.73,3.14,3.14,0,0,0-1-.38,5.55,5.55,0,0,0-1.18-.12,6.39,6.39,0,0,0-1.81.24,6.09,6.09,0,0,0-1.37.56,8.19,8.19,0,0,0-.88.56Z" transform="translate(0 15.16)"/><path d="M122.28,284.51v23h-2.36v-23Z" transform="translate(0 15.16)"/><path d="M128.21,304.5a4.15,4.15,0,0,0,1.22.84,3.63,3.63,0,0,0,1.52.31,2.46,2.46,0,0,0,1.58-.46,1.51,1.51,0,0,0,.57-1.25,1.68,1.68,0,0,0-.46-1.2,3.77,3.77,0,0,0-1.16-.82c-.47-.23-1-.44-1.5-.64a15.12,15.12,0,0,1-1.79-.84,4.59,4.59,0,0,1-1.5-1.26,3.47,3.47,0,0,1,0-4,3.77,3.77,0,0,1,1.65-1.18,6,6,0,0,1,5.85.92,4.32,4.32,0,0,1,1.15,1.35l-1.89,1.21a4.74,4.74,0,0,0-1.4-1.27,3.67,3.67,0,0,0-1.9-.5,2.38,2.38,0,0,0-1.27.33,1.09,1.09,0,0,0-.53,1,1.28,1.28,0,0,0,.42.94,3.82,3.82,0,0,0,1.06.74c.43.22.88.42,1.35.62a16.68,16.68,0,0,1,2.16,1,4.87,4.87,0,0,1,1.54,1.31,3.16,3.16,0,0,1,.58,2,3.87,3.87,0,0,1-.59,2.11,4.21,4.21,0,0,1-1.64,1.48,5.24,5.24,0,0,1-2.43.54,6,6,0,0,1-4.29-1.74,5.8,5.8,0,0,1-1.13-1.56l1.85-1.15A8,8,0,0,0,128.21,304.5Z" transform="translate(0 15.16)"/><path d="M166,307.51h-2.36v-8.26a5.69,5.69,0,0,0-.28-1.92,2.19,2.19,0,0,0-.86-1.1,2.62,2.62,0,0,0-1.46-.37,3.32,3.32,0,0,0-1.68.4,2.66,2.66,0,0,0-1.09,1.16,4,4,0,0,0-.38,1.83v8.26h-2.36v-8.26a5.45,5.45,0,0,0-.28-1.92,2.14,2.14,0,0,0-.86-1.1,2.62,2.62,0,0,0-1.46-.37,3.34,3.34,0,0,0-1.68.4,2.66,2.66,0,0,0-1.09,1.16,4.12,4.12,0,0,0-.38,1.83v8.26h-2.36V293.94h2.36v2a4.51,4.51,0,0,1,1-1.27,3.69,3.69,0,0,1,1.25-.75,4.47,4.47,0,0,1,1.53-.25,4.87,4.87,0,0,1,1.71.29,4,4,0,0,1,1.35.86,3.62,3.62,0,0,1,.87,1.38,5.07,5.07,0,0,1,1.76-1.9,4.67,4.67,0,0,1,2.42-.63,4.24,4.24,0,0,1,2.36.62,3.85,3.85,0,0,1,1.49,1.81A7.34,7.34,0,0,1,166,299Z" transform="translate(0 15.16)"/><path d="M170.92,287.19a1.61,1.61,0,0,1,2.75,1.15,1.62,1.62,0,0,1-.47,1.14,1.62,1.62,0,1,1-2.28-2.29Zm2.31,6.75v13.57h-2.36V293.94Z" transform="translate(0 15.16)"/><path d="M177.83,296.94a6.31,6.31,0,0,1,2.45-2.44,6.77,6.77,0,0,1,3.36-.85,5.49,5.49,0,0,1,2.31.48,5.13,5.13,0,0,1,1.8,1.41,6.6,6.6,0,0,1,1.17,2.22,10.93,10.93,0,0,1,0,5.93,6.7,6.7,0,0,1-1.17,2.22,5,5,0,0,1-1.8,1.4,5.35,5.35,0,0,1-2.31.49,6.77,6.77,0,0,1-3.36-.85,6.34,6.34,0,0,1-2.45-2.45,8.31,8.31,0,0,1,0-7.56Zm2.11,6.44a4.13,4.13,0,0,0,1.69,1.65,4.92,4.92,0,0,0,2.3.56,3.92,3.92,0,0,0,1.54-.33,4.5,4.5,0,0,0,2.41-2.46,5.72,5.72,0,0,0,0-4.15,4.56,4.56,0,0,0-2.41-2.47,4.09,4.09,0,0,0-1.54-.32,4.92,4.92,0,0,0-2.3.56,4.13,4.13,0,0,0-1.69,1.65,5.83,5.83,0,0,0,0,5.31Zm10.69-18.87v23h-2.36v-23Z" transform="translate(0 15.16)"/><path d="M194.64,296.94a6.36,6.36,0,0,1,2.44-2.44,6.79,6.79,0,0,1,3.36-.85,5.5,5.5,0,0,1,2.32.48,5.13,5.13,0,0,1,1.8,1.41,6.41,6.41,0,0,1,1.16,2.22,10.93,10.93,0,0,1,0,5.93,6.5,6.5,0,0,1-1.16,2.22,5,5,0,0,1-1.8,1.4,5.36,5.36,0,0,1-2.32.49,6.79,6.79,0,0,1-3.36-.85,6.38,6.38,0,0,1-2.44-2.45,8.23,8.23,0,0,1,0-7.56Zm2.1,6.44a4.21,4.21,0,0,0,1.7,1.65,4.89,4.89,0,0,0,2.3.56,3.84,3.84,0,0,0,1.53-.33,4.42,4.42,0,0,0,1.4-.94,4.56,4.56,0,0,0,1-1.52,5.86,5.86,0,0,0,0-4.15,4.56,4.56,0,0,0-1-1.52,4.46,4.46,0,0,0-1.4-.95,4,4,0,0,0-1.53-.32,4.89,4.89,0,0,0-2.3.56,4.21,4.21,0,0,0-1.7,1.65,5.91,5.91,0,0,0,0,5.31Zm10.69-18.87v23h-2.36v-23Z" transform="translate(0 15.16)"/><path d="M213.61,306.9a6.15,6.15,0,0,1-2.27-2.49,8,8,0,0,1-.81-3.69,8.21,8.21,0,0,1,.48-2.88,6.56,6.56,0,0,1,1.38-2.23,6.2,6.2,0,0,1,2.12-1.45,7.11,7.11,0,0,1,2.74-.51,6.69,6.69,0,0,1,3.44.84,5.55,5.55,0,0,1,2.19,2.4,8.37,8.37,0,0,1,.77,3.72c0,.13,0,.28,0,.42s0,.24,0,.28H212v-2h9.73l-.94,1.36a2,2,0,0,0,.18-.46,2.36,2.36,0,0,0,.08-.52,4.33,4.33,0,0,0-.48-2.09,3.65,3.65,0,0,0-1.34-1.39,3.94,3.94,0,0,0-2-.5,4.75,4.75,0,0,0-1.81.33,3.57,3.57,0,0,0-1.37.94,4.07,4.07,0,0,0-.86,1.53,6.64,6.64,0,0,0-.29,2.07,6.53,6.53,0,0,0,.5,2.71,3.64,3.64,0,0,0,1.47,1.71,4.52,4.52,0,0,0,2.36.59,4.91,4.91,0,0,0,2.45-.6,5,5,0,0,0,1.8-1.85l1.91,1.21a7,7,0,0,1-2.67,2.58,7.82,7.82,0,0,1-3.78.87A6.24,6.24,0,0,1,213.61,306.9Z" transform="translate(0 15.16)"/><path d="M229.25,284.51v23h-2.36v-23Z" transform="translate(0 15.16)"/><path d="M242.27,297.07a6.82,6.82,0,0,1,2.52-2.51,7.48,7.48,0,0,1,7.15,0,6.87,6.87,0,0,1,2.51,2.51,7.63,7.63,0,0,1,0,7.3,6.82,6.82,0,0,1-2.51,2.52,7.48,7.48,0,0,1-7.15,0,6.77,6.77,0,0,1-2.52-2.52,7.63,7.63,0,0,1,0-7.3Zm2.06,6.16A4.73,4.73,0,0,0,246,305a4.58,4.58,0,0,0,6.4-1.73,5,5,0,0,0,.61-2.51,5.11,5.11,0,0,0-.61-2.52,4.41,4.41,0,0,0-1.65-1.72,4.86,4.86,0,0,0-4.75,0,4.55,4.55,0,0,0-1.65,1.72,5.21,5.21,0,0,0-.6,2.52A5.12,5.12,0,0,0,244.33,303.23Z" transform="translate(0 15.16)"/><path d="M277.19,307.51h-2.35v-8.26a5.43,5.43,0,0,0-.29-1.92,2.13,2.13,0,0,0-.85-1.1,2.62,2.62,0,0,0-1.46-.37,3.32,3.32,0,0,0-1.68.4,2.61,2.61,0,0,0-1.09,1.16,4,4,0,0,0-.38,1.83v8.26h-2.36v-8.26a5.69,5.69,0,0,0-.28-1.92,2.19,2.19,0,0,0-.86-1.1,2.62,2.62,0,0,0-1.46-.37,3.32,3.32,0,0,0-1.68.4,2.66,2.66,0,0,0-1.09,1.16,4,4,0,0,0-.38,1.83v8.26h-2.36V293.94H261v2a4.69,4.69,0,0,1,.95-1.27,3.83,3.83,0,0,1,1.26-.75,4.47,4.47,0,0,1,1.53-.25,4.87,4.87,0,0,1,1.71.29,4,4,0,0,1,1.34.86,3.39,3.39,0,0,1,.87,1.38,5,5,0,0,1,1.77-1.9,4.67,4.67,0,0,1,2.42-.63,4.26,4.26,0,0,1,2.36.62,3.91,3.91,0,0,1,1.49,1.81,7.34,7.34,0,0,1,.51,2.88Z" transform="translate(0 15.16)"/><path d="M68.62,339.88a4,4,0,0,0,1.22.84,3.63,3.63,0,0,0,1.52.31,2.46,2.46,0,0,0,1.58-.46,1.51,1.51,0,0,0,.57-1.25,1.64,1.64,0,0,0-.46-1.19,3.79,3.79,0,0,0-1.16-.83c-.47-.22-1-.44-1.5-.63a19.12,19.12,0,0,1-1.79-.84,4.75,4.75,0,0,1-1.5-1.27,3.47,3.47,0,0,1,0-4,3.77,3.77,0,0,1,1.65-1.18,6.06,6.06,0,0,1,2.11-.38,5.82,5.82,0,0,1,2,.36,5.67,5.67,0,0,1,1.69.94,4.32,4.32,0,0,1,1.15,1.35l-1.88,1.21a4.74,4.74,0,0,0-1.41-1.26,3.58,3.58,0,0,0-1.9-.51,2.32,2.32,0,0,0-1.26.33,1.09,1.09,0,0,0-.54,1,1.28,1.28,0,0,0,.42.94,3.76,3.76,0,0,0,1.06.74c.43.22.88.42,1.36.62a18.71,18.71,0,0,1,2.15,1,4.91,4.91,0,0,1,1.55,1.31,3.23,3.23,0,0,1,.57,2,3.84,3.84,0,0,1-.59,2.1,4.21,4.21,0,0,1-1.64,1.48,5.18,5.18,0,0,1-2.43.54,6.05,6.05,0,0,1-2.45-.48A6,6,0,0,1,67,341.44a5.8,5.8,0,0,1-1.13-1.56l1.85-1.15A7.44,7.44,0,0,0,68.62,339.88Z" transform="translate(0 15.16)"/><path d="M78.75,332.45a6.82,6.82,0,0,1,2.52-2.51,7.48,7.48,0,0,1,7.15,0,6.84,6.84,0,0,1,2.5,2.51,7.63,7.63,0,0,1,0,7.3,6.79,6.79,0,0,1-2.5,2.52,7.48,7.48,0,0,1-7.15,0,6.77,6.77,0,0,1-2.52-2.52,7.63,7.63,0,0,1,0-7.3Zm2.06,6.16a4.58,4.58,0,0,0,8,0,5.08,5.08,0,0,0,.6-2.5,5.16,5.16,0,0,0-.6-2.52,4.37,4.37,0,0,0-1.65-1.73,4.86,4.86,0,0,0-4.75,0,4.37,4.37,0,0,0-1.65,1.73,5.16,5.16,0,0,0-.6,2.52A5.08,5.08,0,0,0,80.81,338.61Z" transform="translate(0 15.16)"/><path d="M96.76,338.61a4.47,4.47,0,0,0,4,2.36,6,6,0,0,0,2-.34,5.54,5.54,0,0,0,1.66-.91,3.37,3.37,0,0,0,1-1.22v2.94a4.59,4.59,0,0,1-2,1.29,8.21,8.21,0,0,1-2.69.45,7,7,0,0,1-3.57-.91,6.77,6.77,0,0,1-2.52-2.52,7.63,7.63,0,0,1,0-7.3,6.82,6.82,0,0,1,2.52-2.51,7.13,7.13,0,0,1,3.57-.91,8,8,0,0,1,2.69.46,4.49,4.49,0,0,1,2,1.28v3a3.2,3.2,0,0,0-1-1.24,6,6,0,0,0-1.66-.9,6.3,6.3,0,0,0-2-.34,4.62,4.62,0,0,0-2.38.62,4.37,4.37,0,0,0-1.65,1.73,5.16,5.16,0,0,0-.6,2.52A5.08,5.08,0,0,0,96.76,338.61Z" transform="translate(0 15.16)"/><path d="M109.67,322.57a1.62,1.62,0,0,1,1.14-.47,1.58,1.58,0,0,1,1.15.47,1.63,1.63,0,0,1,0,2.29,1.56,1.56,0,0,1-1.15.49,1.6,1.6,0,0,1-1.14-.49,1.61,1.61,0,0,1,0-2.29Zm2.32,6.76v13.56h-2.36V329.33Z" transform="translate(0 15.16)"/><path d="M118.29,340a2.21,2.21,0,0,0,1,.84,3.78,3.78,0,0,0,1.52.28,4.34,4.34,0,0,0,2-.44,3.5,3.5,0,0,0,1.38-1.26,3.35,3.35,0,0,0,.52-1.87l.47,1.77a3.06,3.06,0,0,1-.78,2.15,4.69,4.69,0,0,1-1.92,1.27,6.42,6.42,0,0,1-2.25.41,5.35,5.35,0,0,1-2.32-.51,4.22,4.22,0,0,1-1.72-1.49,4.56,4.56,0,0,1,0-4.66A4.2,4.2,0,0,1,118,335a6.87,6.87,0,0,1,2.85-.54,7.56,7.56,0,0,1,2.46.34,6.13,6.13,0,0,1,1.58.76,4.31,4.31,0,0,1,.79.7v1.38a7.5,7.5,0,0,0-2.12-1,8.8,8.8,0,0,0-2.33-.31,4.91,4.91,0,0,0-1.87.3,2.25,2.25,0,0,0-1.08.82,2.22,2.22,0,0,0-.35,1.27A2.33,2.33,0,0,0,118.29,340Zm-1.88-9.32a11.14,11.14,0,0,1,2.11-1.12,8.45,8.45,0,0,1,3.23-.56,7.28,7.28,0,0,1,2.79.49,4.13,4.13,0,0,1,1.85,1.4,3.65,3.65,0,0,1,.67,2.24v9.73H124.7v-9.41a2.47,2.47,0,0,0-.24-1.16,1.77,1.77,0,0,0-.66-.72,3.11,3.11,0,0,0-1-.39,5.63,5.63,0,0,0-1.18-.11,6.36,6.36,0,0,0-1.81.23,6.59,6.59,0,0,0-1.37.56c-.38.22-.67.4-.89.56Z" transform="translate(0 15.16)"/><path d="M133.4,319.89v23H131v-23Z" transform="translate(0 15.16)"/><path d="M139.72,342.28a6.15,6.15,0,0,1-2.27-2.49,8.77,8.77,0,0,1-.32-6.57A6.39,6.39,0,0,1,138.5,331a6,6,0,0,1,2.12-1.44,6.93,6.93,0,0,1,2.74-.52,6.69,6.69,0,0,1,3.44.84,5.55,5.55,0,0,1,2.19,2.4,8.4,8.4,0,0,1,.77,3.72c0,.14,0,.28,0,.43a1.9,1.9,0,0,0,0,.28H138.14v-2h9.73l-.94,1.36a2,2,0,0,0,.18-.46,1.82,1.82,0,0,0,.08-.51,4.34,4.34,0,0,0-.48-2.1,3.56,3.56,0,0,0-1.34-1.38,3.85,3.85,0,0,0-2-.5,4.75,4.75,0,0,0-1.81.32,3.69,3.69,0,0,0-1.37.94,4.19,4.19,0,0,0-.86,1.54A6.88,6.88,0,0,0,139,336a6.49,6.49,0,0,0,.5,2.71,3.64,3.64,0,0,0,1.47,1.71,4.42,4.42,0,0,0,2.36.59,4.63,4.63,0,0,0,4.25-2.45l1.91,1.21a7.06,7.06,0,0,1-2.66,2.58,7.88,7.88,0,0,1-3.79.87A6.24,6.24,0,0,1,139.72,342.28Z" transform="translate(0 15.16)"/><path d="M163.51,338.61a4.6,4.6,0,0,0,1.66,1.73,4.47,4.47,0,0,0,2.37.63,6,6,0,0,0,2.05-.34,5.42,5.42,0,0,0,1.66-.91,3.41,3.41,0,0,0,1-1.22v2.94a4.65,4.65,0,0,1-2,1.29,8.31,8.31,0,0,1-2.7.45,7,7,0,0,1-3.57-.91,6.77,6.77,0,0,1-2.52-2.52,7.63,7.63,0,0,1,0-7.3,6.82,6.82,0,0,1,2.52-2.51,7.13,7.13,0,0,1,3.57-.91,8.06,8.06,0,0,1,2.7.46,4.54,4.54,0,0,1,2,1.28v3a3.23,3.23,0,0,0-1-1.24,5.86,5.86,0,0,0-1.66-.9,6.25,6.25,0,0,0-2.05-.34,4.55,4.55,0,0,0-2.37.62,4.46,4.46,0,0,0-1.66,1.73,5.16,5.16,0,0,0-.6,2.52A5.08,5.08,0,0,0,163.51,338.61Z" transform="translate(0 15.16)"/><path d="M175.69,332.45a6.82,6.82,0,0,1,2.52-2.51,7.48,7.48,0,0,1,7.15,0,6.87,6.87,0,0,1,2.51,2.51,7.63,7.63,0,0,1,0,7.3,6.82,6.82,0,0,1-2.51,2.52,7.48,7.48,0,0,1-7.15,0,6.77,6.77,0,0,1-2.52-2.52,7.63,7.63,0,0,1,0-7.3Zm2.07,6.16a4.57,4.57,0,0,0,8,0,5,5,0,0,0,.61-2.5,5.06,5.06,0,0,0-.61-2.52,4.37,4.37,0,0,0-1.65-1.73,4.84,4.84,0,0,0-4.74,0,4.37,4.37,0,0,0-1.65,1.73,5.06,5.06,0,0,0-.61,2.52A5,5,0,0,0,177.76,338.61Z" transform="translate(0 15.16)"/><path d="M194.4,342.89H192v-23h2.36Zm6-10.13a2.39,2.39,0,0,0-1-1.13,3,3,0,0,0-1.61-.39,3.65,3.65,0,0,0-1.81.44,3.06,3.06,0,0,0-1.21,1.21,3.45,3.45,0,0,0-.43,1.74h-.77a6.41,6.41,0,0,1,.62-2.87,5.1,5.1,0,0,1,1.7-2,4.32,4.32,0,0,1,2.49-.74,5,5,0,0,1,2.46.59,3.88,3.88,0,0,1,1.62,1.77,6.63,6.63,0,0,1,.58,2.95v8.55h-2.36v-8.26A4.86,4.86,0,0,0,200.42,332.76Z" transform="translate(0 15.16)"/><path d="M209.42,342.28a6.15,6.15,0,0,1-2.27-2.49,8.77,8.77,0,0,1-.32-6.57A6.39,6.39,0,0,1,208.2,331a6.13,6.13,0,0,1,2.12-1.44,7,7,0,0,1,2.74-.52,6.67,6.67,0,0,1,3.44.84,5.63,5.63,0,0,1,2.2,2.4,8.4,8.4,0,0,1,.76,3.72c0,.14,0,.28,0,.43s0,.24,0,.28H207.84v-2h9.74l-1,1.36a2,2,0,0,0,.18-.46,1.89,1.89,0,0,0,.09-.51,4.23,4.23,0,0,0-.49-2.1,3.49,3.49,0,0,0-1.34-1.38,3.85,3.85,0,0,0-2-.5,4.78,4.78,0,0,0-1.81.32,3.69,3.69,0,0,0-1.37.94,4.34,4.34,0,0,0-.86,1.54,6.88,6.88,0,0,0-.29,2.06,6.66,6.66,0,0,0,.5,2.71,3.66,3.66,0,0,0,1.48,1.71,4.36,4.36,0,0,0,2.35.59,4.63,4.63,0,0,0,4.25-2.45l1.92,1.21a7.16,7.16,0,0,1-2.67,2.58,7.86,7.86,0,0,1-3.79.87A6.27,6.27,0,0,1,209.42,342.28Z" transform="translate(0 15.16)"/><path d="M224.21,339.88a4,4,0,0,0,1.22.84A3.63,3.63,0,0,0,227,341a2.44,2.44,0,0,0,1.58-.46,1.51,1.51,0,0,0,.57-1.25,1.68,1.68,0,0,0-.45-1.19,4,4,0,0,0-1.17-.83c-.47-.22-1-.44-1.5-.63a19.12,19.12,0,0,1-1.79-.84,4.75,4.75,0,0,1-1.5-1.27,3.51,3.51,0,0,1,0-4,3.77,3.77,0,0,1,1.65-1.18,6.06,6.06,0,0,1,2.11-.38,5.78,5.78,0,0,1,2.05.36,5.67,5.67,0,0,1,1.69.94,4.19,4.19,0,0,1,1.15,1.35l-1.88,1.21a4.7,4.7,0,0,0-1.4-1.26,3.62,3.62,0,0,0-1.91-.51,2.32,2.32,0,0,0-1.26.33,1.08,1.08,0,0,0-.53,1,1.27,1.27,0,0,0,.41.94,3.76,3.76,0,0,0,1.06.74c.43.22.89.42,1.36.62a18.71,18.71,0,0,1,2.15,1,4.91,4.91,0,0,1,1.55,1.31,3.23,3.23,0,0,1,.57,2,3.76,3.76,0,0,1-.59,2.1,4.25,4.25,0,0,1-1.63,1.48,5.25,5.25,0,0,1-2.44.54,6,6,0,0,1-2.44-.48,5.88,5.88,0,0,1-1.85-1.26,5.8,5.8,0,0,1-1.13-1.56l1.86-1.15A7.38,7.38,0,0,0,224.21,339.88Z" transform="translate(0 15.16)"/><path d="M235.07,322.57a1.62,1.62,0,0,1,1.14-.47,1.58,1.58,0,0,1,1.15.47,1.63,1.63,0,0,1,0,2.29,1.56,1.56,0,0,1-1.15.49,1.6,1.6,0,0,1-1.14-.49,1.61,1.61,0,0,1,0-2.29Zm2.32,6.76v13.56H235V329.33Z" transform="translate(0 15.16)"/><path d="M244.16,342.28a6.08,6.08,0,0,1-2.27-2.49,7.88,7.88,0,0,1-.81-3.68,8.26,8.26,0,0,1,.48-2.89,6.54,6.54,0,0,1,1.37-2.23,6.08,6.08,0,0,1,2.13-1.44,6.93,6.93,0,0,1,2.74-.52,6.66,6.66,0,0,1,3.43.84,5.51,5.51,0,0,1,2.2,2.4,8.4,8.4,0,0,1,.77,3.72c0,.14,0,.28,0,.43s0,.24,0,.28H242.58v-2h9.73l-.94,1.36a2.72,2.72,0,0,0,.17-.46,1.89,1.89,0,0,0,.09-.51,4.23,4.23,0,0,0-.49-2.1,3.49,3.49,0,0,0-1.34-1.38,3.83,3.83,0,0,0-2-.5,4.8,4.8,0,0,0-1.82.32,3.77,3.77,0,0,0-1.37.94,4.18,4.18,0,0,0-.85,1.54,6.56,6.56,0,0,0-.3,2.06,6.66,6.66,0,0,0,.5,2.71,3.71,3.71,0,0,0,1.48,1.71,4.4,4.4,0,0,0,2.36.59,4.91,4.91,0,0,0,2.45-.6,5,5,0,0,0,1.79-1.85l1.92,1.21a7.16,7.16,0,0,1-2.67,2.58,7.83,7.83,0,0,1-3.79.87A6.21,6.21,0,0,1,244.16,342.28Z" transform="translate(0 15.16)"/><path d="M74.94,364.71v2.21H68.16v-2.21ZM72.73,360v18.28H70.37V360Z" transform="translate(0 15.16)"/><path d="M79.2,377.67a6.15,6.15,0,0,1-2.27-2.49,8.79,8.79,0,0,1-.32-6.58A6.39,6.39,0,0,1,78,366.37a6.13,6.13,0,0,1,2.12-1.44,7.15,7.15,0,0,1,2.74-.52,6.67,6.67,0,0,1,3.44.84,5.6,5.6,0,0,1,2.2,2.41,8.36,8.36,0,0,1,.76,3.71c0,.14,0,.28,0,.43s0,.24,0,.28H77.63v-2h9.73l-1,1.36a2,2,0,0,0,.18-.46,1.83,1.83,0,0,0,.09-.51,4.34,4.34,0,0,0-.49-2.1A3.49,3.49,0,0,0,84.85,367a3.85,3.85,0,0,0-2-.5,4.94,4.94,0,0,0-1.81.32,3.69,3.69,0,0,0-1.37.94,4.34,4.34,0,0,0-.86,1.54,6.93,6.93,0,0,0-.29,2.06,6.66,6.66,0,0,0,.5,2.71,3.66,3.66,0,0,0,1.48,1.71,4.36,4.36,0,0,0,2.35.59,4.89,4.89,0,0,0,2.45-.6,5,5,0,0,0,1.8-1.84L89,375.12a7.16,7.16,0,0,1-2.67,2.58,7.86,7.86,0,0,1-3.79.87A6.27,6.27,0,0,1,79.2,377.67Z" transform="translate(0 15.16)"/><path d="M101.77,364.71l3.84,9.58,3.83-9.58h2.65l-6.48,14.59-6.49-14.59Z" transform="translate(0 15.16)"/><path d="M115.76,377.67a6.15,6.15,0,0,1-2.27-2.49,8.79,8.79,0,0,1-.32-6.58,6.39,6.39,0,0,1,1.37-2.23,6.13,6.13,0,0,1,2.12-1.44,7.17,7.17,0,0,1,2.75-.52,6.66,6.66,0,0,1,3.43.84,5.54,5.54,0,0,1,2.2,2.41,8.36,8.36,0,0,1,.76,3.71c0,.14,0,.28,0,.43s0,.24,0,.28H114.19v-2h9.73l-1,1.36a2,2,0,0,0,.18-.46,1.83,1.83,0,0,0,.09-.51,4.23,4.23,0,0,0-.49-2.1,3.49,3.49,0,0,0-1.34-1.38,3.83,3.83,0,0,0-2-.5,5,5,0,0,0-1.82.32,3.69,3.69,0,0,0-1.37.94,4.18,4.18,0,0,0-.85,1.54,7.43,7.43,0,0,0,.2,4.77,3.71,3.71,0,0,0,1.48,1.71,4.38,4.38,0,0,0,2.36.59,4.88,4.88,0,0,0,2.44-.6,5,5,0,0,0,1.8-1.84l1.92,1.21a7.16,7.16,0,0,1-2.67,2.58,7.86,7.86,0,0,1-3.79.87A6.27,6.27,0,0,1,115.76,377.67Z" transform="translate(0 15.16)"/><path d="M131.41,378.27h-2.36V364.71h2.36Zm3.24-11.48a2.48,2.48,0,0,0-1-.17,2,2,0,0,0-1.39.45,2.23,2.23,0,0,0-.69,1.21,7,7,0,0,0-.19,1.73h-1.07a6.87,6.87,0,0,1,.58-2.87,5.29,5.29,0,0,1,1.49-2,3,3,0,0,1,1.86-.74,5,5,0,0,1,1.37.19,2.63,2.63,0,0,1,1.16.76l-1.3,1.94A4,4,0,0,0,134.65,366.79Z" transform="translate(0 15.16)"/><path d="M140.66,375.26a3.85,3.85,0,0,0,1.23.84,3.59,3.59,0,0,0,1.52.31A2.48,2.48,0,0,0,145,376a1.52,1.52,0,0,0,.58-1.26,1.64,1.64,0,0,0-.46-1.19,3.79,3.79,0,0,0-1.16-.83c-.48-.22-1-.43-1.51-.63a19,19,0,0,1-1.78-.84,4.76,4.76,0,0,1-1.51-1.27,3.5,3.5,0,0,1,0-4,3.7,3.7,0,0,1,1.66-1.18,5.93,5.93,0,0,1,4.15,0,6,6,0,0,1,1.7.94,4.37,4.37,0,0,1,1.15,1.36l-1.89,1.21a4.49,4.49,0,0,0-1.4-1.27,3.57,3.57,0,0,0-1.9-.5,2.35,2.35,0,0,0-1.27.32,1.1,1.1,0,0,0-.53,1,1.33,1.33,0,0,0,.41.95,4.12,4.12,0,0,0,1.06.73c.44.22.89.43,1.36.62a19.63,19.63,0,0,1,2.15,1,4.8,4.8,0,0,1,1.55,1.31,3.23,3.23,0,0,1,.58,2,3.9,3.9,0,0,1-.59,2.11,4.18,4.18,0,0,1-1.64,1.47,5.24,5.24,0,0,1-2.43.55,6,6,0,0,1-2.45-.49,5.81,5.81,0,0,1-1.84-1.25,6.29,6.29,0,0,1-1.14-1.57l1.86-1.15A7.48,7.48,0,0,0,140.66,375.26Z" transform="translate(0 15.16)"/><path d="M155.76,364.71v2.21H149v-2.21ZM153.55,360v18.28h-2.36V360Z" transform="translate(0 15.16)"/><path d="M160,377.67a6.15,6.15,0,0,1-2.27-2.49,8.79,8.79,0,0,1-.32-6.58,6.39,6.39,0,0,1,1.37-2.23,6,6,0,0,1,2.12-1.44,7.15,7.15,0,0,1,2.74-.52,6.69,6.69,0,0,1,3.44.84,5.52,5.52,0,0,1,2.19,2.41,8.35,8.35,0,0,1,.77,3.71c0,.14,0,.28,0,.43s0,.24,0,.28H158.44v-2h9.73l-.94,1.36a2,2,0,0,0,.18-.46,1.83,1.83,0,0,0,.09-.51,4.34,4.34,0,0,0-.49-2.1,3.56,3.56,0,0,0-1.34-1.38,3.85,3.85,0,0,0-2-.5,4.94,4.94,0,0,0-1.81.32,3.69,3.69,0,0,0-1.37.94,4.19,4.19,0,0,0-.86,1.54,6.93,6.93,0,0,0-.29,2.06,6.49,6.49,0,0,0,.5,2.71,3.64,3.64,0,0,0,1.47,1.71,4.42,4.42,0,0,0,2.36.59,4.89,4.89,0,0,0,2.45-.6,5,5,0,0,0,1.8-1.84l1.91,1.21a7.06,7.06,0,0,1-2.66,2.58,7.88,7.88,0,0,1-3.79.87A6.24,6.24,0,0,1,160,377.67Z" transform="translate(0 15.16)"/><path d="M175.66,378.27H173.3V364.71h2.36Zm3.25-11.48a2.5,2.5,0,0,0-1-.17,2,2,0,0,0-1.38.45,2.24,2.24,0,0,0-.7,1.21,7.57,7.57,0,0,0-.19,1.73H174.6a6.72,6.72,0,0,1,.58-2.87,5.29,5.29,0,0,1,1.49-2,2.92,2.92,0,0,1,1.85-.74,5,5,0,0,1,1.37.19,2.66,2.66,0,0,1,1.17.76l-1.3,1.94A4,4,0,0,0,178.91,366.79Z" transform="translate(0 15.16)"/><path d="M185.63,355.27v23h-2.36v-23Zm8,9.44-5.9,5.6,6.49,8h-3l-6.49-8,5.9-5.6Z" transform="translate(0 15.16)"/><path d="M197.85,377.67a6.15,6.15,0,0,1-2.27-2.49,8.79,8.79,0,0,1-.32-6.58,6.39,6.39,0,0,1,1.37-2.23,6,6,0,0,1,2.12-1.44,7.12,7.12,0,0,1,2.74-.52,6.69,6.69,0,0,1,3.44.84,5.52,5.52,0,0,1,2.19,2.41,8.35,8.35,0,0,1,.77,3.71c0,.14,0,.28,0,.43s0,.24,0,.28H196.27v-2H206l-.94,1.36a2,2,0,0,0,.18-.46,2.2,2.2,0,0,0,.08-.51,4.34,4.34,0,0,0-.48-2.1A3.56,3.56,0,0,0,203.5,367a3.85,3.85,0,0,0-2-.5,4.94,4.94,0,0,0-1.81.32,3.69,3.69,0,0,0-1.37.94,4.19,4.19,0,0,0-.86,1.54,6.93,6.93,0,0,0-.29,2.06,6.49,6.49,0,0,0,.5,2.71,3.64,3.64,0,0,0,1.47,1.71,4.42,4.42,0,0,0,2.36.59,4.91,4.91,0,0,0,2.45-.6,5,5,0,0,0,1.8-1.84l1.91,1.21A7,7,0,0,1,205,377.7a7.82,7.82,0,0,1-3.78.87A6.24,6.24,0,0,1,197.85,377.67Z" transform="translate(0 15.16)"/><path d="M219.51,368.14a2.32,2.32,0,0,0-1-1.13,3,3,0,0,0-1.59-.39,3.75,3.75,0,0,0-1.81.43,3,3,0,0,0-1.21,1.2,3.5,3.5,0,0,0-.43,1.76v8.26h-2.36V364.71h2.36v2.12a4.65,4.65,0,0,1,1.7-1.83,5,5,0,0,1,4.82.06,4.27,4.27,0,0,1,1.6,1.83,6.32,6.32,0,0,1,.58,2.83v8.55h-2.36V370A4.86,4.86,0,0,0,219.51,368.14Z" transform="translate(0 15.16)"/><path d="M235.16,365.89v-2.36l15,6.48v1.33l-15,6.49v-2.36l11.15-4.66Z" transform="translate(0 15.16)"/><g class="cls-6"><path class="cls-7" d="M455.94,1245.84q-203.07,0-406.12.12c-3,0-3.67-1-3.67-5.57q.12-460.41,0-920.81c0-4.55.68-5.57,3.67-5.57q406.11.18,812.23,0c3,0,3.67,1,3.67,5.57q-.12,460.39,0,920.81c0,4.54-.67,5.57-3.67,5.57Q659,1245.76,455.94,1245.84Z" transform="translate(0 15.16)"/><path class="cls-8" d="M352,768.76q0-49.56,0-99.13c0-3.37.09-6.81,1.52-10,1.92-4.32,5.47-6.37,9.92-6.65,6.08-.37,12.19-.55,18.28-.47,63.33.87,126.66.11,190,.37,3,0,6-.18,9,.65,5.44,1.51,8.86,5.63,9.06,11.22.93,26.92.28,53.84.37,80.76.13,39.68,0,79.36,0,119a33.67,33.67,0,0,1-1.13,10.12,12.86,12.86,0,0,1-12.26,8.91c-16.1-.25-32.2-.2-48.3,0-52.49.65-105,.13-157.49.29a38.92,38.92,0,0,1-7.85-.31,13.24,13.24,0,0,1-10.78-11.75c-.82-7.86-.28-15.74-.32-23.6-.11-26.48,0-52.95,0-79.42Z" transform="translate(0 15.16)"/><path class="cls-7" d="M416.77,693.47c3.1-2.68,6-5.16,9.48-6.78a7,7,0,0,1,9.27,2.62,30.43,30.43,0,0,1,4.9,13.16c.11,1.13.28,1.66,1.66,1,5-2.37,7.64-1.43,10.34,3.46a30.58,30.58,0,0,1,3.23,20.19,38.66,38.66,0,0,1-5.73,14.13c-1.24,2-1.12,3.66.5,5.53a4.54,4.54,0,0,0,5.66,1.29c3.35-1.78,6.39-4.1,10.15-5.13a29,29,0,0,1,18.7,1.18c2.92,1.14,4.82,3.58,6.95,5.71,1.51,1.5,1.88,1.42,2.59-.6,1.76-5,3.17-10.14,5.93-14.77a51.56,51.56,0,0,1,19.26-19,92.47,92.47,0,0,1,19.27-8.42,38.89,38.89,0,0,1,4.4-1c1.38-.23,2-.62,1.72-2.3a19.78,19.78,0,0,1,3-14.49c1.8-2.71,3.59-3.82,8-3,7.5,1.31,12.93,5.7,17.31,11.7,4.24,5.79,7.11,12.09,7.58,19.32a13,13,0,0,1-1.46,7.23c-1.45,2.57-4,3-6.67,2.75-4.05-.34-4-1.25-4.25,3.55-.45,8.17-1.57,16.21-5.37,23.6-2.87,5.58-6.21,10.81-11.29,14.74-5.6,4.33-11.06,8.86-17,12.7a63.64,63.64,0,0,1-18.58,7.91c-1.74.46-2.75,1.11-2.8,3.28-.07,3.41-.21,6.8,0,10.22.12,1.67,0,3.38,0,5.07.1,7.75.71,15.48.54,23.24-.19,8.14.54,16.27.36,24.42a6.6,6.6,0,0,1-2.34,5.32c-6.16,5.38-13.56,8.17-21.25,10.32a61.15,61.15,0,0,1-15.25,2.74c-7.85.17-15.12-2.07-22.28-5A55.75,55.75,0,0,1,436.46,858a5.25,5.25,0,0,1-1.66-3.87c-.11-6-.44-11.95-.23-17.91.28-7.67.25-15.35.52-23,.57-16.3-.71-32.38-7.13-47.67-1.14-2.72-2-5.56-3.65-8-.78-1.16-1.42-1.62-2.8-.56-6.66,5.11-13.75,4.12-20.91,1.24-1.64-.67-3.23-1.47-4.89-2.07-3.67-1.34-5.57-3.83-5.44-7.73.05-1.56-.45-2.12-1.92-2.52-3.08-.83-6-2.06-9.33-2.13s-4.83-2.77-4-6.17c.35-1.34,1.82-2.73.94-3.94-.71-1-2.4-1.21-3.63-1.83a38.11,38.11,0,0,1-11.78-8.74c-3.16-3.59-3.06-5.1.2-9.33a16.42,16.42,0,0,1,5.91-4.51,56.26,56.26,0,0,1,10.95-4.38c1.71-.44,2-2.22,3.3-2.92,1.6-.88,1.55-2.2,1.42-3.7-.67-7.44,1.7-13.74,7.39-18.62a17.76,17.76,0,0,1,12.06-4.06c3.47.06,6.21,2.22,8.11,5.25C412.44,684.78,415,688.74,416.77,693.47Z" transform="translate(0 15.16)"/><path class="cls-9" d="M446.36,834.17a184.33,184.33,0,0,0-1.54-28.27,15,15,0,0,1,3.12-12.19,58.26,58.26,0,0,0,6.89-11.22c1.63-3.4,2-7.17,2.83-10.81.39-1.75,1.14-2,2.6-1.42,7,3,14.23,2.6,21.45,1.24a33.42,33.42,0,0,0,5.86-2.23c1.56-.62,2.53-.4,3,1.48.83,3.3,1.78,6.59,2.88,9.82a49.35,49.35,0,0,0,7.87,14.68,11.11,11.11,0,0,1,2.07,6.86c.34,12.14-.31,24.28-.46,36.42-.06,4.84-.07,9.71-.53,14.55a2.65,2.65,0,0,1-1.57,2.45c-8.4,4.17-17,7.26-26.59,7.67-9.18.39-16.48-3.57-23.84-7.87-3-1.74-4.23-4.6-4.09-8.17C446.5,842.84,446.36,838.5,446.36,834.17Z" transform="translate(0 15.16)"/><path class="cls-10" d="M501.07,765.85c.39-8.75,1.46-17.39,5.48-25.33a45.09,45.09,0,0,1,21.54-20.78,81.76,81.76,0,0,1,25.08-7c2.29-.29,2.5-.82,1.66-2.94C553.31,706,552,702,553,697.79c.69-3.15,3.1-4.34,5.85-2.57a32.66,32.66,0,0,1,13.84,17.58,15.65,15.65,0,0,1,.46,4.29c0,1.57-1.17,1.93-2.39,2a16.65,16.65,0,0,1-6.37-1c-3.28-1.1-3.68-.78-3.77,2.77-.1,3.79.27,7.58-.23,11.39a42.19,42.19,0,0,1-4.26,13.61,37.21,37.21,0,0,1-4.13,6.89A71.77,71.77,0,0,1,530,770.41c-4.63,2.52-9.26,5.24-14.54,6.29a58.45,58.45,0,0,1-11.73,1.13c-1.29,0-1.91-.47-2.07-1.77A51.24,51.24,0,0,1,501.07,765.85Z" transform="translate(0 15.16)"/><path class="cls-11" d="M444.19,775.39c0,.37,0,.5,0,.63-.14,1.16-.07,2.81-1.5,2.81s-1.44-1.65-1.49-2.8c-.12-2.2-1-4.2-1.46-6.31a78.52,78.52,0,0,0-10.49-24.9,51.46,51.46,0,0,0-6.33-8c-5.3-5.63-10.57-11.25-17.06-15.65-3.92-2.65-7.67-5.49-12-7.49-2.32-1.08-4.66-2.11-7-3.16-.61-.28-1.41-.62-1.1-1.36s1.15-.32,1.73-.13c11.16,3.7,21.41,9.1,30,17.12,5.21,4.86,10.27,9.92,14.23,16,1.58,2.42,3.07,4.88,4.57,7.33C441.25,757.46,442.93,766.49,444.19,775.39Z" transform="translate(0 15.16)"/><path class="cls-12" d="M474.34,769.15c-3.16-.44-7.11-.1-10.67-2a14.14,14.14,0,0,1-3.24-2.2c-.92-.9-1.51-1.84-1-3.13a2.51,2.51,0,0,1,2.63-1.71c1.74.15,2.44-.74,3.27-2a14.86,14.86,0,0,1,6.29-5.5c3.85-1.82,7.55-.61,10.08,3.39a13,13,0,0,1,1.08,1.88c.69,1.59,1.39,2.78,3.56,2.79,1.75,0,2.42,2.46,1.31,4a5.79,5.79,0,0,1-1.89,1.69A23.19,23.19,0,0,1,474.34,769.15Z" transform="translate(0 15.16)"/><path class="cls-11" d="M399,684.4c-.65.79-1.31,1.28-1.52,1.91-1.26,3.78-1.86,3.36,1.7,5.53a19.21,19.21,0,0,1,9.53,14.58,7.68,7.68,0,0,1-.09,2.34c-.54,3.1-2.28,4.23-5.21,3.07-5.41-2.15-9.84-5.33-11.63-11.35-1.56-5.25,1.4-13.4,6.14-16C398.13,684.37,398.42,684.44,399,684.4Z" transform="translate(0 15.16)"/><path class="cls-13" d="M380.45,713.23c4.24,0,8.32.5,12,2.84,1.7,1.07,2.92,2.62,4.49,3.79.67.5.31,1-.09,1.49a15.18,15.18,0,0,1-22.46,1.42c-.84-.83-1.7-1.64-2.53-2.48a2.58,2.58,0,0,0-2.6-1c-.49.12-1.13.15-1.35-.48s.25-1,.63-1.35a15.84,15.84,0,0,1,9.7-4.24A19.62,19.62,0,0,1,380.45,713.23Z" transform="translate(0 15.16)"/><path class="cls-13" d="M417.21,715.57c.58-8.57,4.86-14.55,10.94-19.48.39-.32,1-1,1.48-.35s-.36,1-.75,1.41c-1.86,2-2.08,2.87-.84,5.18,2.23,4.13,2.57,8.62,2.42,13.13-.14,4.23-1.66,7.87-5.61,10.17a2.63,2.63,0,0,1-3.5-.41C418.21,722.55,418,718.71,417.21,715.57Z" transform="translate(0 15.16)"/><path class="cls-14" d="M445.56,710.45a11.42,11.42,0,0,1-2.27,2.7c-.88,1-1.23,2-.34,3.17,5.69,7.56,1.62,18.47-3.33,24.13-1.07,1.22-2.28,1.1-3.42,0a6.46,6.46,0,0,1-1.47-2.53c-2.57-7.23-1.65-14,3-20.1a38.8,38.8,0,0,1,5.47-6.19C443.81,711.09,444.33,710.34,445.56,710.45Z" transform="translate(0 15.16)"/><path class="cls-15" d="M383.58,737.91c.58-2.27,2.25-3.42,3.72-4.69,5.32-4.56,11.39-6.3,18.3-4.73a6.94,6.94,0,0,1,2.65,1.28,2.41,2.41,0,0,1,.51,3.63,3.76,3.76,0,0,1-.25.31c-3.3,4-13,6.65-18.28,2.87-1.82-1.3-3.22-1-4.7.36C385,737.4,384.62,738.08,383.58,737.91Z" transform="translate(0 15.16)"/><path class="cls-14" d="M418.72,749.55c-4.12,4.06-10.32,4-14.68-.08-2.2-2.07-2.86-2.08-5.07-.17-.35.3-.65,1.09-1.2.58a1.19,1.19,0,0,1,0-1.77c5.38-5.57,13-9.73,21.38-6.56,1.51.57,3.27,1.1,3.52,3.17a1.4,1.4,0,0,1-2.25.44,4.93,4.93,0,0,0-2.13-.8c-4.66-1.28-9.14-1-13.36,1.51-1.08.86-.11,1.38.38,1.86,2.34,2.34,7,3.08,10.27,1.68,1-.44,1.94-1.08,2.94-1.54.41-.19.94-.43,1.25,0s-.24.78-.51,1.1S418.82,749.29,418.72,749.55Z" transform="translate(0 15.16)"/><path class="cls-16" d="M418.67,743.92a3.59,3.59,0,0,1,2.11.91c.77.65,1.28.26,1.88-.11-1.17,1.73-2,3.74-3.94,4.83.29-.48.58-1,1.07-1.81-1.46.79-2.6,1.47-3.79,2-3.78,1.79-9,.77-11.63-2.24-.61-.7-1.34-1.44.11-2,.75,1.78,2.48,1.78,4,2.07,3.38.66,6.61.52,9.35-2A2.76,2.76,0,0,0,418.67,743.92Z" transform="translate(0 15.16)"/><path class="cls-17" d="M449.79,830.81c0-3.94,0-7.88,0-11.82,0-5-.86-10-1.21-15-.26-3.61.94-6.34,3.17-9.26,4.15-5.47,7.42-11.56,8.39-18.56.22-1.54.75-1.93,2.47-1.59,6.86,1.34,13.73,1.69,20.54-.5,4-1.3,4.3-1.3,5.39,2.89,1.93,7.44,5.43,14.1,9.4,20.58a8.58,8.58,0,0,1,1.24,4.68c-.06,8.73.2,17.47-.21,26.18-.29,6.14,0,12.27-.29,18.39-.1,1.82-.68,3.62-.25,5.45.14.64-.34.8-.72,1a50.14,50.14,0,0,1-17.62,6.21,51.85,51.85,0,0,1-13.69-.06c-3.64-.44-6.79-2.22-10-3.85-.87-.45-1.67-1-2.57-1.44-3.87-1.66-3.92-5.11-4-8.51-.06-4.92,0-9.84,0-14.76Z" transform="translate(0 15.16)"/><path class="cls-18" d="M503.07,769.71c.51-9.41,2.1-18.56,6.18-27.17,5.25-11.06,14-18.16,25.19-22.7a84.67,84.67,0,0,1,20.48-5.05c2.74-.38,3.81.43,3.68,3.59-.19,4.87-.27,9.75-1.46,14.58a51.36,51.36,0,0,1-7.34,16.61,48.16,48.16,0,0,1-10.66,10.91,100.27,100.27,0,0,1-17.32,11.12,58.68,58.68,0,0,1-11.56,3.75c-.52.14-1.09.18-1.42-.35s.21-.94.53-1.31.74-.75,1.11-1.12c.62-.63,1.37-1.41.53-2.16-.62-.56-1.61-.18-2.3.38-.86.7-1.69,1.45-2.55,2.16-.5.41-1,.79-1.55,1.2-1,.78-1.46.35-1.53-.7C503,772.21,503.07,771,503.07,769.71Z" transform="translate(0 15.16)"/><path class="cls-19" d="M566.61,713.94c.59,1.33,1.64,1.17,2.6,1.23.65,0,1.26.24,1.19,1s-.77.6-1.25.56c-5.73-.53-12.76-3.43-14-12.12a18.31,18.31,0,0,1-.08-7c.39-1.61,1.32-1.65,2.48-1.13a12.26,12.26,0,0,1,3.7,2.88c.74.78.13,1.29-.29,1.85a8.14,8.14,0,0,0-1.48,5.36c0,.53,0,1.19.66,1.25s.43-.67.59-1c.25-.6.42-1.24.7-1.83.39-.81.67-2,1.74-1.91,1.35.05,1.79,1.41,2.4,2.37s0,1.61-.71,2.2c-.49.43-1,.85-1.5,1.26-.36.28-.83.53-.48,1.09a.88.88,0,0,0,1.21.29,6,6,0,0,0,.87-.45c.81-.47,1.59-1.51,2.58-.53a5.34,5.34,0,0,1,1.63,3.86C569.09,714.51,567.58,713.68,566.61,713.94Z" transform="translate(0 15.16)"/><path class="cls-20" d="M473.88,753.42c3.69-.08,7.79,3.92,7.87,7.33,0,1.37-.55,1.59-1.71,1.06a3.4,3.4,0,0,1-1.47-1.77c-1-1.84-2.4-3-4.66-2.92a5.32,5.32,0,0,0-5.08,3.93c-.5,1.54-1.37,1.71-2.48,1.27-1.34-.54-.52-1.52-.14-2.29a11.89,11.89,0,0,1,6.64-6.33C473.28,753.55,473.73,753.46,473.88,753.42Z" transform="translate(0 15.16)"/><path class="cls-21" d="M471.47,760.48a3.37,3.37,0,0,1,5.1-.13A19.63,19.63,0,0,1,471.47,760.48Z" transform="translate(0 15.16)"/><path class="cls-22" d="M403.69,710c-5.12-3.26-7.1-8.22-7.44-14-.06-1-.34-2.54,1.53-2.58a14.1,14.1,0,0,1,2.75,2.76h0c.16.59-.48,1.46.7,1.7.74.15.75.87.69,1.44a4.35,4.35,0,0,0,1,3.29c1.49,1.77,1.54,4,2.16,6C405.44,709.74,405.09,710.57,403.69,710Z" transform="translate(0 15.16)"/><path class="cls-23" d="M403.69,710c.76,0,1.53-.28,1.08-1.08-1-1.8-.49-4.08-2.06-5.76a4.51,4.51,0,0,1-1.31-4.07c.06-.28.33-.88-.36-.87-3,0-1-1.19-.51-2a14.06,14.06,0,0,1,4.71,8.33c.29,1.55,1.35,3,.48,4.74C405.21,710.32,404.75,710.84,403.69,710Z" transform="translate(0 15.16)"/><path class="cls-23" d="M400.53,696.21a10.46,10.46,0,0,1-2.75-2.76A4.28,4.28,0,0,1,400.53,696.21Z" transform="translate(0 15.16)"/><path class="cls-24" d="M374.11,719.08c-1.44-1.81-1.27-2.5,1-3.15a14.69,14.69,0,0,1,8.31.08,45.1,45.1,0,0,1,10,3.86c.39,1.38-.65,1.54-1.54,1.65a8.94,8.94,0,0,0-3,.87,3.09,3.09,0,0,1-2.09.42c-3-.71-6.31-.41-9.06-2.24C376.63,719.83,375.23,719.79,374.11,719.08Z" transform="translate(0 15.16)"/><path class="cls-25" d="M374.11,719.08a4.22,4.22,0,0,1,3,.6c2.7,2,6,1.66,9,2.6a3,3,0,0,0,2.27-.23,6.57,6.57,0,0,1,3.91-1c.7,0,1-.46,1.09-1.14.71,1.7-.6,2.69-1.64,3.22C386.29,726,376.5,723.11,374.11,719.08Z" transform="translate(0 15.16)"/><path class="cls-24" d="M421.83,721.44c-2.63-5.9-1.72-11.47,1.63-16.79.39-.63.63-1.68,1.57-1.55s.93,1.14,1.2,1.86c.09.25.21.48.32.72.73,1.27.42,2.63.45,4,.05,2.67-1.21,5.08-1.14,7.77,0,1.44-1.12,2.83-.81,4.52.1.58-.89,1.18-1.61,1.2C422.4,723.19,422.19,722.19,421.83,721.44Z" transform="translate(0 15.16)"/><path class="cls-26" d="M421.83,721.44c.72,1,1.38,2.13,2.71.6.17-.19.43-.34.22-.52-1-.84-.33-1.69.05-2.42a8.68,8.68,0,0,0,.52-3.13c.27-2,1-3.86,1.09-5.91.06-1.46.51-2.9.13-4.38,1.55,3,2.77,6,1.89,9.44-.16.65.28,1.24.22,2-.21,2.56-1.89,4.31-3.13,6.27-1.09,1.72-1.88,1.56-3-.16A2.41,2.41,0,0,1,421.83,721.44Z" transform="translate(0 15.16)"/><path class="cls-24" d="M436.81,734.85c-2.58-6.08-.13-11.27,2.89-16.35.74-1.24,1.53-1.08,2.16.09a9,9,0,0,1,.48,1.67,18.47,18.47,0,0,1-3.83,14.36C438.1,735.16,437.52,735.82,436.81,734.85Z" transform="translate(0 15.16)"/><path class="cls-27" d="M436.81,734.85c1,.49,1.23-.31,1.62-.88,2.86-4.13,3.79-8.8,3.91-13.71,2.3,4.53,1,8.86-.78,13.14a15.77,15.77,0,0,1-1.43,2.34c-.56.87-1.08,2.07-2.3,1.77S436.88,735.85,436.81,734.85Z" transform="translate(0 15.16)"/><path class="cls-28" d="M394.64,731.72c2.12-1.61,4.54-1.27,6.92-1a14.15,14.15,0,0,1,1.89.48c.82.19,1.86.21,2,1.22s-.75,1.38-1.36,1.77c-3.79,2.39-7.86,2.46-12,1.18-.62-.19-1.33-.58-1.26-1.33a1.37,1.37,0,0,1,1.41-1.13c.25.41.19,1.29.85,1.1,1.61-.47,3.39.19,4.9-.76a4.51,4.51,0,0,1,2.07-.46c.61-.06,1.33.1,1.72-.78-1.48-.86-3-.55-4.52-.32C396.4,731.79,395.53,732.38,394.64,731.72Z" transform="translate(0 15.16)"/><path class="cls-29" d="M394.64,731.72c2.28-.43,4.53-1.35,6.9-.52.43.15,1.22-.13,1.17.68a1.38,1.38,0,0,1-1.12,1.22,6.82,6.82,0,0,1-1.35.16c-.46,0-1.15-.17-1.33.06-1.45,1.78-3.59.25-5.21,1.18a1.78,1.78,0,0,1-2-.31c-.43-.45.44-.83.54-1.32Z" transform="translate(0 15.16)"/><path class="cls-24" d="M418.67,743.92c.17.51.89.78.1,1.6a9.28,9.28,0,0,1-5.51,2.92,15.46,15.46,0,0,1-8.55-1.46c-.72-.4-.55-.93-.23-1.48A16.69,16.69,0,0,1,418.67,743.92Z" transform="translate(0 15.16)"/><path class="cls-30" d="M459.05,842.52c-.64-.66-.08-1.33-.7-1.65-.07,0-.22.14-.21.18.2.62-.8,1.26.18,1.92a3.23,3.23,0,0,1,.73,5c-1.13,1.35-.45,1.77,1.46,2-1.76.87-2.88,2.28-4.39,1.66s-2.08-2.64-3.44-3.7a.38.38,0,0,1,0-.36c1.59-1.15.38-2.57.33-3.83-.1-2.32,1-4,2.53-5.71a3.26,3.26,0,0,1-2.5-2.11c-.6-1.15-.17-2.26-.19-3.41,0-2.6.73-5.17.18-7.79a3,3,0,0,1,.4-2.64,1.14,1.14,0,0,0,.21-1.29c-1.16-2.11-.81-4.27-.2-6.42a2.4,2.4,0,0,0-.16-1.31,9,9,0,0,1-.36-4.78,17,17,0,0,0,.15-4.41c0-.34,0-.75.26-.87,1.74-.67,1.31-1.81.69-3a1.11,1.11,0,0,1,.28-1.58c1.46-1,1.69-2.64,2.29-4.09a16,16,0,0,1,3.94-5.49,4.92,4.92,0,0,0,1.49-2.23,3.16,3.16,0,0,1,3.41-2.4c1.37.23,1.6,1.39,1.29,2.44-1.12,3.71-1.9,7.59-4.27,10.78a13.09,13.09,0,0,0-2.66,6.07,9.48,9.48,0,0,0,.14,2.85c.5,3.44-1.27,6.68-.42,10.19.45,1.91-.12,4.1.46,6.13a.94.94,0,0,1-.16.73c-1.39,1.61-1.06,3.5-.46,5.15.86,2.37.67,4.79,1,7.18.15,1.12-.87,2.35-.72,2.6C460.58,839.93,459.3,841,459.05,842.52Z" transform="translate(0 15.16)"/><path class="cls-31" d="M512.39,746c1.39-7.91,6.37-12.82,12-17.16,2.53-2,5.71-3.06,8.44-4.68,3.06-1.8,6.51-2.34,9.49-4.14,2.51-1.52,5.25-1,8-.44.56.12.54.48.4.87a3.18,3.18,0,0,1-1.13,1.57c-2.66,1.87-5.45,3.58-8,5.65-3.19,2.64-6.15,5.56-9.2,8.38-1.23,1.14-2.14,3.07-4.1.67-.84-1-3.25-.19-3.8,1.21a6.48,6.48,0,0,0-.91,2.78,1.16,1.16,0,0,1-.59,1.17c-1.44.6-2.08,1.91-2.91,3.06a3.79,3.79,0,0,1-1.06.83.92.92,0,0,1-1.38-.16c-.47-.58-.06-.9.24-1.36.85-1.3,1.62-2.66,2.47-4,.31-.49.62-.94,0-1.32a.86.86,0,0,0-1.38.58c-.47,2.38-2.61,3.55-3.82,5.39C514.45,746,513.23,745.13,512.39,746Z" transform="translate(0 15.16)"/><path class="cls-32" d="M515.7,758a1.66,1.66,0,0,1-1.63,1.63,1.57,1.57,0,0,1-1.9-1.5c-.07-1,.59-1.55,1.57-1.62A1.7,1.7,0,0,1,515.7,758Z" transform="translate(0 15.16)"/><rect class="cls-33" x="107.11" width="832.74" height="588.87"/><rect class="cls-34" x="340.74" y="179.3" width="105.6" height="236.14"/><path class="cls-35" d="M365.33,215.27a2,2,0,0,1,.74-.75,2.16,2.16,0,0,1,1-.26,1.64,1.64,0,0,1,.71.15,1.53,1.53,0,0,1,.55.43,2.19,2.19,0,0,1,.36.68,3.47,3.47,0,0,1,0,1.81,2.09,2.09,0,0,1-.36.68,1.53,1.53,0,0,1-.55.43,1.64,1.64,0,0,1-.71.15,2.16,2.16,0,0,1-1-.26,2,2,0,0,1-.74-.75,2.25,2.25,0,0,1-.28-1.15A2.22,2.22,0,0,1,365.33,215.27Zm.64,2a1.25,1.25,0,0,0,.52.5,1.42,1.42,0,0,0,.7.17,1.14,1.14,0,0,0,.47-.1,1.21,1.21,0,0,0,.43-.29,1.38,1.38,0,0,0,.31-.46,1.54,1.54,0,0,0,.12-.63,1.56,1.56,0,0,0-.12-.64,1.38,1.38,0,0,0-.31-.46,1.21,1.21,0,0,0-.43-.29,1.14,1.14,0,0,0-.47-.1,1.54,1.54,0,0,0-.7.17,1.25,1.25,0,0,0-.52.5,1.84,1.84,0,0,0,0,1.63Zm3.27-5.77v7h-.72v-7Z" transform="translate(0 15.16)"/><path class="cls-35" d="M370.69,212.29a.49.49,0,0,1,.35-.15.45.45,0,0,1,.35.15.47.47,0,0,1,.15.35.49.49,0,0,1-.15.35.45.45,0,0,1-.35.15.51.51,0,0,1-.5-.5A.47.47,0,0,1,370.69,212.29Zm.71,2.06v4.15h-.72v-4.15Z" transform="translate(0 15.16)"/><path class="cls-35" d="M374.33,214.35V215h-2.07v-.68Zm-.68-1.44v5.59h-.72v-5.59Z" transform="translate(0 15.16)"/><path class="cls-35" d="M378.47,218.5h-.72v-4.15h.72Zm1-3.51a.67.67,0,0,0-.3-.05.65.65,0,0,0-.43.13.75.75,0,0,0-.21.37,2.2,2.2,0,0,0-.06.53h-.32a2,2,0,0,1,.18-.87,1.5,1.5,0,0,1,.45-.61.93.93,0,0,1,.57-.23,1.42,1.42,0,0,1,.42.06.85.85,0,0,1,.35.23l-.39.6A1.14,1.14,0,0,0,379.47,215Z" transform="translate(0 15.16)"/><path class="cls-35" d="M381.29,218.31a1.76,1.76,0,0,1-.69-.76,2.37,2.37,0,0,1-.25-1.12,2.52,2.52,0,0,1,.15-.89,2,2,0,0,1,.42-.68,1.87,1.87,0,0,1,.65-.44,2.24,2.24,0,0,1,1.88.1,1.78,1.78,0,0,1,.68.73,2.66,2.66,0,0,1,.23,1.14.62.62,0,0,1,0,.13v.09h-3.54V216h3l-.29.42a.64.64,0,0,0,.06-.14.61.61,0,0,0,0-.16,1.29,1.29,0,0,0-.15-.64,1.1,1.1,0,0,0-.41-.42,1.15,1.15,0,0,0-.62-.16,1.58,1.58,0,0,0-.55.1,1.06,1.06,0,0,0-.42.29,1.33,1.33,0,0,0-.26.47,2.32,2.32,0,0,0,.06,1.46,1.1,1.1,0,0,0,.45.52,1.37,1.37,0,0,0,.72.18,1.4,1.4,0,0,0,1.3-.75l.59.37a2.21,2.21,0,0,1-.82.79,2.37,2.37,0,0,1-1.16.27A1.86,1.86,0,0,1,381.29,218.31Z" transform="translate(0 15.16)"/><path class="cls-35" d="M385.86,217.19a1.41,1.41,0,0,0,.5.53,1.4,1.4,0,0,0,.73.19,1.89,1.89,0,0,0,.63-.1,1.62,1.62,0,0,0,.5-.28,1,1,0,0,0,.31-.37v.9a1.41,1.41,0,0,1-.62.39,2.52,2.52,0,0,1-.82.14,2.21,2.21,0,0,1-1.09-.28,2,2,0,0,1-.77-.77,2.19,2.19,0,0,1-.29-1.11,2.15,2.15,0,0,1,.29-1.12,2,2,0,0,1,.77-.77,2.21,2.21,0,0,1,1.09-.28,2.52,2.52,0,0,1,.82.14,1.5,1.5,0,0,1,.62.39v.91a.92.92,0,0,0-.31-.38,1.62,1.62,0,0,0-.5-.28,1.89,1.89,0,0,0-.63-.1,1.4,1.4,0,0,0-.73.19,1.32,1.32,0,0,0-.5.52,1.67,1.67,0,0,0-.19.78A1.59,1.59,0,0,0,385.86,217.19Z" transform="translate(0 15.16)"/><path class="cls-35" d="M390.24,218.31a1.76,1.76,0,0,1-.69-.76,2.37,2.37,0,0,1-.25-1.12,2.52,2.52,0,0,1,.15-.89,2,2,0,0,1,.41-.68,2.07,2.07,0,0,1,.65-.44,2.13,2.13,0,0,1,.84-.16,2,2,0,0,1,1,.26,1.69,1.69,0,0,1,.67.73,2.52,2.52,0,0,1,.24,1.14.62.62,0,0,1,0,.13v.09h-3.54V216h3l-.29.42a.64.64,0,0,0,.06-.14,1.37,1.37,0,0,0,0-.16,1.29,1.29,0,0,0-.15-.64,1,1,0,0,0-.41-.42,1.09,1.09,0,0,0-.61-.16,1.58,1.58,0,0,0-.55.1,1.06,1.06,0,0,0-.42.29,1.19,1.19,0,0,0-.26.47,2.32,2.32,0,0,0,.06,1.46,1.1,1.1,0,0,0,.45.52,1.37,1.37,0,0,0,.72.18,1.54,1.54,0,0,0,.75-.18,1.51,1.51,0,0,0,.55-.57l.59.37a2.21,2.21,0,0,1-.82.79,2.37,2.37,0,0,1-1.16.27A1.86,1.86,0,0,1,390.24,218.31Z" transform="translate(0 15.16)"/><path class="cls-35" d="M394.25,220.48v-6.13H395v6.13Zm3.92-2.9a2.07,2.07,0,0,1-.75.75,2.1,2.1,0,0,1-1,.26,1.67,1.67,0,0,1-.71-.15,1.62,1.62,0,0,1-.55-.43,1.9,1.9,0,0,1-.35-.68,3.22,3.22,0,0,1,0-1.81,2,2,0,0,1,.35-.68,1.62,1.62,0,0,1,.55-.43,1.67,1.67,0,0,1,.71-.15,2.1,2.1,0,0,1,1,.26,2.07,2.07,0,0,1,.75.75,2.31,2.31,0,0,1,.27,1.16A2.35,2.35,0,0,1,398.17,217.58Zm-.65-2a1.29,1.29,0,0,0-.51-.5,1.55,1.55,0,0,0-.71-.17,1.14,1.14,0,0,0-.47.1,1.21,1.21,0,0,0-.43.29,1.38,1.38,0,0,0-.31.46,1.56,1.56,0,0,0-.12.64,1.54,1.54,0,0,0,.12.63,1.38,1.38,0,0,0,.31.46,1.21,1.21,0,0,0,.43.29,1.14,1.14,0,0,0,.47.1,1.43,1.43,0,0,0,.71-.17,1.29,1.29,0,0,0,.51-.5,1.76,1.76,0,0,0,0-1.63Z" transform="translate(0 15.16)"/><path class="cls-35" d="M400.88,214.35V215H398.8v-.68Zm-.68-1.44v5.59h-.72v-5.59Z" transform="translate(0 15.16)"/><path class="cls-35" d="M405,218.5h-.72v-7H405Zm3.19-.92a2,2,0,0,1-1.78,1,1.6,1.6,0,0,1-.7-.15,1.45,1.45,0,0,1-.55-.43,1.77,1.77,0,0,1-.36-.68,3.22,3.22,0,0,1,0-1.81,1.84,1.84,0,0,1,.36-.68,1.45,1.45,0,0,1,.55-.43,1.6,1.6,0,0,1,.7-.15,2,2,0,0,1,1.78,1,2.32,2.32,0,0,1,.28,1.16A2.36,2.36,0,0,1,408.17,217.58Zm-.65-2a1.29,1.29,0,0,0-.51-.5,1.52,1.52,0,0,0-.71-.17,1.17,1.17,0,0,0-.47.1,1.27,1.27,0,0,0-.42.29,1.4,1.4,0,0,0-.32.46,1.89,1.89,0,0,0,0,1.27,1.4,1.4,0,0,0,.32.46,1.27,1.27,0,0,0,.42.29,1.17,1.17,0,0,0,.47.1,1.41,1.41,0,0,0,.71-.17,1.29,1.29,0,0,0,.51-.5,1.76,1.76,0,0,0,0-1.63Z" transform="translate(0 15.16)"/><path class="cls-35" d="M410,218.31a1.76,1.76,0,0,1-.69-.76,2.37,2.37,0,0,1-.25-1.12,2.52,2.52,0,0,1,.15-.89,2.2,2.2,0,0,1,.41-.68,2.07,2.07,0,0,1,.65-.44,2.13,2.13,0,0,1,.84-.16,2,2,0,0,1,1.05.26,1.69,1.69,0,0,1,.67.73,2.52,2.52,0,0,1,.24,1.14.62.62,0,0,1,0,.13v.09h-3.54V216h3l-.29.42a.64.64,0,0,0,.06-.14,1.37,1.37,0,0,0,0-.16,1.29,1.29,0,0,0-.15-.64,1,1,0,0,0-.41-.42,1.09,1.09,0,0,0-.61-.16,1.58,1.58,0,0,0-.55.1,1.06,1.06,0,0,0-.42.29,1.19,1.19,0,0,0-.26.47,2.32,2.32,0,0,0,.06,1.46,1.1,1.1,0,0,0,.45.52,1.37,1.37,0,0,0,.72.18,1.54,1.54,0,0,0,.75-.18,1.51,1.51,0,0,0,.55-.57l.59.37a2.21,2.21,0,0,1-.82.79,2.37,2.37,0,0,1-1.16.27A1.86,1.86,0,0,1,410,218.31Z" transform="translate(0 15.16)"/><path class="cls-35" d="M414.08,214.35l1.17,2.93,1.17-2.93h.81l-2,4.46-2-4.46Z" transform="translate(0 15.16)"/><path class="cls-35" d="M418.35,217.62a.66.66,0,0,0,.31.26,1.16,1.16,0,0,0,.47.09,1.33,1.33,0,0,0,.6-.14,1.18,1.18,0,0,0,.42-.38,1.11,1.11,0,0,0,.16-.57l.14.54a.92.92,0,0,1-.24.65,1.36,1.36,0,0,1-.58.39,1.91,1.91,0,0,1-.69.13,1.54,1.54,0,0,1-.71-.16,1.23,1.23,0,0,1-.73-1.18,1.25,1.25,0,0,1,.2-.7,1.23,1.23,0,0,1,.56-.46,2.08,2.08,0,0,1,.87-.17,2.31,2.31,0,0,1,.75.1,1.79,1.79,0,0,1,.48.24,1.44,1.44,0,0,1,.24.21v.42a2.51,2.51,0,0,0-.64-.31,2.78,2.78,0,0,0-.72-.09,1.55,1.55,0,0,0-.57.09.66.66,0,0,0-.33.25.71.71,0,0,0-.11.39A.68.68,0,0,0,418.35,217.62Zm-.58-2.84a3.17,3.17,0,0,1,.65-.35,2.62,2.62,0,0,1,1-.17,2.26,2.26,0,0,1,.85.15,1.23,1.23,0,0,1,.56.43,1.1,1.1,0,0,1,.21.68v3h-.72v-2.88a.72.72,0,0,0-.08-.35.43.43,0,0,0-.2-.22.79.79,0,0,0-.3-.12,2,2,0,0,0-.36,0,1.87,1.87,0,0,0-.55.08,1.36,1.36,0,0,0-.42.17,1.42,1.42,0,0,0-.27.17Z" transform="translate(0 15.16)"/><path class="cls-35" d="M423.69,214.35V215h-2.08v-.68Zm-.68-1.44v5.59h-.72v-5.59Z" transform="translate(0 15.16)"/><path class="cls-35" d="M376.05,223.45l2.16-.54v6.4h-.77v-5.48l-1.39.42Z" transform="translate(0 15.16)"/><path class="cls-35" d="M382.54,226.13a3.55,3.55,0,0,0,.36-.45,1.57,1.57,0,0,0,.22-.45,1.51,1.51,0,0,0,.08-.48,1.1,1.1,0,0,0-.08-.4.88.88,0,0,0-.24-.36,1.19,1.19,0,0,0-.38-.27,1.38,1.38,0,0,0-.52-.09,1.27,1.27,0,0,0-.69.18,1.12,1.12,0,0,0-.45.53,2.09,2.09,0,0,0-.15.83h-.77a2.78,2.78,0,0,1,.24-1.19,1.88,1.88,0,0,1,.71-.79,2.08,2.08,0,0,1,1.11-.29,2.14,2.14,0,0,1,.91.18,2.06,2.06,0,0,1,.62.45,1.91,1.91,0,0,1,.36.59,1.69,1.69,0,0,1,.12.6,2.14,2.14,0,0,1-.24,1,3.69,3.69,0,0,1-.6.86l-2,2H384v.72h-4.45Z" transform="translate(0 15.16)"/><path class="cls-35" d="M387.84,231.29v-6.12h.72v6.12Zm3.91-2.9a1.84,1.84,0,0,1-.74.75,2.1,2.1,0,0,1-1,.26,1.64,1.64,0,0,1-.71-.15,1.62,1.62,0,0,1-.55-.42,2.25,2.25,0,0,1-.36-.69,3.06,3.06,0,0,1-.12-.9,3.18,3.18,0,0,1,.12-.91,2.31,2.31,0,0,1,.36-.68,1.64,1.64,0,0,1,.55-.43,1.8,1.8,0,0,1,.71-.14,2,2,0,0,1,1,.26,1.88,1.88,0,0,1,.74.74,2.52,2.52,0,0,1,0,2.31Zm-.64-2a1.34,1.34,0,0,0-.52-.51,1.48,1.48,0,0,0-.7-.17,1.32,1.32,0,0,0-.47.1,1.36,1.36,0,0,0-.43.29,1.49,1.49,0,0,0-.31.46,1.62,1.62,0,0,0-.12.64,1.54,1.54,0,0,0,.12.63,1.43,1.43,0,0,0,.31.47,1.55,1.55,0,0,0,.43.29,1.32,1.32,0,0,0,.47.1,1.38,1.38,0,0,0,.7-.18,1.25,1.25,0,0,0,.52-.5,1.82,1.82,0,0,0,0-1.62Z" transform="translate(0 15.16)"/><path class="cls-35" d="M393,226.12a1.94,1.94,0,0,1,.77-.76,2.17,2.17,0,0,1,2.95.76,2.36,2.36,0,0,1,0,2.23,2,2,0,0,1-.77.77,2.26,2.26,0,0,1-2.18,0,1.9,1.9,0,0,1-.77-.77,2.29,2.29,0,0,1,0-2.23Zm.63,1.89a1.39,1.39,0,0,0,.5.52,1.4,1.4,0,0,0,.73.2,1.34,1.34,0,0,0,.72-.2A1.41,1.41,0,0,0,396,228a1.62,1.62,0,0,0,.18-.77,1.59,1.59,0,0,0-.18-.77,1.37,1.37,0,0,0-.51-.53,1.43,1.43,0,0,0-.72-.19,1.5,1.5,0,0,0-.73.19,1.34,1.34,0,0,0-.5.53,1.49,1.49,0,0,0-.19.77A1.52,1.52,0,0,0,393.58,228Z" transform="translate(0 15.16)"/><path class="cls-35" d="M398.66,229.31h-.72v-4.14h.72Zm1-3.51a.85.85,0,0,0-.3-.05.65.65,0,0,0-.43.14.71.71,0,0,0-.21.37,2.09,2.09,0,0,0-.06.53h-.32a2.07,2.07,0,0,1,.18-.88,1.5,1.5,0,0,1,.45-.61.91.91,0,0,1,.57-.22,1.42,1.42,0,0,1,.42.06.7.7,0,0,1,.35.22l-.39.6A1.68,1.68,0,0,0,399.66,225.8Z" transform="translate(0 15.16)"/><path class="cls-35" d="M402.48,225.17v.67H400.4v-.67Zm-.68-1.45v5.59h-.72v-5.59Z" transform="translate(0 15.16)"/><path class="cls-35" d="M403.35,223.1a.49.49,0,0,1,.34-.14.52.52,0,0,1,.36.14.52.52,0,0,1,.14.35.5.5,0,0,1-.14.35.49.49,0,0,1-.36.15.46.46,0,0,1-.34-.15.47.47,0,0,1-.15-.35A.49.49,0,0,1,403.35,223.1Zm.7,2.07v4.14h-.72v-4.14Z" transform="translate(0 15.16)"/><path class="cls-35" d="M406.12,229.13a1.87,1.87,0,0,1-.69-.76,2.67,2.67,0,0,1-.1-2,2,2,0,0,1,.42-.68,1.89,1.89,0,0,1,.65-.45,2.23,2.23,0,0,1,.83-.15,2,2,0,0,1,1,.25,1.68,1.68,0,0,1,.68.74,2.62,2.62,0,0,1,.23,1.13v.13a.44.44,0,0,0,0,.09h-3.54v-.61h3l-.28.41.05-.14a.5.5,0,0,0,0-.16,1.32,1.32,0,0,0-.15-.64,1.1,1.1,0,0,0-.41-.42,1.24,1.24,0,0,0-.62-.15,1.42,1.42,0,0,0-.55.1,1.11,1.11,0,0,0-.42.28,1.43,1.43,0,0,0-.26.47,2.08,2.08,0,0,0-.09.63,2.05,2.05,0,0,0,.15.83,1.24,1.24,0,0,0,.45.53,1.37,1.37,0,0,0,.72.18,1.44,1.44,0,0,0,1.3-.75l.59.37a2.21,2.21,0,0,1-.82.79,2.48,2.48,0,0,1-1.16.26A1.94,1.94,0,0,1,406.12,229.13Z" transform="translate(0 15.16)"/><path class="cls-35" d="M410.64,228.39a1.18,1.18,0,0,0,.37.26,1.23,1.23,0,0,0,.47.09.72.72,0,0,0,.48-.14.45.45,0,0,0,.18-.38.52.52,0,0,0-.14-.36,1.23,1.23,0,0,0-.36-.26,4.89,4.89,0,0,0-.46-.19,4.43,4.43,0,0,1-.54-.26,1.32,1.32,0,0,1-.46-.38.92.92,0,0,1-.19-.6,1,1,0,0,1,.2-.62,1.1,1.1,0,0,1,.5-.36,2,2,0,0,1,.64-.11,1.81,1.81,0,0,1,.63.1,2,2,0,0,1,.52.29,1.27,1.27,0,0,1,.35.42l-.58.37a1.31,1.31,0,0,0-.42-.39,1.18,1.18,0,0,0-.59-.15.67.67,0,0,0-.38.1.32.32,0,0,0-.17.3.41.41,0,0,0,.13.29,1.27,1.27,0,0,0,.33.23l.41.18a5.06,5.06,0,0,1,.66.32,1.43,1.43,0,0,1,.47.4.93.93,0,0,1,.18.6,1.14,1.14,0,0,1-.18.64,1.39,1.39,0,0,1-.5.46,1.65,1.65,0,0,1-.75.16,1.86,1.86,0,0,1-.75-.15,1.73,1.73,0,0,1-.56-.38,2.08,2.08,0,0,1-.35-.48l.57-.35A2.45,2.45,0,0,0,410.64,228.39Z" transform="translate(0 15.16)"/><path class="cls-36" d="M446.3,317.12q0,37.15,0,74.3c0,4.23-2.27,7.48-6,8.46a12.18,12.18,0,0,1-3.19.39h-87c-6,0-9.33-3.34-9.33-9.3V321.52a123.41,123.41,0,0,1,12.88-5.37c20.54-7.61,39.65-6.16,62.74-4.4,9.37.71,14.05,1.07,20.17,2.57C438.21,314.73,441.79,315.61,446.3,317.12Z" transform="translate(0 15.16)"/><path class="cls-34" d="M341.73,317.47a35.91,35.91,0,0,0,1.2,7.77c.63,2.73.9,5.44,1.26,8.22a61,61,0,0,0,4.89,16.3c1,2.41,2.07,4.85,2.91,7.34.9,2.68,1.26,5.53,2.12,8.23,1.67,5.25,2.88,10.64,4.62,15.87a65.23,65.23,0,0,1,2.15,8.85c.3,1.62.55,3.25.9,4.86.29,1.3,1.17,2.54,1.32,3.84a2.58,2.58,0,0,0,2.5,2.5,2.51,2.51,0,0,0,2.5-2.5,14.47,14.47,0,0,0-1.08-3.69,22.18,22.18,0,0,1-.9-4.05,79.28,79.28,0,0,0-1.68-8.36c-1.53-5.25-3.16-10.46-4.59-15.74-.77-2.83-1.67-5.6-2.33-8.46A53.29,53.29,0,0,0,355,350.9c-2-5.1-4.5-10.16-5.48-15.61-.54-3-.63-6.1-1.22-9.1s-1.48-5.72-1.52-8.72c0-3.21-5-3.22-5,0Z" transform="translate(0 15.16)"/><path class="cls-34" d="M441.09,314.75c-.47,1.29-1,2.55-1.46,3.85s-.62,2.75-1.14,4.06a52,52,0,0,0-2,7.71,127.61,127.61,0,0,0-2.71,18.55c-.1,1.34,0,2.72-.19,4.05a36.1,36.1,0,0,1-.86,4.08c-.32,1.33-.8,2.63-1.17,3.95-.41,1.5-.73,3-1.17,4.51-.83,2.76-1.59,5.54-2.31,8.33a75.23,75.23,0,0,0-1.35,9,36.86,36.86,0,0,1-1.94,9c-.63,1.56-1.16,3.09-1.65,4.7s-1.29,3-1.26,4.6c.06,3.21,5.06,3.22,5,0a4.68,4.68,0,0,1,.55-1.64c.24-.6.41-1.23.6-1.85a36.72,36.72,0,0,1,1.37-3.94,32.31,32.31,0,0,0,1.94-8.08c.46-3,.63-6.14,1.26-9.15.57-2.72,1.3-5.52,2.14-8.17s1.48-5.44,2.31-8.14a32.84,32.84,0,0,0,1.57-8.43,103.43,103.43,0,0,1,2.25-18c.33-1.61.7-3.22,1.09-4.82a36.44,36.44,0,0,1,1.1-4.29c.53-1.36.79-2.72,1.21-4.11s1.13-3,1.68-4.47a2.5,2.5,0,0,0-4.83-1.33Z" transform="translate(0 15.16)"/><path class="cls-35" d="M378.51,334.14v.68h-2.07v-.68Zm-.67-1.44v5.59h-.72V332.7Z" transform="translate(0 15.16)"/><path class="cls-35" d="M379.67,337.42a.67.67,0,0,0,.32.25,1.11,1.11,0,0,0,.46.09,1.33,1.33,0,0,0,.6-.14,1,1,0,0,0,.58-.95l.15.54a1,1,0,0,1-.24.66,1.47,1.47,0,0,1-.59.38,1.87,1.87,0,0,1-.69.13,1.5,1.5,0,0,1-.7-.16,1.22,1.22,0,0,1-.53-.45,1.29,1.29,0,0,1-.2-.72,1.19,1.19,0,0,1,.75-1.17,2.14,2.14,0,0,1,.87-.17,2.28,2.28,0,0,1,.75.11,1.49,1.49,0,0,1,.49.23,1.44,1.44,0,0,1,.24.21v.43a2.31,2.31,0,0,0-.65-.32,2.71,2.71,0,0,0-.71-.09,1.51,1.51,0,0,0-.57.09.66.66,0,0,0-.33.25.71.71,0,0,0-.11.39A.78.78,0,0,0,379.67,337.42Zm-.57-2.85a3.34,3.34,0,0,1,.64-.35,2.7,2.7,0,0,1,1-.17,2.19,2.19,0,0,1,.85.15,1.2,1.2,0,0,1,.57.43,1.13,1.13,0,0,1,.2.69v3h-.72v-2.88a.73.73,0,0,0-.07-.35.61.61,0,0,0-.2-.22.79.79,0,0,0-.3-.12,2.2,2.2,0,0,0-.36,0,1.94,1.94,0,0,0-.56.08,1.6,1.6,0,0,0-.42.17l-.27.17Z" transform="translate(0 15.16)"/><path class="cls-35" d="M383.52,340.27v-6.13h.73v6.13Zm3.92-2.9a2.07,2.07,0,0,1-.75.75,2.1,2.1,0,0,1-1,.26,1.67,1.67,0,0,1-.71-.15,1.62,1.62,0,0,1-.55-.43,1.9,1.9,0,0,1-.35-.68,2.79,2.79,0,0,1-.13-.9,2.86,2.86,0,0,1,.13-.91,2,2,0,0,1,.35-.68,1.62,1.62,0,0,1,.55-.43,1.67,1.67,0,0,1,.71-.15,2,2,0,0,1,1,.27,2,2,0,0,1,.75.74,2.52,2.52,0,0,1,0,2.31Zm-.65-2a1.25,1.25,0,0,0-.51-.51,1.55,1.55,0,0,0-.71-.17,1.14,1.14,0,0,0-.47.1,1.31,1.31,0,0,0-.43.29,1.38,1.38,0,0,0-.31.46,1.59,1.59,0,0,0-.11.64,1.54,1.54,0,0,0,.11.63,1.43,1.43,0,0,0,.31.47,1.44,1.44,0,0,0,.43.28,1.14,1.14,0,0,0,.47.1,1.43,1.43,0,0,0,.71-.17,1.29,1.29,0,0,0,.51-.5,1.59,1.59,0,0,0,.2-.81A1.57,1.57,0,0,0,386.79,335.41Z" transform="translate(0 15.16)"/><path class="cls-35" d="M391.33,335.1a2.11,2.11,0,0,1,.77-.77,2.28,2.28,0,0,1,2.19,0,2,2,0,0,1,.76.77,2.29,2.29,0,0,1,0,2.23,2,2,0,0,1-.76.77,2.16,2.16,0,0,1-3-.77,2.36,2.36,0,0,1,0-2.23ZM392,337a1.52,1.52,0,0,0,.51.53,1.34,1.34,0,0,0,.72.19,1.37,1.37,0,0,0,.73-.19,1.41,1.41,0,0,0,.5-.53,1.45,1.45,0,0,0,.19-.76,1.49,1.49,0,0,0-.19-.77,1.34,1.34,0,0,0-.5-.53,1.37,1.37,0,0,0-.73-.19,1.34,1.34,0,0,0-.72.19,1.44,1.44,0,0,0-.51.53,1.59,1.59,0,0,0-.18.77A1.55,1.55,0,0,0,392,337Z" transform="translate(0 15.16)"/><path class="cls-35" d="M402,338.29h-.72v-2.52a1.63,1.63,0,0,0-.09-.59.69.69,0,0,0-.26-.34.88.88,0,0,0-.45-.11,1,1,0,0,0-.51.12.77.77,0,0,0-.33.36,1.19,1.19,0,0,0-.12.56v2.52h-.72v-2.52a1.63,1.63,0,0,0-.09-.59.64.64,0,0,0-.26-.34.84.84,0,0,0-.44-.11,1.08,1.08,0,0,0-.52.12.83.83,0,0,0-.33.36,1.19,1.19,0,0,0-.12.56v2.52h-.72v-4.15h.72v.61a1.32,1.32,0,0,1,.29-.39,1.18,1.18,0,0,1,.39-.23,1.4,1.4,0,0,1,.47-.08,1.46,1.46,0,0,1,.52.09,1.22,1.22,0,0,1,.41.27,1,1,0,0,1,.26.42,1.6,1.6,0,0,1,.54-.58,1.44,1.44,0,0,1,.74-.2,1.33,1.33,0,0,1,.72.19,1.17,1.17,0,0,1,.46.56,2.1,2.1,0,0,1,.16.88Z" transform="translate(0 15.16)"/><path class="cls-35" d="M407.51,334.14v.68h-2.08v-.68Zm-.68-1.44v5.59h-.72V332.7Z" transform="translate(0 15.16)"/><path class="cls-35" d="M408.81,338.1a1.84,1.84,0,0,1-.7-.76,2.49,2.49,0,0,1-.24-1.12,2.77,2.77,0,0,1,.14-.89,2,2,0,0,1,.42-.68,2,2,0,0,1,.65-.44,2.24,2.24,0,0,1,.84-.16,2,2,0,0,1,1.05.26,1.72,1.72,0,0,1,.67.74,2.45,2.45,0,0,1,.24,1.13s0,.09,0,.13v.09h-3.54v-.62h3l-.29.42a.38.38,0,0,0,.05-.14.55.55,0,0,0,0-.16,1.32,1.32,0,0,0-.15-.64,1,1,0,0,0-.41-.42,1.2,1.2,0,0,0-.61-.16,1.58,1.58,0,0,0-.55.1,1.17,1.17,0,0,0-.42.29,1.19,1.19,0,0,0-.26.47,2.08,2.08,0,0,0-.1.63,2,2,0,0,0,.16.83,1.1,1.1,0,0,0,.45.52,1.37,1.37,0,0,0,.72.18,1.41,1.41,0,0,0,1.3-.74l.58.37a2.09,2.09,0,0,1-.81.78,2.39,2.39,0,0,1-1.16.27A1.84,1.84,0,0,1,408.81,338.1Z" transform="translate(0 15.16)"/><path class="cls-35" d="M384.28,345.87a1.84,1.84,0,0,1,.75-.74,2,2,0,0,1,1-.26,1.64,1.64,0,0,1,.71.15,1.62,1.62,0,0,1,.55.42,2.31,2.31,0,0,1,.36.68,3.51,3.51,0,0,1,0,1.82,2.31,2.31,0,0,1-.36.68,1.5,1.5,0,0,1-.55.42,1.64,1.64,0,0,1-.71.15,2,2,0,0,1-1-.26,1.81,1.81,0,0,1-.75-.75A2.2,2.2,0,0,1,384,347,2.24,2.24,0,0,1,384.28,345.87Zm.64,2a1.34,1.34,0,0,0,.52.51,1.54,1.54,0,0,0,.7.17,1.28,1.28,0,0,0,.47-.1,1.36,1.36,0,0,0,.43-.29,1.49,1.49,0,0,0,.31-.46,1.62,1.62,0,0,0,.12-.64,1.54,1.54,0,0,0-.12-.63,1.43,1.43,0,0,0-.31-.47,1.36,1.36,0,0,0-.43-.29,1.28,1.28,0,0,0-.47-.1,1.54,1.54,0,0,0-.7.17,1.34,1.34,0,0,0-.52.51,1.82,1.82,0,0,0,0,1.62Zm3.27-5.77v7h-.72v-7Z" transform="translate(0 15.16)"/><path class="cls-35" d="M390.08,348.92a1.9,1.9,0,0,1-.7-.76,2.54,2.54,0,0,1-.25-1.13,2.46,2.46,0,0,1,.15-.88,2,2,0,0,1,.42-.68,1.83,1.83,0,0,1,.65-.44,2.06,2.06,0,0,1,.84-.16,2,2,0,0,1,1.05.25,1.78,1.78,0,0,1,.67.74,2.51,2.51,0,0,1,.23,1.13v.22h-3.55v-.61h3l-.29.41a.32.32,0,0,0,.05-.14.49.49,0,0,0,0-.15,1.29,1.29,0,0,0-.15-.64,1.06,1.06,0,0,0-.41-.43,1.2,1.2,0,0,0-.61-.15,1.47,1.47,0,0,0-.56.1,1,1,0,0,0-.41.29,1,1,0,0,0-.26.46,1.83,1.83,0,0,0-.1.64,2,2,0,0,0,.16.82,1.12,1.12,0,0,0,.45.53,1.37,1.37,0,0,0,.72.18,1.44,1.44,0,0,0,.75-.19,1.56,1.56,0,0,0,.55-.56l.58.37a2.11,2.11,0,0,1-.81.79,2.51,2.51,0,0,1-1.16.26A1.92,1.92,0,0,1,390.08,348.92Z" transform="translate(0 15.16)"/><path class="cls-35" d="M394.86,342.07v7h-.72v-7Z" transform="translate(0 15.16)"/><path class="cls-35" d="M396.79,348.92a1.81,1.81,0,0,1-.69-.76,2.41,2.41,0,0,1-.25-1.13,2.46,2.46,0,0,1,.15-.88,2,2,0,0,1,.42-.68,1.74,1.74,0,0,1,.65-.44,2.29,2.29,0,0,1,1.88.09,1.8,1.8,0,0,1,.68.74,2.65,2.65,0,0,1,.23,1.13.66.66,0,0,1,0,.14v.08h-3.54v-.61h3L399,347a.48.48,0,0,0,.06-.14.49.49,0,0,0,0-.15,1.29,1.29,0,0,0-.15-.64,1.13,1.13,0,0,0-.41-.43,1.24,1.24,0,0,0-.62-.15,1.38,1.38,0,0,0-.55.1,1,1,0,0,0-.42.29,1.29,1.29,0,0,0-.26.46,2.11,2.11,0,0,0-.09.64,2,2,0,0,0,.15.82,1.12,1.12,0,0,0,.45.53,1.37,1.37,0,0,0,.72.18,1.42,1.42,0,0,0,.75-.19,1.48,1.48,0,0,0,.55-.56l.59.37a2.21,2.21,0,0,1-.82.79,2.48,2.48,0,0,1-1.16.26A1.94,1.94,0,0,1,396.79,348.92Z" transform="translate(0 15.16)"/><path class="cls-35" d="M403.41,346a.74.74,0,0,0-.3-.35.9.9,0,0,0-.48-.12,1.25,1.25,0,0,0-.56.13.94.94,0,0,0-.37.37,1.08,1.08,0,0,0-.13.54v2.52h-.72V345h.72v.65a1.35,1.35,0,0,1,.52-.56,1.43,1.43,0,0,1,.72-.18,1.32,1.32,0,0,1,.75.2,1.25,1.25,0,0,1,.49.55,2,2,0,0,1,.18.87v2.61h-.72v-2.52A1.35,1.35,0,0,0,403.41,346Z" transform="translate(0 15.16)"/><path d="M452.11,249.2c0-1.37.05-2.7-1.1-3.77-.29-.28-.28-1-.29-1.46,0-4.07,0-8.15,0-12.23a3.44,3.44,0,0,1,.82-2.69,3.07,3.07,0,0,0,.56-2q.06-11.75,0-23.48a7.87,7.87,0,0,0-.6-2.11,7.87,7.87,0,0,1-.74-2.26c-.05-9.65,0-19.31,0-29a10.45,10.45,0,0,0-10.4-10.66q-46.76,0-93.49,0a10.47,10.47,0,0,0-10.46,10.61q0,76.88,0,153.75,0,35.11,0,70.23a12.47,12.47,0,0,0,3.59,8.91l0,0a5.83,5.83,0,0,0,4,1.51l99.41-.21a5.86,5.86,0,0,0,4.21-1.75c2.66-2.74,3.23-7.16,3.21-11-.11-23.24-.05-46.49-.05-69.74v-3.18q0-28.08,0-56.15a7.36,7.36,0,0,1,.51-2.08,10,10,0,0,0,.82-2.44C452.17,255.1,452.09,252.15,452.11,249.2ZM446.3,391.42c0,4.23-2.27,7.48-6,8.46a12.18,12.18,0,0,1-3.19.39h-87c-6,0-9.33-3.34-9.33-9.3V172.74a8.15,8.15,0,0,1,8.57-8.55c29.44,0,58.87.05,88.31-.05a8.61,8.61,0,0,1,8.72,8.76q-.09,54.63,0,109.26v35Q446.3,354.28,446.3,391.42Z" transform="translate(0 15.16)"/><path d="M390.11,169.89a4.12,4.12,0,0,1,4.1-4.08,4.25,4.25,0,0,1,4.14,4.12,4.16,4.16,0,0,1-4.24,4.13A4,4,0,0,1,390.11,169.89Z" transform="translate(0 15.16)"/><path class="cls-35" d="M490.89,376.75a1.79,1.79,0,0,0,.54.37,1.67,1.67,0,0,0,.67.14,1.12,1.12,0,0,0,.7-.2.68.68,0,0,0,.25-.56.71.71,0,0,0-.2-.52,1.53,1.53,0,0,0-.51-.37c-.21-.1-.43-.19-.67-.28a5.51,5.51,0,0,1-.78-.37,2,2,0,0,1-.67-.56,1.42,1.42,0,0,1-.26-.86,1.37,1.37,0,0,1,.28-.89,1.71,1.71,0,0,1,.73-.52,2.6,2.6,0,0,1,.93-.17,2.66,2.66,0,0,1,.9.16,2.5,2.5,0,0,1,.75.42,2,2,0,0,1,.5.59l-.83.54a2,2,0,0,0-.62-.56,1.54,1.54,0,0,0-.83-.22,1,1,0,0,0-.56.14.48.48,0,0,0-.24.44.58.58,0,0,0,.18.42,1.85,1.85,0,0,0,.47.32c.19.1.39.19.6.28a8.42,8.42,0,0,1,.95.45,2.15,2.15,0,0,1,.68.57,1.44,1.44,0,0,1,.26.88,1.76,1.76,0,0,1-.26.93,2,2,0,0,1-.72.65,2.32,2.32,0,0,1-1.08.24A2.51,2.51,0,0,1,491,378a2.47,2.47,0,0,1-.81-.55,2.73,2.73,0,0,1-.5-.69l.82-.51A3.39,3.39,0,0,0,490.89,376.75Z" transform="translate(0 15.16)"/><path class="cls-35" d="M495.67,372.09l1.49,3.89,1.63-4.34,1.74,4.37,1.51-3.92h1.17l-2.6,6.44-1.81-4.35-1.7,4.35-2.6-6.44Z" transform="translate(0 15.16)"/><path class="cls-35" d="M504.47,369.12a.71.71,0,0,1,1.21.5.72.72,0,0,1-.2.5.73.73,0,0,1-1.23-.5A.63.63,0,0,1,504.47,369.12Zm1,3v6h-1v-6Z" transform="translate(0 15.16)"/><path class="cls-35" d="M507.57,380.94v-8.85h1v8.85Zm5.65-4.19a2.8,2.8,0,0,1-1.08,1.08,3,3,0,0,1-1.49.38,2.31,2.31,0,0,1-1-.22,2.16,2.16,0,0,1-.79-.62,2.94,2.94,0,0,1-.52-1,4.82,4.82,0,0,1,0-2.61,3,3,0,0,1,.52-1,2.16,2.16,0,0,1,.79-.62,2.31,2.31,0,0,1,1-.22,3,3,0,0,1,1.49.38,2.84,2.84,0,0,1,1.08,1.07,3.42,3.42,0,0,1,.4,1.68A3.37,3.37,0,0,1,513.22,376.75Zm-.93-2.84a1.85,1.85,0,0,0-.75-.72,2,2,0,0,0-1-.25,1.79,1.79,0,0,0-.67.14,2.12,2.12,0,0,0-.62.42,1.88,1.88,0,0,0-.45.67,2.55,2.55,0,0,0,0,1.83,1.88,1.88,0,0,0,.45.67,2.12,2.12,0,0,0,.62.42,1.79,1.79,0,0,0,.67.14,2,2,0,0,0,1-.25,1.85,1.85,0,0,0,.75-.72,2.35,2.35,0,0,0,.27-1.17A2.42,2.42,0,0,0,512.29,373.91Z" transform="translate(0 15.16)"/><path class="cls-35" d="M515.89,377.81a2.67,2.67,0,0,1-1-1.1,3.51,3.51,0,0,1-.36-1.62,3.7,3.7,0,0,1,.21-1.28,3,3,0,0,1,.61-1,2.71,2.71,0,0,1,.94-.64,3.11,3.11,0,0,1,1.21-.23,3,3,0,0,1,1.51.37,2.49,2.49,0,0,1,1,1.06,3.64,3.64,0,0,1,.34,1.64,1.21,1.21,0,0,1,0,.19c0,.07,0,.11,0,.13h-5.11v-.89h4.3l-.42.6a.81.81,0,0,0,.08-.2,1.24,1.24,0,0,0,0-.23,1.79,1.79,0,0,0-.22-.92,1.51,1.51,0,0,0-.59-.61,1.7,1.7,0,0,0-.88-.23,2,2,0,0,0-.8.15,1.6,1.6,0,0,0-.61.41,2,2,0,0,0-.38.68,3.17,3.17,0,0,0-.13.91,3.06,3.06,0,0,0,.22,1.2,1.62,1.62,0,0,0,.66.75,1.89,1.89,0,0,0,1,.26,2.27,2.27,0,0,0,1.08-.26,2.23,2.23,0,0,0,.79-.82l.84.54a3.08,3.08,0,0,1-1.17,1.13,3.43,3.43,0,0,1-1.67.39A2.71,2.71,0,0,1,515.89,377.81Z" transform="translate(0 15.16)"/><path class="cls-35" d="M525.54,373.47a2.93,2.93,0,0,1,1.11-1.1,3.25,3.25,0,0,1,3.16,0,3,3,0,0,1,1.1,1.1,3.37,3.37,0,0,1,0,3.22,2.93,2.93,0,0,1-1.1,1.11,3.25,3.25,0,0,1-3.16,0,2.89,2.89,0,0,1-1.11-1.11,3.37,3.37,0,0,1,0-3.22Zm.91,2.72a2,2,0,0,0,1.78,1,2,2,0,0,0,1.77-1,2.21,2.21,0,0,0,.27-1.1A2.29,2.29,0,0,0,530,374a1.91,1.91,0,0,0-.73-.76,2,2,0,0,0-1-.27,2.05,2.05,0,0,0-1.05.27,2,2,0,0,0-.73.76,2.29,2.29,0,0,0-.27,1.12A2.21,2.21,0,0,0,526.45,376.19Z" transform="translate(0 15.16)"/><path class="cls-35" d="M541,378.08h-1v-3.64a2.27,2.27,0,0,0-.13-.85.93.93,0,0,0-.37-.49,1.18,1.18,0,0,0-.65-.16,1.47,1.47,0,0,0-.74.18,1.08,1.08,0,0,0-.48.51,1.8,1.8,0,0,0-.17.81v3.64h-1v-3.64a2.51,2.51,0,0,0-.12-.85,1,1,0,0,0-.38-.49,1.15,1.15,0,0,0-.64-.16,1.49,1.49,0,0,0-.75.18,1.19,1.19,0,0,0-.48.51,1.8,1.8,0,0,0-.17.81v3.64h-1v-6h1V373a2.12,2.12,0,0,1,.43-.56,1.64,1.64,0,0,1,.55-.34,2.11,2.11,0,0,1,.68-.11,2.27,2.27,0,0,1,.75.13,1.81,1.81,0,0,1,.59.38,1.68,1.68,0,0,1,.39.61,2.12,2.12,0,0,1,.78-.84A2.07,2.07,0,0,1,539,372a1.82,1.82,0,0,1,1,.28,1.7,1.7,0,0,1,.66.8,3.19,3.19,0,0,1,.23,1.26Z" transform="translate(0 15.16)"/><path class="cls-35" d="M548.88,372.09v1h-3v-1Zm-1-2.08v8.07h-1V370Z" transform="translate(0 15.16)"/><path class="cls-35" d="M550.76,377.81a2.67,2.67,0,0,1-1-1.1,3.51,3.51,0,0,1-.36-1.62,3.47,3.47,0,0,1,.22-1.28,2.72,2.72,0,0,1,1.54-1.62,3.14,3.14,0,0,1,1.21-.23,3,3,0,0,1,1.51.37,2.37,2.37,0,0,1,1,1.06,3.64,3.64,0,0,1,.34,1.64v.19a.85.85,0,0,0,0,.13h-5.11v-.89h4.29l-.42.6a.55.55,0,0,0,.08-.2.74.74,0,0,0,0-.23,1.89,1.89,0,0,0-.21-.92,1.53,1.53,0,0,0-.6-.61,1.67,1.67,0,0,0-.88-.23,2,2,0,0,0-.8.15,1.5,1.5,0,0,0-.6.41,1.74,1.74,0,0,0-.38.68,2.86,2.86,0,0,0-.13.91,2.89,2.89,0,0,0,.22,1.2,1.6,1.6,0,0,0,.65.75,1.91,1.91,0,0,0,1,.26,2.21,2.21,0,0,0,1.08-.26,2.15,2.15,0,0,0,.79-.82l.85.54a3.11,3.11,0,0,1-1.18,1.13,3.41,3.41,0,0,1-1.67.39A2.71,2.71,0,0,1,550.76,377.81Z" transform="translate(0 15.16)"/><path class="cls-35" d="M564.22,373.61a1.06,1.06,0,0,0-.43-.5,1.37,1.37,0,0,0-.7-.17,1.58,1.58,0,0,0-.8.19,1.27,1.27,0,0,0-.53.52,1.57,1.57,0,0,0-.19.79v3.64h-1v-6h1V373a1.88,1.88,0,0,1,1.78-1.07,2,2,0,0,1,1.09.29,1.94,1.94,0,0,1,.71.81,2.77,2.77,0,0,1,.25,1.24v3.78h-1v-3.64A2,2,0,0,0,564.22,373.61Z" transform="translate(0 15.16)"/><path class="cls-35" d="M568,376.82a1,1,0,0,0,.45.37,1.78,1.78,0,0,0,.67.12,2.06,2.06,0,0,0,.87-.19,1.64,1.64,0,0,0,.61-.56,1.5,1.5,0,0,0,.22-.82l.21.78a1.37,1.37,0,0,1-.34,1,2.18,2.18,0,0,1-.85.56,2.88,2.88,0,0,1-1,.18,2.31,2.31,0,0,1-1-.23,1.8,1.8,0,0,1-.76-.66,2,2,0,0,1,0-2.05,1.8,1.8,0,0,1,.81-.67,3,3,0,0,1,1.25-.24,3.41,3.41,0,0,1,1.09.15,2.46,2.46,0,0,1,.69.34,1.44,1.44,0,0,1,.35.3v.61a3.07,3.07,0,0,0-.93-.45,3.83,3.83,0,0,0-1-.13,2.19,2.19,0,0,0-.83.13.92.92,0,0,0-.47.36,1,1,0,0,0-.16.56A1,1,0,0,0,568,376.82Zm-.83-4.12a4.85,4.85,0,0,1,.93-.49,3.76,3.76,0,0,1,1.42-.25,3.11,3.11,0,0,1,1.23.22,1.79,1.79,0,0,1,.82.62,1.59,1.59,0,0,1,.3,1v4.3h-1.05v-4.15a1.15,1.15,0,0,0-.1-.52.79.79,0,0,0-.29-.31,1.23,1.23,0,0,0-.44-.17,2.18,2.18,0,0,0-.52-.06,2.86,2.86,0,0,0-.8.11,2.41,2.41,0,0,0-.6.25,2.77,2.77,0,0,0-.39.24Z" transform="translate(0 15.16)"/><path class="cls-35" d="M573.74,372.09l1.69,4.23,1.69-4.23h1.17l-2.86,6.44-2.86-6.44Z" transform="translate(0 15.16)"/><path class="cls-35" d="M579.48,369.12a.71.71,0,0,1,.51-.21.69.69,0,0,1,.5.21.66.66,0,0,1,.21.5.69.69,0,0,1-.21.5.66.66,0,0,1-.5.22.73.73,0,0,1-.72-.72A.66.66,0,0,1,579.48,369.12Zm1,3v6h-1v-6Z" transform="translate(0 15.16)"/><path class="cls-35" d="M582.53,373.41a2.84,2.84,0,0,1,1.08-1.07,3,3,0,0,1,1.49-.38,2.31,2.31,0,0,1,1,.22,2.16,2.16,0,0,1,.79.62,3,3,0,0,1,.52,1,4.82,4.82,0,0,1,0,2.61,2.94,2.94,0,0,1-.52,1,2.16,2.16,0,0,1-.79.62,2.31,2.31,0,0,1-1,.22,3,3,0,0,1-1.49-.38,2.8,2.8,0,0,1-1.08-1.08,3.37,3.37,0,0,1-.4-1.66A3.42,3.42,0,0,1,582.53,373.41Zm.77,5.06a1.47,1.47,0,0,0,.24.8,1.75,1.75,0,0,0,.66.6,2.15,2.15,0,0,0,1,.22,1.93,1.93,0,0,0,.9-.22,1.88,1.88,0,0,0,.74-.69,2.38,2.38,0,0,0,.29-1.23v-5.86h1V378a3.18,3.18,0,0,1-.43,1.72,2.8,2.8,0,0,1-1.11,1.05,3.08,3.08,0,0,1-1.43.35,3.45,3.45,0,0,1-1.54-.33,2.49,2.49,0,0,1-1-.91,2.43,2.43,0,0,1-.38-1.36Zm.17-2.21a1.77,1.77,0,0,0,.74.72,2.08,2.08,0,0,0,1,.25,1.79,1.79,0,0,0,.67-.14,2,2,0,0,0,.62-.42A1.88,1.88,0,0,0,587,376a2.55,2.55,0,0,0,0-1.83,1.88,1.88,0,0,0-.45-.67,2,2,0,0,0-.62-.42,1.79,1.79,0,0,0-.67-.14,2.08,2.08,0,0,0-1,.25,1.77,1.77,0,0,0-.74.72,2.32,2.32,0,0,0-.29,1.18A2.25,2.25,0,0,0,583.47,376.26Z" transform="translate(0 15.16)"/><path class="cls-35" d="M590.9,377.81a2.73,2.73,0,0,1-1-1.1,3.51,3.51,0,0,1-.35-1.62,3.7,3.7,0,0,1,.21-1.28,2.78,2.78,0,0,1,.6-1,2.9,2.9,0,0,1,.94-.64,3.18,3.18,0,0,1,1.21-.23,3,3,0,0,1,1.52.37,2.49,2.49,0,0,1,1,1.06,3.78,3.78,0,0,1,.33,1.64v.19a.85.85,0,0,0,0,.13h-5.11v-.89h4.29l-.41.6a.88.88,0,0,0,.07-.2.74.74,0,0,0,0-.23,1.89,1.89,0,0,0-.21-.92,1.57,1.57,0,0,0-.59-.61,1.73,1.73,0,0,0-.89-.23,2.07,2.07,0,0,0-.8.15,1.5,1.5,0,0,0-.6.41,1.88,1.88,0,0,0-.38.68,2.86,2.86,0,0,0-.13.91,2.89,2.89,0,0,0,.22,1.2,1.6,1.6,0,0,0,.65.75,1.91,1.91,0,0,0,1,.26,2.21,2.21,0,0,0,1.08-.26,2.15,2.15,0,0,0,.79-.82l.85.54a3,3,0,0,1-1.18,1.13,3.41,3.41,0,0,1-1.67.39A2.74,2.74,0,0,1,590.9,377.81Z" transform="translate(0 15.16)"/><path class="cls-35" d="M597.81,378.08h-1v-6h1Zm1.43-5.07a1.11,1.11,0,0,0-.43-.07.88.88,0,0,0-.61.19,1,1,0,0,0-.31.54,3,3,0,0,0-.08.77h-.47a3,3,0,0,1,.25-1.27,2.4,2.4,0,0,1,.66-.88,1.29,1.29,0,0,1,.82-.33,1.93,1.93,0,0,1,.6.09,1.18,1.18,0,0,1,.52.33l-.58.86A1.79,1.79,0,0,0,599.24,373Z" transform="translate(0 15.16)"/><path class="cls-35" d="M601.87,377.81a2.67,2.67,0,0,1-1-1.1,3.51,3.51,0,0,1-.36-1.62,3.47,3.47,0,0,1,.22-1.28,2.78,2.78,0,0,1,.6-1,2.71,2.71,0,0,1,.94-.64,3.11,3.11,0,0,1,1.21-.23,3,3,0,0,1,1.51.37,2.43,2.43,0,0,1,1,1.06,3.64,3.64,0,0,1,.34,1.64,1.21,1.21,0,0,1,0,.19v.13h-5.12v-.89h4.3l-.42.6a.81.81,0,0,0,.08-.2.74.74,0,0,0,0-.23,1.79,1.79,0,0,0-.22-.92,1.51,1.51,0,0,0-.59-.61,1.67,1.67,0,0,0-.88-.23,2,2,0,0,0-.8.15,1.6,1.6,0,0,0-.61.41,2,2,0,0,0-.38.68,3.17,3.17,0,0,0-.13.91,2.89,2.89,0,0,0,.23,1.2,1.55,1.55,0,0,0,.65.75,1.89,1.89,0,0,0,1,.26,2.27,2.27,0,0,0,1.08-.26,2.23,2.23,0,0,0,.79-.82l.85.54a3.18,3.18,0,0,1-1.18,1.13,3.41,3.41,0,0,1-1.67.39A2.71,2.71,0,0,1,601.87,377.81Z" transform="translate(0 15.16)"/><path class="cls-35" d="M611.42,373.61a1,1,0,0,0-.42-.5,1.43,1.43,0,0,0-.71-.17,1.6,1.6,0,0,0-.8.19,1.33,1.33,0,0,0-.53.52,1.57,1.57,0,0,0-.19.79v3.64h-1v-6h1V373a2.11,2.11,0,0,1,.75-.81,2.2,2.2,0,0,1,2.13,0,1.85,1.85,0,0,1,.7.81,2.77,2.77,0,0,1,.26,1.24v3.78h-1v-3.64A2,2,0,0,0,611.42,373.61Z" transform="translate(0 15.16)"/><path class="cls-36" d="M579.33,336.37c-18.57-1.44-37.18-3.87-55.82-2.18a3.82,3.82,0,0,0-3.75,3.75c.08,1.88,1.65,3.94,3.75,3.75,18.64-1.69,37.25.74,55.82,2.18a3.76,3.76,0,0,0,3.75-3.75,3.84,3.84,0,0,0-3.75-3.75Z" transform="translate(0 15.16)"/><path class="cls-36" d="M514.19,342.48a3.75,3.75,0,1,0-3.75-3.75,3.79,3.79,0,0,0,3.75,3.75Z" transform="translate(0 15.16)"/><path class="cls-36" d="M588.29,344.5a3.75,3.75,0,1,0-3.75-3.75,3.8,3.8,0,0,0,3.75,3.75Z" transform="translate(0 15.16)"/><path class="cls-36" d="M597.83,346a3.75,3.75,0,1,0-3.75-3.75,3.79,3.79,0,0,0,3.75,3.75Z" transform="translate(0 15.16)"/><path class="cls-36" d="M506.12,344.5a3.75,3.75,0,1,0-3.75-3.75,3.82,3.82,0,0,0,3.75,3.75Z" transform="translate(0 15.16)"/><path class="cls-35" d="M581,190V191h-3.23V190Zm-1-2.24v8.7h-1.13v-8.7Z" transform="translate(0 15.16)"/><path class="cls-35" d="M582.82,195.05a1.08,1.08,0,0,0,.49.4,1.86,1.86,0,0,0,.73.13,2,2,0,0,0,.93-.21,1.64,1.64,0,0,0,.66-.59,1.59,1.59,0,0,0,.25-.89l.22.84a1.44,1.44,0,0,1-.37,1,2.29,2.29,0,0,1-.91.61,3.15,3.15,0,0,1-1.08.19,2.56,2.56,0,0,1-1.1-.24,2,2,0,0,1-.82-.71,2.17,2.17,0,0,1,0-2.22,2,2,0,0,1,.87-.72,3.14,3.14,0,0,1,1.36-.26,3.55,3.55,0,0,1,1.17.16,3.28,3.28,0,0,1,.75.36,2.44,2.44,0,0,1,.38.33v.66a3.58,3.58,0,0,0-1-.48,4,4,0,0,0-1.11-.15,2.44,2.44,0,0,0-.89.14,1.09,1.09,0,0,0-.51.39,1,1,0,0,0-.17.61A1.19,1.19,0,0,0,582.82,195.05Zm-.89-4.44a5,5,0,0,1,1-.53,4,4,0,0,1,1.54-.27,3.59,3.59,0,0,1,1.33.23,2,2,0,0,1,.88.67,1.72,1.72,0,0,1,.32,1.07v4.63h-1.12v-4.48a1.12,1.12,0,0,0-.12-.55.88.88,0,0,0-.31-.35,1.64,1.64,0,0,0-.47-.18,2.59,2.59,0,0,0-.56,0,3,3,0,0,0-.87.11,3,3,0,0,0-.65.26l-.42.27Z" transform="translate(0 15.16)"/><path class="cls-35" d="M588.83,199.5V190H590v9.55Zm6.09-4.52a3,3,0,0,1-1.16,1.17,3.19,3.19,0,0,1-1.6.4,2.51,2.51,0,0,1-1.11-.23,2.3,2.3,0,0,1-.85-.67,3.06,3.06,0,0,1-.56-1.06,4.66,4.66,0,0,1-.2-1.41,4.75,4.75,0,0,1,.2-1.41,3.06,3.06,0,0,1,.56-1.06,2.41,2.41,0,0,1,.85-.67,2.65,2.65,0,0,1,1.11-.23,3.2,3.2,0,0,1,1.6.41,3,3,0,0,1,1.16,1.16,3.9,3.9,0,0,1,0,3.6Zm-1-3.06a2,2,0,0,0-.8-.79,2.27,2.27,0,0,0-1.11-.26,2,2,0,0,0-.73.15,2,2,0,0,0-.66.45,2.48,2.48,0,0,0-.49.72,2.57,2.57,0,0,0-.18,1,2.5,2.5,0,0,0,.18,1,2.21,2.21,0,0,0,1.15,1.18,2,2,0,0,0,.73.15,2.28,2.28,0,0,0,1.11-.27,2,2,0,0,0,.8-.78,2.82,2.82,0,0,0,0-2.53Z" transform="translate(0 15.16)"/><path class="cls-35" d="M601,191.44a3.19,3.19,0,0,1,1.2-1.19,3.37,3.37,0,0,1,4.6,1.19,3.66,3.66,0,0,1,0,3.48,3.29,3.29,0,0,1-1.2,1.2,3.58,3.58,0,0,1-3.4,0,3.14,3.14,0,0,1-1.2-1.2,3.59,3.59,0,0,1,0-3.48Zm1,2.94a2.12,2.12,0,0,0,1.92,1.12,2.17,2.17,0,0,0,1.13-.3,2.19,2.19,0,0,0,.78-.82,2.63,2.63,0,0,0,0-2.4,2.12,2.12,0,0,0-.78-.82,2.37,2.37,0,0,0-2.27,0,2.12,2.12,0,0,0-.78.82,2.63,2.63,0,0,0,0,2.4Z" transform="translate(0 15.16)"/><path class="cls-35" d="M617.63,196.41h-1.12v-3.93a2.56,2.56,0,0,0-.14-.91,1,1,0,0,0-.4-.53,1.28,1.28,0,0,0-.7-.17,1.69,1.69,0,0,0-.8.18,1.34,1.34,0,0,0-.52.56,1.93,1.93,0,0,0-.18.87v3.93h-1.13v-3.93a2.58,2.58,0,0,0-.13-.91,1,1,0,0,0-.41-.53,1.22,1.22,0,0,0-.69-.17,1.66,1.66,0,0,0-.8.18,1.28,1.28,0,0,0-.52.56,1.93,1.93,0,0,0-.18.87v3.93h-1.13V190h1.13v.94a2.36,2.36,0,0,1,.45-.6,1.85,1.85,0,0,1,.6-.36,2.15,2.15,0,0,1,.73-.12,2.39,2.39,0,0,1,.82.14,1.91,1.91,0,0,1,.63.41,1.74,1.74,0,0,1,.42.66,2.39,2.39,0,0,1,.84-.91,2.22,2.22,0,0,1,1.15-.3,2,2,0,0,1,1.13.3,1.83,1.83,0,0,1,.7.86,3.35,3.35,0,0,1,.25,1.37Z" transform="translate(0 15.16)"/><path class="cls-35" d="M624.86,196.12a2.89,2.89,0,0,1-1.09-1.18,3.93,3.93,0,0,1-.38-1.76,4,4,0,0,1,.23-1.37,2.91,2.91,0,0,1,.65-1.06,2.84,2.84,0,0,1,1-.69,3.56,3.56,0,0,1,3,.15,2.64,2.64,0,0,1,1,1.15,3.86,3.86,0,0,1,.37,1.77,1.41,1.41,0,0,1,0,.2,1.09,1.09,0,0,1,0,.13H624.1v-1h4.64l-.45.64a.54.54,0,0,0,.08-.21.92.92,0,0,0,0-.25,2,2,0,0,0-.24-1,1.67,1.67,0,0,0-.63-.66,1.87,1.87,0,0,0-1-.23,2.31,2.31,0,0,0-.86.15,1.69,1.69,0,0,0-.66.45,2.06,2.06,0,0,0-.4.73,3,3,0,0,0-.14,1,3.27,3.27,0,0,0,.23,1.29,1.79,1.79,0,0,0,.71.82,2.09,2.09,0,0,0,1.12.28,2.36,2.36,0,0,0,1.17-.29,2.33,2.33,0,0,0,.85-.88l.92.58a3.5,3.5,0,0,1-1.28,1.23,3.8,3.8,0,0,1-1.8.41A2.91,2.91,0,0,1,624.86,196.12Z" transform="translate(0 15.16)"/><path class="cls-35" d="M632.09,196.12a2.87,2.87,0,0,1-1.08-1.18,3.8,3.8,0,0,1-.39-1.76,4,4,0,0,1,.23-1.37,3.08,3.08,0,0,1,.66-1.06,2.75,2.75,0,0,1,1-.69,3.54,3.54,0,0,1,2.94.15,2.73,2.73,0,0,1,1,1.15,4,4,0,0,1,.36,1.77,1.41,1.41,0,0,1,0,.2v.13h-5.52v-1H636l-.45.64a.72.72,0,0,0,.09-.21,1.41,1.41,0,0,0,0-.25,2.11,2.11,0,0,0-.23-1,1.76,1.76,0,0,0-.64-.66,1.85,1.85,0,0,0-1-.23,2.39,2.39,0,0,0-.86.15,1.59,1.59,0,0,0-.65.45,1.93,1.93,0,0,0-.41.73,3.31,3.31,0,0,0-.14,1,3.1,3.1,0,0,0,.24,1.29,1.77,1.77,0,0,0,.7.82,2.09,2.09,0,0,0,1.12.28,2.23,2.23,0,0,0,2-1.17l.91.58a3.47,3.47,0,0,1-1.27,1.23,3.81,3.81,0,0,1-1.81.41A2.91,2.91,0,0,1,632.09,196.12Z" transform="translate(0 15.16)"/><path class="cls-35" d="M642.4,191.59a1.07,1.07,0,0,0-.46-.54,1.5,1.5,0,0,0-.76-.18,1.71,1.71,0,0,0-.86.2,1.39,1.39,0,0,0-.58.57,1.74,1.74,0,0,0-.2.84v3.93h-1.12V190h1.12v1a2.25,2.25,0,0,1,3.1-.84,2.1,2.1,0,0,1,.77.87,3.13,3.13,0,0,1,.27,1.35v4.07h-1.12v-3.93A2.12,2.12,0,0,0,642.4,191.59Z" transform="translate(0 15.16)"/><path class="cls-35" d="M572.16,213.27H571v-6.46h1.12Zm1.55-5.47a1.07,1.07,0,0,0-.47-.08.92.92,0,0,0-.65.21,1,1,0,0,0-.33.58,2.92,2.92,0,0,0-.1.82h-.5a3.32,3.32,0,0,1,.27-1.37,2.54,2.54,0,0,1,.71-.94,1.38,1.38,0,0,1,.89-.35,2.27,2.27,0,0,1,.65.09,1.32,1.32,0,0,1,.55.35l-.61.93A2,2,0,0,0,573.71,207.8Z" transform="translate(0 15.16)"/><path class="cls-35" d="M576.55,213a3,3,0,0,1-1.08-1.19,4.11,4.11,0,0,1-.15-3.13,2.95,2.95,0,0,1,1.66-1.75,3.43,3.43,0,0,1,1.31-.24,3.13,3.13,0,0,1,1.63.4,2.53,2.53,0,0,1,1.05,1.14,4.05,4.05,0,0,1,.36,1.77v.2a1,1,0,0,0,0,.14H575.8v-1h4.64L580,210a2.32,2.32,0,0,0,.08-.22.85.85,0,0,0,0-.25,2,2,0,0,0-.23-1,1.69,1.69,0,0,0-.64-.66,1.84,1.84,0,0,0-1-.24,2.41,2.41,0,0,0-.87.15,2,2,0,0,0-.65.45,2.07,2.07,0,0,0-.41.73,3.33,3.33,0,0,0-.14,1,3.16,3.16,0,0,0,.24,1.29,1.74,1.74,0,0,0,.7.81,2.13,2.13,0,0,0,1.13.28,2.29,2.29,0,0,0,1.16-.28,2.5,2.5,0,0,0,.86-.88l.91.57A3.32,3.32,0,0,1,580,213a3.68,3.68,0,0,1-1.8.42A3.06,3.06,0,0,1,576.55,213Z" transform="translate(0 15.16)"/><path class="cls-35" d="M583.67,211.23a2.15,2.15,0,0,0,1.92,1.12,2.82,2.82,0,0,0,1.77-.59,1.84,1.84,0,0,0,.48-.59v1.41a2.28,2.28,0,0,1-1,.61,4,4,0,0,1-1.28.22,3.36,3.36,0,0,1-1.7-.44,3.14,3.14,0,0,1-1.2-1.2,3.66,3.66,0,0,1,0-3.48,3.19,3.19,0,0,1,1.2-1.19,3.36,3.36,0,0,1,1.7-.43,4,4,0,0,1,1.28.21,2.28,2.28,0,0,1,1,.61v1.41a1.65,1.65,0,0,0-.48-.59,2.82,2.82,0,0,0-1.77-.59,2.24,2.24,0,0,0-1.13.29,2.15,2.15,0,0,0-.79.82,2.55,2.55,0,0,0-.29,1.21A2.44,2.44,0,0,0,583.67,211.23Z" transform="translate(0 15.16)"/><path class="cls-35" d="M590.5,213a2.83,2.83,0,0,1-1.08-1.19A3.76,3.76,0,0,1,589,210a4,4,0,0,1,.23-1.38,3.15,3.15,0,0,1,.65-1.06,3,3,0,0,1,1-.69,3.38,3.38,0,0,1,1.3-.24,3.16,3.16,0,0,1,1.64.4,2.56,2.56,0,0,1,1,1.14,3.91,3.91,0,0,1,.37,1.77,1.34,1.34,0,0,1,0,.2v.14h-5.52v-1h4.63l-.45.65a1,1,0,0,0,.09-.22,1.41,1.41,0,0,0,0-.25,2.07,2.07,0,0,0-.23-1,1.76,1.76,0,0,0-.64-.66,1.85,1.85,0,0,0-1-.24,2.35,2.35,0,0,0-.86.15,1.8,1.8,0,0,0-.65.45,1.93,1.93,0,0,0-.41.73,3,3,0,0,0-.14,1,3.16,3.16,0,0,0,.24,1.29,1.74,1.74,0,0,0,.7.81,2.09,2.09,0,0,0,1.12.28,2.36,2.36,0,0,0,1.17-.28,2.48,2.48,0,0,0,.85-.88l.92.57A3.32,3.32,0,0,1,593.9,213a3.72,3.72,0,0,1-1.81.42A3,3,0,0,1,590.5,213Z" transform="translate(0 15.16)"/><path class="cls-35" d="M596.76,216.36v-9.55h1.12v9.55Zm6.09-4.53a3,3,0,0,1-1.16,1.17,3.24,3.24,0,0,1-1.61.41,2.5,2.5,0,0,1-1.1-.24,2.39,2.39,0,0,1-.86-.66,3.13,3.13,0,0,1-.55-1.06,5.11,5.11,0,0,1,0-2.83,3.13,3.13,0,0,1,.55-1.06,2.39,2.39,0,0,1,.86-.66,2.49,2.49,0,0,1,1.1-.23,3.23,3.23,0,0,1,1.61.4,3.08,3.08,0,0,1,1.16,1.16,3.9,3.9,0,0,1,0,3.6Zm-1-3.06a2.06,2.06,0,0,0-.8-.78,2.34,2.34,0,0,0-1.11-.27,2,2,0,0,0-.73.15,2.42,2.42,0,0,0-.66.45,2.09,2.09,0,0,0-.49.73,2.5,2.5,0,0,0-.18,1,2.57,2.57,0,0,0,.18,1,2.14,2.14,0,0,0,.49.72,2,2,0,0,0,.66.45,2,2,0,0,0,.73.15,2.45,2.45,0,0,0,1.11-.26,2.09,2.09,0,0,0,.8-.79,2.82,2.82,0,0,0,0-2.53Z" transform="translate(0 15.16)"/><path class="cls-35" d="M607.08,206.81v1.05h-3.23v-1.05ZM606,204.56v8.71H604.9v-8.71Z" transform="translate(0 15.16)"/><path class="cls-35" d="M612.29,208.29a3.34,3.34,0,0,1,1.2-1.19,3.38,3.38,0,0,1,1.7-.43,3.34,3.34,0,0,1,1.71.43,3.23,3.23,0,0,1,1.19,1.19,3.59,3.59,0,0,1,0,3.48,3.19,3.19,0,0,1-1.19,1.2,3.35,3.35,0,0,1-1.71.44,3.39,3.39,0,0,1-1.7-.44,3.29,3.29,0,0,1-1.2-1.2,3.66,3.66,0,0,1,0-3.48Zm1,2.94a2.12,2.12,0,0,0,.78.82,2.17,2.17,0,0,0,1.13.3,2.12,2.12,0,0,0,1.13-.3,2.08,2.08,0,0,0,.79-.82,2.44,2.44,0,0,0,.29-1.19,2.55,2.55,0,0,0-.29-1.21,2.08,2.08,0,0,0-.79-.82,2.21,2.21,0,0,0-1.13-.29,2.26,2.26,0,0,0-1.13.29,2.12,2.12,0,0,0-.78.82A2.43,2.43,0,0,0,613,210,2.33,2.33,0,0,0,613.28,211.23Z" transform="translate(0 15.16)"/><path class="cls-35" d="M622.82,206.81v1.05h-3.23v-1.05Zm-.44-3.45a1.27,1.27,0,0,0-.36-.07.56.56,0,0,0-.36.12.85.85,0,0,0-.23.4,2.56,2.56,0,0,0-.09.75v8.71h-1.12v-8.85a3.07,3.07,0,0,1,.23-1.27,1.58,1.58,0,0,1,.64-.73,1.86,1.86,0,0,1,1-.25,1.55,1.55,0,0,1,.55.09,1.32,1.32,0,0,1,.41.21,1.18,1.18,0,0,1,.28.26l-.62.93A.66.66,0,0,0,622.38,203.36Z" transform="translate(0 15.16)"/><path class="cls-35" d="M629.22,213a2.83,2.83,0,0,1-1.08-1.19,3.76,3.76,0,0,1-.39-1.75,4,4,0,0,1,.23-1.38,3.15,3.15,0,0,1,.65-1.06,3,3,0,0,1,1-.69,3.38,3.38,0,0,1,1.3-.24,3.16,3.16,0,0,1,1.64.4,2.56,2.56,0,0,1,1,1.14A3.91,3.91,0,0,1,634,210a1.34,1.34,0,0,1,0,.2v.14h-5.52v-1h4.63l-.45.65a1,1,0,0,0,.09-.22,1.41,1.41,0,0,0,0-.25,2.07,2.07,0,0,0-.23-1,1.76,1.76,0,0,0-.64-.66,1.87,1.87,0,0,0-1-.24,2.31,2.31,0,0,0-.86.15,1.93,1.93,0,0,0-.66.45,2.06,2.06,0,0,0-.4.73,3,3,0,0,0-.14,1,3.16,3.16,0,0,0,.24,1.29,1.74,1.74,0,0,0,.7.81,2.09,2.09,0,0,0,1.12.28,2.36,2.36,0,0,0,1.17-.28,2.48,2.48,0,0,0,.85-.88l.92.57a3.32,3.32,0,0,1-1.27,1.23,3.72,3.72,0,0,1-1.81.42A3,3,0,0,1,629.22,213Z" transform="translate(0 15.16)"/><path class="cls-35" d="M637.79,206.81v1.05h-3.23v-1.05Zm-1-2.25v8.71h-1.13v-8.71Z" transform="translate(0 15.16)"/><path class="cls-35" d="M639.82,213a3,3,0,0,1-1.08-1.19,3.76,3.76,0,0,1-.39-1.75,4,4,0,0,1,.23-1.38,3.17,3.17,0,0,1,.66-1.06,2.88,2.88,0,0,1,1-.69,3.42,3.42,0,0,1,1.3-.24,3.14,3.14,0,0,1,1.64.4,2.64,2.64,0,0,1,1,1.14,4.05,4.05,0,0,1,.36,1.77,1.34,1.34,0,0,1,0,.2v.14h-5.52v-1h4.63l-.45.65a1,1,0,0,0,.09-.22.85.85,0,0,0,0-.25,2.07,2.07,0,0,0-.23-1,1.76,1.76,0,0,0-.64-.66,1.85,1.85,0,0,0-1-.24,2.39,2.39,0,0,0-.86.15,1.89,1.89,0,0,0-.65.45,1.93,1.93,0,0,0-.41.73,3.33,3.33,0,0,0-.14,1,3.16,3.16,0,0,0,.24,1.29,1.74,1.74,0,0,0,.7.81,2.09,2.09,0,0,0,1.12.28,2.36,2.36,0,0,0,1.17-.28,2.5,2.5,0,0,0,.86-.88l.91.57a3.32,3.32,0,0,1-1.27,1.23,3.7,3.7,0,0,1-1.81.42A3,3,0,0,1,639.82,213Z" transform="translate(0 15.16)"/><path class="cls-35" d="M650.13,208.44a1.07,1.07,0,0,0-.46-.54,1.47,1.47,0,0,0-.76-.18,1.85,1.85,0,0,0-.86.2,1.51,1.51,0,0,0-.58.57,1.77,1.77,0,0,0-.2.84v3.94h-1.12v-6.46h1.12v1a2.08,2.08,0,0,1,.81-.87,2.13,2.13,0,0,1,1.11-.28,2.2,2.2,0,0,1,1.18.3,2.07,2.07,0,0,1,.77.88,3,3,0,0,1,.27,1.34v4.08h-1.12v-3.94A2.15,2.15,0,0,0,650.13,208.44Z" transform="translate(0 15.16)"/><path class="cls-35" d="M590.58,223.66v1.05h-3.23v-1.05Zm-1.05-2.25v8.71H588.4v-8.71Z" transform="translate(0 15.16)"/><path class="cls-35" d="M592.61,229.83a2.9,2.9,0,0,1-1.08-1.19,4.11,4.11,0,0,1-.15-3.13,3.09,3.09,0,0,1,.65-1.06,3.12,3.12,0,0,1,1-.69,3.42,3.42,0,0,1,1.3-.24,3.14,3.14,0,0,1,1.64.4,2.69,2.69,0,0,1,1,1.14,4.05,4.05,0,0,1,.36,1.77V227a.85.85,0,0,0,0,.13h-5.52v-1h4.63l-.45.65a1,1,0,0,0,.09-.22.85.85,0,0,0,0-.24,2.08,2.08,0,0,0-.23-1,1.76,1.76,0,0,0-.64-.66,1.85,1.85,0,0,0-1-.24,2.2,2.2,0,0,0-.86.16,1.65,1.65,0,0,0-.65.45,1.85,1.85,0,0,0-.41.73,3.26,3.26,0,0,0-.14,1,3.16,3.16,0,0,0,.24,1.29,1.77,1.77,0,0,0,.7.82,2.21,2.21,0,0,0,1.12.28,2.33,2.33,0,0,0,1.17-.29,2.42,2.42,0,0,0,.86-.88l.91.58a3.47,3.47,0,0,1-1.27,1.23,3.81,3.81,0,0,1-1.81.41A2.94,2.94,0,0,1,592.61,229.83Z" transform="translate(0 15.16)"/><path class="cls-35" d="M603,225.08a3,3,0,0,1,1.17-1.15,3.15,3.15,0,0,1,1.6-.41,2.64,2.64,0,0,1,1.1.23,2.34,2.34,0,0,1,.86.67,3.23,3.23,0,0,1,.56,1.06,4.67,4.67,0,0,1,.19,1.41,4.76,4.76,0,0,1-.19,1.41,3.23,3.23,0,0,1-.56,1.06,2.45,2.45,0,0,1-.86.67,2.64,2.64,0,0,1-1.1.23,3.26,3.26,0,0,1-1.6-.41,3,3,0,0,1-1.17-1.16,4,4,0,0,1,0-3.61Zm1,3.07a2,2,0,0,0,.81.79,2.26,2.26,0,0,0,1.09.27,1.92,1.92,0,0,0,.73-.16,2,2,0,0,0,.67-.45,2.16,2.16,0,0,0,.48-.72,2.4,2.4,0,0,0,.19-1,2.33,2.33,0,0,0-.19-1,2.07,2.07,0,0,0-.48-.72,2,2,0,0,0-.67-.45,1.75,1.75,0,0,0-.73-.16,2.26,2.26,0,0,0-1.09.27,2,2,0,0,0-.81.78,2.51,2.51,0,0,0-.3,1.27A2.45,2.45,0,0,0,604,228.15Zm5.09-9v11H608v-11Z" transform="translate(0 15.16)"/><path class="cls-35" d="M612.06,229.83a2.9,2.9,0,0,1-1.08-1.19,4.11,4.11,0,0,1-.15-3.13,3.09,3.09,0,0,1,.65-1.06,3.12,3.12,0,0,1,1-.69,3.43,3.43,0,0,1,1.31-.24,3.13,3.13,0,0,1,1.63.4,2.63,2.63,0,0,1,1.05,1.14,4.05,4.05,0,0,1,.36,1.77V227a.85.85,0,0,0,0,.13h-5.52v-1H616l-.45.65a2.32,2.32,0,0,0,.08-.22.85.85,0,0,0,0-.24,2,2,0,0,0-.23-1,1.69,1.69,0,0,0-.64-.66,1.84,1.84,0,0,0-1-.24,2.21,2.21,0,0,0-.87.16,1.65,1.65,0,0,0-.65.45,2,2,0,0,0-.41.73,3.26,3.26,0,0,0-.14,1,3.16,3.16,0,0,0,.24,1.29,1.77,1.77,0,0,0,.7.82,2.23,2.23,0,0,0,1.13.28,2.29,2.29,0,0,0,1.16-.29,2.42,2.42,0,0,0,.86-.88l.91.58a3.47,3.47,0,0,1-1.27,1.23,3.8,3.8,0,0,1-1.8.41A3,3,0,0,1,612.06,229.83Z" transform="translate(0 15.16)"/><path class="cls-35" d="M619.51,219.16v11h-1.12v-11Z" transform="translate(0 15.16)"/><path class="cls-35" d="M622.52,229.83a2.9,2.9,0,0,1-1.08-1.19,3.89,3.89,0,0,1-.38-1.75,3.77,3.77,0,0,1,.23-1.38,3.09,3.09,0,0,1,.65-1.06,3.12,3.12,0,0,1,1-.69,3.47,3.47,0,0,1,1.31-.24,3.16,3.16,0,0,1,1.64.4,2.67,2.67,0,0,1,1,1.14,4.05,4.05,0,0,1,.37,1.77c0,.07,0,.14,0,.21s0,.11,0,.13h-5.52v-1h4.64l-.45.65a1,1,0,0,0,.08-.22.93.93,0,0,0,.05-.24,2,2,0,0,0-.24-1,1.63,1.63,0,0,0-.64-.66,1.84,1.84,0,0,0-1-.24,2.13,2.13,0,0,0-.86.16,1.69,1.69,0,0,0-.66.45,1.84,1.84,0,0,0-.4.73,3,3,0,0,0-.15,1,3.16,3.16,0,0,0,.24,1.29,1.79,1.79,0,0,0,.71.82,2.16,2.16,0,0,0,1.12.28,2.29,2.29,0,0,0,1.16-.29,2.35,2.35,0,0,0,.86-.88l.91.58a3.4,3.4,0,0,1-1.27,1.23,3.8,3.8,0,0,1-1.8.41A3,3,0,0,1,622.52,229.83Z" transform="translate(0 15.16)"/><path class="cls-35" d="M632.84,225.29a1.22,1.22,0,0,0-.46-.54,1.5,1.5,0,0,0-.76-.18,1.75,1.75,0,0,0-.87.21,1.4,1.4,0,0,0-.57.56,1.7,1.7,0,0,0-.21.85v3.93h-1.12v-6.46H630v1a2.28,2.28,0,0,1,.81-.87,2.19,2.19,0,0,1,1.12-.28,2.14,2.14,0,0,1,1.18.31,2,2,0,0,1,.76.87,2.93,2.93,0,0,1,.28,1.35v4.07H633v-3.93A2.35,2.35,0,0,0,632.84,225.29Z" transform="translate(0 15.16)"/><path class="cls-36" d="M605.58,250.12a7.46,7.46,0,0,0-1.78,3.57,8.46,8.46,0,0,0,.17,4,6.55,6.55,0,0,0,4.23,4.52,7.5,7.5,0,0,0,1.88.34,8.57,8.57,0,0,0,6.39-2.19,9.08,9.08,0,0,0,2.88-6.17,8.28,8.28,0,0,0-8.34-8.76,7,7,0,0,0-5.39,2.41,9.78,9.78,0,0,0-2.35,4.68,8,8,0,0,0,.05,3.47,5.88,5.88,0,0,0,1.66,2.82,6.4,6.4,0,0,0,3.26,1.63,7.13,7.13,0,0,0,1.84.12,7.85,7.85,0,0,0,6.86-5.76,6.78,6.78,0,0,0-1.43-6.59,5.12,5.12,0,0,0-6.21-.56,7.8,7.8,0,0,0-3,3.18c-1,2-1.08,4.51.68,6.2a4.75,4.75,0,0,0,5.48.79,5.37,5.37,0,0,0,2.57-3.27,5,5,0,0,0-.81-4.47,5.51,5.51,0,0,0-4.32-2.09,6.27,6.27,0,0,0-3.49,1,5.84,5.84,0,0,0-2.56,3.48,5.23,5.23,0,0,0,1.57,4.93,6.31,6.31,0,0,0,4.16,1.68,6.2,6.2,0,0,0,5.59-4.53,4.52,4.52,0,0,0-2.05-5.07,3.78,3.78,0,0,0-5.13,1.35,3.83,3.83,0,0,0,1.35,5.13l.08.05-.76-.59a1,1,0,0,1,.17.18l-.58-.76a.83.83,0,0,1,.07.13l-.38-.89a.8.8,0,0,1,0,.15l-.13-1a1.93,1.93,0,0,1,0,.24l.13-1a1.93,1.93,0,0,1-.11.34l.38-.9a2.8,2.8,0,0,1-.32.52l.59-.76a3.94,3.94,0,0,1-.64.65l.76-.59a1.94,1.94,0,0,1-.43.27l.9-.38a1.3,1.3,0,0,1-.34.08l1-.13a2.36,2.36,0,0,1-.46,0l1,.14a3.7,3.7,0,0,1-.57-.16l.9.38a3.88,3.88,0,0,1-.52-.3l.76.59a2.59,2.59,0,0,1-.41-.4l.58.75a2,2,0,0,1-.22-.37l.38.89a1.49,1.49,0,0,1-.09-.3l.13,1a1.61,1.61,0,0,1,0-.31l-.14,1a2.81,2.81,0,0,1,.08-.31l-.37.89a2.4,2.4,0,0,1,.27-.46l-.59.76a3.59,3.59,0,0,1,.39-.39l-.76.58a3.65,3.65,0,0,1,.69-.4l-.89.38a3.57,3.57,0,0,1,.66-.18l-1,.13a2.62,2.62,0,0,1,.56,0l-1-.14a2.46,2.46,0,0,1,.53.15l-.9-.38a1.9,1.9,0,0,1,.39.23l-.76-.59a1.73,1.73,0,0,1,.24.23l-.59-.76a1.26,1.26,0,0,1,.13.23l-.38-.9a2.5,2.5,0,0,1,.07.26l-.13-1a2.41,2.41,0,0,1,0,.38l.14-1a2.19,2.19,0,0,1-.16.57l.38-.89a2.63,2.63,0,0,1-.2.33l.58-.75a2.11,2.11,0,0,1-.25.27l.76-.59a1.2,1.2,0,0,1-.31.18l.9-.38-.17,0,1-.14h-.26l1,.14-.19,0,.9.38-.28-.16.76.58a1.21,1.21,0,0,1-.16-.16l.58.76a1.74,1.74,0,0,1-.11-.18l.38.89a1.12,1.12,0,0,1-.08-.26l.14,1a1.48,1.48,0,0,1,0-.42l-.13,1a2.94,2.94,0,0,1,.16-.58l-.37.9a3.91,3.91,0,0,1,.54-.9l-.59.75a5.1,5.1,0,0,1,.77-.77l-.76.59a3.54,3.54,0,0,1,.67-.41l-.89.38a2.75,2.75,0,0,1,.49-.14l-1,.14h.29l-1-.14.27.07-.89-.38a1.32,1.32,0,0,1,.25.16l-.76-.59.19.18-.59-.76a2.22,2.22,0,0,1,.23.39l-.38-.89a3.48,3.48,0,0,1,.22.78l-.13-1a4.59,4.59,0,0,1,0,1l.13-1a4.71,4.71,0,0,1-.27,1.06l.37-.89a4.57,4.57,0,0,1-.61,1.05l.59-.75a5.6,5.6,0,0,1-.77.77l.76-.59a4.84,4.84,0,0,1-.93.55l.9-.38a4.77,4.77,0,0,1-.8.22l1-.13a3.93,3.93,0,0,1-.84,0l1,.14a3.93,3.93,0,0,1-.85-.22l.89.37a3,3,0,0,1-.68-.38l.76.59a2.34,2.34,0,0,1-.38-.39l.59.76a2.32,2.32,0,0,1-.27-.46l.38.9a3.46,3.46,0,0,1-.19-.7l.13,1a4.26,4.26,0,0,1,0-1.07l-.13,1a5.76,5.76,0,0,1,.42-1.51l-.38.9a6.47,6.47,0,0,1,.85-1.46l-.59.76a5.43,5.43,0,0,1,.82-.84l-.76.59a3.37,3.37,0,0,1,.68-.4l-.89.38a3,3,0,0,1,.78-.19l-1,.13a5,5,0,0,1,1.28,0l-1-.14a4.86,4.86,0,0,1,1.17.33l-.89-.38a4.83,4.83,0,0,1,1,.61l-.76-.59a5.32,5.32,0,0,1,.75.75l-.59-.76a5,5,0,0,1,.61,1l-.38-.9a4.53,4.53,0,0,1,.32,1.2l-.13-1a5.83,5.83,0,0,1,0,1.32l.13-1a5.62,5.62,0,0,1-.38,1.39l.38-.9a5.19,5.19,0,0,1-.64,1.09l.59-.76a5.64,5.64,0,0,1-.87.89l.75-.58a5.19,5.19,0,0,1-1.07.63l.9-.38a5.2,5.2,0,0,1-1.23.33l1-.13a6.13,6.13,0,0,1-1.42,0l1,.14a4.37,4.37,0,0,1-.86-.23l.9.37a1.92,1.92,0,0,1-.46-.27l.76.59a2.73,2.73,0,0,1-.48-.48l.59.76a4.25,4.25,0,0,1-.46-.8l.38.9a4.72,4.72,0,0,1-.3-1.16l.13,1a5.06,5.06,0,0,1,0-1.1l-.13,1a4.85,4.85,0,0,1,.27-1.06l-.38.9a4.15,4.15,0,0,1,.47-.82l-.59.76.09-.11a4,4,0,0,0,1.1-2.65,3.76,3.76,0,0,0-3.75-3.75,3.62,3.62,0,0,0-2.65,1.1Z" transform="translate(0 15.16)"/></g></g></g></svg>